<svg width="96" height="30" viewBox="0 0 96 30" fill="none" xmlns="http://www.w3.org/2000/svg">
<path fill-rule="evenodd" clip-rule="evenodd" d="M15 8C11.134 8 8 11.134 8 15C8 18.866 11.134 22 15 22C18.866 22 22 18.866 22 15C22 11.134 18.866 8 15 8ZM15 30C23.2843 30 30 23.2843 30 15C30 6.71573 23.2843 0 15 0C6.71573 0 0 6.71573 0 15C0 23.2843 6.71573 30 15 30Z" fill="#312E38"/>
<path d="M38.4 18.92H43.4V22H35.2V8H38.4V18.92ZM51.8717 12H54.8717V22H51.8717V21.06C51.1651 21.8733 50.1717 22.28 48.8917 22.28C47.5717 22.28 46.4451 21.7733 45.5117 20.76C44.5784 19.7333 44.1117 18.48 44.1117 17C44.1117 15.52 44.5784 14.2733 45.5117 13.26C46.4451 12.2333 47.5717 11.72 48.8917 11.72C50.1717 11.72 51.1651 12.1267 51.8717 12.94V12ZM47.7717 18.78C48.2117 19.22 48.7851 19.44 49.4917 19.44C50.1984 19.44 50.7717 19.22 51.2117 18.78C51.6517 18.34 51.8717 17.7467 51.8717 17C51.8717 16.2533 51.6517 15.66 51.2117 15.22C50.7717 14.78 50.1984 14.56 49.4917 14.56C48.7851 14.56 48.2117 14.78 47.7717 15.22C47.3317 15.66 47.1117 16.2533 47.1117 17C47.1117 17.7467 47.3317 18.34 47.7717 18.78ZM62.9327 11.72C63.9993 11.72 64.886 12.0867 65.5927 12.82C66.3127 13.5533 66.6727 14.5667 66.6727 15.86V22H63.6727V16.3C63.6727 15.7133 63.506 15.2667 63.1727 14.96C62.8527 14.64 62.4393 14.48 61.9327 14.48C61.3593 14.48 60.906 14.6533 60.5727 15C60.2393 15.3467 60.0727 15.86 60.0727 16.54V22H57.0727V12H60.0727V12.94C60.6727 12.1267 61.626 11.72 62.9327 11.72ZM75.9928 8H78.9928V22H75.9928V21.06C75.2861 21.8733 74.2928 22.28 73.0128 22.28C71.6928 22.28 70.5661 21.7733 69.6328 20.76C68.6995 19.7333 68.2328 18.48 68.2328 17C68.2328 15.52 68.6995 14.2733 69.6328 13.26C70.5661 12.2333 71.6928 11.72 73.0128 11.72C74.2928 11.72 75.2861 12.1267 75.9928 12.94V8ZM71.8928 18.78C72.3328 19.22 72.9061 19.44 73.6128 19.44C74.3195 19.44 74.8928 19.22 75.3328 18.78C75.7728 18.34 75.9928 17.7467 75.9928 17C75.9928 16.2533 75.7728 15.66 75.3328 15.22C74.8928 14.78 74.3195 14.56 73.6128 14.56C72.9061 14.56 72.3328 14.78 71.8928 15.22C71.4528 15.66 71.2328 16.2533 71.2328 17C71.2328 17.7467 71.4528 18.34 71.8928 18.78ZM83.9538 10.6C83.6071 10.9467 83.1871 11.12 82.6938 11.12C82.2004 11.12 81.7738 10.9467 81.4137 10.6C81.0671 10.24 80.8938 9.81333 80.8938 9.32C80.8938 8.82667 81.0671 8.40667 81.4137 8.06C81.7738 7.7 82.2004 7.52 82.6938 7.52C83.1871 7.52 83.6071 7.7 83.9538 8.06C84.3138 8.40667 84.4938 8.82667 84.4938 9.32C84.4938 9.81333 84.3138 10.24 83.9538 10.6ZM81.1938 22V12H84.1938V22H81.1938ZM91.1891 22.28C89.6691 22.28 88.4024 21.7733 87.3891 20.76C86.3891 19.7467 85.8891 18.4933 85.8891 17C85.8891 15.5067 86.3891 14.2533 87.3891 13.24C88.4024 12.2267 89.6691 11.72 91.1891 11.72C92.1491 11.72 93.0291 11.9533 93.8291 12.42C94.6424 12.8867 95.2691 13.5067 95.7091 14.28L93.0891 15.8C92.7291 15.0533 92.0824 14.68 91.1491 14.68C90.4957 14.68 89.9557 14.9 89.5291 15.34C89.1024 15.7667 88.8891 16.32 88.8891 17C88.8891 17.68 89.1024 18.24 89.5291 18.68C89.9557 19.1067 90.4957 19.32 91.1491 19.32C92.0957 19.32 92.7424 18.9467 93.0891 18.2L95.7091 19.7C95.2691 20.4867 94.6491 21.1133 93.8491 21.58C93.0491 22.0467 92.1624 22.28 91.1891 22.28Z" fill="#312E38"/>
</svg>
