<svg width="371" height="291" viewBox="0 0 371 291" fill="none" xmlns="http://www.w3.org/2000/svg">
<path d="M349.719 214.01C321.51 262.573 283.094 288.151 234.471 290.746C185.848 293.341 142.607 287.966 104.748 274.621C66.8891 261.275 36.639 235.696 13.9978 197.884C-8.64343 160.072 -3.81826 127.08 28.4733 98.906C60.7649 70.7324 91.015 47.7486 119.224 29.9547C147.432 12.1609 185.477 2.33715 233.358 0.483625C281.238 -1.3699 319.654 21.6139 348.605 69.4349C377.556 117.256 377.927 165.448 349.719 214.01Z" fill="#FFD400" fill-opacity="0.25"/>
<path d="M85.3418 116.995L191.252 49.9102L297.163 116.995V214.872H85.3418V116.995Z" fill="#E6E7E8"/>
<path d="M297.181 215.364H85.3598C85.2297 215.364 85.1049 215.312 85.0129 215.22C84.9209 215.128 84.8692 215.003 84.8692 214.872V116.994C84.8675 116.912 84.8874 116.83 84.927 116.758C84.9666 116.685 85.0245 116.624 85.0949 116.581L191.006 49.5362C191.084 49.4884 191.174 49.4631 191.265 49.4631C191.357 49.4631 191.447 49.4884 191.525 49.5362L297.475 116.63C297.547 116.673 297.606 116.733 297.647 116.806C297.689 116.878 297.711 116.96 297.711 117.044V214.921C297.698 215.05 297.636 215.169 297.537 215.252C297.437 215.335 297.31 215.375 297.181 215.364ZM85.8208 214.38H296.74V117.27L191.27 50.5197L85.8208 117.27V214.38Z" fill="#231F20"/>
<path d="M217.055 90.6466C220.577 84.8144 221.469 77.7234 221.146 70.9176C220.911 63.4716 218.953 56.1823 215.426 49.6248C213.994 46.8088 211.892 44.3901 209.305 42.583C206.126 40.616 203.958 41.9437 200.848 41.4126C198.219 40.9602 195.472 39.0817 192.559 38.5998C185.837 37.4478 178.93 38.8959 173.233 42.6518C163.266 49.4085 158.665 62.3218 148.364 68.5965C138.269 74.7139 125.349 72.8747 114.028 76.258C109.25 77.6937 104.797 80.0525 100.922 83.2015C98.2447 85.2564 96.0537 87.8793 94.5061 90.8826C91.8476 96.4492 92.5441 103.078 94.5061 108.95C96.4682 114.988 99.784 120.751 104.925 124.499C109.231 127.616 114.519 129.052 119.748 129.996C126.86 131.285 134.228 131.767 141.33 130.223C146.572 129.162 151.458 126.779 155.525 123.299C157.272 121.735 158.233 119.601 159.862 118.047C162.108 115.913 165.61 114.605 168.239 112.972C172.35 110.405 176.47 107.671 181.159 106.451C193.069 103.344 209.874 102.498 217.055 90.6466Z" fill="white"/>
<path d="M131.849 131.678C127.753 131.643 123.669 131.241 119.645 130.478C115.112 129.662 109.315 128.285 104.635 124.911C99.9557 121.538 96.3161 116.06 94.0598 109.175C92.4509 104.258 91.1167 97.0096 94.1284 90.7742C95.6891 87.6928 97.9223 85.0035 100.662 82.9062C104.58 79.7206 109.083 77.335 113.916 75.884C118.489 74.6729 123.161 73.8699 127.875 73.4843C135.194 72.6778 142.11 71.9107 148.133 68.2619C153.392 65.0753 157.227 60.0005 160.946 55.0928C164.467 50.4409 168.117 45.6316 172.983 42.3073C178.762 38.4811 185.773 36.9944 192.603 38.1471C194.165 38.4782 195.68 39.0001 197.116 39.7011C198.337 40.2736 199.616 40.7122 200.932 41.0091C201.926 41.1486 202.934 41.1717 203.934 41.078C205.883 40.7963 207.869 41.2105 209.545 42.2483C212.204 44.0814 214.363 46.5531 215.824 49.4377C219.397 56.0537 221.376 63.4166 221.602 70.937C221.984 79.0017 220.621 85.6895 217.442 90.9119C211.556 100.57 199.509 103.038 188.855 105.222C186.167 105.773 183.636 106.284 181.272 106.904C177.044 107.995 173.218 110.395 169.5 112.716L168.519 113.355C167.538 113.936 166.557 114.477 165.527 115.008C163.613 115.886 161.828 117.021 160.22 118.381C159.492 119.128 158.835 119.941 158.258 120.81C157.575 121.841 156.778 122.791 155.883 123.643C151.753 127.217 146.772 129.663 141.423 130.744C138.275 131.402 135.064 131.715 131.849 131.678ZM188.09 38.7176C182.897 38.6904 177.815 40.2177 173.493 43.104C168.735 46.32 165.144 51.0703 161.662 55.6633C157.895 60.6398 154 65.7933 148.595 69.0585C142.404 72.8155 135.066 73.6219 127.993 74.4087C123.335 74.7827 118.719 75.5727 114.2 76.7691C109.477 78.1956 105.078 80.5344 101.251 83.6536C98.6183 85.6598 96.4665 88.2304 94.9525 91.1774C92.1075 97.1374 93.373 104.11 94.9525 108.88C97.15 115.657 100.691 120.948 105.194 124.203C109.697 127.459 115.407 128.826 119.841 129.632C128.101 131.117 135.086 131.196 141.217 129.858C146.413 128.813 151.251 126.442 155.265 122.974C156.112 122.166 156.865 121.265 157.512 120.289C158.125 119.371 158.825 118.515 159.602 117.732C161.27 116.311 163.125 115.126 165.115 114.211C166.165 113.67 167.146 113.159 168.058 112.598L169.098 111.949C172.855 109.598 176.74 107.159 181.105 106.048C183.499 105.428 186.011 104.907 188.728 104.356C199.215 102.222 211.085 99.7929 216.736 90.4693L217.119 90.7053L216.736 90.4693C219.777 85.4338 221.131 78.8837 220.758 70.996C220.543 63.617 218.604 56.3915 215.098 49.8999C213.71 47.1447 211.66 44.7788 209.133 43.0155C207.608 42.0867 205.801 41.7376 204.042 42.032C202.972 42.1232 201.896 42.0935 200.834 41.9434C199.452 41.6405 198.11 41.1819 196.831 40.5764C195.468 39.9254 194.032 39.44 192.554 39.1306C191.08 38.8673 189.587 38.7291 188.09 38.7176Z" fill="#231F20"/>
<path d="M257.088 81.0083L251.928 100.482L264.357 102.704L271.44 76.6908C271.44 76.6908 260.394 68.213 258.687 68.154C256.98 68.095 257.088 81.0083 257.088 81.0083Z" fill="white"/>
<path d="M264.367 103.196H264.278L251.868 101.003C251.802 100.991 251.738 100.966 251.681 100.929C251.625 100.891 251.577 100.842 251.541 100.784C251.504 100.726 251.481 100.662 251.471 100.594C251.462 100.527 251.467 100.458 251.486 100.393L256.607 81.0081C256.607 78.9231 256.607 69.3635 258.059 67.9571C258.141 67.869 258.242 67.7997 258.354 67.7539C258.465 67.7081 258.586 67.6868 258.706 67.6916C260.462 67.7506 269.86 74.9006 271.734 76.3267C271.811 76.3869 271.869 76.4683 271.9 76.5609C271.931 76.6535 271.935 76.7533 271.911 76.8479L264.818 102.861C264.787 102.958 264.727 103.042 264.646 103.102C264.565 103.162 264.467 103.195 264.367 103.196ZM252.594 100.118L264.033 102.144L270.9 76.8775C265.593 72.8254 259.648 68.6751 258.706 68.6456C258.01 69.1668 257.578 75.5301 257.617 81.0377C257.623 81.0801 257.623 81.1231 257.617 81.1655L252.594 100.118Z" fill="#231F20"/>
<path d="M243.664 68.2719C243.664 68.2719 245.42 72.2059 247.951 72.8452C250.482 73.4845 255.986 70.7602 256.623 71.1142C257.261 71.4683 271.78 82.3654 273.193 82.69C274.605 83.0146 277.205 79.5821 278.314 75.5006C278.314 75.5006 264.187 65.8427 263.265 64.8198C262.343 63.797 261.244 57.6796 259.87 55.4373L243.664 68.2719Z" fill="white"/>
<path d="M273.336 83.2109C273.235 83.2205 273.133 83.2205 273.032 83.2109C272.149 82.9945 267.519 79.6998 259.818 74.0644C258.081 72.7858 256.57 71.6941 256.384 71.5761C256.198 71.4581 255.207 71.9302 254.422 72.2056C252.372 72.8842 249.566 73.8185 247.859 73.3661C245.132 72.6383 243.327 68.6748 243.248 68.5076C243.201 68.4098 243.189 68.2987 243.214 68.193C243.239 68.0873 243.3 67.9934 243.386 67.9273L259.563 55.1418C259.618 55.0995 259.681 55.0689 259.749 55.052C259.816 55.0351 259.886 55.0322 259.955 55.0435C260.091 55.0719 260.211 55.1532 260.288 55.2697C261.14 57.0186 261.798 58.8555 262.251 60.7478C262.545 62.0735 263 63.3582 263.604 64.5736C264.252 65.2916 272.904 71.3106 278.565 75.1856C278.65 75.2409 278.716 75.3226 278.751 75.4183C278.787 75.5141 278.79 75.6188 278.761 75.7166C277.751 79.2966 275.249 83.2109 273.336 83.2109ZM256.453 70.5926C256.592 70.5871 256.731 70.6176 256.855 70.6811C257.061 70.7893 258.091 71.5466 260.396 73.2284C264.32 76.0707 272.335 81.9717 273.258 82.2176C274.18 82.4634 276.515 79.749 277.702 75.7068C275.318 74.084 263.742 66.1374 262.859 65.144C262.358 64.5933 261.937 63.177 261.279 60.9347C260.861 59.3146 260.327 57.727 259.68 56.1844L244.268 68.4092C244.749 69.3337 246.231 71.881 248.065 72.3432C249.497 72.717 252.254 71.8023 254.069 71.2024C254.834 70.8957 255.635 70.6907 256.453 70.5926Z" fill="#231F20"/>
<path d="M259.105 59.1058C258.989 60.1456 259.184 61.1965 259.664 62.1252C260.459 63.5512 263.981 65.4494 263.981 65.4494L266.433 60.5319L261.626 57.0503L259.105 59.1058Z" fill="#231F20"/>
<path d="M263.977 65.9409C263.898 65.9414 263.82 65.921 263.751 65.8819C263.369 65.6852 260.073 63.8657 259.239 62.3609C258.706 61.3395 258.491 60.1818 258.621 59.0367C258.636 58.9175 258.695 58.8085 258.787 58.7318L261.309 56.6468C261.395 56.5782 261.502 56.5409 261.613 56.5409C261.723 56.5409 261.83 56.5782 261.917 56.6468L266.714 60.1284C266.807 60.1956 266.874 60.2934 266.903 60.4048C266.931 60.5162 266.92 60.6342 266.871 60.7382L264.419 65.6557C264.388 65.7143 264.347 65.7664 264.296 65.8086C264.246 65.8508 264.187 65.8824 264.124 65.9015C264.078 65.9244 264.028 65.9378 263.977 65.9409ZM259.572 59.3711C259.512 60.2423 259.692 61.1133 260.092 61.8889C260.602 62.8724 262.633 64.1214 263.771 64.7804L265.802 60.6693L261.642 57.65L259.572 59.3711Z" fill="#231F20"/>
<path d="M274.478 72.8942C274.478 72.8942 275.763 68.8323 273.497 68.5471C273.476 68.1896 273.364 67.8435 273.171 67.542C272.978 67.2406 272.712 66.994 272.396 66.826C272.081 66.658 271.727 66.5743 271.37 66.5829C271.013 66.5915 270.664 66.6922 270.357 66.8752C270.357 66.8752 269.631 63.8558 267.257 64.4656C264.883 65.0754 263 70.7698 263.333 72.2057C263.667 73.6416 265.511 72.7663 266.443 71.4189C266.443 71.4189 265.237 73.6613 266.041 74.2514C267.218 75.1169 268.454 73.5826 269.455 72.4614C269.455 72.4614 267.974 75.0874 270.151 75.3234C271.829 75.5103 273.389 72.1172 273.389 72.1172L274.478 72.8942Z" fill="white"/>
<path d="M270.239 75.8252H270.053C269.623 75.8252 269.21 75.6546 268.905 75.3505C268.6 75.0465 268.427 74.6338 268.424 74.2025C267.61 74.9204 266.668 75.3728 265.697 74.6549C265.487 74.4649 265.334 74.2194 265.256 73.9463C265.177 73.6733 265.178 73.3838 265.256 73.1108C264.832 73.3767 264.328 73.4846 263.833 73.4157C263.57 73.3632 263.329 73.23 263.145 73.0344C262.96 72.8388 262.841 72.5906 262.803 72.324C262.44 70.6619 264.392 64.7019 267.1 64.0036C267.436 63.9029 267.789 63.8737 268.137 63.9177C268.485 63.9618 268.82 64.0781 269.121 64.2593C269.818 64.7394 270.347 65.4277 270.632 66.2263C270.949 66.1104 271.287 66.0611 271.625 66.0814C271.962 66.1017 272.292 66.1912 272.594 66.3443C273.224 66.7552 273.673 67.3921 273.849 68.1244C274.276 68.2483 274.643 68.5248 274.88 68.9014C275.753 70.2685 274.997 72.7567 274.88 73.0419C274.859 73.1155 274.82 73.1828 274.767 73.2377C274.714 73.2926 274.648 73.3335 274.575 73.3567C274.502 73.3817 274.424 73.3894 274.348 73.3791C274.271 73.3689 274.198 73.341 274.134 73.2976L273.467 72.8354C272.996 73.8386 271.74 75.8252 270.239 75.8252ZM269.405 71.9699C269.512 71.9676 269.616 72.0024 269.7 72.0683C269.795 72.1408 269.861 72.2451 269.887 72.3624C269.912 72.4797 269.894 72.6021 269.837 72.7075C269.621 73.0911 269.249 74.0353 269.484 74.4975C269.484 74.5664 269.621 74.7827 270.161 74.8417C271.142 74.9499 272.437 72.8747 272.898 71.8912C272.928 71.8272 272.972 71.7705 273.026 71.7247C273.081 71.6789 273.144 71.6452 273.212 71.6257C273.281 71.6046 273.354 71.5999 273.426 71.6118C273.497 71.6238 273.565 71.6521 273.624 71.6945L274.173 72.0781C274.438 71.2042 274.407 70.2672 274.085 69.4128C274.009 69.3 273.909 69.206 273.792 69.1378C273.674 69.0697 273.543 69.0292 273.408 69.0194C273.302 69.0037 273.203 68.9541 273.127 68.8779C273.051 68.8017 273.002 68.7031 272.986 68.5965C272.901 68.0345 272.598 67.5289 272.143 67.1901C271.881 67.0855 271.6 67.0417 271.32 67.0621C271.039 67.0826 270.767 67.1667 270.524 67.3081C270.459 67.3375 270.389 67.3526 270.318 67.3526C270.247 67.3526 270.177 67.3375 270.112 67.3081C270.047 67.2759 269.99 67.2303 269.945 67.1743C269.899 67.1184 269.866 67.0534 269.847 66.9836C269.661 66.2261 269.226 65.5538 268.611 65.0756C268.421 64.9664 268.21 64.8979 267.992 64.8742C267.775 64.8505 267.554 64.8722 267.345 64.9379C265.256 65.469 263.5 70.8389 263.765 72.0879C263.833 72.3928 263.961 72.4223 264.03 72.4322C264.434 72.3771 264.821 72.2308 265.16 72.0042C265.5 71.7777 265.784 71.4767 265.992 71.1241C266.063 71.0217 266.171 70.9504 266.293 70.9248C266.415 70.8993 266.542 70.9213 266.649 70.9864C266.753 71.0534 266.829 71.157 266.862 71.2769C266.894 71.3968 266.881 71.5246 266.825 71.6355C266.325 72.619 266.05 73.6812 266.276 73.8484C266.963 74.35 267.777 73.5435 268.836 72.3633L269.042 72.1273C269.089 72.0777 269.145 72.0382 269.208 72.0111C269.27 71.9841 269.337 71.97 269.405 71.9699Z" fill="#231F20"/>
<path d="M263.998 60.709C263.998 60.709 262.654 58.3683 261.242 60.4238C259.829 62.4793 258.132 66.3248 260.486 66.7379C262.841 67.1509 264.607 62.7449 263.998 60.709Z" fill="white"/>
<path d="M260.784 67.2391C260.657 67.2488 260.529 67.2488 260.401 67.2391C260.094 67.2019 259.801 67.0842 259.553 66.8977C259.305 66.7113 259.11 66.4627 258.989 66.1769C258.302 64.5344 259.823 61.6135 260.833 60.1579C261.001 59.8476 261.247 59.5866 261.546 59.4003C261.846 59.2141 262.188 59.1091 262.54 59.0957C263.619 59.1449 264.335 60.3447 264.414 60.4726L264.463 60.5808C264.625 61.5622 264.573 62.5671 264.31 63.5263C264.048 64.4856 263.581 65.3764 262.942 66.1375C262.681 66.4641 262.353 66.7313 261.981 66.9212C261.609 67.1111 261.201 67.2195 260.784 67.2391ZM262.471 60.0497C262.148 60.0497 261.834 60.3939 261.637 60.6791C260.45 62.4003 259.479 64.7705 259.891 65.7638C259.949 65.8957 260.042 66.0092 260.16 66.0923C260.277 66.1755 260.415 66.2251 260.558 66.2359C260.876 66.2557 261.194 66.1949 261.482 66.0591C261.77 65.9233 262.019 65.7169 262.206 65.4589C262.729 64.8289 263.116 64.0975 263.344 63.3107C263.572 62.5238 263.635 61.6983 263.531 60.8857C263.374 60.63 262.932 60.0694 262.491 60.0497H262.471Z" fill="#231F20"/>
<path d="M257.071 82.3259C257.071 82.3259 255.521 74.9005 255.374 73.5728C255.129 71.3205 255.659 67.7996 257.63 67.2489C259.602 66.6981 264.115 66.1768 263.369 68.1635C262.693 69.9731 258.739 70.3174 258.739 70.3174C258.739 70.3174 261.466 73.0712 261.054 75.8151" fill="white"/>
<path d="M257.08 82.8176C256.969 82.8181 256.86 82.7803 256.773 82.7106C256.685 82.6408 256.624 82.5432 256.6 82.434C256.541 82.1291 255.05 74.9594 254.902 73.5825C254.647 71.2811 255.138 67.3963 257.512 66.698C258.748 66.3538 262.525 65.6457 263.634 66.8554C263.801 67.0422 263.91 67.2742 263.946 67.5226C263.983 67.7709 263.946 68.0246 263.84 68.2519C263.28 69.7665 261.024 70.3665 259.719 70.6025C260.543 71.645 261.868 73.7005 261.544 75.8052C261.534 75.8698 261.512 75.9318 261.478 75.9878C261.445 76.0437 261.401 76.0925 261.348 76.1313C261.296 76.1701 261.236 76.1982 261.173 76.214C261.11 76.2298 261.044 76.2329 260.98 76.2232C260.915 76.2135 260.854 76.1912 260.798 76.1575C260.742 76.1239 260.693 76.0795 260.655 76.027C260.616 75.9745 260.588 75.9149 260.572 75.8515C260.556 75.7881 260.553 75.7223 260.563 75.6577C260.936 73.1891 258.415 70.6025 258.395 70.5828C258.329 70.5153 258.283 70.4308 258.263 70.3388C258.242 70.2469 258.247 70.1509 258.277 70.0616C258.31 69.9744 258.368 69.8985 258.442 69.8428C258.517 69.787 258.606 69.7538 258.699 69.7469C259.68 69.6583 262.446 69.1568 262.908 67.9077C263.015 67.6422 262.908 67.5635 262.908 67.5241C262.388 66.9439 259.67 67.1209 257.767 67.6422C256.168 68.0847 255.638 71.291 255.874 73.435C256.021 74.7234 257.551 82.0799 257.561 82.1488C257.575 82.2122 257.577 82.2778 257.565 82.3417C257.553 82.4056 257.529 82.4665 257.493 82.5207C257.457 82.5749 257.411 82.6213 257.357 82.6571C257.303 82.6929 257.242 82.7174 257.178 82.729L257.08 82.8176Z" fill="#231F20"/>
<path d="M286.057 54.1682C286.057 54.1682 269.713 52.5454 263.042 56.4204C261.366 57.4239 259.76 58.5411 258.236 59.7643C254.616 62.6066 251.211 65.8325 248.563 67.6323C243.304 71.1729 238.223 71.8908 234.76 66.2554C231.817 61.4461 233.533 59.1644 237.516 54.8861C239.478 52.7716 243.638 49.2802 247.219 45.415C249.335 43.2663 251.121 40.8134 252.516 38.1371C255.538 31.7641 254.684 21.9979 254.684 21.9979L286.057 54.1682Z" fill="white"/>
<path d="M241.211 70.8679C240.683 70.8729 240.156 70.8167 239.641 70.7007C238.519 70.4109 237.468 69.8907 236.556 69.1729C235.644 68.4551 234.891 67.5554 234.344 66.5307C231.175 61.3772 233.127 58.8889 237.15 54.5615C237.993 53.6567 239.21 52.5158 240.622 51.2078C242.584 49.3785 244.792 47.2738 246.862 45.0904C248.946 42.9823 250.702 40.572 252.071 37.9404C255.014 31.7443 254.2 22.1061 254.19 22.0077C254.182 21.9065 254.205 21.8053 254.256 21.7175C254.307 21.6297 254.383 21.5594 254.474 21.516C254.567 21.4719 254.671 21.4586 254.772 21.4781C254.872 21.4976 254.964 21.5487 255.034 21.6241L286.426 53.8239C286.495 53.8959 286.54 53.9872 286.556 54.0855C286.571 54.1839 286.557 54.2847 286.514 54.3746C286.471 54.4664 286.401 54.5427 286.313 54.5936C286.226 54.6446 286.125 54.6677 286.024 54.6599C285.857 54.6599 269.759 53.0961 263.304 56.8629C261.647 57.8539 260.061 58.958 258.555 60.1674C257.074 61.3378 255.612 62.5574 254.249 63.7277C252.526 65.2563 250.725 66.6941 248.853 68.0354C246.008 69.9238 243.458 70.8679 241.211 70.8679ZM255.249 23.2469C255.367 26.1974 255.357 33.2589 252.964 38.3633C251.544 41.0829 249.729 43.5755 247.578 45.7592C245.488 48.0114 243.261 50.0866 241.29 51.9257C239.896 53.224 238.68 54.355 237.866 55.2303C233.942 59.4102 232.372 61.4558 235.178 66.0488C235.659 66.9594 236.322 67.7612 237.125 68.4041C237.928 69.047 238.855 69.5174 239.847 69.7861C242.182 70.2975 245.017 69.4418 248.284 67.2486C250.127 65.9352 251.899 64.5235 253.591 63.0196C254.994 61.8394 256.436 60.61 257.928 59.4397C259.483 58.1973 261.122 57.0636 262.833 56.0466C268.513 52.7322 280.756 53.3026 284.817 53.6075L255.249 23.2469Z" fill="#231F20"/>
<path d="M259.099 59.1058C255.479 61.9481 251.104 65.7149 248.553 67.6229C242.726 71.9896 239.037 72.4518 235.231 67.0524C231.307 61.5055 233.524 59.1844 237.507 54.8964C239.469 52.7819 243.629 49.2904 247.209 45.4253C247.209 45.4253 247.435 49.4478 251.428 54.3555C253.388 56.7489 256.087 58.4202 259.099 59.1058Z" fill="#231F20"/>
<path d="M241.174 71.4878C240.872 71.4901 240.57 71.4671 240.271 71.4189C238.309 71.1141 236.583 69.8158 234.837 67.3374C230.707 61.4856 233.12 58.899 237.103 54.611C237.996 53.6275 239.212 52.5161 240.625 51.208C242.587 49.3787 244.794 47.2741 246.864 45.0907C246.927 45.019 247.011 44.9683 247.104 44.9455C247.197 44.9226 247.294 44.9287 247.384 44.9628C247.474 44.9953 247.553 45.0537 247.61 45.1306C247.668 45.2075 247.702 45.2996 247.708 45.3956C247.708 45.3956 247.992 49.3296 251.818 54.0405C253.709 56.3385 256.301 57.949 259.195 58.6236C259.288 58.642 259.374 58.6857 259.443 58.7499C259.512 58.8142 259.562 58.8964 259.588 58.9875C259.607 59.0808 259.6 59.1775 259.569 59.2675C259.538 59.3574 259.484 59.4374 259.411 59.4989C257.743 60.807 255.929 62.3019 254.163 63.7477C252.142 65.4098 250.239 66.9834 248.855 68.016C245.726 70.3863 243.273 71.4878 241.174 71.4878ZM246.884 46.4971C245.01 48.4641 243.048 50.2934 241.292 51.926C239.899 53.2242 238.682 54.3552 237.868 55.2306C233.944 59.4694 231.982 61.5643 235.641 66.767C237.22 69.0094 238.741 70.1797 240.419 70.4453C242.449 70.76 244.863 69.7765 248.267 67.2292C249.63 66.2457 251.534 64.6426 253.545 62.9904C255.036 61.761 256.566 60.5021 258.018 59.3416C255.289 58.4987 252.867 56.8708 251.053 54.6601C249.041 52.3065 247.612 49.5094 246.884 46.4971Z" fill="#231F20"/>
<path d="M290.579 52.7816C286.92 56.0763 278.807 53.3324 270.91 46.6347C268.886 44.9215 266.985 43.068 265.22 41.0878C263.485 39.1444 261.886 37.0841 260.433 34.9213C254.546 26.2468 252.712 17.8477 256.401 14.5333C260.952 10.4321 272.313 15.6644 281.76 26.2271C291.207 36.7899 295.151 48.6706 290.579 52.7816Z" fill="#FFD400"/>
<path d="M260.507 13.1465C266.069 13.1465 274.467 18.123 281.726 26.2369C291.183 36.7997 295.147 48.6803 290.556 52.7914C289.399 53.7606 287.921 54.2591 286.416 54.1879C282.266 54.1879 276.547 51.4243 270.886 46.6445C268.862 44.9313 266.961 43.0777 265.196 41.0976C263.468 39.1504 261.875 37.0868 260.429 34.9212C254.542 26.2467 252.708 17.8476 256.397 14.5333C257.547 13.5754 259.013 13.0811 260.507 13.1465ZM260.507 12.163C258.757 12.0878 257.044 12.6779 255.71 13.8153C251.717 17.4051 253.277 26.109 259.585 35.4523C262.585 39.8937 266.169 43.9097 270.239 47.392C276.125 52.3094 282.011 55.1616 286.396 55.1616C288.164 55.2361 289.894 54.631 291.232 53.47C293.754 51.2079 294.175 46.9789 292.341 41.5696C290.134 35.6228 286.776 30.1716 282.462 25.5288C275.144 17.4247 266.55 12.163 260.507 12.163Z" fill="#231F20"/>
<path d="M277.431 38.4521L270.907 46.6348C268.883 44.9216 266.982 43.0681 265.217 41.0879C263.483 39.1445 261.883 37.0842 260.43 34.9214L269.867 29.1089L277.431 38.4521Z" fill="white"/>
<path d="M277.444 38.4659C278.637 37.4833 277.899 34.6044 275.794 32.0357C273.689 29.467 271.016 28.1811 269.823 29.1637C268.629 30.1463 269.368 33.0252 271.473 35.594C273.578 38.1627 276.251 39.4485 277.444 38.4659Z" fill="#231F20"/>
<path d="M276.434 39.2587C274.893 39.2587 272.814 38.0096 271.077 35.8853C270.088 34.7195 269.353 33.3595 268.919 31.8923C268.556 30.476 268.762 29.3647 269.498 28.7648C270.234 28.1648 271.352 28.1747 272.667 28.7648C274.016 29.4878 275.196 30.4902 276.13 31.7054C278.445 34.5281 279.141 37.6556 277.719 38.8358C277.35 39.117 276.897 39.266 276.434 39.2587ZM270.832 29.3057C270.575 29.2916 270.322 29.3682 270.116 29.522C269.704 29.8663 269.616 30.6432 269.871 31.6464C270.263 32.9782 270.931 34.2116 271.833 35.2657C273.893 37.7834 276.267 38.7669 277.111 38.0687C277.954 37.3704 277.454 34.8428 275.394 32.325C274.527 31.2326 273.44 30.3346 272.206 29.6892C271.78 29.4665 271.312 29.3358 270.832 29.3057Z" fill="#231F20"/>
<path d="M269.409 72.9527C269.322 72.9533 269.237 72.9294 269.163 72.8838C269.107 72.8523 269.058 72.8097 269.019 72.7587C268.979 72.7077 268.95 72.6493 268.934 72.587C268.918 72.5246 268.914 72.4596 268.923 72.3957C268.932 72.3319 268.954 72.2705 268.987 72.2152C269.596 71.2148 270.35 70.3103 271.223 69.5309C271.27 69.4806 271.328 69.4409 271.392 69.4144C271.456 69.3879 271.524 69.3753 271.593 69.3773C271.662 69.3793 271.73 69.3959 271.793 69.426C271.855 69.4561 271.91 69.4991 271.954 69.552C271.999 69.605 272.032 69.6668 272.051 69.7334C272.07 69.8 272.075 69.8698 272.065 69.9384C272.055 70.0069 272.031 70.0727 271.994 70.1312C271.957 70.1898 271.908 70.2398 271.851 70.2782C271.089 70.9973 270.429 71.8178 269.889 72.7167C269.84 72.7976 269.768 72.8628 269.683 72.9045C269.598 72.9463 269.503 72.963 269.409 72.9527Z" fill="#231F20"/>
<path d="M266.403 71.91H266.324C266.261 71.8971 266.201 71.8718 266.148 71.8357C266.094 71.7995 266.048 71.7532 266.013 71.6993C265.977 71.6455 265.953 71.5851 265.941 71.5217C265.928 71.4583 265.929 71.3931 265.942 71.3298C266.296 69.9265 267.124 68.6896 268.286 67.8294C268.39 67.7512 268.52 67.7176 268.649 67.736C268.778 67.7545 268.894 67.8234 268.972 67.9277C269.05 68.032 269.084 68.1632 269.065 68.2922C269.047 68.4213 268.978 68.5378 268.874 68.616C267.913 69.3341 267.222 70.3561 266.913 71.5167C266.887 71.6319 266.822 71.7345 266.729 71.8064C266.636 71.8784 266.52 71.915 266.403 71.91Z" fill="#231F20"/>
<path d="M273.339 72.6087C273.24 72.6094 273.144 72.5784 273.064 72.5202C273.011 72.4829 272.966 72.4355 272.932 72.3807C272.897 72.3258 272.873 72.2646 272.863 72.2006C272.852 72.1366 272.853 72.0711 272.868 72.0078C272.882 71.9445 272.909 71.8847 272.947 71.8319L273.614 70.8486C273.692 70.7454 273.806 70.6757 273.934 70.6538C274.061 70.6319 274.192 70.6594 274.3 70.7306C274.405 70.8075 274.476 70.9224 274.498 71.0509C274.52 71.1794 274.491 71.3114 274.418 71.4189L273.741 72.4022C273.697 72.4677 273.637 72.5209 273.566 72.557C273.496 72.593 273.418 72.6108 273.339 72.6087Z" fill="#231F20"/>
<path d="M242.39 70.4949C242.284 70.4956 242.18 70.461 242.096 70.3965C237.76 67.092 235.072 63.0793 234.542 59.106V58.9978C234.511 58.8936 234.515 58.782 234.554 58.6806C234.593 58.5792 234.665 58.4936 234.758 58.4372C234.812 58.4015 234.873 58.3772 234.937 58.3658C235.001 58.3544 235.066 58.3562 235.13 58.3709C235.193 58.3856 235.253 58.413 235.305 58.4514C235.357 58.4899 235.401 58.5386 235.435 58.5946C235.493 58.7144 235.526 58.8449 235.533 58.9781C236.033 62.6957 238.574 66.4724 242.714 69.6097C242.797 69.6722 242.858 69.7594 242.888 69.8589C242.919 69.9584 242.917 70.065 242.883 70.1634C242.849 70.2618 242.785 70.3469 242.7 70.4065C242.615 70.466 242.513 70.497 242.41 70.4949H242.39Z" fill="white"/>
<path d="M239.953 54.7976C239.885 54.7967 239.819 54.7813 239.758 54.7525C239.697 54.7236 239.643 54.682 239.599 54.6304C239.554 54.5856 239.517 54.532 239.493 54.4729C239.468 54.4138 239.455 54.3503 239.455 54.2862C239.455 54.2221 239.468 54.1586 239.493 54.0995C239.517 54.0404 239.554 53.9869 239.599 53.942L244.877 49.0245C244.921 48.9775 244.974 48.94 245.034 48.9143C245.093 48.8887 245.156 48.8755 245.221 48.8755C245.285 48.8755 245.349 48.8887 245.408 48.9143C245.467 48.94 245.52 48.9775 245.564 49.0245C245.61 49.0694 245.646 49.1229 245.671 49.182C245.695 49.2412 245.708 49.3046 245.708 49.3687C245.708 49.4328 245.695 49.4963 245.671 49.5554C245.646 49.6145 245.61 49.6681 245.564 49.713L240.286 54.6304C240.245 54.6796 240.194 54.7198 240.137 54.7486C240.079 54.7773 240.017 54.794 239.953 54.7976Z" fill="white"/>
<path d="M240.688 55.978C240.551 55.9745 240.421 55.9181 240.325 55.8207C240.234 55.7271 240.184 55.6019 240.184 55.4715C240.184 55.3412 240.234 55.216 240.325 55.1224L245.603 50.2049C245.694 50.1148 245.818 50.0643 245.946 50.0643C246.074 50.0643 246.198 50.1148 246.289 50.2049C246.335 50.2506 246.372 50.305 246.397 50.3649C246.422 50.4249 246.434 50.4891 246.434 50.554C246.434 50.619 246.422 50.6832 246.397 50.7432C246.372 50.8031 246.335 50.8575 246.289 50.9032L241.021 55.8207C240.933 55.9122 240.814 55.9682 240.688 55.978Z" fill="white"/>
<path d="M241.517 57.3354C241.45 57.337 241.384 57.3238 241.323 57.2966C241.262 57.2693 241.207 57.2289 241.164 57.1781C241.118 57.1332 241.082 57.0796 241.057 57.0205C241.032 56.9614 241.02 56.8979 241.02 56.8338C241.02 56.7697 241.032 56.7063 241.057 56.6471C241.082 56.588 241.118 56.5345 241.164 56.4896L246.442 51.5721C246.486 51.5251 246.539 51.4876 246.598 51.4619C246.657 51.4363 246.721 51.4231 246.785 51.4231C246.849 51.4231 246.913 51.4363 246.972 51.4619C247.031 51.4876 247.084 51.5251 247.128 51.5721C247.174 51.617 247.21 51.6705 247.235 51.7297C247.26 51.7888 247.273 51.8522 247.273 51.9163C247.273 51.9805 247.26 52.0439 247.235 52.103C247.21 52.1621 247.174 52.2157 247.128 52.2606L241.851 57.1781C241.809 57.2259 241.758 57.2645 241.7 57.2916C241.643 57.3187 241.58 57.3336 241.517 57.3354Z" fill="white"/>
<path d="M154.214 133.193L151.752 187.698C151.752 187.698 185.352 188.102 204.678 180.007C206.262 174.812 208.175 169.724 210.407 164.773C213.242 159.029 225.417 150.562 221.591 128.57C221.591 128.57 250.276 146.765 258.359 138.405C266.443 130.046 270.484 91.0008 270.484 91.0008L253.689 85.5916L246.057 109.668C246.057 109.668 197.654 86.1915 186.372 83.2213C182.183 82.1198 169.165 89.0633 154.244 98.6721" fill="#FFD400"/>
<path d="M185.326 99.5673C185.326 99.5673 193.106 123.801 194.44 134.059C195.774 144.316 195.97 161.272 195.97 161.272C195.97 161.272 208.282 123.466 206.761 100.118L185.326 99.5673Z" fill="#231F20"/>
<path d="M195.973 161.715H195.914C195.812 161.7 195.718 161.65 195.65 161.572C195.581 161.495 195.543 161.395 195.542 161.292C195.542 161.124 195.326 144.238 194.011 134.127C192.697 124.017 184.996 99.9508 184.917 99.705C184.897 99.6389 184.893 99.5691 184.905 99.5012C184.917 99.4332 184.944 99.3689 184.985 99.3135C185.026 99.2581 185.08 99.2131 185.141 99.182C185.202 99.1509 185.27 99.1346 185.339 99.1345L206.764 99.6853C206.873 99.6852 206.977 99.727 207.056 99.8021C207.135 99.8772 207.181 99.9798 207.186 100.089C208.707 123.25 196.513 161.065 196.395 161.41C196.367 161.5 196.311 161.578 196.235 161.633C196.159 161.688 196.067 161.717 195.973 161.715ZM185.928 100.02C187.115 103.777 193.668 124.706 194.875 134C195.856 141.73 196.238 153.384 196.356 158.587C199.034 149.736 207.49 120.063 206.352 100.561L185.928 100.02Z" fill="#231F20"/>
<path d="M146.144 216.633H238.86L204.711 180.008L151.785 187.699C151.785 187.699 145.447 202.078 146.046 212.168C146.085 213.358 146.114 214.883 146.144 216.633Z" fill="#231F20"/>
<path d="M238.848 217.126H146.132C146.068 217.127 146.004 217.116 145.945 217.092C145.885 217.068 145.831 217.033 145.786 216.988C145.74 216.943 145.704 216.89 145.679 216.831C145.654 216.772 145.641 216.708 145.641 216.644C145.641 214.992 145.583 213.408 145.514 212.199C144.915 202.098 151.027 188.093 151.292 187.493C151.327 187.419 151.379 187.355 151.444 187.305C151.509 187.255 151.584 187.222 151.665 187.208L204.64 179.517C204.719 179.507 204.799 179.517 204.874 179.544C204.949 179.571 205.017 179.616 205.071 179.674L239.221 216.3C239.286 216.37 239.329 216.458 239.345 216.553C239.361 216.647 239.349 216.745 239.31 216.832C239.271 216.92 239.208 216.995 239.128 217.047C239.047 217.099 238.953 217.127 238.858 217.126H238.848ZM146.632 216.142H237.71L204.512 180.53L152.106 188.142C151.272 190.109 145.965 203.003 146.515 212.14C146.564 213.251 146.632 214.657 146.632 216.142Z" fill="#231F20"/>
<path d="M204.096 86.5355L206.755 100.118C206.755 100.118 206.823 107.986 198.132 107.228C195.564 106.987 193.082 106.173 190.867 104.848C188.652 103.523 186.76 101.718 185.329 99.5668L181.807 75.8449C182.111 71.5255 181.76 67.185 180.768 62.9709C190.764 60.8957 197.219 51.818 197.219 51.818C197.219 51.818 201.644 56.3421 203.449 57.719C204.901 58.7165 206.22 59.8964 207.373 61.2301C209.266 63.5806 209.825 66.8655 210.316 69.7668C210.933 73.2105 211.238 76.703 211.228 80.2018C211.071 86.8404 204.096 86.5355 204.096 86.5355Z" fill="white"/>
<path d="M199.248 107.73C198.875 107.73 198.483 107.73 198.081 107.73C195.441 107.491 192.889 106.66 190.613 105.298C188.337 103.936 186.397 102.078 184.935 99.8618C184.907 99.8095 184.887 99.7531 184.876 99.6946C184.876 99.6946 181.364 76.0907 181.354 75.9726C181.315 75.5769 181.315 75.1783 181.354 74.7826C181.582 70.8644 181.231 66.934 180.314 63.1183C180.299 63.0616 180.297 63.0024 180.307 62.9446C180.317 62.8869 180.34 62.832 180.373 62.7839C180.405 62.734 180.447 62.6909 180.496 62.6572C180.545 62.6234 180.6 62.5997 180.658 62.5872C190.36 60.6202 196.766 51.6999 196.825 51.6114C196.864 51.5581 196.914 51.5139 196.971 51.4817C197.029 51.4494 197.093 51.4299 197.158 51.4245C197.224 51.4183 197.29 51.4275 197.351 51.4514C197.413 51.4753 197.467 51.5132 197.512 51.5622C197.561 51.5622 201.936 56.0765 203.702 57.4042C205.155 58.4271 206.473 59.6299 207.626 60.9841C209.588 63.4625 210.186 66.8851 210.657 69.7274C211.281 73.1967 211.59 76.7157 211.579 80.241C211.605 81.1399 211.444 82.0343 211.106 82.8674C210.768 83.7004 210.261 84.4539 209.617 85.0798C208.197 86.292 206.409 86.9854 204.545 87.0468L207.106 100.098C207.094 102.265 206.234 104.342 204.712 105.881C203.191 107.17 201.237 107.831 199.248 107.73ZM185.749 99.4094C187.154 101.474 188.993 103.204 191.138 104.478C193.282 105.753 195.678 106.54 198.159 106.786C200.749 107.002 202.77 106.461 204.173 105.163C205.488 103.809 206.245 102.007 206.292 100.118L203.643 86.6239C203.632 86.5567 203.635 86.4878 203.652 86.4218C203.669 86.3558 203.699 86.294 203.741 86.2404C203.784 86.1864 203.84 86.1438 203.903 86.1164C203.966 86.089 204.035 86.0775 204.104 86.083C205.916 86.1183 207.682 85.5084 209.088 84.3619C209.631 83.8124 210.057 83.1573 210.339 82.4368C210.62 81.7163 210.752 80.9456 210.726 80.1722C210.735 76.6995 210.429 73.2332 209.813 69.8159C209.333 66.9933 208.832 63.7773 206.969 61.4955C205.851 60.1969 204.576 59.0438 203.172 58.0631C201.642 56.9124 198.355 53.6275 197.286 52.5064C195.883 54.3258 190.007 61.3578 181.325 63.3248C182.202 67.0766 182.532 70.9359 182.306 74.7826C182.279 75.1099 182.279 75.4388 182.306 75.7661C182.306 75.7661 182.267 76.012 185.749 99.4094Z" fill="#231F20"/>
<path d="M205.285 93.2236C205.285 93.2236 199.83 94.512 195.592 91.5124C191.354 88.5127 191.178 84.7065 191.178 84.7065C191.178 84.7065 197.888 87.5685 204.098 86.5359L205.285 93.2236Z" fill="#231F20"/>
<path d="M202.429 93.9414C199.912 93.9958 197.438 93.2712 195.346 91.8663C190.981 88.7781 190.785 84.9424 190.785 84.7261C190.779 84.6526 190.793 84.579 190.826 84.5131C190.859 84.4472 190.909 84.3916 190.971 84.3523C191.029 84.3083 191.098 84.2806 191.17 84.2719C191.243 84.2633 191.316 84.2741 191.383 84.3031C191.452 84.3031 198.064 87.1061 204.067 86.103C204.179 86.0858 204.293 86.1133 204.385 86.1795C204.477 86.2457 204.539 86.3454 204.558 86.457L205.755 93.1448C205.775 93.2555 205.752 93.3698 205.69 93.4634C205.627 93.557 205.531 93.6227 205.421 93.6464C204.438 93.8565 203.434 93.9555 202.429 93.9414ZM191.766 85.385C192.377 87.7525 193.841 89.8092 195.876 91.1581C199.261 93.5579 203.518 93.1251 204.823 92.8793L203.783 87.0274C198.731 87.7257 193.59 86.0734 191.766 85.385Z" fill="#231F20"/>
<path d="M196.85 63.3741C196.85 63.3741 202.451 69.0784 201.627 70.4062C200.803 71.7339 197.762 71.547 197.762 71.547" fill="white"/>
<path d="M198.245 71.9897H197.745C197.688 71.986 197.633 71.971 197.582 71.9458C197.531 71.9205 197.486 71.8854 197.448 71.8424C197.411 71.7994 197.382 71.7495 197.364 71.6955C197.346 71.6414 197.339 71.5843 197.343 71.5275C197.351 71.4118 197.403 71.3037 197.489 71.2265C197.576 71.1493 197.689 71.109 197.804 71.1144C198.579 71.1144 200.747 71.1144 201.277 70.1899C201.61 69.6392 199.413 66.6002 196.558 63.689C196.518 63.6483 196.487 63.6002 196.465 63.5472C196.444 63.4943 196.433 63.4377 196.434 63.3806C196.434 63.3236 196.446 63.2671 196.468 63.2146C196.49 63.162 196.522 63.1144 196.563 63.0743C196.604 63.0343 196.652 63.0027 196.704 62.9812C196.757 62.9598 196.814 62.949 196.871 62.9495C196.928 62.9499 196.984 62.9616 197.036 62.9839C197.089 63.0062 197.136 63.0386 197.176 63.0792C198.932 64.8692 202.915 69.1868 202.013 70.6522C201.267 71.8422 199.217 71.9897 198.245 71.9897Z" fill="#231F20"/>
<path d="M204.609 66.4755C205.021 66.3801 205.21 65.6766 205.032 64.9041C204.854 64.1316 204.376 63.5827 203.964 63.6781C203.552 63.7734 203.363 64.4769 203.541 65.2494C203.719 66.0219 204.197 66.5709 204.609 66.4755Z" fill="#231F20"/>
<path d="M192.109 67.7489C192.521 67.6536 192.71 66.95 192.532 66.1776C192.354 65.4051 191.876 64.8561 191.464 64.9515C191.052 65.0468 190.863 65.7504 191.041 66.5229C191.219 67.2954 191.697 67.8443 192.109 67.7489Z" fill="#231F20"/>
<path d="M185.009 68.0164C183.645 65.8035 180.457 65.4986 178.23 66.3936C177.491 66.6585 176.849 67.1393 176.385 67.774C175.922 68.4086 175.659 69.1679 175.63 69.9539C175.613 70.9193 175.786 71.8785 176.14 72.7765C176.733 74.4601 177.623 76.0227 178.769 77.3891C179.303 78.104 180.009 78.6723 180.82 79.0414C181.331 79.2223 181.884 79.2459 182.408 79.1092C182.933 78.9725 183.404 78.6818 183.763 78.2743" fill="white"/>
<path d="M181.752 79.6703C181.382 79.67 181.016 79.5999 180.673 79.4638C179.793 79.0635 179.024 78.4521 178.436 77.6837C177.259 76.2744 176.342 74.6658 175.728 72.9334C175.354 71.9752 175.171 70.9528 175.189 69.9239C175.227 69.0554 175.521 68.2178 176.034 67.5174C176.548 66.817 177.257 66.2853 178.073 65.9899C180.525 65.0064 183.959 65.3998 185.401 67.7897C185.451 67.8907 185.461 68.0066 185.43 68.1147C185.398 68.2229 185.328 68.3155 185.233 68.3745C185.137 68.4335 185.023 68.4546 184.913 68.4338C184.802 68.4129 184.704 68.3516 184.636 68.2618C183.41 66.2948 180.516 65.9702 178.406 66.816C177.748 67.0499 177.175 67.4752 176.759 68.0375C176.343 68.5999 176.104 69.2737 176.072 69.973C176.058 70.8811 176.222 71.783 176.552 72.6285C177.128 74.2612 177.992 75.777 179.103 77.1034C179.592 77.7564 180.236 78.277 180.977 78.618C181.41 78.7708 181.879 78.7896 182.324 78.6721C182.768 78.5547 183.167 78.3063 183.469 77.9591C183.507 77.9077 183.556 77.8652 183.613 77.8345C183.669 77.8037 183.732 77.7854 183.796 77.7807C183.86 77.776 183.924 77.785 183.984 77.8073C184.045 77.8295 184.099 77.8643 184.145 77.9095C184.191 77.9547 184.226 78.0091 184.25 78.0692C184.273 78.1292 184.283 78.1936 184.279 78.2578C184.275 78.3221 184.258 78.3848 184.228 78.4419C184.198 78.4989 184.157 78.5489 184.106 78.5885C183.804 78.9158 183.441 79.1799 183.037 79.3656C182.633 79.5513 182.196 79.6549 181.752 79.6703Z" fill="#231F20"/>
<path d="M202.354 73.3174L195.791 73.9567C195.791 73.9567 197.155 84.126 200.107 83.8506C203.06 83.5753 203.07 76.2285 202.354 73.3174Z" fill="white"/>
<path d="M199.965 84.2933C196.875 84.2933 195.57 75.7565 195.345 74.0157C195.334 73.9584 195.336 73.8994 195.351 73.8432C195.367 73.787 195.395 73.735 195.433 73.6912C195.466 73.643 195.51 73.6031 195.561 73.5741C195.612 73.5452 195.669 73.5281 195.727 73.524L202.3 72.8847C202.403 72.8745 202.506 72.9016 202.591 72.9611C202.675 73.0207 202.736 73.1087 202.761 73.2092C203.32 75.4713 203.507 80.8904 201.878 83.1819C201.687 83.4844 201.432 83.7404 201.13 83.931C200.827 84.1216 200.487 84.242 200.132 84.2834L199.965 84.2933ZM196.267 74.3501C196.816 78.0677 198.229 83.418 199.965 83.418H200.054C200.283 83.3853 200.502 83.3022 200.695 83.1747C200.888 83.0471 201.051 82.8783 201.172 82.6803C202.457 80.8609 202.516 76.3073 202.006 73.8288L196.267 74.3501Z" fill="#231F20"/>
<path d="M218.773 152.175C218.694 152.175 218.617 152.153 218.549 152.113C218.481 152.073 218.425 152.015 218.387 151.946C218.349 151.876 218.33 151.798 218.332 151.719C218.335 151.64 218.358 151.563 218.4 151.496C218.469 151.368 225.679 139.212 218.783 113.897C218.755 113.782 218.772 113.661 218.831 113.559C218.889 113.457 218.984 113.381 219.097 113.346C219.153 113.33 219.213 113.325 219.271 113.332C219.33 113.339 219.386 113.358 219.438 113.387C219.489 113.417 219.534 113.456 219.569 113.503C219.605 113.55 219.631 113.604 219.646 113.661C226.66 139.389 219.469 151.467 219.155 152.017C219.11 152.074 219.051 152.117 218.984 152.145C218.917 152.172 218.845 152.183 218.773 152.175Z" fill="#231F20"/>
<path d="M85.3418 116.995L191.252 193.599L297.163 116.995V242.666H85.3418V116.995Z" fill="white"/>
<path d="M297.181 243.158H85.3597C85.2296 243.158 85.1049 243.106 85.0129 243.014C84.9209 242.922 84.8692 242.797 84.8692 242.666V116.995C84.8677 116.905 84.8918 116.816 84.9387 116.74C84.9856 116.663 85.0534 116.601 85.1341 116.562C85.2106 116.514 85.2989 116.489 85.3891 116.489C85.4794 116.489 85.5678 116.514 85.6442 116.562L191.27 192.95L296.887 116.562C296.963 116.514 297.052 116.489 297.142 116.489C297.232 116.489 297.32 116.514 297.397 116.562C297.479 116.601 297.548 116.662 297.596 116.739C297.645 116.815 297.671 116.904 297.671 116.995V242.666C297.669 242.796 297.616 242.92 297.525 243.011C297.434 243.103 297.31 243.155 297.181 243.158ZM85.8208 242.174H296.74V117.959L191.555 193.993C191.471 194.054 191.369 194.088 191.265 194.088C191.161 194.088 191.06 194.054 190.976 193.993L85.8208 117.959V242.174Z" fill="#231F20"/>
<path d="M85.3602 243.159C85.2719 243.159 85.1852 243.136 85.1093 243.091C85.0333 243.046 84.9709 242.981 84.9285 242.903C84.8675 242.789 84.8529 242.656 84.8876 242.531C84.9223 242.407 85.0038 242.3 85.1149 242.234L182.02 186.657C182.133 186.593 182.267 186.577 182.392 186.612C182.517 186.647 182.623 186.73 182.687 186.844C182.72 186.899 182.742 186.96 182.751 187.024C182.76 187.088 182.756 187.153 182.74 187.216C182.723 187.278 182.694 187.336 182.655 187.387C182.616 187.438 182.566 187.481 182.51 187.513L85.5956 243.09C85.524 243.132 85.4431 243.156 85.3602 243.159Z" fill="#231F20"/>
<path d="M297.173 243.158C297.087 243.155 297.003 243.132 296.927 243.09L200.023 187.512C199.91 187.448 199.826 187.342 199.792 187.216C199.757 187.091 199.773 186.957 199.836 186.843C199.902 186.732 200.008 186.65 200.132 186.615C200.257 186.581 200.39 186.595 200.503 186.656L297.408 242.234C297.521 242.298 297.604 242.404 297.639 242.53C297.674 242.655 297.658 242.789 297.595 242.903C297.554 242.98 297.493 243.044 297.419 243.089C297.345 243.134 297.26 243.158 297.173 243.158Z" fill="#231F20"/>
<path d="M135.844 185.024C135.844 185.024 140.131 196.217 141.141 196.826C142.152 197.436 154.091 202.334 153.237 204.626C152.384 206.917 147.008 204.124 147.008 204.124C147.008 204.124 154.748 213.103 152.708 214.687C150.667 216.27 143.8 219.486 141.043 218.178C138.287 216.87 124.543 199.797 121.629 192.381" fill="white"/>
<path d="M142.72 219.004C142.081 219.023 141.445 218.903 140.856 218.65C137.913 217.244 124.081 199.963 121.187 192.587C121.164 192.527 121.153 192.462 121.154 192.397C121.156 192.332 121.171 192.268 121.197 192.209C121.224 192.149 121.261 192.096 121.308 192.051C121.356 192.006 121.411 191.971 121.471 191.948C121.532 191.925 121.597 191.914 121.661 191.915C121.726 191.917 121.79 191.932 121.849 191.958C121.908 191.985 121.962 192.023 122.006 192.07C122.051 192.117 122.086 192.172 122.109 192.233C125.052 199.796 138.885 216.624 141.268 217.804C143.652 218.984 150.353 215.995 152.432 214.372C152.477 214.33 152.513 214.28 152.538 214.224C152.564 214.169 152.578 214.108 152.58 214.047C152.766 212.08 148.361 206.504 146.693 204.517C146.619 204.43 146.577 204.32 146.574 204.206C146.572 204.092 146.609 203.98 146.68 203.89C146.751 203.8 146.851 203.738 146.963 203.715C147.074 203.691 147.191 203.707 147.292 203.76C148.273 204.271 151.079 205.491 152.334 205.009C152.449 204.97 152.554 204.906 152.641 204.82C152.727 204.735 152.794 204.632 152.835 204.517C153.07 203.878 151.52 202.275 142.779 198.213C141.72 197.721 141.16 197.456 140.935 197.308C139.875 196.629 136.461 187.896 135.441 185.241C135.418 185.18 135.406 185.115 135.408 185.05C135.409 184.985 135.424 184.921 135.45 184.861C135.477 184.802 135.515 184.748 135.562 184.704C135.609 184.659 135.665 184.624 135.726 184.601C135.847 184.556 135.98 184.561 136.098 184.615C136.215 184.668 136.307 184.766 136.353 184.886C138.394 190.207 140.866 196 141.474 196.492C141.641 196.6 142.357 196.934 143.191 197.318C150.235 200.583 154.453 202.993 153.757 204.861C153.666 205.107 153.524 205.33 153.339 205.515C153.155 205.7 152.932 205.843 152.687 205.933C151.365 206.204 149.99 206.046 148.763 205.481C150.657 207.851 153.786 212.11 153.59 214.136C153.574 214.326 153.52 214.512 153.43 214.681C153.341 214.85 153.218 214.999 153.07 215.119C151.451 216.349 146.232 219.004 142.72 219.004Z" fill="#231F20"/>
<path d="M154.25 98.7117C129.018 114.959 98.3322 138.868 95.7424 144.454C91.6025 153.306 122.563 197.819 122.563 197.819L139.329 187.158L124.005 153.788L154.221 133.183" fill="#FFD400"/>
<path d="M134.854 146.903C134.781 146.905 134.709 146.889 134.644 146.856C134.579 146.823 134.523 146.775 134.481 146.716C134.415 146.617 134.389 146.497 134.409 146.379C134.429 146.262 134.494 146.157 134.589 146.086L168.512 122.276C168.56 122.24 168.615 122.215 168.673 122.201C168.731 122.188 168.791 122.186 168.849 122.196C168.908 122.206 168.964 122.228 169.014 122.26C169.064 122.292 169.107 122.335 169.14 122.384C169.174 122.433 169.197 122.488 169.21 122.546C169.222 122.605 169.223 122.665 169.212 122.723C169.201 122.782 169.178 122.837 169.146 122.887C169.113 122.937 169.072 122.98 169.023 123.013L135.109 146.824C135.035 146.878 134.945 146.905 134.854 146.903Z" fill="#231F20"/>
<path d="M282.252 214.381L323.366 189.155L288.53 203.7L282.252 214.381Z" fill="#231F20"/>
<path d="M282.263 214.873C282.199 214.873 282.136 214.86 282.077 214.835C282.018 214.809 281.964 214.772 281.92 214.726C281.842 214.649 281.792 214.548 281.778 214.44C281.763 214.331 281.786 214.22 281.841 214.126L288.12 203.455C288.169 203.363 288.249 203.29 288.345 203.249L323.221 188.703C323.335 188.655 323.463 188.652 323.579 188.695C323.695 188.738 323.791 188.824 323.847 188.935C323.903 189.045 323.915 189.173 323.881 189.293C323.846 189.412 323.768 189.514 323.662 189.578L282.518 214.765C282.443 214.822 282.356 214.859 282.263 214.873ZM288.875 204.055L283.686 212.906L317.717 192.027L288.875 204.055Z" fill="#231F20"/>
<path d="M288.531 203.7L301.971 210.595L323.367 189.155L288.531 203.7Z" fill="white"/>
<path d="M301.98 211.038C301.908 211.04 301.837 211.023 301.774 210.989L288.334 204.104C288.257 204.068 288.192 204.009 288.149 203.935C288.105 203.862 288.084 203.777 288.088 203.691C288.093 203.605 288.121 203.522 288.17 203.451C288.218 203.38 288.285 203.324 288.363 203.288L323.219 188.742C323.314 188.704 323.42 188.7 323.518 188.731C323.616 188.761 323.701 188.824 323.758 188.909C323.817 188.994 323.843 189.098 323.832 189.201C323.822 189.303 323.774 189.399 323.699 189.47L302.303 210.91C302.262 210.954 302.212 210.988 302.156 211.01C302.1 211.032 302.04 211.042 301.98 211.038ZM289.599 203.75L301.891 210.045L321.453 190.444L289.599 203.75Z" fill="#231F20"/>
<path d="M323.38 189.155L279.116 199.757L269.051 193.984L323.38 189.155Z" fill="white"/>
<path d="M279.07 200.2C278.994 200.2 278.919 200.179 278.854 200.141L268.779 194.377C268.698 194.328 268.635 194.255 268.598 194.168C268.562 194.081 268.553 193.985 268.573 193.892C268.594 193.8 268.643 193.717 268.713 193.654C268.783 193.591 268.871 193.551 268.965 193.541L323.294 188.712C323.406 188.703 323.518 188.737 323.606 188.806C323.695 188.875 323.755 188.975 323.775 189.086C323.793 189.198 323.769 189.312 323.707 189.407C323.645 189.501 323.55 189.569 323.441 189.597L279.177 200.19L279.07 200.2ZM270.466 194.299L279.138 199.265L317.329 190.178L270.466 194.299Z" fill="#231F20"/>
<path d="M279.109 199.757L282.258 214.381L288.537 203.7L323.373 189.154L279.109 199.757Z" fill="white"/>
<path d="M282.262 214.834H282.193C282.104 214.821 282.021 214.781 281.954 214.72C281.888 214.658 281.841 214.578 281.82 214.49L278.681 199.856C278.668 199.799 278.666 199.74 278.676 199.682C278.686 199.625 278.707 199.57 278.738 199.521C278.769 199.471 278.809 199.429 278.857 199.395C278.904 199.361 278.958 199.337 279.015 199.325L323.278 188.732C323.39 188.696 323.512 188.705 323.617 188.759C323.722 188.812 323.801 188.905 323.837 189.018C323.874 189.13 323.864 189.252 323.811 189.357C323.758 189.462 323.665 189.542 323.553 189.578L288.884 204.065L282.684 214.608C282.643 214.683 282.581 214.743 282.506 214.784C282.431 214.824 282.346 214.841 282.262 214.834ZM279.643 200.082L282.458 213.153L288.148 203.465C288.2 203.383 288.275 203.318 288.364 203.278L318.049 190.886L279.643 200.082Z" fill="#231F20"/>
<path d="M273.179 216.417C273.074 216.415 272.972 216.379 272.889 216.314C272.806 216.25 272.746 216.161 272.718 216.059C272.689 215.958 272.694 215.85 272.731 215.752C272.768 215.654 272.836 215.57 272.924 215.513L274.562 214.461C274.671 214.389 274.804 214.364 274.932 214.39C275.06 214.417 275.172 214.494 275.243 214.603C275.315 214.713 275.34 214.846 275.313 214.974C275.287 215.102 275.21 215.215 275.101 215.286L273.444 216.348C273.363 216.394 273.271 216.418 273.179 216.417Z" fill="#D1D3D4"/>
<path d="M124.682 261.481C124.553 261.479 124.429 261.426 124.338 261.335C124.247 261.243 124.194 261.119 124.192 260.99C124.192 260.861 124.242 260.737 124.332 260.645C124.422 260.553 124.544 260.501 124.672 260.498L127.007 260.449L128.587 260.4C128.715 260.399 128.839 260.448 128.934 260.535C129.029 260.623 129.087 260.743 129.097 260.872C129.099 260.937 129.089 261.002 129.066 261.064C129.043 261.125 129.008 261.181 128.964 261.229C128.919 261.276 128.865 261.315 128.805 261.341C128.746 261.368 128.681 261.382 128.616 261.383L127.037 261.432L124.692 261.481H124.682ZM120.758 261.481C119.424 261.481 118.109 261.422 116.834 261.373C116.705 261.366 116.583 261.308 116.496 261.213C116.408 261.117 116.36 260.992 116.363 260.862C116.366 260.797 116.381 260.734 116.408 260.675C116.435 260.616 116.473 260.564 116.52 260.52C116.568 260.476 116.623 260.442 116.684 260.42C116.744 260.397 116.809 260.387 116.873 260.39C118.148 260.439 119.453 260.478 120.797 260.498C120.927 260.498 121.052 260.55 121.144 260.642C121.236 260.734 121.288 260.859 121.288 260.99C121.287 261.056 121.272 261.122 121.245 261.183C121.218 261.244 121.179 261.299 121.131 261.345C121.082 261.391 121.025 261.427 120.963 261.45C120.901 261.473 120.834 261.484 120.768 261.481H120.758ZM132.53 261.216C132.406 261.216 132.287 261.168 132.197 261.082C132.107 260.996 132.055 260.878 132.05 260.754C132.046 260.689 132.054 260.624 132.075 260.563C132.096 260.502 132.129 260.445 132.172 260.397C132.215 260.349 132.267 260.309 132.325 260.281C132.383 260.253 132.446 260.236 132.511 260.232C133.815 260.173 135.12 260.095 136.435 260.006C136.499 260.001 136.565 260.009 136.626 260.029C136.688 260.05 136.745 260.083 136.793 260.126C136.842 260.169 136.881 260.222 136.909 260.281C136.937 260.34 136.952 260.403 136.955 260.468C136.96 260.533 136.952 260.597 136.933 260.658C136.913 260.719 136.881 260.776 136.839 260.824C136.797 260.873 136.745 260.913 136.688 260.941C136.63 260.969 136.567 260.986 136.503 260.99C135.199 261.078 133.894 261.157 132.579 261.216H132.53ZM112.959 261.147C111.625 261.049 110.32 260.931 109.035 260.793C108.906 260.778 108.789 260.713 108.708 260.612C108.627 260.51 108.589 260.381 108.603 260.252C108.608 260.187 108.626 260.124 108.656 260.066C108.686 260.009 108.728 259.958 108.779 259.918C108.829 259.877 108.888 259.847 108.95 259.83C109.013 259.813 109.079 259.81 109.143 259.819C110.408 259.947 111.703 260.065 113.067 260.164C113.197 260.164 113.322 260.215 113.414 260.308C113.506 260.4 113.557 260.525 113.557 260.655C113.557 260.786 113.506 260.911 113.414 261.003C113.322 261.095 113.197 261.147 113.067 261.147H112.959ZM140.359 260.704C140.229 260.704 140.104 260.653 140.012 260.56C139.92 260.468 139.868 260.343 139.868 260.213C139.868 260.082 139.92 259.957 140.012 259.865C140.104 259.773 140.229 259.721 140.359 259.721C141.663 259.613 142.958 259.495 144.283 259.367C144.412 259.358 144.54 259.399 144.64 259.481C144.74 259.564 144.805 259.681 144.822 259.81C144.829 259.874 144.823 259.94 144.804 260.002C144.786 260.064 144.755 260.122 144.714 260.172C144.673 260.223 144.623 260.264 144.565 260.295C144.508 260.325 144.445 260.344 144.381 260.35C143.073 260.475 141.765 260.593 140.457 260.704H140.359ZM105.16 260.301H105.091C103.777 260.105 102.472 259.888 101.167 259.652C101.103 259.64 101.041 259.615 100.986 259.579C100.932 259.543 100.884 259.496 100.848 259.442C100.811 259.388 100.785 259.327 100.771 259.262C100.758 259.198 100.758 259.132 100.77 259.067C100.782 259.002 100.807 258.941 100.843 258.886C100.879 258.831 100.925 258.784 100.979 258.747C101.034 258.71 101.094 258.684 101.159 258.67C101.223 258.657 101.289 258.656 101.353 258.669C102.599 258.905 103.894 259.121 105.199 259.308C105.263 259.318 105.324 259.34 105.379 259.373C105.435 259.406 105.483 259.45 105.521 259.503C105.559 259.555 105.587 259.614 105.602 259.677C105.618 259.739 105.621 259.805 105.611 259.869C105.595 259.984 105.539 260.091 105.454 260.17C105.368 260.249 105.257 260.295 105.14 260.301H105.16ZM148.168 259.947C148.103 259.951 148.039 259.942 147.978 259.921C147.917 259.9 147.86 259.867 147.812 259.824C147.764 259.781 147.725 259.729 147.696 259.671C147.668 259.613 147.652 259.55 147.648 259.485C147.644 259.42 147.653 259.356 147.674 259.295C147.695 259.233 147.728 259.177 147.771 259.129C147.813 259.08 147.865 259.041 147.923 259.012C147.981 258.984 148.044 258.968 148.109 258.964C149.417 258.819 150.725 258.662 152.033 258.492C152.163 258.475 152.294 258.51 152.398 258.59C152.502 258.671 152.57 258.789 152.587 258.919C152.604 259.05 152.569 259.182 152.489 259.286C152.409 259.39 152.29 259.458 152.16 259.475L148.236 259.937L148.168 259.947ZM155.947 258.964C155.829 258.963 155.714 258.92 155.624 258.842C155.535 258.765 155.475 258.658 155.457 258.541C155.447 258.476 155.45 258.41 155.466 258.347C155.482 258.283 155.511 258.224 155.55 258.172C155.589 258.119 155.639 258.076 155.695 258.043C155.751 258.01 155.814 257.989 155.878 257.98L159.744 257.4C159.807 257.389 159.872 257.39 159.934 257.405C159.997 257.419 160.056 257.446 160.108 257.483C160.16 257.521 160.204 257.569 160.238 257.623C160.271 257.678 160.293 257.74 160.303 257.803C160.314 257.867 160.313 257.933 160.298 257.996C160.284 258.059 160.258 258.119 160.22 258.172C160.183 258.225 160.135 258.271 160.081 258.305C160.026 258.34 159.965 258.363 159.901 258.374L155.977 258.954L155.947 258.964ZM97.4686 258.865H97.3509C96.0462 258.56 94.761 258.226 93.5348 257.882C93.4113 257.843 93.3077 257.758 93.2455 257.644C93.1833 257.531 93.1674 257.397 93.2012 257.272C93.2193 257.21 93.2493 257.152 93.2896 257.102C93.33 257.052 93.3798 257.01 93.4363 256.979C93.4927 256.948 93.5548 256.928 93.6188 256.921C93.6828 256.914 93.7476 256.92 93.8095 256.938C95.0259 257.282 96.2914 257.616 97.5766 257.921C97.6396 257.935 97.6992 257.961 97.7519 257.999C97.8045 258.036 97.8491 258.084 97.883 258.139C97.9168 258.194 97.9393 258.255 97.949 258.319C97.9587 258.383 97.9555 258.449 97.9395 258.511C97.9072 258.615 97.8415 258.705 97.7527 258.767C97.664 258.829 97.5572 258.86 97.449 258.856L97.4686 258.865ZM163.687 257.734C163.572 257.736 163.461 257.696 163.372 257.622C163.284 257.548 163.225 257.445 163.207 257.331C163.187 257.202 163.217 257.071 163.292 256.964C163.367 256.858 163.481 256.785 163.609 256.761L167.464 256.072C167.527 256.059 167.593 256.06 167.656 256.073C167.719 256.086 167.779 256.111 167.832 256.148C167.885 256.185 167.93 256.232 167.965 256.286C167.999 256.341 168.023 256.402 168.033 256.466C168.056 256.593 168.028 256.725 167.954 256.832C167.881 256.939 167.768 257.012 167.641 257.036L163.776 257.734H163.687ZM89.9246 256.662C89.8727 256.672 89.8196 256.672 89.7677 256.662C88.512 256.22 87.2661 255.738 86.079 255.236C86.0196 255.211 85.9659 255.173 85.9209 255.127C85.8759 255.08 85.8405 255.025 85.8168 254.965C85.7931 254.905 85.7815 254.84 85.7827 254.775C85.784 254.71 85.798 254.647 85.824 254.587C85.8757 254.469 85.9715 254.377 86.0907 254.329C86.2099 254.281 86.3431 254.282 86.4616 254.331C87.629 254.823 88.8553 255.315 90.0914 255.738C90.2215 255.76 90.3375 255.833 90.4138 255.941C90.4902 256.049 90.5206 256.183 90.4985 256.313C90.4764 256.444 90.4035 256.56 90.2959 256.636C90.1883 256.713 90.0547 256.744 89.9246 256.721V256.662ZM171.349 256.289C171.236 256.287 171.128 256.247 171.041 256.176C170.953 256.104 170.893 256.005 170.868 255.895C170.855 255.832 170.855 255.767 170.867 255.703C170.88 255.64 170.904 255.579 170.94 255.526C170.975 255.472 171.021 255.425 171.074 255.389C171.128 255.353 171.188 255.328 171.251 255.315L175.087 254.508C175.15 254.496 175.215 254.495 175.278 254.507C175.341 254.52 175.402 254.544 175.455 254.58C175.509 254.616 175.555 254.662 175.591 254.715C175.628 254.769 175.653 254.829 175.666 254.892C175.68 254.955 175.682 255.02 175.671 255.083C175.66 255.146 175.636 255.207 175.601 255.261C175.566 255.315 175.521 255.362 175.468 255.398C175.415 255.434 175.356 255.459 175.293 255.472L171.447 256.279L171.349 256.289ZM179.021 254.636C178.956 254.643 178.891 254.638 178.829 254.62C178.767 254.601 178.709 254.571 178.658 254.531C178.607 254.49 178.565 254.44 178.534 254.383C178.503 254.326 178.483 254.263 178.476 254.199C178.469 254.134 178.475 254.069 178.493 254.006C178.511 253.944 178.541 253.886 178.582 253.835C178.622 253.784 178.672 253.742 178.729 253.711C178.786 253.68 178.848 253.66 178.913 253.653C180.188 253.358 181.454 253.063 182.719 252.748C182.845 252.718 182.978 252.74 183.088 252.808C183.199 252.876 183.277 252.986 183.308 253.112C183.324 253.175 183.327 253.241 183.317 253.306C183.308 253.37 183.286 253.432 183.252 253.488C183.218 253.544 183.173 253.593 183.121 253.631C183.068 253.669 183.008 253.697 182.945 253.712C181.679 254.017 180.414 254.322 179.129 254.607L179.021 254.636ZM82.6945 253.584C82.6158 253.582 82.5387 253.562 82.4689 253.525C81.2819 252.915 80.1243 252.256 79.0255 251.558C78.9707 251.524 78.9231 251.479 78.8855 251.427C78.8479 251.374 78.8211 251.314 78.8065 251.251C78.7919 251.188 78.7899 251.123 78.8005 251.059C78.8112 250.995 78.8343 250.934 78.8685 250.879C78.9017 250.823 78.9458 250.775 78.9982 250.736C79.0506 250.698 79.1102 250.67 79.1735 250.656C79.2367 250.641 79.3023 250.639 79.3662 250.651C79.4302 250.662 79.4911 250.686 79.5455 250.722C80.6148 251.381 81.7527 252.02 82.9202 252.62C83.0502 252.65 83.1631 252.731 83.234 252.844C83.3048 252.958 83.3278 253.095 83.2978 253.225C83.2679 253.355 83.1876 253.469 83.0744 253.54C82.9613 253.611 82.8246 253.634 82.6945 253.604V253.584ZM186.682 252.777C186.552 252.793 186.421 252.756 186.318 252.675C186.215 252.594 186.149 252.475 186.133 252.345C186.117 252.214 186.154 252.083 186.235 251.98C186.316 251.876 186.435 251.81 186.565 251.794L190.351 250.81C190.416 250.794 190.483 250.79 190.549 250.799C190.615 250.808 190.678 250.83 190.736 250.864C190.793 250.898 190.843 250.943 190.883 250.996C190.923 251.049 190.953 251.11 190.969 251.174C190.986 251.239 190.99 251.306 190.981 251.372C190.972 251.438 190.95 251.502 190.916 251.56C190.882 251.617 190.838 251.667 190.784 251.708C190.731 251.748 190.671 251.777 190.606 251.794C189.351 252.135 188.085 252.463 186.81 252.777C186.762 252.791 186.711 252.791 186.663 252.777H186.682ZM194.256 250.722C194.149 250.724 194.045 250.69 193.96 250.626C193.875 250.562 193.813 250.471 193.785 250.368C193.752 250.241 193.769 250.107 193.833 249.993C193.897 249.879 194.003 249.795 194.128 249.758L197.886 248.666C198.009 248.63 198.142 248.643 198.256 248.704C198.37 248.764 198.455 248.868 198.494 248.991C198.513 249.053 198.52 249.118 198.514 249.183C198.507 249.248 198.488 249.31 198.457 249.367C198.426 249.424 198.383 249.474 198.332 249.514C198.281 249.554 198.223 249.584 198.16 249.601C196.914 249.975 195.659 250.348 194.393 250.702C194.343 250.721 194.289 250.728 194.236 250.722H194.256ZM76.0726 249.453C75.9664 249.454 75.8629 249.419 75.7783 249.355C74.709 248.558 73.679 247.712 72.7176 246.837C72.6716 246.791 72.6351 246.737 72.6102 246.677C72.5853 246.617 72.5725 246.553 72.5725 246.488C72.5725 246.423 72.5853 246.359 72.6102 246.299C72.6351 246.239 72.6716 246.185 72.7176 246.139C72.7623 246.093 72.8158 246.057 72.8747 246.032C72.9337 246.007 72.997 245.994 73.0609 245.994C73.1249 245.994 73.1882 246.007 73.2471 246.032C73.3061 246.057 73.3595 246.093 73.4043 246.139C74.3601 247.008 75.3587 247.829 76.3964 248.598C76.5005 248.676 76.5693 248.792 76.5877 248.921C76.6061 249.051 76.5725 249.182 76.4945 249.286C76.4423 249.345 76.3769 249.391 76.3036 249.42C76.2302 249.449 76.1511 249.461 76.0726 249.453ZM201.751 248.47C201.647 248.471 201.545 248.439 201.462 248.376C201.378 248.314 201.318 248.226 201.29 248.126C201.27 248.064 201.263 247.998 201.268 247.933C201.274 247.869 201.292 247.806 201.323 247.748C201.353 247.69 201.394 247.639 201.444 247.598C201.494 247.556 201.551 247.525 201.613 247.506C202.869 247.122 204.105 246.719 205.341 246.326C205.402 246.304 205.467 246.296 205.532 246.3C205.596 246.304 205.66 246.322 205.717 246.351C205.775 246.381 205.826 246.421 205.868 246.471C205.909 246.521 205.941 246.578 205.959 246.64C206 246.764 205.989 246.899 205.93 247.015C205.871 247.132 205.769 247.22 205.645 247.26C204.409 247.663 203.163 248.057 201.898 248.45C201.851 248.47 201.801 248.48 201.751 248.48V248.47ZM209.216 246.041C209.086 246.061 208.953 246.03 208.847 245.952C208.74 245.875 208.668 245.758 208.647 245.627C208.627 245.497 208.658 245.364 208.736 245.257C208.813 245.15 208.929 245.078 209.059 245.057C210.305 244.634 211.541 244.211 212.758 243.778C212.881 243.737 213.016 243.746 213.134 243.803C213.251 243.86 213.341 243.961 213.386 244.083C213.407 244.143 213.417 244.207 213.414 244.271C213.411 244.335 213.395 244.397 213.368 244.455C213.34 244.513 213.302 244.564 213.254 244.607C213.207 244.649 213.152 244.682 213.091 244.703C211.865 245.136 210.629 245.568 209.373 245.991L209.216 246.041ZM70.2945 244.172C70.2242 244.171 70.1548 244.156 70.0906 244.127C70.0265 244.099 69.969 244.057 69.9217 244.005C69.0402 243.016 68.2149 241.978 67.4495 240.897C67.4053 240.845 67.3723 240.785 67.3526 240.719C67.3329 240.654 67.327 240.585 67.3351 240.518C67.3433 240.45 67.3655 240.385 67.4001 240.326C67.4348 240.268 67.4812 240.217 67.5365 240.177C67.5918 240.137 67.6547 240.11 67.7213 240.096C67.7878 240.082 67.8565 240.082 67.9231 240.096C67.9896 240.11 68.0525 240.138 68.1078 240.177C68.163 240.217 68.2095 240.268 68.2441 240.326C68.9899 241.379 69.7957 242.387 70.6574 243.346C70.7479 243.439 70.7985 243.565 70.7985 243.695C70.7985 243.825 70.7479 243.95 70.6574 244.044C70.6095 244.091 70.5525 244.127 70.4901 244.15C70.4277 244.174 70.3611 244.185 70.2945 244.182V244.172ZM216.613 243.444C216.513 243.441 216.416 243.409 216.334 243.351C216.252 243.294 216.189 243.213 216.152 243.12C216.108 242.997 216.114 242.862 216.169 242.744C216.225 242.626 216.324 242.534 216.446 242.49C217.692 242.038 218.909 241.575 220.125 241.123C220.242 241.093 220.366 241.108 220.473 241.164C220.58 241.22 220.662 241.313 220.704 241.427C220.747 241.54 220.746 241.665 220.703 241.777C220.659 241.89 220.576 241.983 220.469 242.038C219.252 242.5 218.026 242.952 216.78 243.405C216.73 243.436 216.672 243.453 216.613 243.454V243.444ZM223.951 240.661C223.887 240.672 223.821 240.671 223.757 240.657C223.693 240.643 223.632 240.617 223.579 240.579C223.525 240.542 223.479 240.494 223.444 240.439C223.408 240.384 223.384 240.322 223.372 240.258C223.361 240.193 223.362 240.127 223.376 240.063C223.39 239.999 223.416 239.938 223.454 239.884C223.491 239.83 223.539 239.784 223.594 239.749C223.649 239.713 223.71 239.689 223.775 239.677L227.414 238.232C227.534 238.183 227.668 238.183 227.788 238.233C227.907 238.283 228.002 238.378 228.052 238.497C228.101 238.619 228.101 238.754 228.051 238.876C228.002 238.997 227.907 239.094 227.787 239.146L224.138 240.641C224.077 240.66 224.015 240.67 223.951 240.671V240.661ZM65.7622 237.789C65.6737 237.79 65.5866 237.767 65.5104 237.722C65.4343 237.677 65.372 237.612 65.3305 237.533C64.6895 236.371 64.1163 235.172 63.6137 233.943C63.5643 233.822 63.5649 233.686 63.6155 233.565C63.6661 233.445 63.7625 233.349 63.8835 233.299C64.0045 233.25 64.1402 233.25 64.2607 233.301C64.3812 233.352 64.4766 233.448 64.5261 233.57C65.0082 234.768 65.5652 235.934 66.1938 237.061C66.254 237.176 66.2671 237.311 66.2305 237.435C66.1939 237.56 66.1104 237.666 65.9976 237.73C65.9249 237.768 65.8442 237.788 65.7622 237.789ZM231.23 237.72C231.133 237.722 231.037 237.694 230.956 237.64C230.876 237.585 230.814 237.507 230.779 237.415C230.73 237.296 230.729 237.163 230.776 237.043C230.824 236.924 230.917 236.828 231.034 236.776C232.26 236.265 233.467 235.792 234.644 235.242C234.764 235.19 234.899 235.187 235.021 235.235C235.142 235.283 235.24 235.377 235.292 235.497C235.344 235.617 235.346 235.753 235.298 235.875C235.251 235.997 235.156 236.094 235.037 236.147L231.417 237.681C231.358 237.708 231.295 237.721 231.23 237.72ZM238.431 234.602C238.337 234.601 238.245 234.574 238.165 234.524C238.086 234.473 238.021 234.402 237.98 234.317C237.952 234.258 237.937 234.194 237.935 234.129C237.934 234.064 237.945 233.999 237.969 233.938C237.993 233.877 238.028 233.822 238.074 233.776C238.12 233.729 238.175 233.693 238.235 233.668C239.451 233.117 240.638 232.586 241.796 232.045C241.914 231.991 242.05 231.985 242.172 232.03C242.294 232.076 242.394 232.168 242.448 232.286C242.503 232.405 242.508 232.541 242.463 232.663C242.418 232.786 242.326 232.886 242.208 232.94C241.041 233.481 239.854 234.022 238.627 234.563C238.566 234.591 238.499 234.605 238.431 234.602ZM245.563 231.318C245.471 231.32 245.379 231.295 245.301 231.246C245.222 231.198 245.16 231.126 245.122 231.042C245.093 230.984 245.076 230.921 245.072 230.856C245.068 230.792 245.077 230.727 245.098 230.666C245.119 230.605 245.152 230.548 245.195 230.5C245.237 230.451 245.289 230.412 245.347 230.383C246.564 229.813 247.741 229.242 248.879 228.682C248.996 228.624 249.131 228.616 249.254 228.658C249.378 228.701 249.479 228.791 249.536 228.908C249.593 229.025 249.602 229.161 249.559 229.284C249.517 229.408 249.428 229.51 249.311 229.567L245.769 231.278C245.704 231.305 245.634 231.319 245.563 231.318ZM62.7995 230.501C62.6921 230.501 62.5878 230.465 62.5028 230.399C62.4177 230.333 62.3565 230.241 62.3286 230.137C61.9694 228.859 61.6812 227.562 61.4653 226.253C61.4445 226.122 61.4762 225.989 61.5535 225.882C61.6307 225.775 61.7472 225.703 61.8773 225.682C62.0074 225.661 62.1404 225.693 62.2472 225.77C62.3539 225.848 62.4255 225.965 62.4463 226.095C62.6423 227.381 62.9109 228.655 63.2507 229.911C63.2688 229.973 63.2745 230.038 63.2675 230.102C63.2605 230.166 63.2409 230.229 63.2099 230.285C63.179 230.342 63.1372 230.392 63.0869 230.432C63.0367 230.473 62.979 230.503 62.9172 230.521L62.7995 230.501ZM252.587 227.875C252.495 227.877 252.404 227.851 252.326 227.803C252.248 227.754 252.185 227.683 252.146 227.6C252.088 227.484 252.078 227.349 252.118 227.226C252.158 227.102 252.246 227 252.362 226.941C253.568 226.331 254.736 225.741 255.854 225.151C255.97 225.091 256.105 225.08 256.229 225.119C256.353 225.159 256.456 225.246 256.516 225.362C256.576 225.479 256.587 225.614 256.548 225.738C256.508 225.863 256.421 225.966 256.305 226.026C255.187 226.607 254.019 227.207 252.803 227.816C252.737 227.854 252.663 227.874 252.587 227.875ZM259.552 224.246C259.464 224.248 259.377 224.224 259.301 224.179C259.225 224.134 259.162 224.069 259.121 223.99C259.061 223.875 259.047 223.741 259.084 223.616C259.121 223.492 259.204 223.386 259.317 223.322C260.533 222.673 261.681 222.043 262.76 221.453C262.817 221.413 262.881 221.385 262.949 221.372C263.016 221.358 263.086 221.359 263.153 221.375C263.221 221.39 263.284 221.42 263.339 221.461C263.394 221.503 263.44 221.556 263.474 221.617C263.507 221.677 263.527 221.744 263.533 221.813C263.539 221.882 263.53 221.952 263.507 222.017C263.484 222.082 263.448 222.142 263.4 222.192C263.353 222.243 263.295 222.282 263.231 222.309C262.152 222.909 261.004 223.538 259.778 224.197C259.717 224.228 259.65 224.245 259.582 224.246H259.552ZM61.4849 222.8C61.3598 222.801 61.2393 222.753 61.1481 222.667C61.0569 222.581 61.0019 222.463 60.9944 222.338C60.9944 221.571 60.9355 220.784 60.9355 220.007C60.9355 219.457 60.9355 218.906 60.9355 218.365C60.9367 218.3 60.9511 218.236 60.9776 218.176C61.0042 218.117 61.0425 218.064 61.0901 218.02C61.1378 217.976 61.1938 217.942 61.255 217.92C61.3161 217.898 61.3809 217.889 61.4457 217.893C61.5101 217.895 61.5734 217.911 61.632 217.938C61.6905 217.965 61.7432 218.003 61.7869 218.051C61.8306 218.098 61.8646 218.154 61.8868 218.214C61.9091 218.275 61.9192 218.34 61.9166 218.404C61.9166 218.935 61.9166 219.476 61.9166 220.007C61.9166 220.765 61.9166 221.532 61.9754 222.279C61.9794 222.344 61.9706 222.409 61.9496 222.47C61.9286 222.531 61.8957 222.587 61.8528 222.636C61.81 222.684 61.7581 222.724 61.7 222.752C61.6419 222.78 61.5788 222.797 61.5144 222.8H61.4849ZM266.42 220.44C266.312 220.439 266.209 220.403 266.124 220.337C266.039 220.271 265.979 220.18 265.951 220.076C265.923 219.972 265.93 219.862 265.97 219.763C266.011 219.664 266.082 219.58 266.174 219.525C267.44 218.798 268.578 218.139 269.559 217.558C269.614 217.524 269.676 217.502 269.74 217.492C269.804 217.482 269.869 217.485 269.932 217.5C269.995 217.516 270.054 217.544 270.106 217.583C270.158 217.621 270.202 217.67 270.236 217.726C270.301 217.838 270.321 217.972 270.29 218.099C270.258 218.226 270.179 218.335 270.069 218.404C269.088 218.994 267.94 219.663 266.665 220.371C266.599 220.409 266.525 220.433 266.449 220.44H266.42ZM61.8283 214.962H61.7596C61.6301 214.942 61.5134 214.873 61.4345 214.768C61.3556 214.663 61.3209 214.532 61.3378 214.401C61.5144 213.113 61.74 211.795 62.0343 210.467C62.0647 210.341 62.1432 210.231 62.253 210.161C62.3629 210.091 62.4956 210.067 62.6229 210.094C62.6862 210.108 62.746 210.134 62.7991 210.171C62.8521 210.208 62.8973 210.256 62.932 210.311C62.9666 210.366 62.9901 210.427 63.001 210.491C63.012 210.555 63.0101 210.62 62.9957 210.684C62.7112 211.952 62.4757 213.241 62.309 214.51C62.2992 214.631 62.2446 214.745 62.1557 214.829C62.0669 214.912 61.9501 214.96 61.8283 214.962ZM63.5352 207.301C63.4867 207.31 63.4367 207.31 63.3881 207.301C63.326 207.281 63.2684 207.25 63.2184 207.209C63.1685 207.167 63.1273 207.116 63.0972 207.058C63.0671 207.001 63.0487 206.938 63.043 206.873C63.0374 206.808 63.0446 206.743 63.0644 206.681C63.447 205.442 63.8982 204.183 64.3985 202.944C64.4557 202.836 64.5509 202.753 64.6656 202.711C64.7804 202.67 64.9064 202.673 65.0191 202.72C65.1318 202.766 65.2231 202.853 65.2753 202.964C65.3274 203.074 65.3366 203.2 65.3011 203.317C64.8204 204.527 64.3789 205.756 63.9963 206.976C63.9646 207.073 63.9026 207.156 63.8195 207.215C63.7364 207.273 63.6367 207.303 63.5352 207.301ZM66.4783 200.023C66.3849 200.05 66.2851 200.047 66.1938 200.013C66.1357 199.984 66.0838 199.945 66.0411 199.896C65.9983 199.848 65.9655 199.791 65.9445 199.73C65.9236 199.669 65.9148 199.604 65.9189 199.54C65.923 199.475 65.9397 199.412 65.9682 199.354C66.547 198.183 67.1846 197.013 67.8615 195.872C67.893 195.816 67.9355 195.767 67.9863 195.727C68.0372 195.688 68.0955 195.659 68.1577 195.642C68.2199 195.626 68.2848 195.622 68.3485 195.631C68.4122 195.64 68.4735 195.662 68.5286 195.695C68.6407 195.763 68.7219 195.872 68.7549 195.998C68.7879 196.125 68.7701 196.26 68.7052 196.374C68.0381 197.485 67.4201 198.636 66.8511 199.796C66.806 199.862 66.746 199.916 66.676 199.953C66.6061 199.991 66.5282 200.011 66.4489 200.013L66.4783 200.023ZM70.471 193.256C70.3414 193.26 70.2151 193.214 70.1179 193.128C70.0651 193.092 70.0202 193.045 69.9856 192.991C69.9511 192.937 69.9277 192.877 69.9167 192.814C69.9057 192.751 69.9075 192.686 69.9218 192.623C69.9361 192.561 69.9628 192.502 70.0001 192.45C70.7457 191.368 71.5502 190.296 72.3742 189.273C72.4566 189.173 72.5749 189.11 72.7034 189.097C72.832 189.084 72.9605 189.123 73.0609 189.204C73.162 189.285 73.227 189.403 73.2417 189.532C73.2564 189.661 73.2196 189.791 73.1394 189.893C72.3252 190.876 71.5403 191.948 70.8046 193.01C70.7666 193.076 70.7143 193.133 70.6514 193.175C70.5885 193.218 70.5168 193.245 70.4416 193.256H70.471ZM75.3761 187.158C75.2792 187.162 75.1835 187.136 75.1016 187.084C75.0197 187.032 74.9554 186.956 74.9172 186.867C74.879 186.777 74.8687 186.678 74.8876 186.583C74.9064 186.488 74.9536 186.4 75.023 186.332C75.9255 185.349 76.8771 184.444 77.8581 183.559C77.9029 183.513 77.9563 183.477 78.0152 183.452C78.0742 183.427 78.1375 183.414 78.2015 183.414C78.2654 183.414 78.3287 183.427 78.3877 183.452C78.4466 183.477 78.5001 183.513 78.5448 183.559C78.5908 183.605 78.6273 183.659 78.6522 183.719C78.6771 183.779 78.6899 183.843 78.6899 183.908C78.6899 183.973 78.6771 184.037 78.6522 184.097C78.6273 184.157 78.5908 184.211 78.5448 184.257C77.5638 185.123 76.6515 186.037 75.7685 186.981C75.7204 187.038 75.6602 187.084 75.5923 187.114C75.5244 187.145 75.4506 187.16 75.3761 187.158Z" fill="#D1D3D4"/>
<path d="M81.2487 181.857C81.1749 181.857 81.102 181.841 81.0357 181.808C80.9693 181.776 80.9113 181.729 80.8662 181.67C80.7865 181.565 80.7511 181.433 80.7676 181.303C80.7842 181.172 80.8513 181.053 80.9544 180.972C81.4841 180.579 82.0137 180.185 82.5531 179.802C82.6057 179.761 82.6661 179.731 82.7305 179.714C82.7949 179.698 82.862 179.694 82.9278 179.704C82.9936 179.714 83.0566 179.738 83.1131 179.773C83.1696 179.809 83.2183 179.855 83.2562 179.91C83.2942 179.965 83.3207 180.026 83.334 180.092C83.3474 180.157 83.3473 180.225 83.3338 180.29C83.3203 180.355 83.2937 180.417 83.2556 180.472C83.2175 180.527 83.1687 180.573 83.1122 180.608C82.5826 180.982 82.0627 181.365 81.5527 181.759C81.4652 181.824 81.3581 181.859 81.2487 181.857Z" fill="#D1D3D4"/>
<path d="M301.245 123.092C301.183 123.094 301.121 123.083 301.064 123.059C301.006 123.035 300.955 123 300.912 122.954C300.866 122.91 300.83 122.856 300.805 122.797C300.78 122.738 300.768 122.674 300.768 122.61C300.768 122.546 300.78 122.483 300.805 122.424C300.83 122.365 300.866 122.311 300.912 122.266C300.912 122.266 301.392 121.755 302.226 120.831C302.265 120.773 302.317 120.724 302.376 120.688C302.436 120.651 302.502 120.628 302.572 120.62C302.641 120.611 302.711 120.617 302.778 120.638C302.844 120.659 302.906 120.694 302.958 120.741C303.01 120.787 303.051 120.844 303.08 120.908C303.108 120.972 303.122 121.041 303.122 121.111C303.121 121.181 303.106 121.25 303.076 121.314C303.047 121.377 303.005 121.434 302.952 121.48C302.108 122.463 301.618 122.945 301.618 122.945C301.57 122.995 301.512 123.034 301.448 123.059C301.383 123.085 301.314 123.096 301.245 123.092Z" fill="#D1D3D4"/>
<path d="M305.161 118.656C305.042 118.656 304.928 118.614 304.837 118.538C304.791 118.493 304.755 118.44 304.73 118.381C304.705 118.322 304.693 118.258 304.693 118.194C304.693 118.13 304.705 118.066 304.73 118.007C304.755 117.948 304.791 117.895 304.837 117.85C305.592 116.945 306.436 115.883 307.339 114.791C307.42 114.69 307.537 114.625 307.666 114.61C307.794 114.595 307.924 114.632 308.025 114.712C308.076 114.752 308.119 114.801 308.151 114.857C308.183 114.914 308.203 114.976 308.21 115.04C308.217 115.104 308.212 115.169 308.194 115.231C308.175 115.293 308.145 115.351 308.104 115.401C307.201 116.542 306.348 117.574 305.583 118.479C305.532 118.541 305.468 118.59 305.394 118.621C305.32 118.652 305.24 118.664 305.161 118.656ZM310.066 112.46C309.96 112.456 309.858 112.422 309.771 112.362C309.668 112.28 309.601 112.161 309.585 112.031C309.568 111.9 309.604 111.768 309.683 111.664C310.439 110.68 311.223 109.598 312.018 108.487C312.093 108.38 312.208 108.307 312.337 108.285C312.466 108.263 312.598 108.293 312.705 108.369C312.811 108.444 312.884 108.559 312.906 108.689C312.928 108.818 312.898 108.95 312.822 109.057C312.018 110.178 311.233 111.25 310.458 112.263C310.419 112.324 310.367 112.374 310.306 112.412C310.245 112.449 310.176 112.472 310.105 112.48L310.066 112.46ZM314.677 105.999C314.586 106.001 314.497 105.979 314.42 105.933C314.342 105.888 314.278 105.821 314.236 105.741C314.194 105.661 314.176 105.571 314.182 105.481C314.189 105.391 314.221 105.304 314.274 105.231C314.991 104.159 315.716 103.058 316.423 101.917C316.493 101.808 316.603 101.731 316.73 101.701C316.856 101.672 316.989 101.693 317.1 101.76C317.209 101.83 317.286 101.941 317.313 102.069C317.341 102.196 317.317 102.329 317.247 102.438C316.57 103.53 315.844 104.651 315.089 105.782C315.047 105.844 314.992 105.896 314.927 105.934C314.863 105.971 314.79 105.993 314.716 105.999H314.677ZM318.875 99.2715C318.789 99.2732 318.703 99.2492 318.63 99.2026C318.574 99.171 318.525 99.1285 318.485 99.0775C318.446 99.0265 318.417 98.968 318.401 98.9057C318.384 98.8433 318.38 98.7783 318.389 98.7144C318.399 98.6505 318.42 98.5891 318.453 98.5338C319.121 97.3733 319.758 96.2029 320.337 95.0719C320.397 94.9558 320.5 94.8684 320.624 94.8287C320.749 94.789 320.883 94.8005 320.999 94.8605C321.115 94.9205 321.202 95.0241 321.242 95.1486C321.281 95.2731 321.27 95.4082 321.21 95.5243C320.622 96.675 319.974 97.8454 319.297 99.0256C319.258 99.0945 319.203 99.1528 319.136 99.1956C319.069 99.2384 318.993 99.2645 318.915 99.2715H318.875ZM322.515 92.2198C322.447 92.2338 322.377 92.2338 322.309 92.2198C322.25 92.1933 322.198 92.1554 322.154 92.1082C322.11 92.061 322.076 92.0055 322.055 91.945C322.033 91.8845 322.023 91.8202 322.026 91.7559C322.029 91.6916 322.046 91.6286 322.073 91.5707C322.633 90.3413 323.153 89.1217 323.604 87.9415C323.627 87.8806 323.661 87.8248 323.706 87.7773C323.75 87.7299 323.804 87.6918 323.863 87.6653C323.923 87.6388 323.987 87.6243 324.051 87.6228C324.116 87.6212 324.181 87.6326 324.241 87.6563C324.363 87.7047 324.46 87.7986 324.513 87.918C324.567 88.0374 324.571 88.1729 324.526 88.2956C324.055 89.4955 323.545 90.7347 322.966 91.9739C322.923 92.0456 322.863 92.1055 322.791 92.1484C322.719 92.1913 322.638 92.2158 322.554 92.2198H322.515ZM325.37 84.8239H325.223C325.099 84.7832 324.996 84.6957 324.935 84.58C324.875 84.4642 324.862 84.3295 324.899 84.2043C325.291 82.9159 325.625 81.6373 325.88 80.4079C325.908 80.2819 325.985 80.1721 326.093 80.1022C326.201 80.0322 326.333 80.0078 326.459 80.0342C326.585 80.0626 326.695 80.1389 326.767 80.2471C326.838 80.3553 326.865 80.4869 326.841 80.6145C326.567 81.8734 326.233 83.1814 325.86 84.5485C325.818 84.632 325.754 84.7021 325.674 84.7507C325.594 84.7994 325.502 84.8247 325.409 84.8239H325.37ZM327.018 77.0739H326.969C326.84 77.0614 326.722 76.9987 326.639 76.8992C326.557 76.7998 326.516 76.6717 326.527 76.5428C326.527 76.1297 326.606 75.7265 326.625 75.3134C326.625 74.3988 326.714 73.4939 326.743 72.6186C326.743 72.5537 326.756 72.4893 326.781 72.4296C326.807 72.3698 326.844 72.3157 326.891 72.2707C326.938 72.2257 326.993 72.1906 327.053 72.1676C327.114 72.1446 327.179 72.1341 327.243 72.1367C327.373 72.1418 327.495 72.1969 327.585 72.2904C327.674 72.3839 327.724 72.5086 327.724 72.6383C327.724 73.5333 327.655 74.4381 327.606 75.3724C327.606 75.7953 327.548 76.2084 327.508 76.6313C327.494 76.7522 327.436 76.8637 327.346 76.9452C327.256 77.0266 327.139 77.0723 327.018 77.0739ZM327.243 69.1469C327.115 69.1469 326.992 69.0965 326.9 69.0063C326.808 68.9162 326.755 68.7937 326.753 68.665C326.753 67.3274 326.655 66.0095 326.557 64.731C326.551 64.6669 326.559 64.6023 326.579 64.5412C326.599 64.4801 326.631 64.4235 326.673 64.3749C326.715 64.3264 326.766 64.2867 326.824 64.2583C326.881 64.23 326.944 64.2134 327.008 64.2097C327.072 64.2043 327.137 64.2118 327.199 64.2317C327.26 64.2515 327.317 64.2834 327.367 64.3254C327.416 64.3675 327.456 64.4189 327.486 64.4767C327.515 64.5344 327.533 64.5975 327.538 64.6621C327.636 65.9505 327.704 67.2881 327.734 68.6453C327.734 68.775 327.684 68.8997 327.594 68.9932C327.505 69.0867 327.382 69.1418 327.253 69.1469H327.243ZM326.606 61.2789C326.487 61.278 326.373 61.2351 326.283 61.1576C326.193 61.0802 326.134 60.9733 326.115 60.856C325.929 59.5381 325.684 58.2399 325.399 57.0007C325.371 56.8702 325.395 56.7338 325.466 56.6213C325.538 56.5088 325.652 56.4294 325.782 56.4007C325.912 56.372 326.048 56.3963 326.16 56.4683C326.272 56.5402 326.352 56.6539 326.38 56.7843C326.665 58.0432 326.91 59.3709 327.106 60.7183C327.123 60.847 327.09 60.9774 327.013 61.082C326.936 61.1865 326.822 61.2571 326.694 61.2789H326.606ZM324.83 53.5683C324.726 53.5696 324.625 53.5379 324.54 53.4778C324.456 53.4177 324.392 53.3323 324.359 53.2339C323.959 51.996 323.49 50.7811 322.956 49.5949C322.929 49.5362 322.914 49.4726 322.912 49.408C322.909 49.3433 322.919 49.2787 322.941 49.218C322.964 49.1573 322.998 49.1015 323.042 49.054C323.085 49.0065 323.138 48.968 323.197 48.9409C323.255 48.9138 323.319 48.8985 323.383 48.8959C323.448 48.8934 323.512 48.9035 323.573 48.9259C323.633 48.9483 323.689 48.9824 323.736 49.0263C323.784 49.0702 323.822 49.1231 323.849 49.1819C324.399 50.4031 324.88 51.6541 325.291 52.929C325.332 53.0516 325.323 53.1854 325.266 53.3013C325.209 53.4173 325.109 53.5061 324.987 53.5486C324.935 53.5543 324.881 53.551 324.83 53.5388V53.5683ZM321.554 46.3789C321.47 46.3795 321.388 46.3591 321.314 46.3196C321.24 46.2801 321.178 46.2227 321.132 46.1527C320.455 45.0449 319.701 43.9866 318.875 42.9858C318.794 42.8851 318.756 42.7563 318.768 42.6274C318.781 42.4985 318.844 42.3799 318.944 42.2974C318.993 42.2552 319.049 42.2232 319.11 42.2033C319.171 42.1834 319.236 42.176 319.3 42.1815C319.364 42.187 319.426 42.2053 319.483 42.2353C319.54 42.2654 319.59 42.3065 319.631 42.3564C320.483 43.3831 321.263 44.4675 321.966 45.6019C322.001 45.6564 322.025 45.7175 322.037 45.7816C322.048 45.8457 322.046 45.9114 322.032 45.9749C322.017 46.0383 321.99 46.0981 321.951 46.1506C321.913 46.2031 321.864 46.2473 321.809 46.2805C321.732 46.3274 321.643 46.3513 321.554 46.3494V46.3789ZM316.511 40.3107C316.393 40.3086 316.279 40.2671 316.187 40.1927C315.222 39.3289 314.192 38.5398 313.107 37.8323C313.049 37.7992 312.999 37.7547 312.958 37.7014C312.918 37.6481 312.889 37.5871 312.874 37.5223C312.858 37.4574 312.855 37.39 312.866 37.3242C312.877 37.2583 312.901 37.1954 312.937 37.1392C312.973 37.0831 313.02 37.0348 313.076 36.9975C313.131 36.9601 313.193 36.9345 313.259 36.922C313.324 36.9096 313.391 36.9106 313.456 36.9251C313.521 36.9395 313.583 36.9671 313.637 37.0061C314.766 37.7407 315.838 38.5593 316.845 39.4551C316.935 39.5486 316.986 39.6739 316.986 39.8042C316.986 39.9345 316.935 40.0598 316.845 40.1533C316.753 40.2356 316.634 40.2812 316.511 40.2812V40.3107ZM309.909 36.0128C309.841 36.0263 309.771 36.0263 309.703 36.0128C308.521 35.4735 307.306 35.0135 306.063 34.6359C305.933 34.5981 305.823 34.51 305.758 34.391C305.693 34.2721 305.677 34.132 305.715 34.0016C305.753 33.8711 305.841 33.7611 305.959 33.6956C306.078 33.6301 306.218 33.6146 306.348 33.6524C307.634 34.0388 308.892 34.512 310.115 35.0686C310.173 35.0951 310.226 35.133 310.27 35.1802C310.313 35.2274 310.347 35.2829 310.369 35.3434C310.391 35.4039 310.401 35.4682 310.398 35.5325C310.394 35.5968 310.378 35.6598 310.35 35.7178C310.309 35.7994 310.246 35.8678 310.168 35.9148C310.09 35.9618 310 35.9856 309.909 35.9833V36.0128ZM302.355 33.7016H302.267C300.985 33.4781 299.691 33.3303 298.392 33.259C298.327 33.2553 298.264 33.2388 298.206 33.2105C298.148 33.1823 298.096 33.1428 298.053 33.0944C298.01 33.0459 297.977 32.9895 297.956 32.9283C297.935 32.8671 297.927 32.8024 297.931 32.7378C297.93 32.6718 297.944 32.6064 297.97 32.5461C297.997 32.4858 298.037 32.4319 298.086 32.3881C298.135 32.3443 298.193 32.3116 298.256 32.2922C298.319 32.2728 298.385 32.2671 298.451 32.2755C299.786 32.3506 301.115 32.5016 302.433 32.7279C302.561 32.7519 302.675 32.8249 302.75 32.9314C302.825 33.0379 302.856 33.1695 302.836 33.2984C302.811 33.4067 302.749 33.503 302.662 33.5711C302.574 33.6392 302.466 33.6749 302.355 33.6721V33.7016Z" fill="#D1D3D4"/>
<path d="M292.486 33.4162C292.422 33.4213 292.357 33.4137 292.296 33.3938C292.234 33.3739 292.177 33.342 292.128 33.3C292.079 33.258 292.038 33.2067 292.009 33.149C291.98 33.0913 291.962 33.0284 291.957 32.9639C291.951 32.8993 291.959 32.8343 291.979 32.7727C291.999 32.7111 292.031 32.654 292.073 32.6047C292.157 32.5051 292.278 32.4433 292.408 32.4329C293.058 32.331 293.712 32.2654 294.369 32.2362C294.499 32.2284 294.627 32.2727 294.725 32.3594C294.822 32.446 294.881 32.568 294.889 32.6984C294.897 32.8288 294.853 32.9569 294.766 33.0547C294.68 33.1524 294.558 33.2117 294.428 33.2195C293.241 33.2883 292.535 33.3965 292.535 33.3965L292.486 33.4162Z" fill="#D1D3D4"/>
<path d="M78.4958 48.8515L48.9176 73.0877C47.8521 73.9608 47.6943 75.5346 48.5652 76.6028L60.9755 91.8253C61.8464 92.8935 63.4162 93.0517 64.4818 92.1786L94.06 67.9425C95.1255 67.0694 95.2833 65.4956 94.4124 64.4274L82.0021 49.2049C81.1312 48.1366 79.5614 47.9784 78.4958 48.8515Z" fill="white"/>
<path d="M62.9245 93.2332H62.6203C61.8497 93.1458 61.1446 92.757 60.6583 92.1513L48.1994 76.9071C47.9477 76.6055 47.7587 76.2565 47.6435 75.8806C47.5283 75.5047 47.4892 75.1096 47.5285 74.7183C47.5678 74.3271 47.6847 73.9476 47.8724 73.6023C48.06 73.257 48.3146 72.9528 48.6212 72.7076L78.1989 48.4643C78.4997 48.212 78.8479 48.0225 79.2228 47.907C79.5977 47.7915 79.9919 47.7523 80.3822 47.7917C80.7724 47.8311 81.1509 47.9483 81.4953 48.1364C81.8398 48.3246 82.1432 48.5798 82.3878 48.8872L94.8075 64.1216C95.0592 64.4232 95.2482 64.7722 95.3634 65.1481C95.4786 65.524 95.5177 65.9192 95.4784 66.3104C95.4391 66.7017 95.3222 67.0811 95.1346 67.4264C94.9469 67.7717 94.6923 68.0759 94.3857 68.3212L64.808 92.5546C64.2785 92.9944 63.6121 93.2345 62.9245 93.2332ZM80.0825 48.779C79.6231 48.7803 79.1774 48.9361 78.8169 49.2216L49.2393 73.4649C49.04 73.632 48.8757 73.8372 48.7562 74.0685C48.6366 74.2998 48.5641 74.5526 48.5428 74.8123C48.4936 75.3428 48.6519 75.8717 48.9842 76.2875L61.4039 91.5121C61.568 91.7173 61.7715 91.8875 62.0023 92.0125C62.2332 92.1375 62.4867 92.2148 62.7479 92.2399C63.2741 92.2896 63.7988 92.1308 64.2096 91.7973L93.7676 67.554C93.9742 67.3907 94.1459 67.1873 94.2725 66.9561C94.3991 66.7249 94.478 66.4705 94.5046 66.2081C94.5311 65.9457 94.5047 65.6806 94.427 65.4286C94.3493 65.1766 94.2218 64.9428 94.0521 64.7412L81.6325 49.5363C81.4487 49.3001 81.2135 49.1091 80.9449 48.9778C80.6763 48.8466 80.3813 48.7786 80.0825 48.779Z" fill="#D1D3D4"/>
<path d="M48.0498 75.107C47.9197 75.107 47.7949 75.0552 47.703 74.9629C47.611 74.8707 47.5593 74.7456 47.5593 74.6152C47.5525 74.5511 47.5587 74.4863 47.5774 74.4246C47.5961 74.3629 47.6269 74.3057 47.6681 74.2561C47.7092 74.2066 47.7599 74.1659 47.817 74.1363C47.8742 74.1068 47.9366 74.089 48.0008 74.0841L72.6537 71.9401L79.6582 48.1493C79.675 48.0865 79.7044 48.0279 79.7444 47.9768C79.7845 47.9258 79.8344 47.8833 79.8912 47.8521C79.948 47.8209 80.0105 47.8015 80.075 47.7951C80.1395 47.7887 80.2046 47.7954 80.2664 47.8149C80.3895 47.8535 80.4925 47.9391 80.5531 48.0532C80.6137 48.1673 80.627 48.3008 80.5901 48.4246L73.5072 72.54C73.4815 72.6352 73.4272 72.7202 73.3518 72.7836C73.2764 72.8469 73.1834 72.8855 73.0854 72.8941L48.0989 75.107H48.0498Z" fill="#D1D3D4"/>
<path d="M74.0432 69.3639C73.9132 69.3639 73.7884 69.312 73.6964 69.2198C73.6044 69.1276 73.5527 69.0025 73.5527 68.8721C73.5527 68.7417 73.6044 68.6166 73.6964 68.5244C73.7884 68.4322 73.9132 68.3804 74.0432 68.3804L94.8997 65.9904C95.0279 65.9792 95.1555 66.0178 95.2559 66.0984C95.3564 66.179 95.4221 66.2953 95.4392 66.4232C95.4474 66.4878 95.4428 66.5535 95.4254 66.6163C95.4081 66.6791 95.3785 66.7378 95.3383 66.7891C95.2982 66.8403 95.2483 66.8831 95.1915 66.9148C95.1347 66.9465 95.0722 66.9666 95.0076 66.9739L74.1315 69.3639H74.0432Z" fill="#D1D3D4"/>
<path d="M62.8882 93.2328C62.8396 93.2421 62.7897 93.2421 62.7411 93.2328C62.6792 93.2139 62.6217 93.1826 62.5721 93.1409C62.5225 93.0992 62.4818 93.0478 62.4525 92.99C62.4232 92.9321 62.4058 92.8689 62.4015 92.8042C62.3971 92.7394 62.4059 92.6745 62.4272 92.6132L68.9117 72.599C68.9317 72.5344 68.9641 72.4744 69.0072 72.4224C69.0503 72.3704 69.1032 72.3274 69.1629 72.2959C69.2225 72.2644 69.2878 72.245 69.355 72.2388C69.4221 72.2325 69.4898 72.2396 69.5543 72.2597C69.6187 72.2797 69.6785 72.3122 69.7304 72.3554C69.7823 72.3986 69.8251 72.4517 69.8566 72.5115C69.888 72.5713 69.9074 72.6367 69.9136 72.7041C69.9198 72.7714 69.9127 72.8393 69.8927 72.9038L63.4082 92.918C63.3679 93.0204 63.2952 93.1067 63.2013 93.1635C63.1073 93.2204 62.9973 93.2447 62.8882 93.2328Z" fill="#D1D3D4"/>
<path d="M345.271 155.171L317.09 142.922C316.076 142.481 314.897 142.948 314.458 143.964L308.183 158.474C307.743 159.491 308.209 160.672 309.223 161.113L337.404 173.362C338.418 173.803 339.596 173.336 340.036 172.319L346.311 157.81C346.751 156.793 346.285 155.612 345.271 155.171Z" fill="white"/>
<path d="M338.223 174.009C337.885 174.006 337.552 173.936 337.242 173.802L309.067 161.548C308.765 161.42 308.491 161.234 308.262 160.999C308.033 160.764 307.853 160.486 307.733 160.181C307.482 159.566 307.482 158.878 307.733 158.263L314.001 143.756C314.266 143.15 314.759 142.674 315.373 142.431C315.987 142.188 316.671 142.197 317.278 142.458L345.463 154.703C345.763 154.834 346.034 155.023 346.261 155.259C346.489 155.495 346.667 155.774 346.787 156.08C346.913 156.382 346.978 156.706 346.978 157.034C346.978 157.361 346.913 157.685 346.787 157.988L340.508 172.474C340.38 172.775 340.193 173.047 339.959 173.275C339.725 173.503 339.448 173.682 339.145 173.802C338.853 173.929 338.54 173.999 338.223 174.009ZM316.356 143.235C316.061 143.236 315.774 143.323 315.528 143.485C315.282 143.648 315.089 143.879 314.973 144.15L308.655 158.705C308.501 159.071 308.496 159.482 308.643 159.851C308.79 160.219 309.077 160.515 309.44 160.672L337.624 172.927C337.995 173.079 338.411 173.079 338.782 172.927C338.966 172.855 339.134 172.746 339.276 172.608C339.417 172.469 339.53 172.303 339.606 172.12L345.884 157.604C346.036 157.236 346.036 156.822 345.884 156.453C345.814 156.266 345.707 156.096 345.568 155.952C345.43 155.808 345.264 155.694 345.08 155.617L316.915 143.363C316.739 143.282 316.549 143.238 316.356 143.235Z" fill="#D1D3D4"/>
<path d="M326.485 160.417C326.402 160.419 326.321 160.399 326.248 160.359C326.176 160.319 326.116 160.261 326.073 160.191L315.281 143.097C315.247 143.043 315.224 142.981 315.214 142.918C315.203 142.854 315.205 142.789 315.22 142.726C315.234 142.663 315.261 142.603 315.299 142.55C315.336 142.498 315.384 142.453 315.438 142.419C315.493 142.385 315.554 142.362 315.618 142.351C315.681 142.34 315.747 142.342 315.809 142.357C315.872 142.372 315.932 142.398 315.984 142.436C316.037 142.474 316.081 142.521 316.115 142.576L326.691 159.384L346.164 155.637C346.227 155.623 346.293 155.621 346.356 155.633C346.42 155.645 346.481 155.669 346.535 155.705C346.589 155.741 346.635 155.787 346.671 155.842C346.707 155.896 346.731 155.957 346.743 156.021C346.766 156.15 346.738 156.282 346.664 156.391C346.591 156.499 346.478 156.575 346.35 156.601L326.553 160.417H326.485Z" fill="#D1D3D4"/>
<path d="M338.785 173.921C338.704 173.921 338.624 173.901 338.553 173.863C338.481 173.826 338.419 173.771 338.373 173.704L328.975 159.689C328.904 159.581 328.879 159.449 328.904 159.322C328.93 159.195 329.005 159.083 329.112 159.011C329.165 158.974 329.225 158.949 329.289 158.936C329.352 158.923 329.417 158.923 329.48 158.936C329.543 158.949 329.603 158.974 329.656 159.011C329.709 159.047 329.755 159.094 329.789 159.149L339.187 173.203C339.259 173.313 339.285 173.446 339.259 173.575C339.233 173.704 339.158 173.817 339.05 173.891C338.966 173.924 338.875 173.934 338.785 173.921Z" fill="#D1D3D4"/>
<path d="M308.262 160.672C308.144 160.674 308.03 160.633 307.94 160.557C307.85 160.481 307.79 160.376 307.771 160.259C307.762 160.195 307.764 160.13 307.78 160.067C307.795 160.005 307.823 159.945 307.861 159.893C307.9 159.841 307.948 159.797 308.003 159.764C308.058 159.73 308.119 159.708 308.183 159.699L324.861 156.965C324.925 156.954 324.991 156.957 325.054 156.972C325.118 156.987 325.178 157.015 325.23 157.053C325.283 157.091 325.328 157.14 325.362 157.196C325.396 157.251 325.419 157.313 325.43 157.378C325.44 157.442 325.437 157.508 325.422 157.572C325.407 157.635 325.38 157.695 325.341 157.748C325.303 157.801 325.255 157.846 325.199 157.881C325.144 157.915 325.082 157.938 325.018 157.948L308.34 160.682L308.262 160.672Z" fill="#D1D3D4"/>
<path d="M148.796 35.0061L127.481 27.9225C126.715 27.6679 125.888 28.0842 125.634 28.8524L122.004 39.8309C121.75 40.5991 122.165 41.4283 122.931 41.683L144.246 48.7666C145.012 49.0212 145.84 48.6049 146.094 47.8367L149.724 36.8582C149.978 36.09 149.562 35.2608 148.796 35.0061Z" fill="white"/>
<path d="M144.677 49.3197C144.47 49.3192 144.265 49.286 144.068 49.2214L122.751 42.1402C122.26 41.9744 121.855 41.6209 121.623 41.1567C121.391 40.6922 121.353 40.1548 121.515 39.6617L125.145 28.6859C125.308 28.1946 125.659 27.7879 126.12 27.554C126.581 27.3202 127.115 27.2781 127.607 27.4369L148.924 34.518C149.415 34.6841 149.82 35.0378 150.052 35.502C150.283 35.9663 150.322 36.5034 150.16 36.9965L146.541 47.9723C146.411 48.3648 146.161 48.7063 145.826 48.9482C145.491 49.1901 145.089 49.3201 144.677 49.3197ZM144.372 48.287C144.611 48.3854 144.879 48.3854 145.118 48.287C145.233 48.2289 145.336 48.1486 145.42 48.0508C145.504 47.9529 145.568 47.8393 145.609 47.7166L149.248 36.7506C149.346 36.5111 149.346 36.2426 149.248 36.0031C149.133 35.772 148.933 35.5954 148.689 35.5114L127.371 28.4302C127.125 28.3504 126.857 28.3716 126.626 28.4892C126.399 28.6063 126.227 28.8074 126.145 29.0498L122.515 40.0256C122.422 40.2661 122.422 40.5327 122.515 40.7731C122.635 41.0025 122.839 41.1756 123.084 41.255L144.372 48.287Z" fill="#D1D3D4"/>
<path d="M135.404 40.1929C135.328 40.1921 135.254 40.174 135.186 40.1399C135.118 40.1059 135.058 40.0567 135.012 39.9962L126.036 28.2532C125.966 28.1496 125.938 28.0231 125.957 27.8995C125.977 27.7759 126.043 27.6645 126.142 27.588C126.241 27.5115 126.365 27.4757 126.489 27.4878C126.613 27.4999 126.728 27.5591 126.811 27.6533L135.552 39.1307L149.404 35.1967C149.466 35.1788 149.531 35.1735 149.596 35.1812C149.66 35.1888 149.723 35.2093 149.779 35.2413C149.836 35.2733 149.886 35.3163 149.926 35.3677C149.965 35.4192 149.995 35.478 150.012 35.5409C150.045 35.6661 150.027 35.7993 149.963 35.9116C149.899 36.024 149.793 36.1063 149.668 36.1409L135.503 40.2125L135.404 40.1929Z" fill="#D1D3D4"/>
<path d="M145.244 49.2216C145.17 49.2228 145.097 49.2065 145.03 49.174C144.964 49.1415 144.906 49.0938 144.861 49.0348L137.111 39.4161C137.029 39.3144 136.991 39.1842 137.005 39.0542C137.019 38.9241 137.083 38.8049 137.185 38.7228C137.286 38.6406 137.416 38.6022 137.546 38.616C137.675 38.6299 137.794 38.6948 137.876 38.7965L145.626 48.425C145.707 48.5269 145.743 48.6565 145.729 48.7854C145.714 48.9144 145.649 49.0323 145.548 49.1134C145.461 49.1822 145.354 49.2202 145.244 49.2216Z" fill="#D1D3D4"/>
<path d="M122.115 41.55C122.051 41.5577 121.986 41.5527 121.923 41.5351C121.861 41.5176 121.802 41.4878 121.751 41.4477C121.7 41.4075 121.658 41.3576 121.626 41.3009C121.594 41.2442 121.574 41.1818 121.566 41.1172C121.558 41.0526 121.563 40.9872 121.581 40.9246C121.598 40.8619 121.628 40.8034 121.668 40.7522C121.708 40.7011 121.758 40.6584 121.814 40.6265C121.871 40.5946 121.933 40.5742 121.998 40.5665L133.946 37.4979C134.009 37.4817 134.074 37.478 134.138 37.487C134.202 37.496 134.263 37.5175 134.319 37.5504C134.375 37.5833 134.423 37.6269 134.462 37.6786C134.501 37.7304 134.529 37.7893 134.545 37.852C134.561 37.914 134.565 37.9786 134.556 38.0421C134.546 38.1055 134.525 38.1665 134.492 38.2214C134.459 38.2764 134.416 38.3242 134.364 38.3621C134.312 38.4 134.254 38.4272 134.192 38.4421L122.243 41.5205L122.115 41.55Z" fill="#D1D3D4"/>
</svg>
