<svg width="500" height="500" viewBox="0 0 500 500" fill="none" xmlns="http://www.w3.org/2000/svg">
<g clip-path="url(#clip0_13_2347)">
<rect width="500" height="500" rx="25" fill="#FFD400" fill-opacity="0.25"/>
<path d="M368.75 70C399.54 70 424.5 94.9601 424.5 125.75V737.25C424.5 768.04 399.54 793 368.75 793H130.75C99.9601 793 75 768.04 75 737.25V125.75C75 94.9601 99.9601 70 130.75 70H368.75Z" fill="black"/>
<path d="M368.75 70.0227C399.54 70.0227 424.5 94.9828 424.5 125.773V737.273C424.5 768.063 399.54 793.023 368.75 793.023H130.75C99.9601 793.023 75 768.063 75 737.273V125.773C75 94.9828 99.9601 70.0227 130.75 70.0227H368.75ZM368.75 74.5227H130.75C102.728 74.5227 79.9594 97.0115 79.5069 124.925L79.5 125.773V737.273C79.5 765.294 101.989 788.063 129.902 788.523H130.75H368.75C396.772 788.523 419.541 766.034 419.993 738.12L420 737.273V125.773C420 97.7512 397.511 74.9821 369.598 74.5227H368.75Z" fill="#E4E5DE"/>
<g opacity="0.231492">
<path opacity="0.231492" d="M79.75 142.25H75.25V146.5H79.75V142.25Z" fill="#4B4B4B"/>
<path opacity="0.231492" d="M424.75 142.25H420.25V146.5H424.75V142.25Z" fill="#4B4B4B"/>
<path opacity="0.231492" d="M355.25 70.25H351V74.75H355.25V70.25Z" fill="#4B4B4B"/>
</g>
<path opacity="0.293759" d="M368.75 71.0227L369.655 71.03C399.177 71.5087 423.019 95.3534 423.493 124.876L423.5 125.773V737.273L423.493 738.178C423.014 767.7 399.169 791.542 369.646 792.023H368.75H130.75L129.845 792.015C100.323 791.537 76.4811 767.692 76.0072 738.169L76 737.273V125.773L76.0073 124.867C76.486 95.3455 100.331 71.5038 129.854 71.0227H130.75H368.75ZM368.744 71.7727H130.75C101.554 71.7727 77.7157 94.9628 76.7787 123.992L76.7573 124.873L76.75 125.773V737.273C76.75 766.468 99.9401 790.307 128.969 791.244L129.851 791.265L130.75 791.273H368.75C397.946 791.273 421.784 768.083 422.721 739.053L422.743 738.172L422.75 737.273V125.773C422.75 96.5771 399.56 72.7384 370.531 71.8014L369.649 71.78L368.744 71.7727Z" fill="url(#paint0_linear_13_2347)"/>
<path d="M264.875 90.5227C266.463 90.5227 267.75 91.8099 267.75 93.3977C267.75 94.9855 266.463 96.2727 264.875 96.2727H235.375C233.787 96.2727 232.5 94.9855 232.5 93.3977C232.5 91.8099 233.787 90.5227 235.375 90.5227H264.875ZM264.875 91.0227H235.375C234.063 91.0227 233 92.086 233 93.3977C233 94.6868 234.027 95.736 235.307 95.7718L235.375 95.7727H264.875C266.187 95.7727 267.25 94.7094 267.25 93.3977C267.25 92.1086 266.223 91.0594 264.943 91.0236L264.875 91.0227Z" fill="white" fill-opacity="0.08"/>
<path d="M264.875 91.0227H235.375C234.063 91.0227 233 92.086 233 93.3977C233 94.6868 234.027 95.736 235.307 95.7718L235.375 95.7727H264.875C266.187 95.7727 267.25 94.7094 267.25 93.3977C267.25 92.1086 266.223 91.0594 264.943 91.0236L264.875 91.0227Z" fill="white" fill-opacity="0.04"/>
<path d="M282.625 99.1477C285.87 99.1477 288.5 96.5733 288.5 93.3977C288.5 90.2221 285.87 87.6477 282.625 87.6477C279.38 87.6477 276.75 90.2221 276.75 93.3977C276.75 96.5733 279.38 99.1477 282.625 99.1477Z" fill="white" fill-opacity="0.05"/>
<path d="M282.625 96.2727C284.213 96.2727 285.5 94.9855 285.5 93.3977C285.5 91.8099 284.213 90.5227 282.625 90.5227C281.037 90.5227 279.75 91.8099 279.75 93.3977C279.75 94.9855 281.037 96.2727 282.625 96.2727Z" fill="url(#paint1_radial_13_2347)"/>
<path fill-rule="evenodd" clip-rule="evenodd" d="M75 207.023V230.773H72.75C72.3358 230.773 72 230.437 72 230.023V207.773C72 207.358 72.3358 207.023 72.75 207.023H75Z" fill="url(#paint2_linear_13_2347)"/>
<path d="M75 207.023V207.523H72.8125C72.6522 207.523 72.5202 207.619 72.5021 207.744L72.5 207.773V230.023C72.5 230.151 72.6206 230.257 72.7761 230.271L72.8125 230.273H75V230.773H72.75C72.3358 230.773 72 230.437 72 230.023V207.773C72 207.358 72.3358 207.023 72.75 207.023H75Z" fill="#979797" fill-opacity="0.2"/>
<path fill-rule="evenodd" clip-rule="evenodd" d="M75 254.773V302.773H73.5C73.2239 302.773 73 302.549 73 302.273V255.273C73 254.997 73.2239 254.773 73.5 254.773H75Z" fill="url(#paint3_linear_13_2347)"/>
<path d="M75 254.773V255.273H73.5V302.273H75V302.773H73.5C73.2239 302.773 73 302.549 73 302.273V255.273C73 254.997 73.2239 254.773 73.5 254.773H75Z" fill="#979797" fill-opacity="0.2"/>
<path fill-rule="evenodd" clip-rule="evenodd" d="M75 318.023V366.023H73.5C73.2239 366.023 73 365.799 73 365.523V318.523C73 318.247 73.2239 318.023 73.5 318.023H75Z" fill="url(#paint4_linear_13_2347)"/>
<path d="M75 318.023V318.523H73.5V365.523H75V366.023H73.5C73.2239 366.023 73 365.799 73 365.523V318.523C73 318.247 73.2239 318.023 73.5 318.023H75Z" fill="#979797" fill-opacity="0.2"/>
<path fill-rule="evenodd" clip-rule="evenodd" d="M427.5 270.773C427.776 270.773 428 270.997 428 271.273V355.273C428 355.549 427.776 355.773 427.5 355.773H424.5V270.773H427.5Z" fill="url(#paint5_linear_13_2347)"/>
<path d="M424.5 270.773H427.5C427.776 270.773 428 270.997 428 271.273V355.273C428 355.549 427.776 355.773 427.5 355.773H424.5V355.273H427.5V271.273H424.5V270.773Z" fill="#979797" fill-opacity="0.2"/>
<mask id="mask0_13_2347" style="mask-type:alpha" maskUnits="userSpaceOnUse" x="90" y="84" width="321" height="695">
<path d="M168 84.2727H168.079C170.225 84.3149 171.957 86.0468 171.999 88.193L172 88.2727V91.0227C172 100.591 179.679 108.366 189.211 108.52L189.5 108.523H311.5C321.068 108.523 328.843 100.844 328.998 91.3121L329 91.0227V88.2727L329.001 88.194C329.042 86.0477 330.774 84.3154 332.92 84.2727H333H370.186C392.564 84.641 410.635 102.715 410.995 125.093L411 125.773V737.273L410.994 737.959C410.632 760.336 392.558 778.408 370.179 778.773H369.5H130.814C108.436 778.404 90.3646 760.33 90.0054 737.952L90 737.273V125.773L90.0056 125.086C90.3684 102.709 108.442 84.6374 130.821 84.2727H131.5H168Z" fill="white"/>
</mask>
<g mask="url(#mask0_13_2347)">
<path d="M168 84.2727H168.079C170.225 84.3149 171.957 86.0468 171.999 88.193L172 88.2727V91.0227C172 100.591 179.679 108.366 189.211 108.52L189.5 108.523H311.5C321.068 108.523 328.843 100.844 328.998 91.3121L329 91.0227V88.2727L329.001 88.194C329.042 86.0477 330.774 84.3154 332.92 84.2727H333H370.186C392.564 84.641 410.635 102.715 410.995 125.093L411 125.773V737.273L410.994 737.959C410.632 760.336 392.558 778.408 370.179 778.773H369.5H130.814C108.436 778.404 90.3646 760.33 90.0054 737.952L90 737.273V125.773L90.0056 125.086C90.3684 102.709 108.442 84.6374 130.821 84.2727H131.5H168Z" fill="#2F2F2F"/>
<path d="M438 96.0227H117V790.523H438V96.0227Z" fill="#DCDDD7"/>
<g clip-path="url(#clip1_13_2347)">
<rect x="89.75" y="72" width="322" height="707" rx="23.8366" fill="#312E38"/>
<path d="M115.17 240.25H127.477V236.965H119.153V221.216H115.17V240.25ZM134.013 240.474C135.873 240.474 137.377 239.59 138.182 238.139H138.261V240.25H142.112V230.555C142.112 227.706 139.751 225.819 136.097 225.819C132.364 225.819 130.122 227.692 129.911 230.304L129.898 230.462H133.42L133.446 230.344C133.631 229.434 134.501 228.761 135.939 228.761C137.443 228.761 138.261 229.539 138.261 230.792V231.663L134.765 231.874C131.256 232.098 129.265 233.602 129.265 236.174V236.2C129.265 238.693 131.177 240.474 134.013 240.474ZM133.077 236.003V235.976C133.077 234.974 133.855 234.341 135.346 234.248L138.261 234.063V235.079C138.261 236.557 136.994 237.665 135.266 237.665C133.934 237.665 133.077 237.045 133.077 236.003ZM144.903 240.25H148.754V232.335C148.754 230.278 149.862 229.143 151.762 229.143C152.316 229.143 152.844 229.222 153.16 229.354V225.964C152.87 225.885 152.474 225.819 152.052 225.819C150.403 225.819 149.256 226.835 148.834 228.576H148.754V226.109H144.903V240.25ZM161.174 245.157C165.421 245.157 168.073 243.007 168.073 239.854V226.109H164.221V228.523H164.142C163.377 226.874 161.834 225.819 159.842 225.819C156.267 225.819 154.051 228.497 154.051 233.008V233.021C154.051 237.414 156.241 240.052 159.776 240.052C161.82 240.052 163.403 239.116 164.142 237.638H164.221V239.802C164.221 241.384 163.166 242.413 161.174 242.413C159.565 242.413 158.536 241.807 158.232 241.107L158.193 241.015H154.447L154.46 241.134C154.829 243.403 157.283 245.157 161.174 245.157ZM161.108 237.229C159.182 237.229 157.969 235.66 157.969 233.114V233.101C157.969 230.568 159.195 229.011 161.108 229.011C162.981 229.011 164.234 230.581 164.234 233.101V233.114C164.234 235.646 162.994 237.229 161.108 237.229ZM177.34 240.54C181.376 240.54 183.328 238.153 183.764 236.069L183.803 235.923H180.268L180.242 236.003C179.965 236.794 179.002 237.665 177.419 237.665C175.453 237.665 174.227 236.346 174.187 234.09H183.922V232.903C183.922 228.629 181.323 225.819 177.181 225.819C173.04 225.819 170.388 228.695 170.388 233.193V233.206C170.388 237.731 173.013 240.54 177.34 240.54ZM177.247 228.695C178.844 228.695 179.991 229.711 180.229 231.663H174.227C174.477 229.75 175.665 228.695 177.247 228.695ZM197.483 240.54C198.288 240.54 198.908 240.461 199.343 240.395V237.572C199.105 237.599 198.855 237.638 198.512 237.638C197.351 237.638 196.757 237.19 196.757 235.871V229.011H199.343V226.109H196.757V222.653H192.866V226.109H190.901V229.011H192.866V236.293C192.866 239.327 194.343 240.54 197.483 240.54ZM203.769 224.289C204.93 224.289 205.826 223.379 205.826 222.284C205.826 221.189 204.93 220.279 203.769 220.279C202.608 220.279 201.711 221.189 201.711 222.284C201.711 223.379 202.608 224.289 203.769 224.289ZM201.843 240.25H205.695V226.109H201.843V240.25ZM214.196 240.54C215.001 240.54 215.621 240.461 216.056 240.395V237.572C215.819 237.599 215.568 237.638 215.225 237.638C214.065 237.638 213.471 237.19 213.471 235.871V229.011H216.056V226.109H213.471V222.653H209.58V226.109H207.614V229.011H209.58V236.293C209.58 239.327 211.057 240.54 214.196 240.54ZM218.57 240.25H222.421V221.216H218.57V240.25ZM231.754 240.54C235.791 240.54 237.743 238.153 238.178 236.069L238.218 235.923H234.683L234.656 236.003C234.379 236.794 233.416 237.665 231.833 237.665C229.868 237.665 228.641 236.346 228.602 234.09H238.336V232.903C238.336 228.629 235.738 225.819 231.596 225.819C227.454 225.819 224.803 228.695 224.803 233.193V233.206C224.803 237.731 227.428 240.54 231.754 240.54ZM231.662 228.695C233.258 228.695 234.406 229.711 234.643 231.663H228.641C228.892 229.75 230.079 228.695 231.662 228.695Z" fill="white"/>
<g clip-path="url(#clip2_13_2347)">
<g clip-path="url(#clip3_13_2347)">
<rect x="113.984" y="209.061" width="131.896" height="199.433" rx="11.521" fill="#312E38" stroke="#25222A" stroke-width="0.794554"/>
<path d="M122.706 231.403H124.408V227.275H129.038V231.403H130.733V221.886H129.038V225.843H124.408V221.886H122.706V231.403ZM135.678 231.548C137.637 231.548 138.6 230.421 138.831 229.491L138.851 229.431H137.288L137.268 229.477C137.11 229.807 136.602 230.256 135.711 230.256C134.597 230.256 133.898 229.504 133.878 228.211H138.917V227.67C138.917 225.494 137.65 224.056 135.599 224.056C133.548 224.056 132.236 225.54 132.236 227.809V227.815C132.236 230.111 133.535 231.548 135.678 231.548ZM135.619 225.342C136.536 225.342 137.202 225.929 137.314 227.11H133.891C134.016 225.962 134.702 225.342 135.619 225.342ZM142.2 231.522C143.15 231.522 143.915 231.113 144.311 230.414H144.423V231.403H146.045V226.477C146.045 224.953 145.003 224.056 143.15 224.056C141.435 224.056 140.274 224.861 140.116 226.074L140.11 226.134H141.659L141.666 226.107C141.831 225.632 142.319 225.362 143.071 225.362C143.955 225.362 144.423 225.758 144.423 226.477V227.097L142.57 227.209C140.815 227.314 139.833 228.066 139.833 229.352V229.365C139.833 230.678 140.828 231.522 142.2 231.522ZM141.455 229.286V229.273C141.455 228.679 141.884 228.343 142.8 228.284L144.423 228.178V228.759C144.423 229.616 143.691 230.262 142.702 230.262C141.976 230.262 141.455 229.9 141.455 229.286ZM150.292 231.522C151.308 231.522 152.086 231.06 152.482 230.276H152.594V231.403H154.243V221.405H152.594V225.342H152.482C152.106 224.564 151.281 224.076 150.292 224.076C148.465 224.076 147.337 225.5 147.337 227.796V227.809C147.337 230.091 148.485 231.522 150.292 231.522ZM150.806 230.137C149.685 230.137 149.006 229.26 149.006 227.809V227.796C149.006 226.345 149.692 225.461 150.806 225.461C151.921 225.461 152.62 226.351 152.62 227.796V227.809C152.62 229.253 151.928 230.137 150.806 230.137ZM156.049 231.403H157.691V221.405H156.049V231.403ZM160.289 222.988C160.823 222.988 161.265 222.559 161.265 222.018C161.265 221.484 160.823 221.049 160.289 221.049C159.748 221.049 159.306 221.484 159.306 222.018C159.306 222.559 159.748 222.988 160.289 222.988ZM159.464 231.403H161.106V224.195H159.464V231.403ZM162.8 231.403H164.443V227.202C164.443 226.12 165.049 225.434 166.026 225.434C167.021 225.434 167.477 226.002 167.477 227.123V231.403H169.119V226.74C169.119 225.026 168.242 224.056 166.632 224.056C165.59 224.056 164.898 224.524 164.555 225.296H164.443V224.195H162.8V231.403ZM173.82 231.548C175.779 231.548 176.742 230.421 176.973 229.491L176.993 229.431H175.43L175.41 229.477C175.252 229.807 174.744 230.256 173.853 230.256C172.739 230.256 172.04 229.504 172.02 228.211H177.059V227.67C177.059 225.494 175.792 224.056 173.741 224.056C171.69 224.056 170.378 225.54 170.378 227.809V227.815C170.378 230.111 171.677 231.548 173.82 231.548ZM173.761 225.342C174.678 225.342 175.344 225.929 175.456 227.11H172.033C172.158 225.962 172.844 225.342 173.761 225.342Z" fill="white"/>
<path d="M125.094 377.733C126.523 377.733 127.584 376.936 127.808 375.707V375.698H126.961L126.951 375.707C126.742 376.48 126.03 376.96 125.094 376.96C123.8 376.96 122.989 375.903 122.989 374.222V374.213C122.989 372.532 123.8 371.471 125.089 371.471C126.016 371.471 126.733 372.015 126.956 372.877L126.961 372.886H127.803L127.808 372.877C127.608 371.587 126.504 370.698 125.089 370.698C123.264 370.698 122.128 372.048 122.128 374.213V374.222C122.128 376.382 123.269 377.733 125.094 377.733ZM130.49 377.663C131.165 377.663 131.691 377.369 132.007 376.834H132.082V377.574H132.892V374.138C132.892 373.096 132.208 372.467 130.983 372.467C129.912 372.467 129.149 372.998 129.018 373.785L129.014 373.812H129.824L129.828 373.799C129.959 373.407 130.355 373.184 130.955 373.184C131.705 373.184 132.082 373.519 132.082 374.138V374.595L130.643 374.683C129.475 374.753 128.814 375.27 128.814 376.164V376.173C128.814 377.085 129.535 377.663 130.49 377.663ZM129.642 376.154V376.145C129.642 375.647 129.977 375.377 130.741 375.33L132.082 375.246V375.703C132.082 376.42 131.481 376.96 130.657 376.96C130.075 376.96 129.642 376.662 129.642 376.154ZM134.372 379.25H135.182V376.783H135.257C135.532 377.318 136.132 377.663 136.821 377.663C138.097 377.663 138.926 376.643 138.926 375.07V375.06C138.926 373.496 138.092 372.467 136.821 372.467C136.123 372.467 135.564 372.798 135.257 373.356H135.182V372.555H134.372V379.25ZM136.635 376.946C135.722 376.946 135.164 376.229 135.164 375.07V375.06C135.164 373.901 135.722 373.184 136.635 373.184C137.552 373.184 138.097 373.892 138.097 375.06V375.07C138.097 376.238 137.552 376.946 136.635 376.946ZM141.975 377.611C142.133 377.611 142.287 377.593 142.445 377.565V376.876C142.296 376.89 142.217 376.895 142.073 376.895C141.551 376.895 141.346 376.657 141.346 376.066V373.226H142.445V372.555H141.346V371.257H140.508V372.555H139.717V373.226H140.508V376.271C140.508 377.23 140.941 377.611 141.975 377.611ZM144.084 371.587C144.391 371.587 144.643 371.336 144.643 371.028C144.643 370.721 144.391 370.47 144.084 370.47C143.777 370.47 143.525 370.721 143.525 371.028C143.525 371.336 143.777 371.587 144.084 371.587ZM143.674 377.574H144.484V372.555H143.674V377.574ZM148.074 377.663C149.503 377.663 150.388 376.676 150.388 375.07V375.06C150.388 373.449 149.503 372.467 148.074 372.467C146.644 372.467 145.76 373.449 145.76 375.06V375.07C145.76 376.676 146.644 377.663 148.074 377.663ZM148.074 376.946C147.124 376.946 146.589 376.252 146.589 375.07V375.06C146.589 373.873 147.124 373.184 148.074 373.184C149.024 373.184 149.559 373.873 149.559 375.06V375.07C149.559 376.252 149.024 376.946 148.074 376.946ZM151.645 377.574H152.455V374.604C152.455 373.724 152.962 373.184 153.763 373.184C154.564 373.184 154.936 373.617 154.936 374.52V377.574H155.746V374.325C155.746 373.133 155.118 372.467 153.991 372.467C153.251 372.467 152.781 372.779 152.529 373.31H152.455V372.555H151.645V377.574ZM160.323 371.587C160.63 371.587 160.881 371.336 160.881 371.028C160.881 370.721 160.63 370.47 160.323 370.47C160.015 370.47 159.764 370.721 159.764 371.028C159.764 371.336 160.015 371.587 160.323 371.587ZM159.913 377.574H160.723V372.555H159.913V377.574ZM162.25 377.574H163.06V374.604C163.06 373.724 163.568 373.184 164.368 373.184C165.169 373.184 165.542 373.617 165.542 374.52V377.574H166.352V374.325C166.352 373.133 165.723 372.467 164.596 372.467C163.856 372.467 163.386 372.779 163.135 373.31H163.06V372.555H162.25V377.574ZM170.546 377.574H171.356V374.604C171.356 373.724 171.864 373.184 172.665 373.184C173.465 373.184 173.838 373.617 173.838 374.52V377.574H174.648V374.325C174.648 373.133 174.019 372.467 172.893 372.467C172.152 372.467 171.682 372.779 171.431 373.31H171.356V370.563H170.546V377.574ZM178.163 377.663C179.345 377.663 180.062 376.992 180.235 376.313L180.244 376.275H179.434L179.415 376.317C179.28 376.62 178.861 376.941 178.181 376.941C177.288 376.941 176.715 376.336 176.692 375.298H180.304V374.981C180.304 373.482 179.476 372.467 178.112 372.467C176.748 372.467 175.863 373.529 175.863 375.079V375.083C175.863 376.657 176.729 377.663 178.163 377.663ZM178.107 373.189C178.847 373.189 179.397 373.659 179.48 374.651H176.706C176.794 373.696 177.362 373.189 178.107 373.189ZM181.561 377.574H182.372V374.464C182.372 373.729 182.921 373.24 183.694 373.24C183.871 373.24 184.024 373.258 184.192 373.286V372.5C184.113 372.486 183.94 372.467 183.787 372.467C183.107 372.467 182.637 372.774 182.446 373.3H182.372V372.555H181.561V377.574ZM187.102 377.663C188.284 377.663 189.001 376.992 189.173 376.313L189.183 376.275H188.373L188.354 376.317C188.219 376.62 187.8 376.941 187.12 376.941C186.226 376.941 185.654 376.336 185.63 375.298H189.243V374.981C189.243 373.482 188.414 372.467 187.05 372.467C185.686 372.467 184.802 373.529 184.802 375.079V375.083C184.802 376.657 185.668 377.663 187.102 377.663ZM187.046 373.189C187.786 373.189 188.335 373.659 188.419 374.651H185.644C185.733 373.696 186.301 373.189 187.046 373.189ZM193.517 377.574H194.327V373.226H195.468V372.555H194.327V372.02C194.327 371.471 194.56 371.187 195.137 371.187C195.281 371.187 195.416 371.191 195.514 371.21V370.563C195.347 370.53 195.17 370.516 194.974 370.516C194.02 370.516 193.517 370.996 193.517 371.997V372.555H192.684V373.226H193.517V377.574ZM198.485 377.663C199.914 377.663 200.798 376.676 200.798 375.07V375.06C200.798 373.449 199.914 372.467 198.485 372.467C197.055 372.467 196.171 373.449 196.171 375.06V375.07C196.171 376.676 197.055 377.663 198.485 377.663ZM198.485 376.946C197.535 376.946 196.999 376.252 196.999 375.07V375.06C196.999 373.873 197.535 373.184 198.485 373.184C199.434 373.184 199.97 373.873 199.97 375.06V375.07C199.97 376.252 199.434 376.946 198.485 376.946ZM202.055 377.574H202.865V374.464C202.865 373.729 203.415 373.24 204.188 373.24C204.365 373.24 204.518 373.258 204.686 373.286V372.5C204.607 372.486 204.434 372.467 204.281 372.467C203.601 372.467 203.131 372.774 202.94 373.3H202.865V372.555H202.055V377.574ZM210.151 377.611C210.31 377.611 210.463 377.593 210.622 377.565V376.876C210.473 376.89 210.394 376.895 210.249 376.895C209.728 376.895 209.523 376.657 209.523 376.066V373.226H210.622V372.555H209.523V371.257H208.685V372.555H207.893V373.226H208.685V376.271C208.685 377.23 209.118 377.611 210.151 377.611ZM211.879 377.574H212.689V374.604C212.689 373.724 213.196 373.184 213.997 373.184C214.798 373.184 215.17 373.617 215.17 374.52V377.574H215.98V374.325C215.98 373.133 215.352 372.467 214.225 372.467C213.485 372.467 213.015 372.779 212.763 373.31H212.689V370.563H211.879V377.574ZM217.875 371.587C218.182 371.587 218.434 371.336 218.434 371.028C218.434 370.721 218.182 370.47 217.875 370.47C217.568 370.47 217.316 370.721 217.316 371.028C217.316 371.336 217.568 371.587 217.875 371.587ZM217.465 377.574H218.275V372.555H217.465V377.574ZM221.525 377.663C222.666 377.663 223.536 377.043 223.536 376.15V376.14C223.536 375.423 223.08 375.014 222.135 374.786L221.362 374.599C220.771 374.455 220.519 374.241 220.519 373.901V373.892C220.519 373.449 220.957 373.142 221.553 373.142C222.158 373.142 222.549 373.417 222.656 373.812H223.452C223.341 372.993 222.61 372.467 221.558 372.467C220.492 372.467 219.691 373.096 219.691 373.929V373.934C219.691 374.655 220.114 375.065 221.055 375.288L221.832 375.475C222.452 375.624 222.708 375.861 222.708 376.201V376.21C222.708 376.666 222.228 376.988 221.553 376.988C220.911 376.988 220.51 376.713 220.375 376.294H219.546C219.64 377.123 220.408 377.663 221.525 377.663ZM122.286 389.574H123.097V386.464C123.097 385.757 123.595 385.184 124.251 385.184C124.884 385.184 125.294 385.57 125.294 386.166V389.574H126.104V386.348C126.104 385.71 126.565 385.184 127.263 385.184C127.971 385.184 128.311 385.552 128.311 386.292V389.574H129.121V386.106C129.121 385.054 128.548 384.467 127.524 384.467C126.83 384.467 126.258 384.816 125.988 385.347H125.913C125.68 384.826 125.205 384.467 124.526 384.467C123.869 384.467 123.394 384.779 123.171 385.319H123.097V384.555H122.286V389.574ZM131.011 383.587C131.318 383.587 131.57 383.336 131.57 383.028C131.57 382.721 131.318 382.47 131.011 382.47C130.704 382.47 130.452 382.721 130.452 383.028C130.452 383.336 130.704 383.587 131.011 383.587ZM130.601 389.574H131.411V384.555H130.601V389.574ZM132.938 389.574H133.749V386.604C133.749 385.724 134.256 385.184 135.057 385.184C135.857 385.184 136.23 385.617 136.23 386.52V389.574H137.04V386.325C137.04 385.133 136.412 384.467 135.285 384.467C134.545 384.467 134.074 384.779 133.823 385.31H133.749V384.555H132.938V389.574ZM138.935 383.587C139.242 383.587 139.494 383.336 139.494 383.028C139.494 382.721 139.242 382.47 138.935 382.47C138.628 382.47 138.376 382.721 138.376 383.028C138.376 383.336 138.628 383.587 138.935 383.587ZM138.525 389.574H139.335V384.555H138.525V389.574ZM140.792 387.246H143.921V386.492H140.792V387.246ZM147.413 389.663C148.618 389.663 149.294 389.016 149.498 388.108L149.508 388.056L148.707 388.061L148.698 388.089C148.511 388.648 148.083 388.946 147.408 388.946C146.514 388.946 145.937 388.205 145.937 387.051V387.042C145.937 385.91 146.505 385.184 147.408 385.184C148.13 385.184 148.577 385.584 148.702 386.078L148.707 386.092H149.512L149.508 386.064C149.359 385.17 148.628 384.467 147.408 384.467C146.002 384.467 145.108 385.482 145.108 387.042V387.051C145.108 388.643 146.007 389.663 147.413 389.663ZM152.073 389.663C152.748 389.663 153.274 389.369 153.591 388.834H153.665V389.574H154.475V386.138C154.475 385.096 153.791 384.467 152.566 384.467C151.496 384.467 150.732 384.998 150.602 385.785L150.597 385.812H151.407L151.412 385.799C151.542 385.407 151.938 385.184 152.538 385.184C153.288 385.184 153.665 385.519 153.665 386.138V386.595L152.227 386.683C151.058 386.753 150.397 387.27 150.397 388.164V388.173C150.397 389.085 151.119 389.663 152.073 389.663ZM151.226 388.154V388.145C151.226 387.647 151.561 387.377 152.324 387.33L153.665 387.246V387.703C153.665 388.42 153.065 388.96 152.241 388.96C151.659 388.96 151.226 388.662 151.226 388.154ZM155.956 389.574H156.766V386.464C156.766 385.729 157.315 385.24 158.088 385.24C158.265 385.24 158.418 385.258 158.586 385.286V384.5C158.507 384.486 158.335 384.467 158.181 384.467C157.501 384.467 157.031 384.774 156.84 385.3H156.766V384.555H155.956V389.574ZM161.3 389.663C161.999 389.663 162.557 389.332 162.865 388.773H162.939V389.574H163.749V382.563H162.939V385.347H162.865C162.59 384.812 161.989 384.467 161.3 384.467C160.025 384.467 159.196 385.487 159.196 387.06V387.07C159.196 388.634 160.029 389.663 161.3 389.663ZM161.487 388.946C160.569 388.946 160.025 388.238 160.025 387.07V387.06C160.025 385.892 160.569 385.184 161.487 385.184C162.399 385.184 162.958 385.901 162.958 387.06V387.07C162.958 388.229 162.399 388.946 161.487 388.946Z" fill="white"/>
<rect x="121.93" y="243.226" width="116.005" height="116.005" rx="7.54827" fill="#25222A" stroke="#25222A" stroke-width="0.794554"/>
<rect x="254.62" y="209.061" width="131.896" height="199.433" rx="11.521" fill="#312E38" stroke="#25222A" stroke-width="0.794554"/>
<path d="M263.342 231.403H265.044V227.275H269.674V231.403H271.369V221.886H269.674V225.843H265.044V221.886H263.342V231.403ZM276.314 231.548C278.273 231.548 279.236 230.421 279.467 229.491L279.487 229.431H277.923L277.904 229.477C277.745 229.807 277.238 230.256 276.347 230.256C275.232 230.256 274.533 229.504 274.514 228.211H279.553V227.67C279.553 225.494 278.286 224.056 276.235 224.056C274.184 224.056 272.871 225.54 272.871 227.809V227.815C272.871 230.111 274.171 231.548 276.314 231.548ZM276.255 225.342C277.172 225.342 277.838 225.929 277.95 227.11H274.527C274.652 225.962 275.338 225.342 276.255 225.342ZM282.836 231.522C283.786 231.522 284.551 231.113 284.947 230.414H285.059V231.403H286.681V226.477C286.681 224.953 285.639 224.056 283.786 224.056C282.071 224.056 280.91 224.861 280.752 226.074L280.745 226.134H282.295L282.302 226.107C282.467 225.632 282.955 225.362 283.707 225.362C284.59 225.362 285.059 225.758 285.059 226.477V227.097L283.205 227.209C281.451 227.314 280.468 228.066 280.468 229.352V229.365C280.468 230.678 281.464 231.522 282.836 231.522ZM282.091 229.286V229.273C282.091 228.679 282.519 228.343 283.436 228.284L285.059 228.178V228.759C285.059 229.616 284.327 230.262 283.337 230.262C282.612 230.262 282.091 229.9 282.091 229.286ZM290.928 231.522C291.943 231.522 292.722 231.06 293.117 230.276H293.229V231.403H294.878V221.405H293.229V225.342H293.117C292.741 224.564 291.917 224.076 290.928 224.076C289.101 224.076 287.973 225.5 287.973 227.796V227.809C287.973 230.091 289.12 231.522 290.928 231.522ZM291.442 230.137C290.321 230.137 289.641 229.26 289.641 227.809V227.796C289.641 226.345 290.327 225.461 291.442 225.461C292.557 225.461 293.256 226.351 293.256 227.796V227.809C293.256 229.253 292.563 230.137 291.442 230.137ZM296.684 231.403H298.327V221.405H296.684V231.403ZM300.924 222.988C301.458 222.988 301.9 222.559 301.9 222.018C301.9 221.484 301.458 221.049 300.924 221.049C300.383 221.049 299.942 221.484 299.942 222.018C299.942 222.559 300.383 222.988 300.924 222.988ZM300.1 231.403H301.742V224.195H300.1V231.403ZM303.436 231.403H305.078V227.202C305.078 226.12 305.685 225.434 306.661 225.434C307.657 225.434 308.112 226.002 308.112 227.123V231.403H309.755V226.74C309.755 225.026 308.877 224.056 307.268 224.056C306.226 224.056 305.533 224.524 305.19 225.296H305.078V224.195H303.436V231.403ZM314.456 231.548C316.415 231.548 317.378 230.421 317.609 229.491L317.628 229.431H316.065L316.046 229.477C315.887 229.807 315.379 230.256 314.489 230.256C313.374 230.256 312.675 229.504 312.656 228.211H317.694V227.67C317.694 225.494 316.428 224.056 314.377 224.056C312.326 224.056 311.013 225.54 311.013 227.809V227.815C311.013 230.111 312.313 231.548 314.456 231.548ZM314.397 225.342C315.313 225.342 315.98 225.929 316.092 227.11H312.669C312.794 225.962 313.48 225.342 314.397 225.342Z" fill="white"/>
<path d="M265.729 377.733C267.159 377.733 268.22 376.936 268.444 375.707V375.698H267.596L267.587 375.707C267.378 376.48 266.665 376.96 265.729 376.96C264.435 376.96 263.625 375.903 263.625 374.222V374.213C263.625 372.532 264.435 371.471 265.725 371.471C266.651 371.471 267.368 372.015 267.592 372.877L267.596 372.886H268.439L268.444 372.877C268.244 371.587 267.14 370.698 265.725 370.698C263.9 370.698 262.764 372.048 262.764 374.213V374.222C262.764 376.382 263.905 377.733 265.729 377.733ZM271.125 377.663C271.8 377.663 272.326 377.369 272.643 376.834H272.718V377.574H273.528V374.138C273.528 373.096 272.843 372.467 271.619 372.467C270.548 372.467 269.785 372.998 269.654 373.785L269.65 373.812H270.46L270.464 373.799C270.595 373.407 270.99 373.184 271.591 373.184C272.34 373.184 272.718 373.519 272.718 374.138V374.595L271.279 374.683C270.11 374.753 269.449 375.27 269.449 376.164V376.173C269.449 377.085 270.171 377.663 271.125 377.663ZM270.278 376.154V376.145C270.278 375.647 270.613 375.377 271.377 375.33L272.718 375.246V375.703C272.718 376.42 272.117 376.96 271.293 376.96C270.711 376.96 270.278 376.662 270.278 376.154ZM275.008 379.25H275.818V376.783H275.893C276.167 377.318 276.768 377.663 277.457 377.663C278.733 377.663 279.561 376.643 279.561 375.07V375.06C279.561 373.496 278.728 372.467 277.457 372.467C276.759 372.467 276.2 372.798 275.893 373.356H275.818V372.555H275.008V379.25ZM277.271 376.946C276.358 376.946 275.8 376.229 275.8 375.07V375.06C275.8 373.901 276.358 373.184 277.271 373.184C278.188 373.184 278.733 373.892 278.733 375.06V375.07C278.733 376.238 278.188 376.946 277.271 376.946ZM282.611 377.611C282.769 377.611 282.923 377.593 283.081 377.565V376.876C282.932 376.89 282.853 376.895 282.708 376.895C282.187 376.895 281.982 376.657 281.982 376.066V373.226H283.081V372.555H281.982V371.257H281.144V372.555H280.353V373.226H281.144V376.271C281.144 377.23 281.577 377.611 282.611 377.611ZM284.72 371.587C285.027 371.587 285.278 371.336 285.278 371.028C285.278 370.721 285.027 370.47 284.72 370.47C284.412 370.47 284.161 370.721 284.161 371.028C284.161 371.336 284.412 371.587 284.72 371.587ZM284.31 377.574H285.12V372.555H284.31V377.574ZM288.71 377.663C290.139 377.663 291.023 376.676 291.023 375.07V375.06C291.023 373.449 290.139 372.467 288.71 372.467C287.28 372.467 286.396 373.449 286.396 375.06V375.07C286.396 376.676 287.28 377.663 288.71 377.663ZM288.71 376.946C287.76 376.946 287.224 376.252 287.224 375.07V375.06C287.224 373.873 287.76 373.184 288.71 373.184C289.659 373.184 290.195 373.873 290.195 375.06V375.07C290.195 376.252 289.659 376.946 288.71 376.946ZM292.28 377.574H293.09V374.604C293.09 373.724 293.598 373.184 294.399 373.184C295.199 373.184 295.572 373.617 295.572 374.52V377.574H296.382V374.325C296.382 373.133 295.753 372.467 294.627 372.467C293.887 372.467 293.416 372.779 293.165 373.31H293.09V372.555H292.28V377.574ZM300.958 371.587C301.266 371.587 301.517 371.336 301.517 371.028C301.517 370.721 301.266 370.47 300.958 370.47C300.651 370.47 300.4 370.721 300.4 371.028C300.4 371.336 300.651 371.587 300.958 371.587ZM300.549 377.574H301.359V372.555H300.549V377.574ZM302.886 377.574H303.696V374.604C303.696 373.724 304.203 373.184 305.004 373.184C305.805 373.184 306.177 373.617 306.177 374.52V377.574H306.987V374.325C306.987 373.133 306.359 372.467 305.232 372.467C304.492 372.467 304.022 372.779 303.77 373.31H303.696V372.555H302.886V377.574ZM311.182 377.574H311.992V374.604C311.992 373.724 312.5 373.184 313.3 373.184C314.101 373.184 314.474 373.617 314.474 374.52V377.574H315.284V374.325C315.284 373.133 314.655 372.467 313.528 372.467C312.788 372.467 312.318 372.779 312.067 373.31H311.992V370.563H311.182V377.574ZM318.799 377.663C319.981 377.663 320.698 376.992 320.87 376.313L320.88 376.275H320.07L320.051 376.317C319.916 376.62 319.497 376.941 318.817 376.941C317.923 376.941 317.351 376.336 317.327 375.298H320.94V374.981C320.94 373.482 320.111 372.467 318.747 372.467C317.383 372.467 316.499 373.529 316.499 375.079V375.083C316.499 376.657 317.365 377.663 318.799 377.663ZM318.743 373.189C319.483 373.189 320.032 373.659 320.116 374.651H317.341C317.43 373.696 317.998 373.189 318.743 373.189ZM322.197 377.574H323.007V374.464C323.007 373.729 323.557 373.24 324.329 373.24C324.506 373.24 324.66 373.258 324.828 373.286V372.5C324.748 372.486 324.576 372.467 324.423 372.467C323.743 372.467 323.273 372.774 323.082 373.3H323.007V372.555H322.197V377.574ZM327.737 377.663C328.92 377.663 329.637 376.992 329.809 376.313L329.818 376.275H329.008L328.99 376.317C328.855 376.62 328.436 376.941 327.756 376.941C326.862 376.941 326.289 376.336 326.266 375.298H329.879V374.981C329.879 373.482 329.05 372.467 327.686 372.467C326.322 372.467 325.437 373.529 325.437 375.079V375.083C325.437 376.657 326.303 377.663 327.737 377.663ZM327.681 373.189C328.422 373.189 328.971 373.659 329.055 374.651H326.28C326.369 373.696 326.937 373.189 327.681 373.189ZM334.153 377.574H334.963V373.226H336.103V372.555H334.963V372.02C334.963 371.471 335.196 371.187 335.773 371.187C335.917 371.187 336.052 371.191 336.15 371.21V370.563C335.982 370.53 335.805 370.516 335.61 370.516C334.656 370.516 334.153 370.996 334.153 371.997V372.555H333.319V373.226H334.153V377.574ZM339.12 377.663C340.55 377.663 341.434 376.676 341.434 375.07V375.06C341.434 373.449 340.55 372.467 339.12 372.467C337.691 372.467 336.806 373.449 336.806 375.06V375.07C336.806 376.676 337.691 377.663 339.12 377.663ZM339.12 376.946C338.171 376.946 337.635 376.252 337.635 375.07V375.06C337.635 373.873 338.171 373.184 339.12 373.184C340.07 373.184 340.605 373.873 340.605 375.06V375.07C340.605 376.252 340.07 376.946 339.12 376.946ZM342.691 377.574H343.501V374.464C343.501 373.729 344.051 373.24 344.823 373.24C345 373.24 345.154 373.258 345.322 373.286V372.5C345.242 372.486 345.07 372.467 344.916 372.467C344.237 372.467 343.767 372.774 343.576 373.3H343.501V372.555H342.691V377.574ZM350.787 377.611C350.945 377.611 351.099 377.593 351.257 377.565V376.876C351.108 376.89 351.029 376.895 350.885 376.895C350.364 376.895 350.159 376.657 350.159 376.066V373.226H351.257V372.555H350.159V371.257H349.321V372.555H348.529V373.226H349.321V376.271C349.321 377.23 349.754 377.611 350.787 377.611ZM352.514 377.574H353.324V374.604C353.324 373.724 353.832 373.184 354.633 373.184C355.433 373.184 355.806 373.617 355.806 374.52V377.574H356.616V374.325C356.616 373.133 355.987 372.467 354.861 372.467C354.121 372.467 353.65 372.779 353.399 373.31H353.324V370.563H352.514V377.574ZM358.511 371.587C358.818 371.587 359.069 371.336 359.069 371.028C359.069 370.721 358.818 370.47 358.511 370.47C358.204 370.47 357.952 370.721 357.952 371.028C357.952 371.336 358.204 371.587 358.511 371.587ZM358.101 377.574H358.911V372.555H358.101V377.574ZM362.161 377.663C363.301 377.663 364.172 377.043 364.172 376.15V376.14C364.172 375.423 363.716 375.014 362.771 374.786L361.998 374.599C361.407 374.455 361.155 374.241 361.155 373.901V373.892C361.155 373.449 361.593 373.142 362.189 373.142C362.794 373.142 363.185 373.417 363.292 373.812H364.088C363.976 372.993 363.246 372.467 362.193 372.467C361.127 372.467 360.326 373.096 360.326 373.929V373.934C360.326 374.655 360.75 375.065 361.691 375.288L362.468 375.475C363.087 375.624 363.343 375.861 363.343 376.201V376.21C363.343 376.666 362.864 376.988 362.189 376.988C361.546 376.988 361.146 376.713 361.011 376.294H360.182C360.275 377.123 361.043 377.663 362.161 377.663ZM262.922 389.574H263.732V386.464C263.732 385.757 264.23 385.184 264.887 385.184C265.52 385.184 265.93 385.57 265.93 386.166V389.574H266.74V386.348C266.74 385.71 267.201 385.184 267.899 385.184C268.607 385.184 268.947 385.552 268.947 386.292V389.574H269.757V386.106C269.757 385.054 269.184 384.467 268.16 384.467C267.466 384.467 266.893 384.816 266.623 385.347H266.549C266.316 384.826 265.841 384.467 265.162 384.467C264.505 384.467 264.03 384.779 263.807 385.319H263.732V384.555H262.922V389.574ZM271.647 383.587C271.954 383.587 272.205 383.336 272.205 383.028C272.205 382.721 271.954 382.47 271.647 382.47C271.339 382.47 271.088 382.721 271.088 383.028C271.088 383.336 271.339 383.587 271.647 383.587ZM271.237 389.574H272.047V384.555H271.237V389.574ZM273.574 389.574H274.384V386.604C274.384 385.724 274.892 385.184 275.692 385.184C276.493 385.184 276.866 385.617 276.866 386.52V389.574H277.676V386.325C277.676 385.133 277.047 384.467 275.921 384.467C275.18 384.467 274.71 384.779 274.459 385.31H274.384V384.555H273.574V389.574ZM279.571 383.587C279.878 383.587 280.129 383.336 280.129 383.028C280.129 382.721 279.878 382.47 279.571 382.47C279.263 382.47 279.012 382.721 279.012 383.028C279.012 383.336 279.263 383.587 279.571 383.587ZM279.161 389.574H279.971V384.555H279.161V389.574ZM281.428 387.246H284.557V386.492H281.428V387.246ZM288.048 389.663C289.254 389.663 289.929 389.016 290.134 388.108L290.143 388.056L289.343 388.061L289.333 388.089C289.147 388.648 288.719 388.946 288.044 388.946C287.15 388.946 286.573 388.205 286.573 387.051V387.042C286.573 385.91 287.141 385.184 288.044 385.184C288.765 385.184 289.212 385.584 289.338 386.078L289.343 386.092H290.148L290.143 386.064C289.994 385.17 289.264 384.467 288.044 384.467C286.638 384.467 285.744 385.482 285.744 387.042V387.051C285.744 388.643 286.642 389.663 288.048 389.663ZM292.709 389.663C293.384 389.663 293.91 389.369 294.226 388.834H294.301V389.574H295.111V386.138C295.111 385.096 294.427 384.467 293.202 384.467C292.131 384.467 291.368 384.998 291.237 385.785L291.233 385.812H292.043L292.048 385.799C292.178 385.407 292.574 385.184 293.174 385.184C293.924 385.184 294.301 385.519 294.301 386.138V386.595L292.862 386.683C291.694 386.753 291.033 387.27 291.033 388.164V388.173C291.033 389.085 291.754 389.663 292.709 389.663ZM291.861 388.154V388.145C291.861 387.647 292.197 387.377 292.96 387.33L294.301 387.246V387.703C294.301 388.42 293.7 388.96 292.876 388.96C292.294 388.96 291.861 388.662 291.861 388.154ZM296.591 389.574H297.401V386.464C297.401 385.729 297.951 385.24 298.724 385.24C298.901 385.24 299.054 385.258 299.222 385.286V384.5C299.143 384.486 298.97 384.467 298.817 384.467C298.137 384.467 297.667 384.774 297.476 385.3H297.401V384.555H296.591V389.574ZM301.936 389.663C302.634 389.663 303.193 389.332 303.5 388.773H303.575V389.574H304.385V382.563H303.575V385.347H303.5C303.226 384.812 302.625 384.467 301.936 384.467C300.66 384.467 299.832 385.487 299.832 387.06V387.07C299.832 388.634 300.665 389.663 301.936 389.663ZM302.122 388.946C301.205 388.946 300.66 388.238 300.66 387.07V387.06C300.66 385.892 301.205 385.184 302.122 385.184C303.035 385.184 303.593 385.901 303.593 387.06V387.07C303.593 388.229 303.035 388.946 302.122 388.946Z" fill="white"/>
<rect x="262.565" y="243.226" width="116.005" height="116.005" rx="7.54827" fill="#25222A" stroke="#25222A" stroke-width="0.794554"/>
</g>
</g>
<path d="M114.761 438.782H116.463V434.653H121.093V438.782H122.788V429.265H121.093V433.222H116.463V429.265H114.761V438.782ZM127.733 438.927C129.692 438.927 130.655 437.8 130.886 436.87L130.905 436.81H129.342L129.323 436.856C129.164 437.186 128.656 437.635 127.766 437.635C126.651 437.635 125.952 436.883 125.933 435.59H130.971V435.049C130.971 432.873 129.705 431.435 127.654 431.435C125.603 431.435 124.29 432.919 124.29 435.188V435.194C124.29 437.49 125.59 438.927 127.733 438.927ZM127.674 432.721C128.59 432.721 129.257 433.308 129.369 434.489H125.946C126.071 433.341 126.757 432.721 127.674 432.721ZM134.255 438.901C135.205 438.901 135.97 438.492 136.366 437.793H136.478V438.782H138.1V433.855C138.1 432.332 137.058 431.435 135.205 431.435C133.49 431.435 132.329 432.24 132.171 433.453L132.164 433.512H133.714L133.721 433.486C133.886 433.011 134.374 432.741 135.126 432.741C136.009 432.741 136.478 433.137 136.478 433.855V434.475L134.624 434.588C132.87 434.693 131.887 435.445 131.887 436.731V436.744C131.887 438.057 132.883 438.901 134.255 438.901ZM133.51 436.665V436.652C133.51 436.058 133.938 435.722 134.855 435.663L136.478 435.557V436.137C136.478 436.995 135.746 437.641 134.756 437.641C134.031 437.641 133.51 437.278 133.51 436.665ZM142.347 438.901C143.362 438.901 144.141 438.439 144.536 437.654H144.648V438.782H146.297V428.784H144.648V432.721H144.536C144.16 431.943 143.336 431.455 142.347 431.455C140.52 431.455 139.392 432.879 139.392 435.175V435.188C139.392 437.47 140.539 438.901 142.347 438.901ZM142.861 437.516C141.74 437.516 141.06 436.639 141.06 435.188V435.175C141.06 433.724 141.746 432.84 142.861 432.84C143.976 432.84 144.675 433.73 144.675 435.175V435.188C144.675 436.632 143.982 437.516 142.861 437.516ZM148.103 438.782H149.746V428.784H148.103V438.782ZM152.343 430.366C152.877 430.366 153.319 429.938 153.319 429.397C153.319 428.863 152.877 428.427 152.343 428.427C151.802 428.427 151.36 428.863 151.36 429.397C151.36 429.938 151.802 430.366 152.343 430.366ZM151.519 438.782H153.161V431.573H151.519V438.782ZM154.855 438.782H156.497V434.581C156.497 433.499 157.104 432.813 158.08 432.813C159.076 432.813 159.531 433.381 159.531 434.502V438.782H161.173V434.119C161.173 432.404 160.296 431.435 158.687 431.435C157.645 431.435 156.952 431.903 156.609 432.675H156.497V431.573H154.855V438.782ZM165.875 438.927C167.834 438.927 168.797 437.8 169.028 436.87L169.047 436.81H167.484L167.465 436.856C167.306 437.186 166.798 437.635 165.908 437.635C164.793 437.635 164.094 436.883 164.074 435.59H169.113V435.049C169.113 432.873 167.847 431.435 165.796 431.435C163.745 431.435 162.432 432.919 162.432 435.188V435.194C162.432 437.49 163.731 438.927 165.875 438.927ZM165.816 432.721C166.732 432.721 167.399 433.308 167.511 434.489H164.088C164.213 433.341 164.899 432.721 165.816 432.721Z" fill="white"/>
<g clip-path="url(#clip4_13_2347)">
<rect x="113.984" y="455.372" width="82.6337" height="82.6337" rx="15.4938" fill="#25222A" stroke="#25222A" stroke-width="0.794554"/>
<rect x="206.947" y="455.372" width="82.6337" height="82.6337" rx="15.4938" fill="#25222A" stroke="#25222A" stroke-width="0.794554"/>
<rect x="299.91" y="455.372" width="82.6337" height="82.6337" rx="15.4938" fill="#25222A" stroke="#25222A" stroke-width="0.794554"/>
<rect x="392.873" y="455.372" width="82.6337" height="82.6337" rx="15.4938" fill="#25222A" stroke="#25222A" stroke-width="0.794554"/>
</g>
<path d="M379.883 124.198C379.883 124.521 380.153 124.785 380.47 124.785H384.737V129.053C384.737 129.369 385.001 129.64 385.324 129.64C385.647 129.64 385.918 129.369 385.918 129.053V124.785H390.178C390.495 124.785 390.765 124.521 390.765 124.198C390.765 123.875 390.495 123.605 390.178 123.605H385.918V119.344C385.918 119.027 385.647 118.757 385.324 118.757C385.001 118.757 384.737 119.027 384.737 119.344V123.605H380.47C380.153 123.605 379.883 123.875 379.883 124.198Z" fill="#FFD400"/>
<path d="M112.348 124.183C112.348 124.5 112.469 124.77 112.721 125.012L119.984 132.116C120.179 132.321 120.44 132.423 120.738 132.423C121.343 132.423 121.818 131.958 121.818 131.343C121.818 131.045 121.697 130.775 121.492 130.571L114.946 124.183L121.492 117.796C121.697 117.581 121.818 117.311 121.818 117.013C121.818 116.408 121.343 115.943 120.738 115.943C120.44 115.943 120.179 116.045 119.984 116.25L112.721 123.354C112.469 123.596 112.358 123.867 112.348 124.183Z" fill="#FFD400"/>
<path d="M127.549 127.906H128.795L129.752 125.182H133.537L134.494 127.906H135.74L132.232 118.389H131.058L127.549 127.906ZM131.592 119.925H131.697L133.188 124.173H130.101L131.592 119.925ZM139.453 128.031C141.161 128.031 142.117 127.114 142.407 125.828L142.421 125.756L141.286 125.762L141.273 125.802C141.009 126.593 140.402 127.015 139.446 127.015C138.18 127.015 137.362 125.967 137.362 124.331V124.318C137.362 122.715 138.166 121.686 139.446 121.686C140.468 121.686 141.101 122.253 141.28 122.953L141.286 122.972H142.427L142.421 122.933C142.209 121.666 141.174 120.671 139.446 120.671C137.454 120.671 136.188 122.108 136.188 124.318V124.331C136.188 126.587 137.461 128.031 139.453 128.031ZM146.436 127.959C146.66 127.959 146.878 127.932 147.102 127.893V126.916C146.891 126.936 146.779 126.943 146.575 126.943C145.836 126.943 145.546 126.606 145.546 125.769V121.746H147.102V120.796H145.546V118.956H144.359V120.796H143.237V121.746H144.359V126.059C144.359 127.418 144.972 127.959 146.436 127.959ZM149.1 119.424C149.535 119.424 149.891 119.068 149.891 118.633C149.891 118.197 149.535 117.841 149.1 117.841C148.664 117.841 148.308 118.197 148.308 118.633C148.308 119.068 148.664 119.424 149.1 119.424ZM148.519 127.906H149.667V120.796H148.519V127.906ZM154.428 128.031C156.453 128.031 157.706 126.633 157.706 124.357V124.344C157.706 122.062 156.453 120.671 154.428 120.671C152.403 120.671 151.15 122.062 151.15 124.344V124.357C151.15 126.633 152.403 128.031 154.428 128.031ZM154.428 127.015C153.082 127.015 152.324 126.033 152.324 124.357V124.344C152.324 122.662 153.082 121.686 154.428 121.686C155.773 121.686 156.532 122.662 156.532 124.344V124.357C156.532 126.033 155.773 127.015 154.428 127.015ZM159.162 127.906H160.31V123.698C160.31 122.451 161.029 121.686 162.163 121.686C163.298 121.686 163.825 122.3 163.825 123.579V127.906H164.973V123.302C164.973 121.614 164.082 120.671 162.486 120.671C161.438 120.671 160.772 121.112 160.415 121.864H160.31V120.796H159.162V127.906Z" fill="#FFD400"/>
</g>
</g>
</g>
<defs>
<linearGradient id="paint0_linear_13_2347" x1="209.389" y1="71.0227" x2="416.13" y2="292.754" gradientUnits="userSpaceOnUse">
<stop/>
<stop offset="1" stop-opacity="0"/>
</linearGradient>
<radialGradient id="paint1_radial_13_2347" cx="0" cy="0" r="1" gradientUnits="userSpaceOnUse" gradientTransform="translate(282.625 93.3977) scale(2.875)">
<stop offset="0.000580659"/>
<stop offset="1" stop-color="#090B20"/>
</radialGradient>
<linearGradient id="paint2_linear_13_2347" x1="73.5" y1="207.023" x2="73.5" y2="230.773" gradientUnits="userSpaceOnUse">
<stop stop-color="#888883"/>
<stop offset="0.0959143" stop-color="#E4E5DE"/>
<stop offset="0.507812" stop-color="#888883"/>
<stop offset="0.938054" stop-color="#E4E5DE"/>
<stop offset="1" stop-color="#888883"/>
</linearGradient>
<linearGradient id="paint3_linear_13_2347" x1="74" y1="254.773" x2="74" y2="302.773" gradientUnits="userSpaceOnUse">
<stop stop-color="#888883"/>
<stop offset="0.0959143" stop-color="#E4E5DE"/>
<stop offset="0.507812" stop-color="#888883"/>
<stop offset="0.938054" stop-color="#E4E5DE"/>
<stop offset="1" stop-color="#888883"/>
</linearGradient>
<linearGradient id="paint4_linear_13_2347" x1="74" y1="318.023" x2="74" y2="366.023" gradientUnits="userSpaceOnUse">
<stop stop-color="#888883"/>
<stop offset="0.0959143" stop-color="#E4E5DE"/>
<stop offset="0.507812" stop-color="#888883"/>
<stop offset="0.938054" stop-color="#E4E5DE"/>
<stop offset="1" stop-color="#888883"/>
</linearGradient>
<linearGradient id="paint5_linear_13_2347" x1="426.25" y1="270.773" x2="426.25" y2="355.773" gradientUnits="userSpaceOnUse">
<stop stop-color="#888883"/>
<stop offset="0.0959143" stop-color="#E4E5DE"/>
<stop offset="0.507812" stop-color="#888883"/>
<stop offset="0.938054" stop-color="#E4E5DE"/>
<stop offset="1" stop-color="#888883"/>
</linearGradient>
<clipPath id="clip0_13_2347">
<rect width="500" height="500" rx="25" fill="white"/>
</clipPath>
<clipPath id="clip1_13_2347">
<rect x="89.75" y="72" width="322" height="707" rx="23.8366" fill="white"/>
</clipPath>
<clipPath id="clip2_13_2347">
<rect width="273.327" height="200.228" fill="white" transform="translate(113.587 208.663)"/>
</clipPath>
<clipPath id="clip3_13_2347">
<rect width="273.327" height="200.228" fill="white" transform="translate(113.587 208.663)"/>
</clipPath>
<clipPath id="clip4_13_2347">
<rect width="362.317" height="92.9629" fill="white" transform="translate(113.587 450.208)"/>
</clipPath>
</defs>
</svg>
