<svg width="500" height="500" viewBox="0 0 500 500" fill="none" xmlns="http://www.w3.org/2000/svg">
<g clip-path="url(#clip0_13_4200)">
<rect width="500" height="500" rx="25" fill="#FF9900" fill-opacity="0.25"/>
<path d="M368.75 -308C399.54 -308 424.5 -283.04 424.5 -252.25V359.25C424.5 390.04 399.54 415 368.75 415H130.75C99.9601 415 75 390.04 75 359.25V-252.25C75 -283.04 99.9601 -308 130.75 -308H368.75Z" fill="black"/>
<path d="M368.75 -307.977C399.54 -307.977 424.5 -283.017 424.5 -252.227V359.273C424.5 390.063 399.54 415.023 368.75 415.023H130.75C99.9601 415.023 75 390.063 75 359.273V-252.227C75 -283.017 99.9601 -307.977 130.75 -307.977H368.75ZM368.75 -303.477H130.75C102.728 -303.477 79.9594 -280.989 79.5069 -253.075L79.5 -252.227V359.273C79.5 387.294 101.989 410.063 129.902 410.523H130.75H368.75C396.772 410.523 419.541 388.034 419.993 360.12L420 359.273V-252.227C420 -280.249 397.511 -303.018 369.598 -303.477H368.75Z" fill="#E4E5DE"/>
<g opacity="0.231492">
<path opacity="0.231492" d="M79.75 333.5H75.25V337.75H79.75V333.5Z" fill="#4B4B4B"/>
<path opacity="0.231492" d="M424.75 333.5H420.25V337.75H424.75V333.5Z" fill="#4B4B4B"/>
<path opacity="0.231492" d="M355.25 410.75H351V415.25H355.25V410.75Z" fill="#4B4B4B"/>
</g>
<path opacity="0.293759" d="M368.75 -306.977L369.655 -306.97C399.177 -306.491 423.019 -282.647 423.493 -253.124L423.5 -252.227V359.273L423.493 360.178C423.014 389.7 399.169 413.542 369.646 414.023H368.75H130.75L129.845 414.015C100.323 413.537 76.4811 389.692 76.0072 360.169L76 359.273V-252.227L76.0073 -253.133C76.486 -282.654 100.331 -306.496 129.854 -306.977H130.75H368.75ZM368.744 -306.227H130.75C101.554 -306.227 77.7157 -283.037 76.7787 -254.008L76.7573 -253.127L76.75 -252.227V359.273C76.75 388.468 99.9401 412.307 128.969 413.244L129.851 413.265L130.75 413.273H368.75C397.946 413.273 421.784 390.083 422.721 361.053L422.743 360.172L422.75 359.273V-252.227C422.75 -281.423 399.56 -305.262 370.531 -306.199L369.649 -306.22L368.744 -306.227Z" fill="url(#paint0_linear_13_4200)"/>
<mask id="mask0_13_4200" style="mask-type:alpha" maskUnits="userSpaceOnUse" x="90" y="-294" width="321" height="695">
<path d="M168 -293.727H168.079C170.225 -293.685 171.957 -291.953 171.999 -289.807L172 -289.727V-286.977C172 -277.409 179.679 -269.634 189.211 -269.48L189.5 -269.477H311.5C321.068 -269.477 328.843 -277.156 328.998 -286.688L329 -286.977V-289.727L329.001 -289.806C329.042 -291.952 330.774 -293.685 332.92 -293.727H333H370.186C392.564 -293.359 410.635 -275.285 410.995 -252.907L411 -252.227V359.273L410.994 359.959C410.632 382.336 392.558 400.408 370.179 400.773H369.5H130.814C108.436 400.404 90.3646 382.33 90.0054 359.952L90 359.273V-252.227L90.0056 -252.914C90.3684 -275.291 108.442 -293.363 130.821 -293.727H131.5H168Z" fill="white"/>
</mask>
<g mask="url(#mask0_13_4200)">
<path d="M168 -293.727H168.079C170.225 -293.685 171.957 -291.953 171.999 -289.807L172 -289.727V-286.977C172 -277.409 179.679 -269.634 189.211 -269.48L189.5 -269.477H311.5C321.068 -269.477 328.843 -277.156 328.998 -286.688L329 -286.977V-289.727L329.001 -289.806C329.042 -291.952 330.774 -293.685 332.92 -293.727H333H370.186C392.564 -293.359 410.635 -275.285 410.995 -252.907L411 -252.227V359.273L410.994 359.959C410.632 382.336 392.558 400.408 370.179 400.773H369.5H130.814C108.436 400.404 90.3646 382.33 90.0054 359.952L90 359.273V-252.227L90.0056 -252.914C90.3684 -275.291 108.442 -293.363 130.821 -293.727H131.5H168Z" fill="#2F2F2F"/>
<path d="M438 -281.977H117V412.523H438V-281.977Z" fill="#DCDDD7"/>
<g clip-path="url(#clip1_13_4200)">
<rect x="89.75" y="-306" width="322" height="707" rx="23.8366" fill="#312E38"/>
<g clip-path="url(#clip2_13_4200)">
<g clip-path="url(#clip3_13_4200)">
<rect x="113.984" y="-168.939" width="131.896" height="199.433" rx="11.521" fill="#312E38" stroke="#25222A" stroke-width="0.794554"/>
<path d="M125.094 -0.267491C126.523 -0.267491 127.584 -1.0636 127.808 -2.29267V-2.30199H126.961L126.951 -2.29267C126.742 -1.51985 126.03 -1.04032 125.094 -1.04032C123.8 -1.04032 122.989 -2.09714 122.989 -3.77781V-3.78712C122.989 -5.46779 123.8 -6.52926 125.089 -6.52926C126.016 -6.52926 126.733 -5.98456 126.956 -5.12327L126.961 -5.11396H127.803L127.808 -5.12327C127.608 -6.41287 126.504 -7.30209 125.089 -7.30209C123.264 -7.30209 122.128 -5.95197 122.128 -3.78712V-3.77781C122.128 -1.61761 123.269 -0.267491 125.094 -0.267491ZM130.49 -0.337325C131.165 -0.337325 131.691 -0.630627 132.007 -1.16602H132.082V-0.425781H132.892V-3.86161C132.892 -4.90446 132.208 -5.53297 130.983 -5.53297C129.912 -5.53297 129.149 -5.00223 129.018 -4.21543L129.014 -4.1875H129.824L129.828 -4.20147C129.959 -4.59254 130.355 -4.81601 130.955 -4.81601C131.705 -4.81601 132.082 -4.4808 132.082 -3.86161V-3.40536L130.643 -3.3169C129.475 -3.24707 128.814 -2.7303 128.814 -1.83643V-1.82711C128.814 -0.914618 129.535 -0.337325 130.49 -0.337325ZM129.642 -1.84574V-1.85505C129.642 -2.3532 129.977 -2.62322 130.741 -2.66978L132.082 -2.75358V-2.29733C132.082 -1.58037 131.481 -1.04032 130.657 -1.04032C130.075 -1.04032 129.642 -1.33828 129.642 -1.84574ZM134.372 1.25023H135.182V-1.21723H135.257C135.532 -0.681839 136.132 -0.337325 136.821 -0.337325C138.097 -0.337325 138.926 -1.3569 138.926 -2.93049V-2.9398C138.926 -4.50408 138.092 -5.53297 136.821 -5.53297C136.123 -5.53297 135.564 -5.20242 135.257 -4.64375H135.182V-5.44451H134.372V1.25023ZM136.635 -1.05429C135.722 -1.05429 135.164 -1.77125 135.164 -2.93049V-2.9398C135.164 -4.09904 135.722 -4.81601 136.635 -4.81601C137.552 -4.81601 138.097 -4.10836 138.097 -2.9398V-2.93049C138.097 -1.76194 137.552 -1.05429 136.635 -1.05429ZM141.975 -0.388537C142.133 -0.388537 142.287 -0.407159 142.445 -0.435092V-1.12412C142.296 -1.11015 142.217 -1.1055 142.073 -1.1055C141.551 -1.1055 141.346 -1.34293 141.346 -1.93419V-4.7741H142.445V-5.44451H141.346V-6.74342H140.508V-5.44451H139.717V-4.7741H140.508V-1.72935C140.508 -0.770295 140.941 -0.388537 141.975 -0.388537ZM144.084 -6.41287C144.391 -6.41287 144.643 -6.66428 144.643 -6.97154C144.643 -7.27881 144.391 -7.53022 144.084 -7.53022C143.777 -7.53022 143.525 -7.27881 143.525 -6.97154C143.525 -6.66428 143.777 -6.41287 144.084 -6.41287ZM143.674 -0.425781H144.484V-5.44451H143.674V-0.425781ZM148.074 -0.337325C149.503 -0.337325 150.388 -1.32431 150.388 -2.93049V-2.9398C150.388 -4.55064 149.503 -5.53297 148.074 -5.53297C146.644 -5.53297 145.76 -4.55064 145.76 -2.9398V-2.93049C145.76 -1.32431 146.644 -0.337325 148.074 -0.337325ZM148.074 -1.05429C147.124 -1.05429 146.589 -1.74797 146.589 -2.93049V-2.9398C146.589 -4.12698 147.124 -4.81601 148.074 -4.81601C149.024 -4.81601 149.559 -4.12698 149.559 -2.9398V-2.93049C149.559 -1.74797 149.024 -1.05429 148.074 -1.05429ZM151.645 -0.425781H152.455V-3.39605C152.455 -4.27596 152.962 -4.81601 153.763 -4.81601C154.564 -4.81601 154.936 -4.38303 154.936 -3.47985V-0.425781H155.746V-3.67538C155.746 -4.86722 155.118 -5.53297 153.991 -5.53297C153.251 -5.53297 152.781 -5.22104 152.529 -4.6903H152.455V-5.44451H151.645V-0.425781ZM160.323 -6.41287C160.63 -6.41287 160.881 -6.66428 160.881 -6.97154C160.881 -7.27881 160.63 -7.53022 160.323 -7.53022C160.015 -7.53022 159.764 -7.27881 159.764 -6.97154C159.764 -6.66428 160.015 -6.41287 160.323 -6.41287ZM159.913 -0.425781H160.723V-5.44451H159.913V-0.425781ZM162.25 -0.425781H163.06V-3.39605C163.06 -4.27596 163.568 -4.81601 164.368 -4.81601C165.169 -4.81601 165.542 -4.38303 165.542 -3.47985V-0.425781H166.352V-3.67538C166.352 -4.86722 165.723 -5.53297 164.596 -5.53297C163.856 -5.53297 163.386 -5.22104 163.135 -4.6903H163.06V-5.44451H162.25V-0.425781ZM170.546 -0.425781H171.356V-3.39605C171.356 -4.27596 171.864 -4.81601 172.665 -4.81601C173.465 -4.81601 173.838 -4.38303 173.838 -3.47985V-0.425781H174.648V-3.67538C174.648 -4.86722 174.019 -5.53297 172.893 -5.53297C172.152 -5.53297 171.682 -5.22104 171.431 -4.6903H171.356V-7.4371H170.546V-0.425781ZM178.163 -0.337325C179.345 -0.337325 180.062 -1.00773 180.235 -1.68745L180.244 -1.72469H179.434L179.415 -1.68279C179.28 -1.38018 178.861 -1.05894 178.181 -1.05894C177.288 -1.05894 176.715 -1.66417 176.692 -2.70237H180.304V-3.01895C180.304 -4.51805 179.476 -5.53297 178.112 -5.53297C176.748 -5.53297 175.863 -4.47149 175.863 -2.92118V-2.91652C175.863 -1.34293 176.729 -0.337325 178.163 -0.337325ZM178.107 -4.81135C178.847 -4.81135 179.397 -4.34113 179.48 -3.34949H176.706C176.794 -4.30389 177.362 -4.81135 178.107 -4.81135ZM181.561 -0.425781H182.372V-3.53572C182.372 -4.2713 182.921 -4.76014 183.694 -4.76014C183.871 -4.76014 184.024 -4.74152 184.192 -4.71358V-5.50038C184.113 -5.51434 183.94 -5.53297 183.787 -5.53297C183.107 -5.53297 182.637 -5.2257 182.446 -4.69962H182.372V-5.44451H181.561V-0.425781ZM187.102 -0.337325C188.284 -0.337325 189.001 -1.00773 189.173 -1.68745L189.183 -1.72469H188.373L188.354 -1.68279C188.219 -1.38018 187.8 -1.05894 187.12 -1.05894C186.226 -1.05894 185.654 -1.66417 185.63 -2.70237H189.243V-3.01895C189.243 -4.51805 188.414 -5.53297 187.05 -5.53297C185.686 -5.53297 184.802 -4.47149 184.802 -2.92118V-2.91652C184.802 -1.34293 185.668 -0.337325 187.102 -0.337325ZM187.046 -4.81135C187.786 -4.81135 188.335 -4.34113 188.419 -3.34949H185.644C185.733 -4.30389 186.301 -4.81135 187.046 -4.81135ZM193.517 -0.425781H194.327V-4.7741H195.468V-5.44451H194.327V-5.9799C194.327 -6.52926 194.56 -6.81325 195.137 -6.81325C195.281 -6.81325 195.416 -6.8086 195.514 -6.78998V-7.4371C195.347 -7.46969 195.17 -7.48366 194.974 -7.48366C194.02 -7.48366 193.517 -7.00413 193.517 -6.00318V-5.44451H192.684V-4.7741H193.517V-0.425781ZM198.485 -0.337325C199.914 -0.337325 200.798 -1.32431 200.798 -2.93049V-2.9398C200.798 -4.55064 199.914 -5.53297 198.485 -5.53297C197.055 -5.53297 196.171 -4.55064 196.171 -2.9398V-2.93049C196.171 -1.32431 197.055 -0.337325 198.485 -0.337325ZM198.485 -1.05429C197.535 -1.05429 196.999 -1.74797 196.999 -2.93049V-2.9398C196.999 -4.12698 197.535 -4.81601 198.485 -4.81601C199.434 -4.81601 199.97 -4.12698 199.97 -2.9398V-2.93049C199.97 -1.74797 199.434 -1.05429 198.485 -1.05429ZM202.055 -0.425781H202.865V-3.53572C202.865 -4.2713 203.415 -4.76014 204.188 -4.76014C204.365 -4.76014 204.518 -4.74152 204.686 -4.71358V-5.50038C204.607 -5.51434 204.434 -5.53297 204.281 -5.53297C203.601 -5.53297 203.131 -5.2257 202.94 -4.69962H202.865V-5.44451H202.055V-0.425781ZM210.151 -0.388537C210.31 -0.388537 210.463 -0.407159 210.622 -0.435092V-1.12412C210.473 -1.11015 210.394 -1.1055 210.249 -1.1055C209.728 -1.1055 209.523 -1.34293 209.523 -1.93419V-4.7741H210.622V-5.44451H209.523V-6.74342H208.685V-5.44451H207.893V-4.7741H208.685V-1.72935C208.685 -0.770295 209.118 -0.388537 210.151 -0.388537ZM211.879 -0.425781H212.689V-3.39605C212.689 -4.27596 213.196 -4.81601 213.997 -4.81601C214.798 -4.81601 215.17 -4.38303 215.17 -3.47985V-0.425781H215.98V-3.67538C215.98 -4.86722 215.352 -5.53297 214.225 -5.53297C213.485 -5.53297 213.015 -5.22104 212.763 -4.6903H212.689V-7.4371H211.879V-0.425781ZM217.875 -6.41287C218.182 -6.41287 218.434 -6.66428 218.434 -6.97154C218.434 -7.27881 218.182 -7.53022 217.875 -7.53022C217.568 -7.53022 217.316 -7.27881 217.316 -6.97154C217.316 -6.66428 217.568 -6.41287 217.875 -6.41287ZM217.465 -0.425781H218.275V-5.44451H217.465V-0.425781ZM221.525 -0.337325C222.666 -0.337325 223.536 -0.956519 223.536 -1.85039V-1.8597C223.536 -2.57667 223.08 -2.98636 222.135 -3.21448L221.362 -3.4007C220.771 -3.54503 220.519 -3.75919 220.519 -4.09904V-4.10836C220.519 -4.55064 220.957 -4.85791 221.553 -4.85791C222.158 -4.85791 222.549 -4.58323 222.656 -4.1875H223.452C223.341 -5.00688 222.61 -5.53297 221.558 -5.53297C220.492 -5.53297 219.691 -4.90446 219.691 -4.07111V-4.06645C219.691 -3.34484 220.114 -2.93515 221.055 -2.71168L221.832 -2.52545C222.452 -2.37647 222.708 -2.13904 222.708 -1.79918V-1.78987C222.708 -1.33362 222.228 -1.01239 221.553 -1.01239C220.911 -1.01239 220.51 -1.28707 220.375 -1.70607H219.546C219.64 -0.877374 220.408 -0.337325 221.525 -0.337325ZM122.286 11.5742H123.097V8.46428C123.097 7.75663 123.595 7.18399 124.251 7.18399C124.884 7.18399 125.294 7.57041 125.294 8.16632V11.5742H126.104V8.34789C126.104 7.71008 126.565 7.18399 127.263 7.18399C127.971 7.18399 128.311 7.55179 128.311 8.29203V11.5742H129.121V8.1058C129.121 7.05364 128.548 6.46703 127.524 6.46703C126.83 6.46703 126.258 6.8162 125.988 7.34694H125.913C125.68 6.82551 125.205 6.46703 124.526 6.46703C123.869 6.46703 123.394 6.77896 123.171 7.31901H123.097V6.55549H122.286V11.5742ZM131.011 5.58713C131.318 5.58713 131.57 5.33572 131.57 5.02846C131.57 4.72119 131.318 4.46978 131.011 4.46978C130.704 4.46978 130.452 4.72119 130.452 5.02846C130.452 5.33572 130.704 5.58713 131.011 5.58713ZM130.601 11.5742H131.411V6.55549H130.601V11.5742ZM132.938 11.5742H133.749V8.60395C133.749 7.72404 134.256 7.18399 135.057 7.18399C135.857 7.18399 136.23 7.61697 136.23 8.52015V11.5742H137.04V8.32462C137.04 7.13278 136.412 6.46703 135.285 6.46703C134.545 6.46703 134.074 6.77896 133.823 7.3097H133.749V6.55549H132.938V11.5742ZM138.935 5.58713C139.242 5.58713 139.494 5.33572 139.494 5.02846C139.494 4.72119 139.242 4.46978 138.935 4.46978C138.628 4.46978 138.376 4.72119 138.376 5.02846C138.376 5.33572 138.628 5.58713 138.935 5.58713ZM138.525 11.5742H139.335V6.55549H138.525V11.5742ZM140.792 9.24642H143.921V8.49222H140.792V9.24642ZM147.413 11.6627C148.618 11.6627 149.294 11.0155 149.498 10.1077L149.508 10.0565L148.707 10.0612L148.698 10.0891C148.511 10.6478 148.083 10.9457 147.408 10.9457C146.514 10.9457 145.937 10.2055 145.937 9.05089V9.04158C145.937 7.91027 146.505 7.18399 147.408 7.18399C148.13 7.18399 148.577 7.58438 148.702 8.07787L148.707 8.09184H149.512L149.508 8.0639C149.359 7.17003 148.628 6.46703 147.408 6.46703C146.002 6.46703 145.108 7.48195 145.108 9.04158V9.05089C145.108 10.6431 146.007 11.6627 147.413 11.6627ZM152.073 11.6627C152.748 11.6627 153.274 11.3694 153.591 10.834H153.665V11.5742H154.475V8.13839C154.475 7.09554 153.791 6.46703 152.566 6.46703C151.496 6.46703 150.732 6.99777 150.602 7.78457L150.597 7.8125H151.407L151.412 7.79853C151.542 7.40746 151.938 7.18399 152.538 7.18399C153.288 7.18399 153.665 7.5192 153.665 8.13839V8.59464L152.227 8.6831C151.058 8.75293 150.397 9.2697 150.397 10.1636V10.1729C150.397 11.0854 151.119 11.6627 152.073 11.6627ZM151.226 10.1543V10.145C151.226 9.6468 151.561 9.37678 152.324 9.33022L153.665 9.24642V9.70267C153.665 10.4196 153.065 10.9597 152.241 10.9597C151.659 10.9597 151.226 10.6617 151.226 10.1543ZM155.956 11.5742H156.766V8.46428C156.766 7.7287 157.315 7.23986 158.088 7.23986C158.265 7.23986 158.418 7.25848 158.586 7.28642V6.49962C158.507 6.48566 158.335 6.46703 158.181 6.46703C157.501 6.46703 157.031 6.7743 156.84 7.30038H156.766V6.55549H155.956V11.5742ZM161.3 11.6627C161.999 11.6627 162.557 11.3321 162.865 10.7735H162.939V11.5742H163.749V4.5629H162.939V7.34694H162.865C162.59 6.81155 161.989 6.46703 161.3 6.46703C160.025 6.46703 159.196 7.48661 159.196 9.0602V9.06951C159.196 10.6338 160.029 11.6627 161.3 11.6627ZM161.487 10.9457C160.569 10.9457 160.025 10.2381 160.025 9.06951V9.0602C160.025 7.89164 160.569 7.18399 161.487 7.18399C162.399 7.18399 162.958 7.90096 162.958 9.0602V9.06951C162.958 10.2288 162.399 10.9457 161.487 10.9457Z" fill="white"/>
<rect x="254.62" y="-168.939" width="131.896" height="199.433" rx="11.521" fill="#312E38" stroke="#25222A" stroke-width="0.794554"/>
<path d="M265.729 -0.267491C267.159 -0.267491 268.22 -1.0636 268.444 -2.29267V-2.30199H267.596L267.587 -2.29267C267.378 -1.51985 266.665 -1.04032 265.729 -1.04032C264.435 -1.04032 263.625 -2.09714 263.625 -3.77781V-3.78712C263.625 -5.46779 264.435 -6.52926 265.725 -6.52926C266.651 -6.52926 267.368 -5.98456 267.592 -5.12327L267.596 -5.11396H268.439L268.444 -5.12327C268.244 -6.41287 267.14 -7.30209 265.725 -7.30209C263.9 -7.30209 262.764 -5.95197 262.764 -3.78712V-3.77781C262.764 -1.61761 263.905 -0.267491 265.729 -0.267491ZM271.125 -0.337325C271.8 -0.337325 272.326 -0.630627 272.643 -1.16602H272.718V-0.425781H273.528V-3.86161C273.528 -4.90446 272.843 -5.53297 271.619 -5.53297C270.548 -5.53297 269.785 -5.00223 269.654 -4.21543L269.65 -4.1875H270.46L270.464 -4.20147C270.595 -4.59254 270.99 -4.81601 271.591 -4.81601C272.34 -4.81601 272.718 -4.4808 272.718 -3.86161V-3.40536L271.279 -3.3169C270.11 -3.24707 269.449 -2.7303 269.449 -1.83643V-1.82711C269.449 -0.914618 270.171 -0.337325 271.125 -0.337325ZM270.278 -1.84574V-1.85505C270.278 -2.3532 270.613 -2.62322 271.377 -2.66978L272.718 -2.75358V-2.29733C272.718 -1.58037 272.117 -1.04032 271.293 -1.04032C270.711 -1.04032 270.278 -1.33828 270.278 -1.84574ZM275.008 1.25023H275.818V-1.21723H275.893C276.167 -0.681839 276.768 -0.337325 277.457 -0.337325C278.733 -0.337325 279.561 -1.3569 279.561 -2.93049V-2.9398C279.561 -4.50408 278.728 -5.53297 277.457 -5.53297C276.759 -5.53297 276.2 -5.20242 275.893 -4.64375H275.818V-5.44451H275.008V1.25023ZM277.271 -1.05429C276.358 -1.05429 275.8 -1.77125 275.8 -2.93049V-2.9398C275.8 -4.09904 276.358 -4.81601 277.271 -4.81601C278.188 -4.81601 278.733 -4.10836 278.733 -2.9398V-2.93049C278.733 -1.76194 278.188 -1.05429 277.271 -1.05429ZM282.611 -0.388537C282.769 -0.388537 282.923 -0.407159 283.081 -0.435092V-1.12412C282.932 -1.11015 282.853 -1.1055 282.708 -1.1055C282.187 -1.1055 281.982 -1.34293 281.982 -1.93419V-4.7741H283.081V-5.44451H281.982V-6.74342H281.144V-5.44451H280.353V-4.7741H281.144V-1.72935C281.144 -0.770295 281.577 -0.388537 282.611 -0.388537ZM284.72 -6.41287C285.027 -6.41287 285.278 -6.66428 285.278 -6.97154C285.278 -7.27881 285.027 -7.53022 284.72 -7.53022C284.412 -7.53022 284.161 -7.27881 284.161 -6.97154C284.161 -6.66428 284.412 -6.41287 284.72 -6.41287ZM284.31 -0.425781H285.12V-5.44451H284.31V-0.425781ZM288.71 -0.337325C290.139 -0.337325 291.023 -1.32431 291.023 -2.93049V-2.9398C291.023 -4.55064 290.139 -5.53297 288.71 -5.53297C287.28 -5.53297 286.396 -4.55064 286.396 -2.9398V-2.93049C286.396 -1.32431 287.28 -0.337325 288.71 -0.337325ZM288.71 -1.05429C287.76 -1.05429 287.224 -1.74797 287.224 -2.93049V-2.9398C287.224 -4.12698 287.76 -4.81601 288.71 -4.81601C289.659 -4.81601 290.195 -4.12698 290.195 -2.9398V-2.93049C290.195 -1.74797 289.659 -1.05429 288.71 -1.05429ZM292.28 -0.425781H293.09V-3.39605C293.09 -4.27596 293.598 -4.81601 294.399 -4.81601C295.199 -4.81601 295.572 -4.38303 295.572 -3.47985V-0.425781H296.382V-3.67538C296.382 -4.86722 295.753 -5.53297 294.627 -5.53297C293.887 -5.53297 293.416 -5.22104 293.165 -4.6903H293.09V-5.44451H292.28V-0.425781ZM300.958 -6.41287C301.266 -6.41287 301.517 -6.66428 301.517 -6.97154C301.517 -7.27881 301.266 -7.53022 300.958 -7.53022C300.651 -7.53022 300.4 -7.27881 300.4 -6.97154C300.4 -6.66428 300.651 -6.41287 300.958 -6.41287ZM300.549 -0.425781H301.359V-5.44451H300.549V-0.425781ZM302.886 -0.425781H303.696V-3.39605C303.696 -4.27596 304.203 -4.81601 305.004 -4.81601C305.805 -4.81601 306.177 -4.38303 306.177 -3.47985V-0.425781H306.987V-3.67538C306.987 -4.86722 306.359 -5.53297 305.232 -5.53297C304.492 -5.53297 304.022 -5.22104 303.77 -4.6903H303.696V-5.44451H302.886V-0.425781ZM311.182 -0.425781H311.992V-3.39605C311.992 -4.27596 312.5 -4.81601 313.3 -4.81601C314.101 -4.81601 314.474 -4.38303 314.474 -3.47985V-0.425781H315.284V-3.67538C315.284 -4.86722 314.655 -5.53297 313.528 -5.53297C312.788 -5.53297 312.318 -5.22104 312.067 -4.6903H311.992V-7.4371H311.182V-0.425781ZM318.799 -0.337325C319.981 -0.337325 320.698 -1.00773 320.87 -1.68745L320.88 -1.72469H320.07L320.051 -1.68279C319.916 -1.38018 319.497 -1.05894 318.817 -1.05894C317.923 -1.05894 317.351 -1.66417 317.327 -2.70237H320.94V-3.01895C320.94 -4.51805 320.111 -5.53297 318.747 -5.53297C317.383 -5.53297 316.499 -4.47149 316.499 -2.92118V-2.91652C316.499 -1.34293 317.365 -0.337325 318.799 -0.337325ZM318.743 -4.81135C319.483 -4.81135 320.032 -4.34113 320.116 -3.34949H317.341C317.43 -4.30389 317.998 -4.81135 318.743 -4.81135ZM322.197 -0.425781H323.007V-3.53572C323.007 -4.2713 323.557 -4.76014 324.329 -4.76014C324.506 -4.76014 324.66 -4.74152 324.828 -4.71358V-5.50038C324.748 -5.51434 324.576 -5.53297 324.423 -5.53297C323.743 -5.53297 323.273 -5.2257 323.082 -4.69962H323.007V-5.44451H322.197V-0.425781ZM327.737 -0.337325C328.92 -0.337325 329.637 -1.00773 329.809 -1.68745L329.818 -1.72469H329.008L328.99 -1.68279C328.855 -1.38018 328.436 -1.05894 327.756 -1.05894C326.862 -1.05894 326.289 -1.66417 326.266 -2.70237H329.879V-3.01895C329.879 -4.51805 329.05 -5.53297 327.686 -5.53297C326.322 -5.53297 325.437 -4.47149 325.437 -2.92118V-2.91652C325.437 -1.34293 326.303 -0.337325 327.737 -0.337325ZM327.681 -4.81135C328.422 -4.81135 328.971 -4.34113 329.055 -3.34949H326.28C326.369 -4.30389 326.937 -4.81135 327.681 -4.81135ZM334.153 -0.425781H334.963V-4.7741H336.103V-5.44451H334.963V-5.9799C334.963 -6.52926 335.196 -6.81325 335.773 -6.81325C335.917 -6.81325 336.052 -6.8086 336.15 -6.78998V-7.4371C335.982 -7.46969 335.805 -7.48366 335.61 -7.48366C334.656 -7.48366 334.153 -7.00413 334.153 -6.00318V-5.44451H333.319V-4.7741H334.153V-0.425781ZM339.12 -0.337325C340.55 -0.337325 341.434 -1.32431 341.434 -2.93049V-2.9398C341.434 -4.55064 340.55 -5.53297 339.12 -5.53297C337.691 -5.53297 336.806 -4.55064 336.806 -2.9398V-2.93049C336.806 -1.32431 337.691 -0.337325 339.12 -0.337325ZM339.12 -1.05429C338.171 -1.05429 337.635 -1.74797 337.635 -2.93049V-2.9398C337.635 -4.12698 338.171 -4.81601 339.12 -4.81601C340.07 -4.81601 340.605 -4.12698 340.605 -2.9398V-2.93049C340.605 -1.74797 340.07 -1.05429 339.12 -1.05429ZM342.691 -0.425781H343.501V-3.53572C343.501 -4.2713 344.051 -4.76014 344.823 -4.76014C345 -4.76014 345.154 -4.74152 345.322 -4.71358V-5.50038C345.242 -5.51434 345.07 -5.53297 344.916 -5.53297C344.237 -5.53297 343.767 -5.2257 343.576 -4.69962H343.501V-5.44451H342.691V-0.425781ZM350.787 -0.388537C350.945 -0.388537 351.099 -0.407159 351.257 -0.435092V-1.12412C351.108 -1.11015 351.029 -1.1055 350.885 -1.1055C350.364 -1.1055 350.159 -1.34293 350.159 -1.93419V-4.7741H351.257V-5.44451H350.159V-6.74342H349.321V-5.44451H348.529V-4.7741H349.321V-1.72935C349.321 -0.770295 349.754 -0.388537 350.787 -0.388537ZM352.514 -0.425781H353.324V-3.39605C353.324 -4.27596 353.832 -4.81601 354.633 -4.81601C355.433 -4.81601 355.806 -4.38303 355.806 -3.47985V-0.425781H356.616V-3.67538C356.616 -4.86722 355.987 -5.53297 354.861 -5.53297C354.121 -5.53297 353.65 -5.22104 353.399 -4.6903H353.324V-7.4371H352.514V-0.425781ZM358.511 -6.41287C358.818 -6.41287 359.069 -6.66428 359.069 -6.97154C359.069 -7.27881 358.818 -7.53022 358.511 -7.53022C358.204 -7.53022 357.952 -7.27881 357.952 -6.97154C357.952 -6.66428 358.204 -6.41287 358.511 -6.41287ZM358.101 -0.425781H358.911V-5.44451H358.101V-0.425781ZM362.161 -0.337325C363.301 -0.337325 364.172 -0.956519 364.172 -1.85039V-1.8597C364.172 -2.57667 363.716 -2.98636 362.771 -3.21448L361.998 -3.4007C361.407 -3.54503 361.155 -3.75919 361.155 -4.09904V-4.10836C361.155 -4.55064 361.593 -4.85791 362.189 -4.85791C362.794 -4.85791 363.185 -4.58323 363.292 -4.1875H364.088C363.976 -5.00688 363.246 -5.53297 362.193 -5.53297C361.127 -5.53297 360.326 -4.90446 360.326 -4.07111V-4.06645C360.326 -3.34484 360.75 -2.93515 361.691 -2.71168L362.468 -2.52545C363.087 -2.37647 363.343 -2.13904 363.343 -1.79918V-1.78987C363.343 -1.33362 362.864 -1.01239 362.189 -1.01239C361.546 -1.01239 361.146 -1.28707 361.011 -1.70607H360.182C360.275 -0.877374 361.043 -0.337325 362.161 -0.337325ZM262.922 11.5742H263.732V8.46428C263.732 7.75663 264.23 7.18399 264.887 7.18399C265.52 7.18399 265.93 7.57041 265.93 8.16632V11.5742H266.74V8.34789C266.74 7.71008 267.201 7.18399 267.899 7.18399C268.607 7.18399 268.947 7.55179 268.947 8.29203V11.5742H269.757V8.1058C269.757 7.05364 269.184 6.46703 268.16 6.46703C267.466 6.46703 266.893 6.8162 266.623 7.34694H266.549C266.316 6.82551 265.841 6.46703 265.162 6.46703C264.505 6.46703 264.03 6.77896 263.807 7.31901H263.732V6.55549H262.922V11.5742ZM271.647 5.58713C271.954 5.58713 272.205 5.33572 272.205 5.02846C272.205 4.72119 271.954 4.46978 271.647 4.46978C271.339 4.46978 271.088 4.72119 271.088 5.02846C271.088 5.33572 271.339 5.58713 271.647 5.58713ZM271.237 11.5742H272.047V6.55549H271.237V11.5742ZM273.574 11.5742H274.384V8.60395C274.384 7.72404 274.892 7.18399 275.692 7.18399C276.493 7.18399 276.866 7.61697 276.866 8.52015V11.5742H277.676V8.32462C277.676 7.13278 277.047 6.46703 275.921 6.46703C275.18 6.46703 274.71 6.77896 274.459 7.3097H274.384V6.55549H273.574V11.5742ZM279.571 5.58713C279.878 5.58713 280.129 5.33572 280.129 5.02846C280.129 4.72119 279.878 4.46978 279.571 4.46978C279.263 4.46978 279.012 4.72119 279.012 5.02846C279.012 5.33572 279.263 5.58713 279.571 5.58713ZM279.161 11.5742H279.971V6.55549H279.161V11.5742ZM281.428 9.24642H284.557V8.49222H281.428V9.24642ZM288.048 11.6627C289.254 11.6627 289.929 11.0155 290.134 10.1077L290.143 10.0565L289.343 10.0612L289.333 10.0891C289.147 10.6478 288.719 10.9457 288.044 10.9457C287.15 10.9457 286.573 10.2055 286.573 9.05089V9.04158C286.573 7.91027 287.141 7.18399 288.044 7.18399C288.765 7.18399 289.212 7.58438 289.338 8.07787L289.343 8.09184H290.148L290.143 8.0639C289.994 7.17003 289.264 6.46703 288.044 6.46703C286.638 6.46703 285.744 7.48195 285.744 9.04158V9.05089C285.744 10.6431 286.642 11.6627 288.048 11.6627ZM292.709 11.6627C293.384 11.6627 293.91 11.3694 294.226 10.834H294.301V11.5742H295.111V8.13839C295.111 7.09554 294.427 6.46703 293.202 6.46703C292.131 6.46703 291.368 6.99777 291.237 7.78457L291.233 7.8125H292.043L292.048 7.79853C292.178 7.40746 292.574 7.18399 293.174 7.18399C293.924 7.18399 294.301 7.5192 294.301 8.13839V8.59464L292.862 8.6831C291.694 8.75293 291.033 9.2697 291.033 10.1636V10.1729C291.033 11.0854 291.754 11.6627 292.709 11.6627ZM291.861 10.1543V10.145C291.861 9.6468 292.197 9.37678 292.96 9.33022L294.301 9.24642V9.70267C294.301 10.4196 293.7 10.9597 292.876 10.9597C292.294 10.9597 291.861 10.6617 291.861 10.1543ZM296.591 11.5742H297.401V8.46428C297.401 7.7287 297.951 7.23986 298.724 7.23986C298.901 7.23986 299.054 7.25848 299.222 7.28642V6.49962C299.143 6.48566 298.97 6.46703 298.817 6.46703C298.137 6.46703 297.667 6.7743 297.476 7.30038H297.401V6.55549H296.591V11.5742ZM301.936 11.6627C302.634 11.6627 303.193 11.3321 303.5 10.7735H303.575V11.5742H304.385V4.5629H303.575V7.34694H303.5C303.226 6.81155 302.625 6.46703 301.936 6.46703C300.66 6.46703 299.832 7.48661 299.832 9.0602V9.06951C299.832 10.6338 300.665 11.6627 301.936 11.6627ZM302.122 10.9457C301.205 10.9457 300.66 10.2381 300.66 9.06951V9.0602C300.66 7.89164 301.205 7.18399 302.122 7.18399C303.035 7.18399 303.593 7.90096 303.593 9.0602V9.06951C303.593 10.2288 303.035 10.9457 302.122 10.9457Z" fill="white"/>
</g>
</g>
<g clip-path="url(#clip4_13_4200)">
<g clip-path="url(#clip5_13_4200)">
<rect x="113.984" y="181.459" width="131.896" height="199.433" rx="11.521" fill="#312E38" stroke="#25222A" stroke-width="0.794554"/>
<path d="M122.706 203.802H124.408V199.673H129.038V203.802H130.733V194.285H129.038V198.242H124.408V194.285H122.706V203.802ZM135.678 203.947C137.637 203.947 138.6 202.819 138.831 201.889L138.851 201.83H137.288L137.268 201.876C137.11 202.206 136.602 202.654 135.711 202.654C134.597 202.654 133.898 201.903 133.878 200.61H138.917V200.069C138.917 197.893 137.65 196.455 135.599 196.455C133.548 196.455 132.236 197.939 132.236 200.207V200.214C132.236 202.509 133.535 203.947 135.678 203.947ZM135.619 197.741C136.536 197.741 137.202 198.328 137.314 199.508H133.891C134.016 198.361 134.702 197.741 135.619 197.741ZM142.2 203.921C143.15 203.921 143.915 203.512 144.311 202.813H144.423V203.802H146.045V198.875C146.045 197.352 145.003 196.455 143.15 196.455C141.435 196.455 140.274 197.259 140.116 198.473L140.11 198.532H141.659L141.666 198.506C141.831 198.031 142.319 197.761 143.071 197.761C143.955 197.761 144.423 198.156 144.423 198.875V199.495L142.57 199.607C140.815 199.713 139.833 200.465 139.833 201.751V201.764C139.833 203.077 140.828 203.921 142.2 203.921ZM141.455 201.685V201.672C141.455 201.078 141.884 200.742 142.8 200.682L144.423 200.577V201.157C144.423 202.015 143.691 202.661 142.702 202.661C141.976 202.661 141.455 202.298 141.455 201.685ZM150.292 203.921C151.308 203.921 152.086 203.459 152.482 202.674H152.594V203.802H154.243V193.803H152.594V197.741H152.482C152.106 196.963 151.281 196.474 150.292 196.474C148.465 196.474 147.337 197.899 147.337 200.194V200.207C147.337 202.49 148.485 203.921 150.292 203.921ZM150.806 202.536C149.685 202.536 149.006 201.658 149.006 200.207V200.194C149.006 198.743 149.692 197.86 150.806 197.86C151.921 197.86 152.62 198.75 152.62 200.194V200.207C152.62 201.652 151.928 202.536 150.806 202.536ZM156.049 203.802H157.691V193.803H156.049V203.802ZM160.289 195.386C160.823 195.386 161.265 194.958 161.265 194.417C161.265 193.882 160.823 193.447 160.289 193.447C159.748 193.447 159.306 193.882 159.306 194.417C159.306 194.958 159.748 195.386 160.289 195.386ZM159.464 203.802H161.106V196.593H159.464V203.802ZM162.8 203.802H164.443V199.601C164.443 198.519 165.049 197.833 166.026 197.833C167.021 197.833 167.477 198.4 167.477 199.522V203.802H169.119V199.139C169.119 197.424 168.242 196.455 166.632 196.455C165.59 196.455 164.898 196.923 164.555 197.695H164.443V196.593H162.8V203.802ZM173.82 203.947C175.779 203.947 176.742 202.819 176.973 201.889L176.993 201.83H175.43L175.41 201.876C175.252 202.206 174.744 202.654 173.853 202.654C172.739 202.654 172.04 201.903 172.02 200.61H177.059V200.069C177.059 197.893 175.792 196.455 173.741 196.455C171.69 196.455 170.378 197.939 170.378 200.207V200.214C170.378 202.509 171.677 203.947 173.82 203.947ZM173.761 197.741C174.678 197.741 175.344 198.328 175.456 199.508H172.033C172.158 198.361 172.844 197.741 173.761 197.741Z" fill="white"/>
<path d="M125.094 350.131C126.523 350.131 127.584 349.335 127.808 348.106V348.097H126.961L126.951 348.106C126.742 348.879 126.03 349.358 125.094 349.358C123.8 349.358 122.989 348.302 122.989 346.621V346.612C122.989 344.931 123.8 343.869 125.089 343.869C126.016 343.869 126.733 344.414 126.956 345.275L126.961 345.285H127.803L127.808 345.275C127.608 343.986 126.504 343.097 125.089 343.097C123.264 343.097 122.128 344.447 122.128 346.612V346.621C122.128 348.781 123.269 350.131 125.094 350.131ZM130.49 350.061C131.165 350.061 131.691 349.768 132.007 349.233H132.082V349.973H132.892V346.537C132.892 345.494 132.208 344.866 130.983 344.866C129.912 344.866 129.149 345.396 129.018 346.183L129.014 346.211H129.824L129.828 346.197C129.959 345.806 130.355 345.583 130.955 345.583C131.705 345.583 132.082 345.918 132.082 346.537V346.993L130.643 347.082C129.475 347.152 128.814 347.668 128.814 348.562V348.572C128.814 349.484 129.535 350.061 130.49 350.061ZM129.642 348.553V348.544C129.642 348.045 129.977 347.775 130.741 347.729L132.082 347.645V348.101C132.082 348.818 131.481 349.358 130.657 349.358C130.075 349.358 129.642 349.06 129.642 348.553ZM134.372 351.649H135.182V349.181H135.257C135.532 349.717 136.132 350.061 136.821 350.061C138.097 350.061 138.926 349.042 138.926 347.468V347.459C138.926 345.895 138.092 344.866 136.821 344.866C136.123 344.866 135.564 345.196 135.257 345.755H135.182V344.954H134.372V351.649ZM136.635 349.344C135.722 349.344 135.164 348.627 135.164 347.468V347.459C135.164 346.3 135.722 345.583 136.635 345.583C137.552 345.583 138.097 346.29 138.097 347.459V347.468C138.097 348.637 137.552 349.344 136.635 349.344ZM141.975 350.01C142.133 350.01 142.287 349.992 142.445 349.964V349.275C142.296 349.289 142.217 349.293 142.073 349.293C141.551 349.293 141.346 349.056 141.346 348.464V345.625H142.445V344.954H141.346V343.655H140.508V344.954H139.717V345.625H140.508V348.669C140.508 349.628 140.941 350.01 141.975 350.01ZM144.084 343.986C144.391 343.986 144.643 343.734 144.643 343.427C144.643 343.12 144.391 342.868 144.084 342.868C143.777 342.868 143.525 343.12 143.525 343.427C143.525 343.734 143.777 343.986 144.084 343.986ZM143.674 349.973H144.484V344.954H143.674V349.973ZM148.074 350.061C149.503 350.061 150.388 349.074 150.388 347.468V347.459C150.388 345.848 149.503 344.866 148.074 344.866C146.644 344.866 145.76 345.848 145.76 347.459V347.468C145.76 349.074 146.644 350.061 148.074 350.061ZM148.074 349.344C147.124 349.344 146.589 348.651 146.589 347.468V347.459C146.589 346.272 147.124 345.583 148.074 345.583C149.024 345.583 149.559 346.272 149.559 347.459V347.468C149.559 348.651 149.024 349.344 148.074 349.344ZM151.645 349.973H152.455V347.003C152.455 346.123 152.962 345.583 153.763 345.583C154.564 345.583 154.936 346.016 154.936 346.919V349.973H155.746V346.723C155.746 345.531 155.118 344.866 153.991 344.866C153.251 344.866 152.781 345.178 152.529 345.708H152.455V344.954H151.645V349.973ZM160.323 343.986C160.63 343.986 160.881 343.734 160.881 343.427C160.881 343.12 160.63 342.868 160.323 342.868C160.015 342.868 159.764 343.12 159.764 343.427C159.764 343.734 160.015 343.986 160.323 343.986ZM159.913 349.973H160.723V344.954H159.913V349.973ZM162.25 349.973H163.06V347.003C163.06 346.123 163.568 345.583 164.368 345.583C165.169 345.583 165.542 346.016 165.542 346.919V349.973H166.352V346.723C166.352 345.531 165.723 344.866 164.596 344.866C163.856 344.866 163.386 345.178 163.135 345.708H163.06V344.954H162.25V349.973ZM170.546 349.973H171.356V347.003C171.356 346.123 171.864 345.583 172.665 345.583C173.465 345.583 173.838 346.016 173.838 346.919V349.973H174.648V346.723C174.648 345.531 174.019 344.866 172.893 344.866C172.152 344.866 171.682 345.178 171.431 345.708H171.356V342.962H170.546V349.973ZM178.163 350.061C179.345 350.061 180.062 349.391 180.235 348.711L180.244 348.674H179.434L179.415 348.716C179.28 349.019 178.861 349.34 178.181 349.34C177.288 349.34 176.715 348.735 176.692 347.696H180.304V347.38C180.304 345.881 179.476 344.866 178.112 344.866C176.748 344.866 175.863 345.927 175.863 347.478V347.482C175.863 349.056 176.729 350.061 178.163 350.061ZM178.107 345.587C178.847 345.587 179.397 346.058 179.48 347.049H176.706C176.794 346.095 177.362 345.587 178.107 345.587ZM181.561 349.973H182.372V346.863C182.372 346.127 182.921 345.639 183.694 345.639C183.871 345.639 184.024 345.657 184.192 345.685V344.898C184.113 344.884 183.94 344.866 183.787 344.866C183.107 344.866 182.637 345.173 182.446 345.699H182.372V344.954H181.561V349.973ZM187.102 350.061C188.284 350.061 189.001 349.391 189.173 348.711L189.183 348.674H188.373L188.354 348.716C188.219 349.019 187.8 349.34 187.12 349.34C186.226 349.34 185.654 348.735 185.63 347.696H189.243V347.38C189.243 345.881 188.414 344.866 187.05 344.866C185.686 344.866 184.802 345.927 184.802 347.478V347.482C184.802 349.056 185.668 350.061 187.102 350.061ZM187.046 345.587C187.786 345.587 188.335 346.058 188.419 347.049H185.644C185.733 346.095 186.301 345.587 187.046 345.587ZM193.517 349.973H194.327V345.625H195.468V344.954H194.327V344.419C194.327 343.869 194.56 343.585 195.137 343.585C195.281 343.585 195.416 343.59 195.514 343.609V342.962C195.347 342.929 195.17 342.915 194.974 342.915C194.02 342.915 193.517 343.395 193.517 344.396V344.954H192.684V345.625H193.517V349.973ZM198.485 350.061C199.914 350.061 200.798 349.074 200.798 347.468V347.459C200.798 345.848 199.914 344.866 198.485 344.866C197.055 344.866 196.171 345.848 196.171 347.459V347.468C196.171 349.074 197.055 350.061 198.485 350.061ZM198.485 349.344C197.535 349.344 196.999 348.651 196.999 347.468V347.459C196.999 346.272 197.535 345.583 198.485 345.583C199.434 345.583 199.97 346.272 199.97 347.459V347.468C199.97 348.651 199.434 349.344 198.485 349.344ZM202.055 349.973H202.865V346.863C202.865 346.127 203.415 345.639 204.188 345.639C204.365 345.639 204.518 345.657 204.686 345.685V344.898C204.607 344.884 204.434 344.866 204.281 344.866C203.601 344.866 203.131 345.173 202.94 345.699H202.865V344.954H202.055V349.973ZM210.151 350.01C210.31 350.01 210.463 349.992 210.622 349.964V349.275C210.473 349.289 210.394 349.293 210.249 349.293C209.728 349.293 209.523 349.056 209.523 348.464V345.625H210.622V344.954H209.523V343.655H208.685V344.954H207.893V345.625H208.685V348.669C208.685 349.628 209.118 350.01 210.151 350.01ZM211.879 349.973H212.689V347.003C212.689 346.123 213.196 345.583 213.997 345.583C214.798 345.583 215.17 346.016 215.17 346.919V349.973H215.98V346.723C215.98 345.531 215.352 344.866 214.225 344.866C213.485 344.866 213.015 345.178 212.763 345.708H212.689V342.962H211.879V349.973ZM217.875 343.986C218.182 343.986 218.434 343.734 218.434 343.427C218.434 343.12 218.182 342.868 217.875 342.868C217.568 342.868 217.316 343.12 217.316 343.427C217.316 343.734 217.568 343.986 217.875 343.986ZM217.465 349.973H218.275V344.954H217.465V349.973ZM221.525 350.061C222.666 350.061 223.536 349.442 223.536 348.548V348.539C223.536 347.822 223.08 347.412 222.135 347.184L221.362 346.998C220.771 346.854 220.519 346.639 220.519 346.3V346.29C220.519 345.848 220.957 345.541 221.553 345.541C222.158 345.541 222.549 345.815 222.656 346.211H223.452C223.341 345.392 222.61 344.866 221.558 344.866C220.492 344.866 219.691 345.494 219.691 346.328V346.332C219.691 347.054 220.114 347.464 221.055 347.687L221.832 347.873C222.452 348.022 222.708 348.26 222.708 348.6V348.609C222.708 349.065 222.228 349.386 221.553 349.386C220.911 349.386 220.51 349.112 220.375 348.693H219.546C219.64 349.521 220.408 350.061 221.525 350.061ZM122.286 361.973H123.097V358.863C123.097 358.155 123.595 357.583 124.251 357.583C124.884 357.583 125.294 357.969 125.294 358.565V361.973H126.104V358.747C126.104 358.109 126.565 357.583 127.263 357.583C127.971 357.583 128.311 357.95 128.311 358.691V361.973H129.121V358.504C129.121 357.452 128.548 356.866 127.524 356.866C126.83 356.866 126.258 357.215 125.988 357.746H125.913C125.68 357.224 125.205 356.866 124.526 356.866C123.869 356.866 123.394 357.178 123.171 357.718H123.097V356.954H122.286V361.973ZM131.011 355.986C131.318 355.986 131.57 355.734 131.57 355.427C131.57 355.12 131.318 354.868 131.011 354.868C130.704 354.868 130.452 355.12 130.452 355.427C130.452 355.734 130.704 355.986 131.011 355.986ZM130.601 361.973H131.411V356.954H130.601V361.973ZM132.938 361.973H133.749V359.003C133.749 358.123 134.256 357.583 135.057 357.583C135.857 357.583 136.23 358.016 136.23 358.919V361.973H137.04V358.723C137.04 357.531 136.412 356.866 135.285 356.866C134.545 356.866 134.074 357.178 133.823 357.708H133.749V356.954H132.938V361.973ZM138.935 355.986C139.242 355.986 139.494 355.734 139.494 355.427C139.494 355.12 139.242 354.868 138.935 354.868C138.628 354.868 138.376 355.12 138.376 355.427C138.376 355.734 138.628 355.986 138.935 355.986ZM138.525 361.973H139.335V356.954H138.525V361.973ZM140.792 359.645H143.921V358.891H140.792V359.645ZM147.413 362.061C148.618 362.061 149.294 361.414 149.498 360.506L149.508 360.455L148.707 360.46L148.698 360.488C148.511 361.046 148.083 361.344 147.408 361.344C146.514 361.344 145.937 360.604 145.937 359.45V359.44C145.937 358.309 146.505 357.583 147.408 357.583C148.13 357.583 148.577 357.983 148.702 358.477L148.707 358.491H149.512L149.508 358.463C149.359 357.569 148.628 356.866 147.408 356.866C146.002 356.866 145.108 357.881 145.108 359.44V359.45C145.108 361.042 146.007 362.061 147.413 362.061ZM152.073 362.061C152.748 362.061 153.274 361.768 153.591 361.233H153.665V361.973H154.475V358.537C154.475 357.494 153.791 356.866 152.566 356.866C151.496 356.866 150.732 357.396 150.602 358.183L150.597 358.211H151.407L151.412 358.197C151.542 357.806 151.938 357.583 152.538 357.583C153.288 357.583 153.665 357.918 153.665 358.537V358.993L152.227 359.082C151.058 359.152 150.397 359.668 150.397 360.562V360.572C150.397 361.484 151.119 362.061 152.073 362.061ZM151.226 360.553V360.544C151.226 360.045 151.561 359.775 152.324 359.729L153.665 359.645V360.101C153.665 360.818 153.065 361.358 152.241 361.358C151.659 361.358 151.226 361.06 151.226 360.553ZM155.956 361.973H156.766V358.863C156.766 358.127 157.315 357.639 158.088 357.639C158.265 357.639 158.418 357.657 158.586 357.685V356.898C158.507 356.884 158.335 356.866 158.181 356.866C157.501 356.866 157.031 357.173 156.84 357.699H156.766V356.954H155.956V361.973ZM161.3 362.061C161.999 362.061 162.557 361.731 162.865 361.172H162.939V361.973H163.749V354.962H162.939V357.746H162.865C162.59 357.21 161.989 356.866 161.3 356.866C160.025 356.866 159.196 357.885 159.196 359.459V359.468C159.196 361.032 160.029 362.061 161.3 362.061ZM161.487 361.344C160.569 361.344 160.025 360.637 160.025 359.468V359.459C160.025 358.29 160.569 357.583 161.487 357.583C162.399 357.583 162.958 358.3 162.958 359.459V359.468C162.958 360.627 162.399 361.344 161.487 361.344Z" fill="white"/>
<rect x="121.93" y="215.625" width="116.005" height="116.005" rx="7.54827" fill="#25222A" stroke="#25222A" stroke-width="0.794554"/>
<rect x="254.62" y="181.459" width="131.896" height="199.433" rx="11.521" fill="#312E38" stroke="#25222A" stroke-width="0.794554"/>
<path d="M263.342 203.802H265.044V199.673H269.674V203.802H271.369V194.285H269.674V198.242H265.044V194.285H263.342V203.802ZM276.314 203.947C278.273 203.947 279.236 202.819 279.467 201.889L279.487 201.83H277.923L277.904 201.876C277.745 202.206 277.238 202.654 276.347 202.654C275.232 202.654 274.533 201.903 274.514 200.61H279.553V200.069C279.553 197.893 278.286 196.455 276.235 196.455C274.184 196.455 272.871 197.939 272.871 200.207V200.214C272.871 202.509 274.171 203.947 276.314 203.947ZM276.255 197.741C277.172 197.741 277.838 198.328 277.95 199.508H274.527C274.652 198.361 275.338 197.741 276.255 197.741ZM282.836 203.921C283.786 203.921 284.551 203.512 284.947 202.813H285.059V203.802H286.681V198.875C286.681 197.352 285.639 196.455 283.786 196.455C282.071 196.455 280.91 197.259 280.752 198.473L280.745 198.532H282.295L282.302 198.506C282.467 198.031 282.955 197.761 283.707 197.761C284.59 197.761 285.059 198.156 285.059 198.875V199.495L283.205 199.607C281.451 199.713 280.468 200.465 280.468 201.751V201.764C280.468 203.077 281.464 203.921 282.836 203.921ZM282.091 201.685V201.672C282.091 201.078 282.519 200.742 283.436 200.682L285.059 200.577V201.157C285.059 202.015 284.327 202.661 283.337 202.661C282.612 202.661 282.091 202.298 282.091 201.685ZM290.928 203.921C291.943 203.921 292.722 203.459 293.117 202.674H293.229V203.802H294.878V193.803H293.229V197.741H293.117C292.741 196.963 291.917 196.474 290.928 196.474C289.101 196.474 287.973 197.899 287.973 200.194V200.207C287.973 202.49 289.12 203.921 290.928 203.921ZM291.442 202.536C290.321 202.536 289.641 201.658 289.641 200.207V200.194C289.641 198.743 290.327 197.86 291.442 197.86C292.557 197.86 293.256 198.75 293.256 200.194V200.207C293.256 201.652 292.563 202.536 291.442 202.536ZM296.684 203.802H298.327V193.803H296.684V203.802ZM300.924 195.386C301.458 195.386 301.9 194.958 301.9 194.417C301.9 193.882 301.458 193.447 300.924 193.447C300.383 193.447 299.942 193.882 299.942 194.417C299.942 194.958 300.383 195.386 300.924 195.386ZM300.1 203.802H301.742V196.593H300.1V203.802ZM303.436 203.802H305.078V199.601C305.078 198.519 305.685 197.833 306.661 197.833C307.657 197.833 308.112 198.4 308.112 199.522V203.802H309.755V199.139C309.755 197.424 308.877 196.455 307.268 196.455C306.226 196.455 305.533 196.923 305.19 197.695H305.078V196.593H303.436V203.802ZM314.456 203.947C316.415 203.947 317.378 202.819 317.609 201.889L317.628 201.83H316.065L316.046 201.876C315.887 202.206 315.379 202.654 314.489 202.654C313.374 202.654 312.675 201.903 312.656 200.61H317.694V200.069C317.694 197.893 316.428 196.455 314.377 196.455C312.326 196.455 311.013 197.939 311.013 200.207V200.214C311.013 202.509 312.313 203.947 314.456 203.947ZM314.397 197.741C315.313 197.741 315.98 198.328 316.092 199.508H312.669C312.794 198.361 313.48 197.741 314.397 197.741Z" fill="white"/>
<path d="M265.729 350.131C267.159 350.131 268.22 349.335 268.444 348.106V348.097H267.596L267.587 348.106C267.378 348.879 266.665 349.358 265.729 349.358C264.435 349.358 263.625 348.302 263.625 346.621V346.612C263.625 344.931 264.435 343.869 265.725 343.869C266.651 343.869 267.368 344.414 267.592 345.275L267.596 345.285H268.439L268.444 345.275C268.244 343.986 267.14 343.097 265.725 343.097C263.9 343.097 262.764 344.447 262.764 346.612V346.621C262.764 348.781 263.905 350.131 265.729 350.131ZM271.125 350.061C271.8 350.061 272.326 349.768 272.643 349.233H272.718V349.973H273.528V346.537C273.528 345.494 272.843 344.866 271.619 344.866C270.548 344.866 269.785 345.396 269.654 346.183L269.65 346.211H270.46L270.464 346.197C270.595 345.806 270.99 345.583 271.591 345.583C272.34 345.583 272.718 345.918 272.718 346.537V346.993L271.279 347.082C270.11 347.152 269.449 347.668 269.449 348.562V348.572C269.449 349.484 270.171 350.061 271.125 350.061ZM270.278 348.553V348.544C270.278 348.045 270.613 347.775 271.377 347.729L272.718 347.645V348.101C272.718 348.818 272.117 349.358 271.293 349.358C270.711 349.358 270.278 349.06 270.278 348.553ZM275.008 351.649H275.818V349.181H275.893C276.167 349.717 276.768 350.061 277.457 350.061C278.733 350.061 279.561 349.042 279.561 347.468V347.459C279.561 345.895 278.728 344.866 277.457 344.866C276.759 344.866 276.2 345.196 275.893 345.755H275.818V344.954H275.008V351.649ZM277.271 349.344C276.358 349.344 275.8 348.627 275.8 347.468V347.459C275.8 346.3 276.358 345.583 277.271 345.583C278.188 345.583 278.733 346.29 278.733 347.459V347.468C278.733 348.637 278.188 349.344 277.271 349.344ZM282.611 350.01C282.769 350.01 282.923 349.992 283.081 349.964V349.275C282.932 349.289 282.853 349.293 282.708 349.293C282.187 349.293 281.982 349.056 281.982 348.464V345.625H283.081V344.954H281.982V343.655H281.144V344.954H280.353V345.625H281.144V348.669C281.144 349.628 281.577 350.01 282.611 350.01ZM284.72 343.986C285.027 343.986 285.278 343.734 285.278 343.427C285.278 343.12 285.027 342.868 284.72 342.868C284.412 342.868 284.161 343.12 284.161 343.427C284.161 343.734 284.412 343.986 284.72 343.986ZM284.31 349.973H285.12V344.954H284.31V349.973ZM288.71 350.061C290.139 350.061 291.023 349.074 291.023 347.468V347.459C291.023 345.848 290.139 344.866 288.71 344.866C287.28 344.866 286.396 345.848 286.396 347.459V347.468C286.396 349.074 287.28 350.061 288.71 350.061ZM288.71 349.344C287.76 349.344 287.224 348.651 287.224 347.468V347.459C287.224 346.272 287.76 345.583 288.71 345.583C289.659 345.583 290.195 346.272 290.195 347.459V347.468C290.195 348.651 289.659 349.344 288.71 349.344ZM292.28 349.973H293.09V347.003C293.09 346.123 293.598 345.583 294.399 345.583C295.199 345.583 295.572 346.016 295.572 346.919V349.973H296.382V346.723C296.382 345.531 295.753 344.866 294.627 344.866C293.887 344.866 293.416 345.178 293.165 345.708H293.09V344.954H292.28V349.973ZM300.958 343.986C301.266 343.986 301.517 343.734 301.517 343.427C301.517 343.12 301.266 342.868 300.958 342.868C300.651 342.868 300.4 343.12 300.4 343.427C300.4 343.734 300.651 343.986 300.958 343.986ZM300.549 349.973H301.359V344.954H300.549V349.973ZM302.886 349.973H303.696V347.003C303.696 346.123 304.203 345.583 305.004 345.583C305.805 345.583 306.177 346.016 306.177 346.919V349.973H306.987V346.723C306.987 345.531 306.359 344.866 305.232 344.866C304.492 344.866 304.022 345.178 303.77 345.708H303.696V344.954H302.886V349.973ZM311.182 349.973H311.992V347.003C311.992 346.123 312.5 345.583 313.3 345.583C314.101 345.583 314.474 346.016 314.474 346.919V349.973H315.284V346.723C315.284 345.531 314.655 344.866 313.528 344.866C312.788 344.866 312.318 345.178 312.067 345.708H311.992V342.962H311.182V349.973ZM318.799 350.061C319.981 350.061 320.698 349.391 320.87 348.711L320.88 348.674H320.07L320.051 348.716C319.916 349.019 319.497 349.34 318.817 349.34C317.923 349.34 317.351 348.735 317.327 347.696H320.94V347.38C320.94 345.881 320.111 344.866 318.747 344.866C317.383 344.866 316.499 345.927 316.499 347.478V347.482C316.499 349.056 317.365 350.061 318.799 350.061ZM318.743 345.587C319.483 345.587 320.032 346.058 320.116 347.049H317.341C317.43 346.095 317.998 345.587 318.743 345.587ZM322.197 349.973H323.007V346.863C323.007 346.127 323.557 345.639 324.329 345.639C324.506 345.639 324.66 345.657 324.828 345.685V344.898C324.748 344.884 324.576 344.866 324.423 344.866C323.743 344.866 323.273 345.173 323.082 345.699H323.007V344.954H322.197V349.973ZM327.737 350.061C328.92 350.061 329.637 349.391 329.809 348.711L329.818 348.674H329.008L328.99 348.716C328.855 349.019 328.436 349.34 327.756 349.34C326.862 349.34 326.289 348.735 326.266 347.696H329.879V347.38C329.879 345.881 329.05 344.866 327.686 344.866C326.322 344.866 325.437 345.927 325.437 347.478V347.482C325.437 349.056 326.303 350.061 327.737 350.061ZM327.681 345.587C328.422 345.587 328.971 346.058 329.055 347.049H326.28C326.369 346.095 326.937 345.587 327.681 345.587ZM334.153 349.973H334.963V345.625H336.103V344.954H334.963V344.419C334.963 343.869 335.196 343.585 335.773 343.585C335.917 343.585 336.052 343.59 336.15 343.609V342.962C335.982 342.929 335.805 342.915 335.61 342.915C334.656 342.915 334.153 343.395 334.153 344.396V344.954H333.319V345.625H334.153V349.973ZM339.12 350.061C340.55 350.061 341.434 349.074 341.434 347.468V347.459C341.434 345.848 340.55 344.866 339.12 344.866C337.691 344.866 336.806 345.848 336.806 347.459V347.468C336.806 349.074 337.691 350.061 339.12 350.061ZM339.12 349.344C338.171 349.344 337.635 348.651 337.635 347.468V347.459C337.635 346.272 338.171 345.583 339.12 345.583C340.07 345.583 340.605 346.272 340.605 347.459V347.468C340.605 348.651 340.07 349.344 339.12 349.344ZM342.691 349.973H343.501V346.863C343.501 346.127 344.051 345.639 344.823 345.639C345 345.639 345.154 345.657 345.322 345.685V344.898C345.242 344.884 345.07 344.866 344.916 344.866C344.237 344.866 343.767 345.173 343.576 345.699H343.501V344.954H342.691V349.973ZM350.787 350.01C350.945 350.01 351.099 349.992 351.257 349.964V349.275C351.108 349.289 351.029 349.293 350.885 349.293C350.364 349.293 350.159 349.056 350.159 348.464V345.625H351.257V344.954H350.159V343.655H349.321V344.954H348.529V345.625H349.321V348.669C349.321 349.628 349.754 350.01 350.787 350.01ZM352.514 349.973H353.324V347.003C353.324 346.123 353.832 345.583 354.633 345.583C355.433 345.583 355.806 346.016 355.806 346.919V349.973H356.616V346.723C356.616 345.531 355.987 344.866 354.861 344.866C354.121 344.866 353.65 345.178 353.399 345.708H353.324V342.962H352.514V349.973ZM358.511 343.986C358.818 343.986 359.069 343.734 359.069 343.427C359.069 343.12 358.818 342.868 358.511 342.868C358.204 342.868 357.952 343.12 357.952 343.427C357.952 343.734 358.204 343.986 358.511 343.986ZM358.101 349.973H358.911V344.954H358.101V349.973ZM362.161 350.061C363.301 350.061 364.172 349.442 364.172 348.548V348.539C364.172 347.822 363.716 347.412 362.771 347.184L361.998 346.998C361.407 346.854 361.155 346.639 361.155 346.3V346.29C361.155 345.848 361.593 345.541 362.189 345.541C362.794 345.541 363.185 345.815 363.292 346.211H364.088C363.976 345.392 363.246 344.866 362.193 344.866C361.127 344.866 360.326 345.494 360.326 346.328V346.332C360.326 347.054 360.75 347.464 361.691 347.687L362.468 347.873C363.087 348.022 363.343 348.26 363.343 348.6V348.609C363.343 349.065 362.864 349.386 362.189 349.386C361.546 349.386 361.146 349.112 361.011 348.693H360.182C360.275 349.521 361.043 350.061 362.161 350.061ZM262.922 361.973H263.732V358.863C263.732 358.155 264.23 357.583 264.887 357.583C265.52 357.583 265.93 357.969 265.93 358.565V361.973H266.74V358.747C266.74 358.109 267.201 357.583 267.899 357.583C268.607 357.583 268.947 357.95 268.947 358.691V361.973H269.757V358.504C269.757 357.452 269.184 356.866 268.16 356.866C267.466 356.866 266.893 357.215 266.623 357.746H266.549C266.316 357.224 265.841 356.866 265.162 356.866C264.505 356.866 264.03 357.178 263.807 357.718H263.732V356.954H262.922V361.973ZM271.647 355.986C271.954 355.986 272.205 355.734 272.205 355.427C272.205 355.12 271.954 354.868 271.647 354.868C271.339 354.868 271.088 355.12 271.088 355.427C271.088 355.734 271.339 355.986 271.647 355.986ZM271.237 361.973H272.047V356.954H271.237V361.973ZM273.574 361.973H274.384V359.003C274.384 358.123 274.892 357.583 275.692 357.583C276.493 357.583 276.866 358.016 276.866 358.919V361.973H277.676V358.723C277.676 357.531 277.047 356.866 275.921 356.866C275.18 356.866 274.71 357.178 274.459 357.708H274.384V356.954H273.574V361.973ZM279.571 355.986C279.878 355.986 280.129 355.734 280.129 355.427C280.129 355.12 279.878 354.868 279.571 354.868C279.263 354.868 279.012 355.12 279.012 355.427C279.012 355.734 279.263 355.986 279.571 355.986ZM279.161 361.973H279.971V356.954H279.161V361.973ZM281.428 359.645H284.557V358.891H281.428V359.645ZM288.048 362.061C289.254 362.061 289.929 361.414 290.134 360.506L290.143 360.455L289.343 360.46L289.333 360.488C289.147 361.046 288.719 361.344 288.044 361.344C287.15 361.344 286.573 360.604 286.573 359.45V359.44C286.573 358.309 287.141 357.583 288.044 357.583C288.765 357.583 289.212 357.983 289.338 358.477L289.343 358.491H290.148L290.143 358.463C289.994 357.569 289.264 356.866 288.044 356.866C286.638 356.866 285.744 357.881 285.744 359.44V359.45C285.744 361.042 286.642 362.061 288.048 362.061ZM292.709 362.061C293.384 362.061 293.91 361.768 294.226 361.233H294.301V361.973H295.111V358.537C295.111 357.494 294.427 356.866 293.202 356.866C292.131 356.866 291.368 357.396 291.237 358.183L291.233 358.211H292.043L292.048 358.197C292.178 357.806 292.574 357.583 293.174 357.583C293.924 357.583 294.301 357.918 294.301 358.537V358.993L292.862 359.082C291.694 359.152 291.033 359.668 291.033 360.562V360.572C291.033 361.484 291.754 362.061 292.709 362.061ZM291.861 360.553V360.544C291.861 360.045 292.197 359.775 292.96 359.729L294.301 359.645V360.101C294.301 360.818 293.7 361.358 292.876 361.358C292.294 361.358 291.861 361.06 291.861 360.553ZM296.591 361.973H297.401V358.863C297.401 358.127 297.951 357.639 298.724 357.639C298.901 357.639 299.054 357.657 299.222 357.685V356.898C299.143 356.884 298.97 356.866 298.817 356.866C298.137 356.866 297.667 357.173 297.476 357.699H297.401V356.954H296.591V361.973ZM301.936 362.061C302.634 362.061 303.193 361.731 303.5 361.172H303.575V361.973H304.385V354.962H303.575V357.746H303.5C303.226 357.21 302.625 356.866 301.936 356.866C300.66 356.866 299.832 357.885 299.832 359.459V359.468C299.832 361.032 300.665 362.061 301.936 362.061ZM302.122 361.344C301.205 361.344 300.66 360.637 300.66 359.468V359.459C300.66 358.29 301.205 357.583 302.122 357.583C303.035 357.583 303.593 358.3 303.593 359.459V359.468C303.593 360.627 303.035 361.344 302.122 361.344Z" fill="white"/>
<rect x="262.565" y="215.625" width="116.005" height="116.005" rx="7.54827" fill="#25222A" stroke="#25222A" stroke-width="0.794554"/>
</g>
</g>
<path d="M114.761 60.7822H116.463V56.6535H121.093V60.7822H122.788V51.265H121.093V55.2223H116.463V51.265H114.761V60.7822ZM127.733 60.9273C129.692 60.9273 130.655 59.7995 130.886 58.8696L130.905 58.8102H129.342L129.323 58.8564C129.164 59.1861 128.656 59.6346 127.766 59.6346C126.651 59.6346 125.952 58.8827 125.933 57.59H130.971V57.0492C130.971 54.8727 129.705 53.4349 127.654 53.4349C125.603 53.4349 124.29 54.9189 124.29 57.1877V57.1943C124.29 59.4895 125.59 60.9273 127.733 60.9273ZM127.674 54.721C128.59 54.721 129.257 55.308 129.369 56.4886H125.946C126.071 55.341 126.757 54.721 127.674 54.721ZM134.255 60.9009C135.205 60.9009 135.97 60.492 136.366 59.7929H136.478V60.7822H138.1V55.8554C138.1 54.3319 137.058 53.4349 135.205 53.4349C133.49 53.4349 132.329 54.2396 132.171 55.4531L132.164 55.5125H133.714L133.721 55.4861C133.886 55.0112 134.374 54.7408 135.126 54.7408C136.009 54.7408 136.478 55.1365 136.478 55.8554V56.4754L134.624 56.5875C132.87 56.6931 131.887 57.4449 131.887 58.7311V58.7442C131.887 60.0567 132.883 60.9009 134.255 60.9009ZM133.51 58.6651V58.6519C133.51 58.0583 133.938 57.722 134.855 57.6626L136.478 57.5571V58.1375C136.478 58.9949 135.746 59.6412 134.756 59.6412C134.031 59.6412 133.51 59.2785 133.51 58.6651ZM142.347 60.9009C143.362 60.9009 144.141 60.4393 144.536 59.6544H144.648V60.7822H146.297V50.7836H144.648V54.721H144.536C144.16 53.9428 143.336 53.4547 142.347 53.4547C140.52 53.4547 139.392 54.8793 139.392 57.1745V57.1877C139.392 59.4697 140.539 60.9009 142.347 60.9009ZM142.861 59.5159C141.74 59.5159 141.06 58.6387 141.06 57.1877V57.1745C141.06 55.7235 141.746 54.8398 142.861 54.8398C143.976 54.8398 144.675 55.7301 144.675 57.1745V57.1877C144.675 58.6321 143.982 59.5159 142.861 59.5159ZM148.103 60.7822H149.746V50.7836H148.103V60.7822ZM152.343 52.3665C152.877 52.3665 153.319 51.9378 153.319 51.3969C153.319 50.8627 152.877 50.4274 152.343 50.4274C151.802 50.4274 151.36 50.8627 151.36 51.3969C151.36 51.9378 151.802 52.3665 152.343 52.3665ZM151.519 60.7822H153.161V53.5734H151.519V60.7822ZM154.855 60.7822H156.497V56.5809C156.497 55.4993 157.104 54.8134 158.08 54.8134C159.076 54.8134 159.531 55.3806 159.531 56.5018V60.7822H161.173V56.1193C161.173 54.4045 160.296 53.4349 158.687 53.4349C157.645 53.4349 156.952 53.9032 156.609 54.6749H156.497V53.5734H154.855V60.7822ZM165.875 60.9273C167.834 60.9273 168.797 59.7995 169.028 58.8696L169.047 58.8102H167.484L167.465 58.8564C167.306 59.1861 166.798 59.6346 165.908 59.6346C164.793 59.6346 164.094 58.8827 164.074 57.59H169.113V57.0492C169.113 54.8727 167.847 53.4349 165.796 53.4349C163.745 53.4349 162.432 54.9189 162.432 57.1877V57.1943C162.432 59.4895 163.731 60.9273 165.875 60.9273ZM165.816 54.721C166.732 54.721 167.399 55.308 167.511 56.4886H164.088C164.213 55.341 164.899 54.721 165.816 54.721Z" fill="white"/>
<g clip-path="url(#clip6_13_4200)">
<rect x="113.984" y="77.3724" width="82.6337" height="82.6337" rx="15.4938" fill="#25222A" stroke="#25222A" stroke-width="0.794554"/>
<rect x="206.947" y="77.3724" width="82.6337" height="82.6337" rx="15.4938" fill="#25222A" stroke="#25222A" stroke-width="0.794554"/>
<rect x="299.91" y="77.3724" width="82.6337" height="82.6337" rx="15.4938" fill="#25222A" stroke="#25222A" stroke-width="0.794554"/>
<rect x="392.873" y="77.3724" width="82.6337" height="82.6337" rx="15.4938" fill="#25222A" stroke="#25222A" stroke-width="0.794554"/>
</g>
</g>
</g>
</g>
<defs>
<linearGradient id="paint0_linear_13_4200" x1="209.389" y1="-306.977" x2="416.13" y2="-85.246" gradientUnits="userSpaceOnUse">
<stop/>
<stop offset="1" stop-opacity="0"/>
</linearGradient>
<clipPath id="clip0_13_4200">
<rect width="500" height="500" rx="25" fill="white"/>
</clipPath>
<clipPath id="clip1_13_4200">
<rect x="89.75" y="-306" width="322" height="707" rx="23.8366" fill="white"/>
</clipPath>
<clipPath id="clip2_13_4200">
<rect width="273.327" height="200.228" fill="white" transform="translate(113.587 -169.337)"/>
</clipPath>
<clipPath id="clip3_13_4200">
<rect width="273.327" height="200.228" fill="white" transform="translate(113.587 -169.337)"/>
</clipPath>
<clipPath id="clip4_13_4200">
<rect width="273.327" height="200.228" fill="white" transform="translate(113.587 181.062)"/>
</clipPath>
<clipPath id="clip5_13_4200">
<rect width="273.327" height="200.228" fill="white" transform="translate(113.587 181.062)"/>
</clipPath>
<clipPath id="clip6_13_4200">
<rect width="362.317" height="92.9629" fill="white" transform="translate(113.587 72.2078)"/>
</clipPath>
</defs>
</svg>
