<svg width="151" height="80" viewBox="0 0 151 80" fill="none" xmlns="http://www.w3.org/2000/svg">
<rect x="0.5" width="150" height="80" rx="10" fill="white"/>
<g clip-path="url(#clip0_13_1299)">
<path d="M66.4147 33.1V46.9H64.0154V36.0708H63.9834L59.6967 46.9H58.0971L53.7144 36.0708H53.6824V46.9H51.4751V33.1H54.9301L58.8969 43.3222H58.9609L63.1516 33.1H66.4147ZM68.3981 34.1541C68.3981 33.7708 68.526 33.4514 68.814 33.1958C69.1019 32.9403 69.4218 32.8125 69.8057 32.8125C70.2215 32.8125 70.5734 32.9403 70.8294 33.1958C71.0853 33.4514 71.2452 33.7708 71.2452 34.1541C71.2452 34.5375 71.1173 34.8569 70.8294 35.1125C70.5414 35.368 70.2215 35.4958 69.8057 35.4958C69.3898 35.4958 69.0699 35.368 68.814 35.1125C68.558 34.825 68.3981 34.5055 68.3981 34.1541ZM70.9893 36.9972V46.9H68.654V36.9972H70.9893ZM78.0592 45.2069C78.4111 45.2069 78.795 45.143 79.2109 44.9514C79.6268 44.7916 80.0106 44.568 80.3625 44.3125V46.4847C79.9787 46.7083 79.5628 46.868 79.0829 46.9639C78.6031 47.0597 78.0912 47.1236 77.5154 47.1236C76.0438 47.1236 74.8602 46.6764 73.9644 45.75C73.0367 44.8236 72.5888 43.6416 72.5888 42.2361C72.5888 40.6389 73.0687 39.3291 73.9964 38.3069C74.9242 37.2847 76.2358 36.7736 77.9632 36.7736C78.4111 36.7736 78.859 36.8375 79.2749 36.9333C79.7227 37.0291 80.0746 37.1889 80.3305 37.3166V39.5528C79.9786 39.2972 79.5948 39.0736 79.2429 38.9458C78.859 38.818 78.4751 38.7222 78.0912 38.7222C77.1635 38.7222 76.4277 39.0097 75.8519 39.6166C75.276 40.2236 75.0201 41.0222 75.0201 42.0444C75.0201 43.0347 75.308 43.8333 75.8519 44.3764C76.3957 44.9194 77.1315 45.2069 78.0592 45.2069ZM86.9846 36.8375C87.1765 36.8375 87.3365 36.8375 87.4964 36.8694C87.6564 36.9014 87.7843 36.9333 87.8803 36.9653V39.3291C87.7523 39.2333 87.5924 39.1375 87.3365 39.0736C87.0805 39.0097 86.8246 38.9458 86.4727 38.9458C85.8969 38.9458 85.417 39.2014 85.0332 39.6805C84.6493 40.1597 84.4253 40.8944 84.4253 41.9166V46.9H82.09V36.9972H84.4253V38.5625H84.4573C84.6813 38.0194 85.0012 37.6041 85.417 37.2847C85.8649 36.9972 86.3768 36.8375 86.9846 36.8375ZM88.0083 42.1083C88.0083 40.4791 88.4881 39.1694 89.3839 38.2111C90.3116 37.2528 91.5912 36.7736 93.2227 36.7736C94.7583 36.7736 95.9739 37.2208 96.8377 38.1472C97.7014 39.0736 98.1493 40.3194 98.1493 41.8847C98.1493 43.4819 97.6694 44.7597 96.7737 45.718C95.846 46.6764 94.5983 47.1555 92.9988 47.1555C91.4632 47.1555 90.2476 46.7083 89.3519 45.8139C88.4561 44.8875 88.0083 43.6416 88.0083 42.1083ZM90.4396 42.0125C90.4396 43.0347 90.6635 43.8333 91.1433 44.3764C91.6232 44.9194 92.295 45.2069 93.1587 45.2069C93.9905 45.2069 94.6623 44.9514 95.1102 44.3764C95.558 43.8333 95.782 43.0347 95.782 41.9486C95.782 40.8944 95.558 40.0958 95.1102 39.5208C94.6623 38.9778 93.9905 38.6903 93.1907 38.6903C92.327 38.6903 91.6872 38.9778 91.2073 39.5528C90.6635 40.1597 90.4396 40.9583 90.4396 42.0125ZM101.636 39.6166C101.636 39.9361 101.732 40.2236 101.956 40.4153C102.18 40.6069 102.628 40.8305 103.364 41.118C104.291 41.5014 104.963 41.9166 105.315 42.3639C105.699 42.843 105.891 43.3861 105.891 44.0569C105.891 44.9833 105.539 45.718 104.803 46.293C104.1 46.868 103.108 47.1236 101.892 47.1236C101.476 47.1236 101.028 47.0597 100.517 46.9639C100.005 46.868 99.5888 46.7403 99.2369 46.5805V44.2805C99.6528 44.568 100.133 44.8236 100.613 44.9833C101.092 45.143 101.54 45.2389 101.956 45.2389C102.468 45.2389 102.884 45.175 103.108 45.0153C103.364 44.8555 103.492 44.6319 103.492 44.2805C103.492 43.9611 103.364 43.7055 103.108 43.45C102.852 43.2264 102.34 42.9708 101.636 42.6833C100.772 42.3319 100.165 41.9166 99.8128 41.4694C99.4609 41.0222 99.2689 40.4472 99.2689 39.7444C99.2689 38.85 99.6208 38.1153 100.325 37.5403C101.028 36.9653 101.956 36.6778 103.076 36.6778C103.428 36.6778 103.812 36.7097 104.227 36.8055C104.643 36.9014 105.027 36.9972 105.315 37.093V39.3611C104.995 39.1694 104.643 38.9778 104.227 38.818C103.812 38.6583 103.396 38.5944 103.012 38.5944C102.564 38.5944 102.212 38.6903 101.988 38.85C101.764 39.0736 101.636 39.2972 101.636 39.6166ZM106.883 42.1083C106.883 40.4791 107.363 39.1694 108.258 38.2111C109.186 37.2528 110.466 36.7736 112.097 36.7736C113.633 36.7736 114.848 37.2208 115.712 38.1472C116.576 39.0736 117.024 40.3194 117.024 41.8847C117.024 43.4819 116.544 44.7597 115.648 45.718C114.72 46.6764 113.473 47.1555 111.873 47.1555C110.338 47.1555 109.122 46.7083 108.226 45.8139C107.363 44.8875 106.883 43.6416 106.883 42.1083ZM109.314 42.0125C109.314 43.0347 109.538 43.8333 110.018 44.3764C110.498 44.9194 111.169 45.2069 112.033 45.2069C112.865 45.2069 113.537 44.9514 113.985 44.3764C114.432 43.8333 114.656 43.0347 114.656 41.9486C114.656 40.8944 114.432 40.0958 113.985 39.5208C113.537 38.9778 112.865 38.6903 112.065 38.6903C111.201 38.6903 110.562 38.9778 110.082 39.5528C109.57 40.1597 109.314 40.9583 109.314 42.0125ZM124.797 38.9139H121.31V46.9H118.943V38.9139H117.28V36.9972H118.943V35.6236C118.943 34.6014 119.295 33.7389 119.967 33.068C120.639 32.3972 121.502 32.0778 122.558 32.0778C122.846 32.0778 123.102 32.1097 123.326 32.1097C123.55 32.1097 123.742 32.1736 123.902 32.2375V34.25C123.838 34.218 123.678 34.1541 123.486 34.0903C123.294 34.0264 123.07 33.9944 122.814 33.9944C122.334 33.9944 121.95 34.1541 121.694 34.4416C121.438 34.7291 121.31 35.2083 121.31 35.7833V36.9653H124.797V34.7291L127.133 34.0264V36.9653H129.5V38.8819H127.133V43.5139C127.133 44.1208 127.261 44.5361 127.453 44.7916C127.677 45.0472 128.028 45.175 128.508 45.175C128.636 45.175 128.796 45.143 128.988 45.0791C129.18 45.0153 129.34 44.9514 129.468 44.8555V46.7722C129.308 46.868 129.084 46.9319 128.732 46.9958C128.38 47.0597 128.06 47.0916 127.709 47.0916C126.717 47.0916 125.981 46.8361 125.501 46.325C125.021 45.8139 124.765 45.0153 124.765 43.9611L124.797 38.9139Z" fill="#737373"/>
<path d="M32.4408 28.5H21.5V39.425H32.4408V28.5Z" fill="#F25022"/>
<path d="M44.533 28.5H33.5923V39.425H44.533V28.5Z" fill="#7FBA00"/>
<path d="M32.4408 40.575H21.5V51.5H32.4408V40.575Z" fill="#00A4EF"/>
<path d="M44.533 40.575H33.5923V51.5H44.533V40.575Z" fill="#FFB900"/>
</g>
<defs>
<clipPath id="clip0_13_1299">
<rect width="108" height="23" fill="white" transform="translate(21.5 28.5)"/>
</clipPath>
</defs>
</svg>
