<svg width="87" height="18" viewBox="0 0 87 18" fill="none" xmlns="http://www.w3.org/2000/svg">
<g clip-path="url(#clip0_4_4807)">
<path d="M3.71416 11.7111C3.71416 12.6884 3.93279 13.4387 4.21855 13.8926C4.59321 14.4872 5.15203 14.7391 5.72174 14.7391C6.45655 14.7391 7.12876 14.5602 8.42421 12.8023C9.46201 11.3934 10.6849 9.41565 11.5077 8.17581L12.9011 6.07529C13.8691 4.61649 14.9894 2.99482 16.274 1.8956C17.3227 0.998429 18.4539 0.5 19.5924 0.5C21.5038 0.5 23.3245 1.58675 24.7179 3.62497C26.2429 5.85723 26.9832 8.6689 26.9832 11.5705C26.9832 13.2954 26.6366 14.5628 26.0469 15.5641C25.4772 16.5325 24.3669 17.5 22.499 17.5V14.7391C24.0983 14.7391 24.4975 13.2972 24.4975 11.647C24.4975 9.2955 23.9387 6.68586 22.7076 4.8212C21.834 3.49859 20.7019 2.69042 19.4563 2.69042C18.1092 2.69042 17.0251 3.68728 15.8068 5.46471C15.1591 6.40906 14.4941 7.5599 13.7475 8.85848L12.9256 10.287C11.2745 13.1592 10.8563 13.8134 10.0308 14.893C8.58387 16.7835 7.3483 17.5 5.72174 17.5C3.79218 17.5 2.57203 16.6803 1.81636 15.4449C1.19948 14.4382 0.896484 13.1174 0.896484 11.6123L3.71416 11.7111Z" fill="white"/>
<path d="M3.11816 3.8199C4.40998 1.86623 6.27422 0.5 8.41243 0.5C9.65072 0.5 10.8818 0.859581 12.1672 1.88937C13.5733 3.01529 15.072 4.86927 16.9417 7.92482L17.6121 9.02136C19.2305 11.6666 20.1512 13.0275 20.6901 13.6692C21.3832 14.4934 21.8685 14.7391 22.499 14.7391C24.0984 14.7391 24.4975 13.2972 24.4975 11.647L26.9832 11.5705C26.9832 13.2954 26.6366 14.5628 26.047 15.5641C25.4773 16.5325 24.3669 17.5 22.499 17.5C21.3378 17.5 20.3091 17.2526 19.1715 16.1996C18.297 15.3915 17.2746 13.9558 16.4881 12.6652L14.1485 8.83089C12.9746 6.9066 11.8978 5.47183 11.2746 4.82209C10.6042 4.1234 9.74234 3.27963 8.36707 3.27963C7.25397 3.27963 6.30869 4.04597 5.51764 5.21817L3.11816 3.8199Z" fill="white"/>
<path d="M8.36705 3.27963C7.25395 3.27963 6.30868 4.04597 5.51762 5.21817C4.39908 6.87455 3.71416 9.34178 3.71416 11.7111C3.71416 12.6884 3.93279 13.4387 4.21855 13.8926L1.81636 15.4449C1.19948 14.4382 0.896484 13.1174 0.896484 11.6123C0.896484 8.87539 1.66214 6.02277 3.11815 3.8199C4.40997 1.86623 6.27421 0.5 8.41241 0.5L8.36705 3.27963Z" fill="white"/>
<path d="M32.4604 1.0376H35.7199L41.2618 10.8745L46.8047 1.0376H49.9934V17.2009H47.3345V4.8132L42.4738 13.3915H39.9791L35.1194 4.8132V17.2009H32.4604V1.0376ZM58.3249 7.06414C56.418 7.06414 55.2695 8.47221 54.9946 10.2158H61.4664C61.333 8.41969 60.2771 7.06414 58.3249 7.06414ZM52.3584 11.2091C52.3584 7.54032 54.7751 4.87016 58.3711 4.87016C61.9082 4.87016 64.0201 7.5065 64.0201 11.4049V12.1214H54.9946C55.3149 14.0181 56.5976 15.2962 58.666 15.2962C60.3161 15.2962 61.3476 14.8023 62.3255 13.8989L63.738 15.5962C62.4071 16.7969 60.7144 17.4893 58.5716 17.4893C54.6789 17.4893 52.3584 14.7044 52.3584 11.2091ZM67.2442 7.29556H64.7966V5.15943H67.2442V1.62681H69.8097V5.15943H73.5282V7.29556H69.8097V12.7097C69.8097 14.5584 70.412 15.2152 71.8925 15.2152C72.5684 15.2152 72.9557 15.1583 73.5282 15.0648V17.1778C72.8151 17.3754 72.1348 17.4662 71.3981 17.4662C68.6285 17.4662 67.2442 15.9816 67.2442 13.0097V7.29556ZM84.3308 9.37294C83.8155 8.0966 82.6661 7.15671 80.977 7.15671C78.7816 7.15671 77.3764 8.68493 77.3764 11.1744C77.3764 13.6016 78.67 15.2037 80.8717 15.2037C82.6026 15.2037 83.8382 14.2157 84.3308 12.9866V9.37294ZM86.8963 17.2009H84.378V15.5152C83.674 16.5076 82.3931 17.4893 80.3184 17.4893C76.9818 17.4893 74.7519 14.7489 74.7519 11.1744C74.7519 7.56613 77.0353 4.87016 80.4599 4.87016C82.1527 4.87016 83.4808 5.53414 84.378 6.70634V5.15943H86.8963V17.2009Z" fill="white"/>
</g>
<defs>
<clipPath id="clip0_4_4807">
<rect width="86" height="17" fill="white" transform="translate(0.896484 0.5)"/>
</clipPath>
</defs>
</svg>
