<svg width="98" height="30" viewBox="0 0 98 30" fill="none" xmlns="http://www.w3.org/2000/svg">
<g clip-path="url(#clip0_4_4812)">
<path d="M51.5998 7.53754C51.5998 8.61862 50.7282 9.48949 49.6462 9.48949C48.5642 9.48949 47.6926 8.61862 47.6926 7.53754C47.6926 6.45646 48.5341 5.58559 49.6462 5.58559C50.7582 5.61562 51.5998 6.48649 51.5998 7.53754ZM43.545 11.4715C43.545 11.6517 43.545 11.952 43.545 11.952C43.545 11.952 42.6133 10.7508 40.6296 10.7508C37.3536 10.7508 34.7989 13.2432 34.7989 16.6967C34.7989 20.1201 37.3235 22.6426 40.6296 22.6426C42.6433 22.6426 43.545 21.4114 43.545 21.4114V21.9219C43.545 22.1622 43.7253 22.3423 43.9657 22.3423H46.4002V11.0511C46.4002 11.0511 44.1761 11.0511 43.9657 11.0511C43.7253 11.0511 43.545 11.2613 43.545 11.4715ZM43.545 18.7087C43.0941 19.3694 42.1925 19.9399 41.1105 19.9399C39.187 19.9399 37.7142 18.7387 37.7142 16.6967C37.7142 14.6547 39.187 13.4535 41.1105 13.4535C42.1624 13.4535 43.1242 14.0541 43.545 14.6847V18.7087ZM48.2035 11.0511H51.0888V22.3423H48.2035V11.0511ZM91.3028 10.7508C89.3191 10.7508 88.3874 11.952 88.3874 11.952V5.61562H85.5021V22.3423C85.5021 22.3423 87.7262 22.3423 87.9366 22.3423C88.177 22.3423 88.3574 22.1321 88.3574 21.9219V21.4114C88.3574 21.4114 89.2891 22.6426 91.2727 22.6426C94.5488 22.6426 97.1034 20.1201 97.1034 16.6967C97.1034 13.2733 94.5487 10.7508 91.3028 10.7508ZM90.8219 19.9099C89.7099 19.9099 88.8382 19.3393 88.3874 18.6787V14.6547C88.8382 14.0541 89.8 13.4234 90.8219 13.4234C92.7454 13.4234 94.2181 14.6246 94.2181 16.6667C94.2181 18.7087 92.7454 19.9099 90.8219 19.9099ZM83.9994 15.6456V22.3724H81.114V15.976C81.114 14.1141 80.5129 13.3634 78.89 13.3634C78.0184 13.3634 77.1167 13.8138 76.5456 14.4745V22.3423H73.6603V11.0511H75.9445C76.185 11.0511 76.3653 11.2613 76.3653 11.4715V11.952C77.2069 11.0811 78.3189 10.7508 79.4309 10.7508C80.6933 10.7508 81.7452 11.1111 82.5867 11.8318C83.6086 12.6727 83.9994 13.7538 83.9994 15.6456ZM66.6575 10.7508C64.6738 10.7508 63.7421 11.952 63.7421 11.952V5.61562H60.8568V22.3423C60.8568 22.3423 63.0809 22.3423 63.2913 22.3423C63.5317 22.3423 63.712 22.1321 63.712 21.9219V21.4114C63.712 21.4114 64.6438 22.6426 66.6274 22.6426C69.9034 22.6426 72.4581 20.1201 72.4581 16.6967C72.4882 13.2733 69.9335 10.7508 66.6575 10.7508ZM66.1766 19.9099C65.0645 19.9099 64.1929 19.3393 63.7421 18.6787V14.6547C64.1929 14.0541 65.1547 13.4234 66.1766 13.4234C68.1001 13.4234 69.5728 14.6246 69.5728 16.6667C69.5728 18.7087 68.1001 19.9099 66.1766 19.9099ZM58.3622 10.7508C59.2338 10.7508 59.6846 10.9009 59.6846 10.9009V13.5736C59.6846 13.5736 57.2802 12.7628 55.7775 14.4745V22.3724H52.8922V11.0511C52.8922 11.0511 55.1162 11.0511 55.3266 11.0511C55.5671 11.0511 55.7474 11.2613 55.7474 11.4715V11.952C56.2884 11.3213 57.4606 10.7508 58.3622 10.7508ZM28.3971 21.3213C28.2468 20.961 28.0966 20.5706 27.9463 20.2402C27.7058 19.6997 27.4654 19.1892 27.255 18.7087L27.225 18.6787C25.1511 14.1742 22.9271 9.60961 20.5827 5.1051L20.4926 4.92492C20.2521 4.47447 20.0117 3.99399 19.7713 3.51351C19.4707 2.97297 19.1701 2.4024 18.6893 1.86186C17.7275 0.660661 16.345 0 14.8722 0C13.3695 0 12.017 0.660661 11.0252 1.8018C10.5743 2.34234 10.2437 2.91291 9.94318 3.45345C9.70274 3.93393 9.4623 4.41441 9.22186 4.86487L9.13169 5.04504C6.81743 9.54955 4.56329 14.1141 2.48948 18.6186L2.45942 18.6787C2.24903 19.1592 2.00859 19.6697 1.76815 20.2102C1.61787 20.5405 1.4676 20.9009 1.31732 21.2913C0.926603 22.4024 0.806382 23.4535 0.956658 24.5345C1.28727 26.7868 2.79003 28.6787 4.86384 29.5195C5.64528 29.8499 6.45677 30 7.29832 30C7.53876 30 7.83931 29.97 8.07976 29.9399C9.07158 29.8198 10.0935 29.4895 11.0853 28.9189C12.3175 28.2282 13.4897 27.2372 14.8121 25.7958C16.1346 27.2372 17.3368 28.2282 18.539 28.9189C19.5308 29.4895 20.5527 29.8198 21.5445 29.9399C21.785 29.97 22.0855 30 22.326 30C23.1675 30 24.009 29.8499 24.7604 29.5195C26.8643 28.6787 28.337 26.7568 28.6676 24.5345C28.9081 23.4835 28.7878 22.4324 28.3971 21.3213ZM14.8422 22.8829C13.2192 20.8408 12.1673 18.9189 11.8066 17.2973C11.6563 16.6066 11.6263 16.006 11.7164 15.4655C11.7766 14.985 11.9569 14.5646 12.1973 14.2042C12.7684 13.3934 13.7301 12.8829 14.8422 12.8829C15.9542 12.8829 16.9461 13.3634 17.4871 14.2042C17.7275 14.5646 17.9078 14.985 17.9679 15.4655C18.0581 16.006 18.028 16.6366 17.8778 17.2973C17.5171 18.8889 16.4652 20.8108 14.8422 22.8829ZM26.8342 24.2943C26.6239 25.8559 25.5719 27.2072 24.0992 27.8078C23.3779 28.1081 22.5964 28.1982 21.815 28.1081C21.0636 28.018 20.3122 27.7778 19.5308 27.3273C18.4488 26.7267 17.3668 25.7958 16.1045 24.4144C18.0882 21.982 19.2904 19.7598 19.7412 17.7778C19.9516 16.8468 19.9816 16.006 19.8915 15.2252C19.7713 14.4745 19.5008 13.7838 19.08 13.1832C18.1483 11.8318 16.5854 11.0511 14.8422 11.0511C13.099 11.0511 11.5361 11.8619 10.6044 13.1832C10.1836 13.7838 9.91313 14.4745 9.79291 15.2252C9.67268 16.006 9.70274 16.8769 9.94318 17.7778C10.394 19.7598 11.6263 22.012 13.5799 24.4444C12.3476 25.8258 11.2356 26.7568 10.1536 27.3574C9.37213 27.8078 8.62075 28.048 7.86937 28.1381C7.05788 28.2282 6.27644 28.1081 5.58517 27.8378C4.11246 27.2372 3.06053 25.8859 2.85014 24.3243C2.75997 23.5736 2.82008 22.8228 3.12064 21.982C3.2108 21.6817 3.36108 21.3814 3.51136 21.021C3.72174 20.5405 3.96218 20.03 4.20263 19.5195L4.23268 19.4595C6.3065 14.985 8.53058 10.4204 10.8448 5.97598L10.935 5.7958C11.1754 5.34535 11.4159 4.86486 11.6563 4.41441C11.8968 3.93393 12.1673 3.48348 12.4979 3.09309C13.129 2.37237 13.9706 1.98198 14.9023 1.98198C15.834 1.98198 16.6756 2.37237 17.3067 3.09309C17.6373 3.48348 17.9078 3.93393 18.1483 4.41441C18.3887 4.86486 18.6292 5.34535 18.8696 5.7958L18.9598 5.97598C21.244 10.4504 23.4681 15.015 25.5419 19.4895V19.5195C25.7823 20 25.9927 20.5405 26.2331 21.021C26.3834 21.3814 26.5337 21.6817 26.6239 21.982C26.8643 22.7628 26.9545 23.5135 26.8342 24.2943Z" fill="white"/>
</g>
<defs>
<clipPath id="clip0_4_4812">
<rect width="96.2069" height="30" fill="white" transform="translate(0.896484)"/>
</clipPath>
</defs>
</svg>
