<svg width="160" height="90" viewBox="0 0 160 90" fill="none" xmlns="http://www.w3.org/2000/svg">
<rect width="160" height="90" rx="16" fill="white"/>
<g clip-path="url(#clip0_198_366)">
<path d="M63.119 46.8518L62.4346 48.7791H62.3776C62.2635 48.3445 62.0544 47.6831 61.7122 46.8895L58.0432 37.7253H54.4502V52.3314H56.8265V43.3183C56.8265 42.7515 56.8265 42.109 56.8075 41.3154C56.7885 40.9186 56.7505 40.6163 56.7315 40.3895H56.7885C56.9025 40.9564 57.0356 41.3721 57.1307 41.6366L61.5411 52.2936H63.214L67.5865 41.5422C67.6815 41.2965 67.7766 40.8052 67.8716 40.3895H67.9287C67.8716 41.4666 67.8336 42.4302 67.8146 43.016V52.2747H70.343V37.6875H66.8831L63.119 46.8518ZM72.7383 41.8067H75.2097V52.2747H72.7383V41.8067ZM73.993 37.3852C73.5748 37.3852 73.2326 37.5363 72.9474 37.8009C72.6623 38.0654 72.5102 38.4055 72.5102 38.8212C72.5102 39.218 72.6623 39.5581 72.9474 39.8227C73.2326 40.0872 73.5748 40.2195 73.993 40.2195C74.4112 40.2195 74.7724 40.0683 75.0386 39.8227C75.3237 39.5581 75.4758 39.218 75.4758 38.8212C75.4758 38.4244 75.3237 38.0843 75.0386 37.8009C74.7914 37.5363 74.4302 37.3852 73.993 37.3852ZM83.9735 41.7122C83.5173 41.6177 83.042 41.5611 82.5858 41.5611C81.4641 41.5611 80.4376 41.8067 79.5821 42.298C78.7266 42.7893 78.0422 43.4695 77.605 44.3198C77.1488 45.189 76.9206 46.1904 76.9206 47.343C76.9206 48.3445 77.1487 49.2326 77.586 50.0451C78.0232 50.8387 78.6316 51.4811 79.449 51.9157C80.2285 52.3503 81.141 52.577 82.1675 52.577C83.3462 52.577 84.3537 52.3314 85.1522 51.8779L85.1712 51.859V49.5916L85.0761 49.6672C84.7149 49.9317 84.2967 50.1584 83.8785 50.2907C83.4412 50.4419 83.042 50.5175 82.6998 50.5175C81.7113 50.5175 80.9318 50.234 80.3805 49.6105C79.8102 49.0058 79.5251 48.1744 79.5251 47.1352C79.5251 46.0581 79.8102 45.2079 80.3996 44.5843C80.9889 43.9608 81.7683 43.6395 82.7188 43.6395C83.5173 43.6395 84.3347 43.9041 85.0761 44.4331L85.1712 44.5087V42.109L85.1522 42.0901C84.829 41.9579 84.4678 41.8067 83.9735 41.7122ZM92.129 41.6366C91.5207 41.6366 90.9504 41.8256 90.4561 42.2224C90.0379 42.5625 89.7527 43.0538 89.5056 43.6395H89.4866V41.8067H87.0152V52.2747H89.4866V46.9273C89.4866 46.0204 89.6767 45.2645 90.0949 44.7166C90.5131 44.1497 91.0454 43.8663 91.6918 43.8663C91.9199 43.8663 92.148 43.923 92.4332 43.9608C92.6994 44.0363 92.8895 44.1119 93.0225 44.2064L93.1176 44.282V41.8256L93.0606 41.8067C92.8895 41.6933 92.5473 41.6366 92.129 41.6366ZM98.8588 41.58C97.1288 41.58 95.741 42.0901 94.7715 43.0916C93.783 44.093 93.3077 45.4724 93.3077 47.2108C93.3077 48.8358 93.802 50.1584 94.7525 51.1221C95.703 52.0669 96.9957 52.5581 98.6116 52.5581C100.304 52.5581 101.653 52.048 102.623 51.0276C103.611 50.0073 104.087 48.6468 104.087 46.9651C104.087 45.3023 103.63 43.9797 102.699 43.016C101.805 42.0523 100.494 41.58 98.8588 41.58ZM100.836 49.6294C100.38 50.2151 99.6572 50.4986 98.7637 50.4986C97.8702 50.4986 97.1478 50.2151 96.6345 49.5916C96.1212 49.0058 95.8741 48.1555 95.8741 47.0785C95.8741 45.9637 96.1403 45.1134 96.6345 44.5087C97.1478 43.9041 97.8512 43.6018 98.7447 43.6018C99.6192 43.6018 100.304 43.8852 100.798 44.4709C101.292 45.0567 101.558 45.907 101.558 47.0218C101.52 48.1555 101.311 49.0436 100.836 49.6294ZM109.6 46.1526C108.82 45.8314 108.326 45.5858 108.098 45.3779C107.908 45.189 107.813 44.9244 107.813 44.5843C107.813 44.3009 107.927 44.0174 108.212 43.8285C108.497 43.6395 108.82 43.5451 109.296 43.5451C109.714 43.5451 110.151 43.6206 110.569 43.734C110.987 43.8474 111.368 44.0175 111.672 44.2442L111.767 44.3198V42.0145L111.71 41.9956C111.425 41.8823 111.045 41.7689 110.588 41.6744C110.132 41.5988 109.714 41.5611 109.372 41.5611C108.193 41.5611 107.223 41.8445 106.463 42.468C105.703 43.0538 105.341 43.8474 105.341 44.7733C105.341 45.2645 105.417 45.6991 105.588 46.0581C105.76 46.4172 106.007 46.7573 106.349 47.0407C106.691 47.3052 107.185 47.6076 107.87 47.891C108.44 48.1366 108.877 48.3256 109.143 48.4768C109.41 48.6279 109.581 48.798 109.714 48.9302C109.809 49.0814 109.866 49.2704 109.866 49.516C109.866 50.2151 109.334 50.5552 108.25 50.5552C107.832 50.5552 107.394 50.4797 106.881 50.3096C106.368 50.1395 105.893 49.8939 105.493 49.6105L105.398 49.5349V51.9346L105.455 51.9535C105.817 52.1236 106.254 52.2369 106.786 52.3692C107.318 52.4637 107.794 52.5393 108.212 52.5393C109.486 52.5393 110.531 52.2558 111.273 51.6323C112.033 51.0276 112.432 50.2529 112.432 49.2515C112.432 48.5523 112.242 47.9288 111.824 47.4564C111.273 47.0029 110.588 46.5305 109.6 46.1526ZM118.953 41.58C117.223 41.58 115.835 42.0901 114.866 43.0916C113.896 44.093 113.402 45.4724 113.402 47.2108C113.402 48.8358 113.896 50.1584 114.847 51.1221C115.797 52.0669 117.09 52.5581 118.706 52.5581C120.398 52.5581 121.747 52.048 122.717 51.0276C123.706 50.0073 124.181 48.6468 124.181 46.9651C124.181 45.3023 123.725 43.9797 122.793 43.016C121.9 42.0523 120.588 41.58 118.953 41.58ZM120.911 49.6294C120.455 50.2151 119.732 50.4986 118.839 50.4986C117.926 50.4986 117.223 50.2151 116.71 49.5916C116.196 49.0058 115.949 48.1555 115.949 47.0785C115.949 45.9637 116.215 45.1134 116.71 44.5087C117.223 43.9041 117.926 43.6018 118.82 43.6018C119.675 43.6018 120.379 43.8852 120.873 44.4709C121.367 45.0567 121.633 45.907 121.633 47.0218C121.633 48.1555 121.386 49.0436 120.911 49.6294ZM137.393 43.8285V41.8067H134.903V38.7079L134.827 38.7268L132.469 39.4259L132.412 39.4448V41.8067H128.686V40.484C128.686 39.8794 128.838 39.407 129.104 39.1047C129.371 38.8023 129.77 38.6512 130.264 38.6512C130.606 38.6512 130.968 38.7268 131.367 38.8968L131.462 38.9535V36.8183L131.405 36.7994C131.063 36.6861 130.606 36.6105 130.017 36.6105C129.276 36.6105 128.629 36.7805 128.04 37.064C127.451 37.3852 127.013 37.8198 126.69 38.4055C126.367 38.9724 126.196 39.6148 126.196 40.3518V41.8067H124.466V43.8096H126.196V52.2747H128.686V43.8285H132.412V49.2137C132.412 51.4244 133.458 52.5393 135.549 52.5393C135.891 52.5393 136.252 52.4826 136.595 52.4259C136.956 52.3503 137.222 52.2558 137.374 52.1802L137.393 52.1613V50.1395L137.298 50.2151C137.146 50.3096 137.013 50.3852 136.785 50.4419C136.595 50.4986 136.424 50.5175 136.29 50.5175C135.796 50.5175 135.454 50.4041 135.207 50.1206C134.979 49.8561 134.865 49.4215 134.865 48.7791V43.8285H137.393Z" fill="#737373"/>
<path d="M22.5884 32.8125H34.2418V44.3953H22.5884V32.8125Z" fill="#F25022"/>
<path d="M35.4585 32.8125H47.1119V44.3953H35.4585V32.8125Z" fill="#7FBA00"/>
<path d="M22.5884 45.6046H34.2418V57.1875H22.5884V45.6046Z" fill="#00A4EF"/>
<path d="M35.4585 45.6046H47.1119V57.1875H35.4585V45.6046Z" fill="#FFB900"/>
</g>
<defs>
<clipPath id="clip0_198_366">
<rect width="114.824" height="24.375" fill="white" transform="translate(22.5884 32.8125)"/>
</clipPath>
</defs>
</svg>
