<svg width="160" height="90" viewBox="0 0 160 90" fill="none" xmlns="http://www.w3.org/2000/svg">
<rect width="160" height="90" rx="16" fill="white"/>
<g clip-path="url(#clip0_198_74)">
<path fill-rule="evenodd" clip-rule="evenodd" d="M92.1402 53.461C86.5068 57.725 78.3415 60.0001 71.3114 60.0001C61.4539 60.0001 52.5797 56.256 45.8661 50.0289C45.3386 49.5393 45.8112 48.8719 46.4442 49.2533C53.6895 53.5823 62.6481 56.1867 71.9021 56.1867C78.1432 56.1867 85.0088 54.8607 91.3216 52.109C92.2753 51.693 93.0728 52.7503 92.1402 53.461Z" fill="#FF9900"/>
<path fill-rule="evenodd" clip-rule="evenodd" d="M94.4824 50.7093C93.7651 49.7646 89.7225 50.2629 87.908 50.4839C87.3552 50.5533 87.2708 50.0593 87.7688 49.7039C90.9885 47.3769 96.2716 48.0486 96.8877 48.8286C97.5038 49.6129 96.7274 55.0513 93.7018 57.647C93.2376 58.0457 92.7945 57.8333 93.0013 57.3047C93.6807 55.5627 95.204 51.6583 94.4824 50.7093Z" fill="#FF9900"/>
<path fill-rule="evenodd" clip-rule="evenodd" d="M88.0349 33.276V31.014C88.0349 30.6717 88.2881 30.442 88.5919 30.442H98.4535C98.77 30.442 99.0232 30.676 99.0232 31.014V32.951C99.019 33.276 98.7531 33.7007 98.2805 34.3724L93.1703 41.8648C95.0693 41.8171 97.0737 42.1075 98.7953 43.1041C99.1835 43.3295 99.289 43.6588 99.3186 43.9838V46.3975C99.3186 46.7269 98.9641 47.1125 98.5928 46.9132C95.5587 45.2795 91.5288 45.1018 88.1741 46.9305C87.8323 47.1212 87.4736 46.7399 87.4736 46.4105V44.1182C87.4736 43.7498 87.4778 43.1215 87.8365 42.5625L93.7569 33.8437H88.6045C88.288 33.8437 88.0349 33.6141 88.0349 33.276Z" fill="black"/>
<path fill-rule="evenodd" clip-rule="evenodd" d="M52.0611 47.3899H49.0608C48.7739 47.3682 48.546 47.1472 48.5249 46.8656V31.0531C48.5249 30.7367 48.7823 30.4854 49.103 30.4854H51.9007C52.1919 30.4984 52.424 30.7281 52.4451 31.0141V33.0811H52.4999C53.23 31.0834 54.6014 30.1517 56.4497 30.1517C58.3275 30.1517 59.5006 31.0834 60.3445 33.0811C61.0703 31.0834 62.7203 30.1517 64.4884 30.1517C65.7459 30.1517 67.1215 30.6847 67.9612 31.8808C68.9107 33.2111 68.7166 35.1438 68.7166 36.8381L68.7124 46.8179C68.7124 47.1342 68.455 47.3899 68.1343 47.3899H65.1382C64.8386 47.3682 64.5981 47.1212 64.5981 46.8179V38.4372C64.5981 37.7698 64.6571 36.1058 64.5137 35.4731C64.29 34.4114 63.6191 34.1124 62.7498 34.1124C62.024 34.1124 61.2644 34.6108 60.9564 35.4081C60.6484 36.2055 60.6779 37.5401 60.6779 38.4372V46.8179C60.6779 47.1342 60.4205 47.3899 60.0998 47.3899H57.1037C56.7999 47.3682 56.5636 47.1212 56.5636 46.8179L56.5594 38.4372C56.5594 36.6735 56.8421 34.0778 54.7111 34.0778C52.5548 34.0778 52.6392 36.6085 52.6392 38.4372V46.8179C52.6392 47.1342 52.3818 47.3899 52.0611 47.3899" fill="black"/>
<path fill-rule="evenodd" clip-rule="evenodd" d="M107.513 30.1517C111.965 30.1517 114.374 34.0778 114.374 39.0698C114.374 43.8929 111.712 47.7192 107.513 47.7192C103.141 47.7192 100.761 43.7932 100.761 38.9008C100.761 33.9781 103.171 30.1517 107.513 30.1517ZM107.538 33.3801C105.327 33.3801 105.188 36.4741 105.188 38.4025C105.188 40.3352 105.158 44.4606 107.513 44.4606C109.838 44.4606 109.948 41.1325 109.948 39.1045C109.948 37.7698 109.893 36.1751 109.5 34.9098C109.163 33.8091 108.492 33.3801 107.538 33.3801Z" fill="black"/>
<path fill-rule="evenodd" clip-rule="evenodd" d="M120.147 47.3899H117.16C116.86 47.3682 116.619 47.1212 116.619 46.8179L116.615 31.0011C116.641 30.7107 116.89 30.4854 117.193 30.4854H119.974C120.236 30.4984 120.451 30.6804 120.51 30.9274V33.3454H120.565C121.405 31.1831 122.582 30.1517 124.654 30.1517C126 30.1517 127.312 30.6501 128.156 32.0151C128.941 33.2804 128.941 35.4081 128.941 36.9378V46.8916C128.907 47.1689 128.658 47.3899 128.363 47.3899H125.354C125.08 47.3682 124.852 47.1602 124.823 46.8916V38.3028C124.823 36.5738 125.017 34.0431 122.945 34.0431C122.215 34.0431 121.544 34.5458 121.211 35.3085C120.789 36.2748 120.734 37.2368 120.734 38.3028V46.8179C120.73 47.1342 120.468 47.3899 120.147 47.3899" fill="black"/>
<path fill-rule="evenodd" clip-rule="evenodd" d="M80.173 39.8368C80.173 41.0371 80.2025 42.0381 79.6117 43.1041C79.1349 43.9708 78.3754 44.5038 77.5356 44.5038C76.3836 44.5038 75.7084 43.6025 75.7084 42.2721C75.7084 39.6461 77.9998 39.1694 80.173 39.1694V39.8368ZM83.1986 47.3465C83.0002 47.5285 82.7133 47.5415 82.4896 47.4202C81.4938 46.5708 81.3123 46.1765 80.768 45.3662C79.1223 47.0908 77.9534 47.6065 75.8224 47.6065C73.2947 47.6065 71.3325 46.0075 71.3325 42.8051C71.3325 40.3048 72.6491 38.6018 74.5311 37.7697C76.16 37.0331 78.4344 36.9031 80.173 36.6994V36.3007C80.173 35.5684 80.2278 34.7017 79.8059 34.069C79.443 33.5014 78.7425 33.2674 78.1222 33.2674C76.9786 33.2674 75.9616 33.8697 75.7127 35.1177C75.662 35.3951 75.4637 35.6681 75.1894 35.6811L72.282 35.3604C72.0372 35.3041 71.7629 35.1004 71.8347 34.7147C72.5014 31.092 75.6916 30 78.5441 30C80.0042 30 81.9115 30.3987 83.0635 31.534C84.5236 32.9337 84.3843 34.8014 84.3843 36.8337V41.6351C84.3843 43.0781 84.9667 43.7108 85.5152 44.4908C85.7051 44.7682 85.7473 45.1018 85.5026 45.3098C84.8907 45.8342 83.802 46.8092 83.2028 47.3552L83.1986 47.3465" fill="black"/>
<path fill-rule="evenodd" clip-rule="evenodd" d="M40.8405 39.837C40.8405 41.0374 40.87 42.0384 40.2792 43.1044C39.8024 43.9711 39.047 44.5041 38.2031 44.5041C37.0511 44.5041 36.3801 43.6027 36.3801 42.2724C36.3801 39.6463 38.6715 39.1697 40.8405 39.1697V39.837ZM43.866 47.3468C43.6677 47.5288 43.3808 47.5418 43.1571 47.4204C42.1612 46.5711 41.984 46.1767 41.4354 45.3664C39.7897 47.0911 38.6251 47.6068 36.4899 47.6068C33.9664 47.6068 32 46.0077 32 42.8054C32 40.305 33.3208 38.602 35.1986 37.77C36.8274 37.0333 39.1019 36.9033 40.8405 36.6996V36.301C40.8405 35.5686 40.8953 34.702 40.4776 34.0693C40.1104 33.5016 39.4099 33.2676 38.7939 33.2676C37.6503 33.2676 36.6291 33.87 36.3801 35.118C36.3295 35.3953 36.1312 35.6683 35.8611 35.6813L32.9495 35.3606C32.7047 35.3043 32.4346 35.1006 32.5022 34.715C33.1731 31.0923 36.359 30.0002 39.2116 30.0002C40.6717 30.0002 42.579 30.3989 43.731 31.5343C45.1911 32.9339 45.0518 34.8016 45.0518 36.834V41.6354C45.0518 43.0784 45.6341 43.7111 46.1827 44.4911C46.3768 44.7684 46.419 45.1021 46.1743 45.3101C45.5624 45.8344 44.4737 46.8094 43.8745 47.3554L43.866 47.3467" fill="black"/>
</g>
<defs>
<clipPath id="clip0_198_74">
<rect width="96.9412" height="30" fill="white" transform="translate(32 30)"/>
</clipPath>
</defs>
</svg>
