<svg width="151" height="80" viewBox="0 0 151 80" fill="none" xmlns="http://www.w3.org/2000/svg">
<rect x="0.5" width="150" height="80" rx="10" fill="white"/>
<g clip-path="url(#clip0_13_1333)">
<path d="M47.187 49.1464C46.012 49.3517 44.8164 49.4132 43.5796 49.5771L39.8072 38.585V50.0489C38.6323 50.1719 37.5604 50.3359 36.4473 50.5V29.5H39.5806L43.8682 41.4152V29.5H47.187V49.1464ZM53.6803 37.1904C54.9584 37.1904 56.9167 37.1289 58.0917 37.1289V40.4101C56.628 40.4101 54.9172 40.4101 53.6803 40.4716V45.3526C55.6181 45.2295 57.5557 45.0653 59.5139 45.0038V48.1618L50.382 48.8797V29.5H59.5139V32.7813H53.6803V37.1904ZM71.7791 32.7813H68.3572V47.8751C67.2441 47.8751 66.1309 47.8751 65.0592 47.916V32.7813H61.6374V29.5H71.7792L71.7791 32.7813ZM77.1386 36.9649H81.6531V40.2461H77.1386V47.6905H73.902V29.5H83.1166V32.7813H77.1386V36.9649ZM88.4761 44.8193C90.352 44.8602 92.2484 45.004 94.0831 45.1064V48.3467C91.1354 48.162 88.1876 47.9776 85.178 47.916V29.5H88.4761V44.8193ZM96.8659 48.5723C97.9172 48.6339 99.0303 48.6954 100.102 48.8183V29.5H96.8659V48.5723ZM114.553 29.5L110.368 39.4873L114.553 50.5C113.316 50.3359 112.079 50.1103 110.842 49.9052L108.471 43.835L106.06 49.4132C104.864 49.2079 103.71 49.1464 102.514 48.9823L106.761 39.3642L102.926 29.5H106.472L108.636 35.0166L110.945 29.5H114.553V29.5Z" fill="#D81F26"/>
</g>
<defs>
<clipPath id="clip0_13_1333">
<rect width="78.1053" height="21" fill="white" transform="translate(36.4473 29.5)"/>
</clipPath>
</defs>
</svg>
