<svg width="80" height="80" viewBox="0 0 80 80" fill="none" xmlns="http://www.w3.org/2000/svg">
<rect width="80" height="80" rx="40" fill="white"/>
<path d="M66.25 45.625C66.25 32.5 59.6875 23.125 51.25 23.125C44.6875 23.125 40 30.625 40 30.625C36.25 36.25 36.25 46.5625 41.875 35.3125C41.875 35.3125 46.5625 27.8125 51.25 27.8125C57.8125 27.8125 61.2706 39.0625 61.2706 45.625C61.2706 47.5 60.625 51.25 56.875 51.25V56.875C60.625 56.875 66.25 54.0625 66.25 45.625Z" fill="url(#paint0_radial_13_1455)"/>
<path d="M28.75 23.125V28.75C22.75 29.5 19.375 39.0625 19.375 45.625C19.375 47.5 20.3125 51.25 23.125 51.25C27.8125 51.25 33.2026 40.8999 38.125 33.3299C40.7381 29.3112 43.3391 32.7617 41.3558 36.25C36.6564 44.5152 31.9507 56.875 23.125 56.875C19.375 56.875 13.75 54.0625 13.75 45.625C13.75 28.75 24.0625 23.125 28.75 23.125Z" fill="url(#paint1_radial_13_1455)"/>
<path d="M56.875 51.25C50.3125 51.25 42.8125 23.125 28.75 23.125V28.75C40 28.75 44.6875 56.875 56.875 56.875V51.25Z" fill="#0768E1"/>
<defs>
<radialGradient id="paint0_radial_13_1455" cx="0" cy="0" r="1" gradientUnits="userSpaceOnUse" gradientTransform="translate(56.875 55) rotate(-101.31) scale(33.4623 26.0262)">
<stop stop-color="#0768E1"/>
<stop offset="1" stop-color="#0082FB"/>
</radialGradient>
<radialGradient id="paint1_radial_13_1455" cx="0" cy="0" r="1" gradientUnits="userSpaceOnUse" gradientTransform="translate(28.75 26.875) rotate(154.537) scale(21.8057 11.4369)">
<stop stop-color="#0768E1"/>
<stop offset="1" stop-color="#0082FB"/>
</radialGradient>
</defs>
</svg>
