<svg width="83" height="28" viewBox="0 0 83 28" fill="none" xmlns="http://www.w3.org/2000/svg">
<g clip-path="url(#clip0_4_4816)">
<path d="M34.9989 14.3591C34.9989 18.2456 31.9872 21.1096 28.2912 21.1096C24.5952 21.1096 21.5835 18.2456 21.5835 14.3591C21.5835 10.4452 24.5952 7.60869 28.2912 7.60869C31.9872 7.60869 34.9989 10.4452 34.9989 14.3591ZM32.0626 14.3591C32.0626 11.9304 30.3171 10.2687 28.2912 10.2687C26.2653 10.2687 24.5198 11.9304 24.5198 14.3591C24.5198 16.7635 26.2653 18.4496 28.2912 18.4496C30.3171 18.4496 32.0626 16.7604 32.0626 14.3591Z" fill="white"/>
<path d="M49.4692 14.3591C49.4692 18.2456 46.4575 21.1096 42.7614 21.1096C39.0654 21.1096 36.0537 18.2456 36.0537 14.3591C36.0537 10.4483 39.0654 7.60869 42.7614 7.60869C46.4575 7.60869 49.4692 10.4452 49.4692 14.3591ZM46.5328 14.3591C46.5328 11.9304 44.7873 10.2687 42.7614 10.2687C40.7355 10.2687 38.99 11.9304 38.99 14.3591C38.99 16.7635 40.7355 18.4496 42.7614 18.4496C44.7873 18.4496 46.5328 16.7604 46.5328 14.3591Z" fill="white"/>
<path d="M63.3371 8.01651V20.1356C63.3371 25.1209 60.4249 27.1569 56.9821 27.1569C53.7413 27.1569 51.7908 24.9687 51.0552 23.1791L53.6116 22.1048C54.0669 23.2035 55.1823 24.5 56.9791 24.5C59.1828 24.5 60.5485 23.1274 60.5485 20.5435V19.5726H60.446C59.7888 20.3913 58.5226 21.1065 56.9248 21.1065C53.5815 21.1065 50.5186 18.1665 50.5186 14.3835C50.5186 10.573 53.5815 7.60869 56.9248 7.60869C58.5196 7.60869 59.7858 8.32391 60.446 9.11825H60.5485V8.01956H63.3371V8.01651ZM60.7565 14.3835C60.7565 12.0065 59.1858 10.2687 57.1871 10.2687C55.1612 10.2687 53.4639 12.0065 53.4639 14.3835C53.4639 16.7361 55.1612 18.4496 57.1871 18.4496C59.1858 18.4496 60.7565 16.7361 60.7565 14.3835Z" fill="white"/>
<path d="M67.9343 0.91304V20.6956H65.0703V0.91304H67.9343Z" fill="white"/>
<path d="M79.0949 16.5809L81.374 18.1148C80.6384 19.2135 78.8658 21.1065 75.8028 21.1065C72.0043 21.1065 69.1675 18.1422 69.1675 14.3561C69.1675 10.3417 72.0284 7.60565 75.4742 7.60565C78.9442 7.60565 80.6414 10.3935 81.1962 11.9L81.5006 12.667L72.562 16.4043C73.2464 17.7587 74.3106 18.4496 75.8028 18.4496C77.2981 18.4496 78.3352 17.707 79.0949 16.5809ZM72.0797 14.1522L78.0548 11.6474C77.7262 10.8043 76.7374 10.217 75.5737 10.217C74.0814 10.217 72.0043 11.547 72.0797 14.1522Z" fill="white"/>
<path d="M10.7423 12.603V9.73912H20.3019C20.3954 10.2383 20.4436 10.8287 20.4436 11.4678C20.4436 13.6165 19.8618 16.2735 17.9866 18.1665C16.1627 20.0839 13.8324 21.1065 10.7453 21.1065C5.02338 21.1065 0.211914 16.4013 0.211914 10.6248C0.211914 4.84825 5.02338 0.143036 10.7453 0.143036C13.9107 0.143036 16.1657 1.39695 17.86 3.0313L15.8582 5.05217C14.6433 3.90173 12.9973 3.00695 10.7423 3.00695C6.5639 3.00695 3.29596 6.40651 3.29596 10.6248C3.29596 14.843 6.5639 18.2426 10.7423 18.2426C13.4525 18.2426 14.996 17.1439 15.9849 16.1456C16.7868 15.3361 17.3143 14.1796 17.5224 12.6L10.7423 12.603Z" fill="white"/>
</g>
<defs>
<clipPath id="clip0_4_4816">
<rect width="82" height="28" fill="white" transform="translate(0.103516)"/>
</clipPath>
</defs>
</svg>
