<svg width="151" height="80" viewBox="0 0 151 80" fill="none" xmlns="http://www.w3.org/2000/svg">
<rect x="0.5" width="150" height="80" rx="10" fill="white"/>
<g clip-path="url(#clip0_13_1330)">
<path d="M78.0854 32.5375C78.0854 33.6186 77.2186 34.4895 76.1426 34.4895C75.0666 34.4895 74.1998 33.6186 74.1998 32.5375C74.1998 31.4565 75.0367 30.5856 76.1426 30.5856C77.2485 30.6156 78.0854 31.4865 78.0854 32.5375ZM70.0751 36.4715C70.0751 36.6517 70.0751 36.952 70.0751 36.952C70.0751 36.952 69.1485 35.7508 67.1758 35.7508C63.9179 35.7508 61.3773 38.2432 61.3773 41.6967C61.3773 45.1201 63.888 47.6426 67.1758 47.6426C69.1784 47.6426 70.0751 46.4114 70.0751 46.4114V46.9219C70.0751 47.1622 70.2544 47.3423 70.4935 47.3423H72.9146V36.0511C72.9146 36.0511 70.7028 36.0511 70.4935 36.0511C70.2544 36.0511 70.0751 36.2613 70.0751 36.4715ZM70.0751 43.7087C69.6267 44.3694 68.7301 44.9399 67.6541 44.9399C65.7411 44.9399 64.2766 43.7387 64.2766 41.6967C64.2766 39.6547 65.7411 38.4535 67.6541 38.4535C68.7002 38.4535 69.6566 39.0541 70.0751 39.6847V43.7087ZM74.7079 36.0511H77.5773V47.3423H74.7079V36.0511ZM117.569 35.7508C115.597 35.7508 114.67 36.952 114.67 36.952V30.6156H111.801V47.3423C111.801 47.3423 114.012 47.3423 114.222 47.3423C114.461 47.3423 114.64 47.1321 114.64 46.9219V46.4114C114.64 46.4114 115.567 47.6426 117.539 47.6426C120.797 47.6426 123.338 45.1201 123.338 41.6967C123.338 38.2733 120.797 35.7508 117.569 35.7508ZM117.091 44.9099C115.985 44.9099 115.118 44.3393 114.67 43.6787V39.6547C115.118 39.0541 116.075 38.4234 117.091 38.4234C119.004 38.4234 120.468 39.6246 120.468 41.6667C120.468 43.7087 119.004 44.9099 117.091 44.9099ZM110.306 40.6456V47.3724H107.437V40.976C107.437 39.1141 106.839 38.3634 105.225 38.3634C104.358 38.3634 103.461 38.8138 102.894 39.4745V47.3423H100.024V36.0511H102.296C102.535 36.0511 102.714 36.2613 102.714 36.4715V36.952C103.551 36.0811 104.657 35.7508 105.763 35.7508C107.018 35.7508 108.064 36.1111 108.901 36.8318C109.918 37.6727 110.306 38.7538 110.306 40.6456ZM93.06 35.7508C91.0873 35.7508 90.1607 36.952 90.1607 36.952V30.6156H87.2913V47.3423C87.2913 47.3423 89.5031 47.3423 89.7124 47.3423C89.9515 47.3423 90.1308 47.1321 90.1308 46.9219V46.4114C90.1308 46.4114 91.0574 47.6426 93.0301 47.6426C96.288 47.6426 98.8286 45.1201 98.8286 41.6967C98.8585 38.2733 96.3179 35.7508 93.06 35.7508ZM92.5817 44.9099C91.4758 44.9099 90.609 44.3393 90.1607 43.6787V39.6547C90.609 39.0541 91.5655 38.4234 92.5817 38.4234C94.4947 38.4234 95.9592 39.6246 95.9592 41.6667C95.9592 43.7087 94.4947 44.9099 92.5817 44.9099ZM84.8105 35.7508C85.6773 35.7508 86.1256 35.9009 86.1256 35.9009V38.5736C86.1256 38.5736 83.7345 37.7628 82.24 39.4745V47.3724H79.3707V36.0511C79.3707 36.0511 81.5825 36.0511 81.7917 36.0511C82.0308 36.0511 82.2101 36.2613 82.2101 36.4715V36.952C82.7482 36.3213 83.9138 35.7508 84.8105 35.7508ZM55.0109 46.3213C54.8614 45.961 54.712 45.5706 54.5625 45.2402C54.3234 44.6997 54.0843 44.1892 53.8751 43.7087L53.8452 43.6787C51.7828 39.1742 49.571 34.6096 47.2397 30.1051L47.15 29.9249C46.9109 29.4745 46.6718 28.994 46.4326 28.5135C46.1338 27.973 45.8349 27.4024 45.3566 26.8619C44.4002 25.6607 43.0253 25 41.5607 25C40.0662 25 38.7212 25.6607 37.7349 26.8018C37.2865 27.3423 36.9577 27.9129 36.6588 28.4535C36.4197 28.9339 36.1806 29.4144 35.9415 29.8649L35.8518 30.045C33.5504 34.5495 31.3087 39.1141 29.2463 43.6186L29.2164 43.6787C29.0072 44.1592 28.7681 44.6697 28.5289 45.2102C28.3795 45.5405 28.2301 45.9009 28.0806 46.2913C27.692 47.4024 27.5725 48.4535 27.7219 49.5345C28.0507 51.7868 29.5452 53.6787 31.6075 54.5195C32.3847 54.8499 33.1917 55 34.0286 55C34.2677 55 34.5666 54.97 34.8057 54.9399C35.7921 54.8198 36.8083 54.4895 37.7946 53.9189C39.0201 53.2282 40.1858 52.2372 41.5009 50.7958C42.816 52.2372 44.0116 53.2282 45.2072 53.9189C46.1935 54.4895 47.2098 54.8198 48.1961 54.9399C48.4352 54.97 48.7341 55 48.9732 55C49.8101 55 50.647 54.8499 51.3943 54.5195C53.4865 53.6787 54.9511 51.7568 55.2799 49.5345C55.519 48.4835 55.3994 47.4324 55.0109 46.3213ZM41.5308 47.8829C39.9168 45.8408 38.8707 43.9189 38.512 42.2973C38.3625 41.6066 38.3326 41.006 38.4223 40.4655C38.4821 39.985 38.6614 39.5646 38.9005 39.2042C39.4684 38.3934 40.4249 37.8829 41.5308 37.8829C42.6367 37.8829 43.6231 38.3634 44.1611 39.2042C44.4002 39.5646 44.5795 39.985 44.6393 40.4655C44.729 41.006 44.6991 41.6366 44.5496 42.2973C44.1909 43.8889 43.1448 45.8108 41.5308 47.8829ZM53.4566 49.2943C53.2474 50.8559 52.2013 52.2072 50.7367 52.8078C50.0194 53.1081 49.2422 53.1982 48.4651 53.1081C47.7179 53.018 46.9707 52.7778 46.1935 52.3273C45.1175 51.7267 44.0415 50.7958 42.7861 49.4144C44.7588 46.982 45.9544 44.7598 46.4028 42.7778C46.612 41.8468 46.6419 41.006 46.5522 40.2252C46.4326 39.4745 46.1636 38.7838 45.7452 38.1832C44.8186 36.8318 43.2644 36.0511 41.5308 36.0511C39.7972 36.0511 38.243 36.8619 37.3164 38.1832C36.898 38.7838 36.629 39.4745 36.5094 40.2252C36.3898 41.006 36.4197 41.8769 36.6588 42.7778C37.1072 44.7598 38.3326 47.012 40.2754 49.4444C39.05 50.8258 37.9441 51.7568 36.8681 52.3574C36.0909 52.8078 35.3437 53.048 34.5965 53.1381C33.7895 53.2282 33.0123 53.1081 32.3249 52.8378C30.8603 52.2372 29.8142 50.8859 29.605 49.3243C29.5153 48.5736 29.5751 47.8228 29.874 46.982C29.9636 46.6817 30.1131 46.3814 30.2625 46.021C30.4718 45.5405 30.7109 45.03 30.95 44.5195L30.9799 44.4595C33.0422 39.985 35.254 35.4204 37.5555 30.976L37.6452 30.7958C37.8843 30.3453 38.1234 29.8649 38.3625 29.4144C38.6016 28.9339 38.8707 28.4835 39.1994 28.0931C39.8271 27.3724 40.664 26.982 41.5906 26.982C42.5171 26.982 43.354 27.3724 43.9817 28.0931C44.3105 28.4835 44.5795 28.9339 44.8186 29.4144C45.0577 29.8649 45.2969 30.3453 45.536 30.7958L45.6256 30.976C47.8972 35.4504 50.109 40.015 52.1714 44.4895V44.5195C52.4105 45 52.6197 45.5405 52.8588 46.021C53.0083 46.3814 53.1577 46.6817 53.2474 46.982C53.4865 47.7628 53.5762 48.5135 53.4566 49.2943Z" fill="#FF5A5F"/>
</g>
<defs>
<clipPath id="clip0_13_1330">
<rect width="95.6757" height="30" fill="white" transform="translate(27.6621 25)"/>
</clipPath>
</defs>
</svg>
