<svg width="151" height="80" viewBox="0 0 151 80" fill="none" xmlns="http://www.w3.org/2000/svg">
<rect x="0.5" width="150" height="80" rx="10" fill="white"/>
<g clip-path="url(#clip0_13_1324)">
<path d="M36.1093 42.7111C36.1093 43.6884 36.3237 44.4387 36.6038 44.8926C36.9711 45.4872 37.5189 45.7391 38.0774 45.7391C38.7977 45.7391 39.4567 45.5602 40.7266 43.8023C41.744 42.3934 42.9428 40.4157 43.7494 39.1758L45.1153 37.0753C46.0642 35.6165 47.1625 33.9948 48.4218 32.8956C49.4498 31.9984 50.5588 31.5 51.6749 31.5C53.5486 31.5 55.3335 32.5868 56.6994 34.625C58.1944 36.8572 58.92 39.6689 58.92 42.5705C58.92 44.2954 58.5803 45.5628 58.0023 46.5641C57.4438 47.5325 56.3553 48.5 54.5242 48.5V45.7391C56.092 45.7391 56.4833 44.2972 56.4833 42.647C56.4833 40.2955 55.9355 37.6859 54.7287 35.8212C53.8723 34.4986 52.7625 33.6904 51.5415 33.6904C50.2208 33.6904 49.1581 34.6873 47.9638 36.4647C47.3288 37.4091 46.677 38.5599 45.9451 39.8585L45.1394 41.287C43.5208 44.1592 43.1108 44.8134 42.3016 45.893C40.8831 47.7835 39.6719 48.5 38.0774 48.5C36.1858 48.5 34.9897 47.6803 34.2489 46.4449C33.6442 45.4382 33.3472 44.1174 33.3472 42.6123L36.1093 42.7111Z" fill="#0081FB"/>
<path d="M35.5249 34.8199C36.7913 32.8662 38.6188 31.5 40.7149 31.5C41.9288 31.5 43.1356 31.8596 44.3957 32.8894C45.7741 34.0153 47.2433 35.8693 49.0761 38.9248L49.7333 40.0214C51.3199 42.6666 52.2225 44.0275 52.7507 44.6692C53.4302 45.4934 53.906 45.7391 54.524 45.7391C56.0919 45.7391 56.4832 44.2972 56.4832 42.647L58.9199 42.5705C58.9199 44.2954 58.5801 45.5628 58.0021 46.5641C57.4436 47.5325 56.3551 48.5 54.524 48.5C53.3857 48.5 52.3772 48.2526 51.262 47.1996C50.4048 46.3915 49.4025 44.9558 48.6315 43.6652L46.338 39.8309C45.1872 37.9066 44.1316 36.4718 43.5206 35.8221C42.8635 35.1234 42.0186 34.2796 40.6704 34.2796C39.5792 34.2796 38.6526 35.046 37.8771 36.2182L35.5249 34.8199Z" fill="url(#paint0_linear_13_1324)"/>
<path d="M40.6706 34.2796C39.5794 34.2796 38.6528 35.046 37.8773 36.2182C36.7808 37.8746 36.1093 40.3418 36.1093 42.7111C36.1093 43.6884 36.3237 44.4387 36.6038 44.8926L34.2489 46.4449C33.6442 45.4382 33.3472 44.1174 33.3472 42.6123C33.3472 39.8754 34.0977 37.0228 35.5251 34.8199C36.7914 32.8662 38.619 31.5 40.7151 31.5L40.6706 34.2796Z" fill="url(#paint1_linear_13_1324)"/>
<path d="M64.2896 32.0376H67.4848L72.9176 41.8745L78.3512 32.0376H81.4772V48.2009H78.8706V35.8132L74.1057 44.3915H71.6601L66.8961 35.8132V48.2009H64.2896V32.0376ZM89.6445 38.0641C87.7752 38.0641 86.6494 39.4722 86.3799 41.2158H92.7242C92.5935 39.4197 91.5583 38.0641 89.6445 38.0641ZM83.7956 42.2091C83.7956 38.5403 86.1647 35.8702 89.6899 35.8702C93.1573 35.8702 95.2276 38.5065 95.2276 42.4049V43.1214H86.3799C86.6938 45.0181 87.9513 46.2962 89.9789 46.2962C91.5966 46.2962 92.6077 45.8023 93.5664 44.8989L94.951 46.5962C93.6464 47.7969 91.987 48.4893 89.8864 48.4893C86.0704 48.4893 83.7956 45.7044 83.7956 42.2091ZM98.3882 38.2956H95.9888V36.1594H98.3882V32.6268H100.903V36.1594H104.548V38.2956H100.903V43.7097C100.903 45.5584 101.494 46.2152 102.945 46.2152C103.608 46.2152 103.987 46.1583 104.548 46.0648V48.1778C103.849 48.3754 103.182 48.4662 102.46 48.4662C99.7453 48.4662 98.3882 46.9816 98.3882 44.0097V38.2956ZM115.138 40.3729C114.633 39.0966 113.506 38.1567 111.85 38.1567C109.698 38.1567 108.321 39.6849 108.321 42.1744C108.321 44.6016 109.589 46.2037 111.747 46.2037C113.444 46.2037 114.655 45.2157 115.138 43.9866V40.3729ZM117.653 48.2009H115.184V46.5152C114.494 47.5076 113.239 48.4893 111.205 48.4893C107.934 48.4893 105.748 45.7489 105.748 42.1744C105.748 38.5661 107.986 35.8702 111.344 35.8702C113.003 35.8702 114.305 36.5341 115.184 37.7063V36.1594H117.653V48.2009Z" fill="#192830"/>
</g>
<defs>
<linearGradient id="paint0_linear_13_1324" x1="38.7718" y1="41.9136" x2="56.3801" y2="42.8022" gradientUnits="userSpaceOnUse">
<stop stop-color="#0064E1"/>
<stop offset="0.4" stop-color="#0064E1"/>
<stop offset="0.83" stop-color="#0073EE"/>
<stop offset="1" stop-color="#0082FB"/>
</linearGradient>
<linearGradient id="paint1_linear_13_1324" x1="37.349" y1="43.8717" x2="37.349" y2="37.3743" gradientUnits="userSpaceOnUse">
<stop stop-color="#0082FB"/>
<stop offset="1" stop-color="#0064E0"/>
</linearGradient>
<clipPath id="clip0_13_1324">
<rect width="84.3061" height="17" fill="white" transform="translate(33.3472 31.5)"/>
</clipPath>
</defs>
</svg>
