<svg width="85" height="26" viewBox="0 0 85 26" fill="none" xmlns="http://www.w3.org/2000/svg">
<g clip-path="url(#clip0_4_4830)">
<path fill-rule="evenodd" clip-rule="evenodd" d="M52.2157 20.0508C47.3344 23.6041 40.2591 25.5 34.1674 25.5C25.6259 25.5 17.9363 22.38 12.1189 17.1907C11.6618 16.7827 12.0714 16.2266 12.6198 16.5443C18.898 20.1519 26.6607 22.3222 34.6793 22.3222C40.0872 22.3222 46.0363 21.2172 51.5064 18.9241C52.3327 18.5774 53.0238 19.4585 52.2157 20.0508Z" fill="white"/>
<path fill-rule="evenodd" clip-rule="evenodd" d="M54.2449 17.7577C53.6233 16.9705 50.1205 17.3857 48.5482 17.5699C48.0692 17.6277 47.9961 17.216 48.4275 16.9199C51.2174 14.9807 55.7953 15.5404 56.3291 16.1905C56.863 16.8441 56.1902 21.3761 53.5685 23.5391C53.1663 23.8714 52.7824 23.6944 52.9615 23.2539C53.5502 21.8022 54.8702 18.5485 54.2449 17.7577Z" fill="white"/>
<path fill-rule="evenodd" clip-rule="evenodd" d="M48.6577 3.23005V1.34503C48.6577 1.05975 48.8771 0.868362 49.1403 0.868362H57.6855C57.9597 0.868362 58.1791 1.06336 58.1791 1.34503V2.95922C58.1755 3.23005 57.9451 3.58395 57.5356 4.14367L53.1076 10.3873C54.753 10.3476 56.4898 10.5896 57.9817 11.4201C58.3181 11.6079 58.4095 11.8824 58.4351 12.1532V14.1646C58.4351 14.4391 58.1279 14.7604 57.8062 14.5943C55.1772 13.2329 51.6852 13.0849 48.7784 14.6088C48.4822 14.7677 48.1714 14.4499 48.1714 14.1754V12.2651C48.1714 11.9582 48.175 11.4346 48.4858 10.9687L53.6159 3.70311H49.1513C48.8771 3.70311 48.6577 3.51172 48.6577 3.23005Z" fill="white"/>
<path fill-rule="evenodd" clip-rule="evenodd" d="M17.4865 14.9915H14.8867C14.6381 14.9735 14.4406 14.7893 14.4224 14.5546V1.37752C14.4224 1.11391 14.6454 0.904463 14.9233 0.904463H17.3475C17.5998 0.915289 17.8009 1.10669 17.8192 1.34502V3.06754H17.8668C18.4993 1.4028 19.6877 0.626404 21.2892 0.626404C22.9163 0.626404 23.9328 1.4028 24.6641 3.06754C25.293 1.4028 26.7227 0.626404 28.2548 0.626404C29.3444 0.626404 30.5364 1.07057 31.2641 2.06725C32.0868 3.17587 31.9186 4.78644 31.9186 6.1984L31.9149 14.5149C31.9149 14.7785 31.6919 14.9915 31.414 14.9915H28.8179C28.5583 14.9735 28.3499 14.7677 28.3499 14.5149V7.53092C28.3499 6.9748 28.401 5.58812 28.2767 5.06089C28.0829 4.17616 27.5015 3.92699 26.7483 3.92699C26.1194 3.92699 25.4612 4.34227 25.1943 5.00673C24.9274 5.67118 24.953 6.78341 24.953 7.53092V14.5149C24.953 14.7785 24.7299 14.9915 24.4521 14.9915H21.856C21.5927 14.9735 21.3879 14.7677 21.3879 14.5149L21.3843 7.53092C21.3843 6.06118 21.6293 3.8981 19.7827 3.8981C17.9143 3.8981 17.9874 6.00701 17.9874 7.53092V14.5149C17.9874 14.7785 17.7644 14.9915 17.4865 14.9915" fill="white"/>
<path fill-rule="evenodd" clip-rule="evenodd" d="M65.5359 0.626404C69.3935 0.626404 71.4813 3.8981 71.4813 8.05815C71.4813 12.0774 69.1741 15.266 65.5359 15.266C61.7478 15.266 59.6855 11.9943 59.6855 7.91731C59.6855 3.81505 61.7734 0.626404 65.5359 0.626404ZM65.5578 3.31671C63.6418 3.31671 63.5212 5.89507 63.5212 7.50203C63.5212 9.1126 63.4956 12.5504 65.5359 12.5504C67.5506 12.5504 67.6457 9.77705 67.6457 8.08703C67.6457 6.9748 67.5981 5.6459 67.2581 4.59144C66.9656 3.67421 66.3842 3.31671 65.5578 3.31671Z" fill="white"/>
<path fill-rule="evenodd" clip-rule="evenodd" d="M76.4833 14.9915H73.8945C73.6349 14.9735 73.4265 14.7677 73.4265 14.5149L73.4229 1.33419C73.4448 1.09224 73.6605 0.904463 73.9238 0.904463H76.3334C76.5601 0.915289 76.7466 1.06696 76.7978 1.2728V3.28782H76.8453C77.5729 1.48586 78.5931 0.626404 80.3884 0.626404C81.5548 0.626404 82.692 1.04169 83.4233 2.1792C84.1034 3.23365 84.1034 5.00673 84.1034 6.28146V14.5763C84.0741 14.8074 83.8584 14.9915 83.6025 14.9915H80.9954C80.7577 14.9735 80.5603 14.8002 80.5347 14.5763V7.41897C80.5347 5.97812 80.7029 3.86921 78.9075 3.86921C78.275 3.86921 77.6936 4.28811 77.4047 4.92367C77.0391 5.72896 76.9916 6.53063 76.9916 7.41897V14.5149C76.9879 14.7785 76.7612 14.9915 76.4833 14.9915" fill="white"/>
<path fill-rule="evenodd" clip-rule="evenodd" d="M41.8458 8.69732C41.8458 9.69761 41.8714 10.5318 41.3595 11.4201C40.9464 12.1424 40.2882 12.5865 39.5606 12.5865C38.5623 12.5865 37.9773 11.8354 37.9773 10.7268C37.9773 8.53843 39.9628 8.14121 41.8458 8.14121V8.69732ZM44.4675 14.9554C44.2957 15.1071 44.047 15.1179 43.8532 15.0168C42.9903 14.3091 42.8331 13.9804 42.3614 13.3052C40.9354 14.7424 39.9225 15.1721 38.076 15.1721C35.8858 15.1721 34.1855 13.8396 34.1855 11.171C34.1855 9.08733 35.3264 7.66815 36.9571 6.97481C38.3685 6.36091 40.3394 6.25258 41.8458 6.08285V5.75063C41.8458 5.14034 41.8934 4.41811 41.5277 3.89089C41.2133 3.41782 40.6063 3.22282 40.0688 3.22282C39.0779 3.22282 38.1967 3.72477 37.981 4.76478C37.9371 4.9959 37.7652 5.2234 37.5276 5.23423L35.0083 4.96701C34.7962 4.92006 34.5585 4.75034 34.6207 4.42895C35.1984 1.41003 37.9627 0.500015 40.4344 0.500015C41.6996 0.500015 43.3523 0.832242 44.3505 1.77836C45.6157 2.94476 45.495 4.50117 45.495 6.1948V10.196C45.495 11.3985 45.9996 11.9257 46.4749 12.5757C46.6395 12.8068 46.676 13.0849 46.464 13.2582C45.9338 13.6952 44.9904 14.5077 44.4712 14.9627L44.4675 14.9554" fill="white"/>
<path fill-rule="evenodd" clip-rule="evenodd" d="M7.76381 8.69742C7.76381 9.6977 7.7894 10.5319 7.2775 11.4202C6.86432 12.1425 6.20981 12.5866 5.47852 12.5866C4.4803 12.5866 3.89893 11.8355 3.89893 10.7269C3.89893 8.53852 5.88439 8.1413 7.76381 8.1413V8.69742ZM10.3855 14.9555C10.2136 15.1072 9.965 15.118 9.77121 15.0169C8.90829 14.3091 8.75471 13.9805 8.27937 13.3052C6.85335 14.7425 5.84417 15.1722 3.99399 15.1722C1.80743 15.1722 0.103516 13.8397 0.103516 11.1711C0.103516 9.08742 1.24799 7.66824 2.87512 6.9749C4.28651 6.361 6.25735 6.25267 7.76381 6.08294V5.75072C7.76381 5.14043 7.81135 4.4182 7.44936 3.89098C7.13124 3.41792 6.52427 3.22291 5.99042 3.22291C4.99952 3.22291 4.11466 3.72486 3.89893 4.76487C3.85505 4.99599 3.68319 5.22349 3.44918 5.23432L0.92622 4.9671C0.714145 4.92015 0.480131 4.75043 0.538634 4.42904C1.12001 1.41012 3.88064 0.500107 6.35242 0.500107C7.61755 0.500107 9.27027 0.832333 10.2685 1.77845C11.5336 2.94485 11.413 4.50126 11.413 6.19489V10.196C11.413 11.3986 11.9176 11.9258 12.3929 12.5758C12.5611 12.8069 12.5977 13.085 12.3856 13.2583C11.8554 13.6952 10.912 14.5078 10.3928 14.9628L10.3855 14.9555" fill="white"/>
</g>
<defs>
<clipPath id="clip0_4_4830">
<rect width="84" height="25" fill="white" transform="translate(0.103516 0.5)"/>
</clipPath>
</defs>
</svg>
