<svg width="1088" height="80" viewBox="0 0 1088 80" fill="none" xmlns="http://www.w3.org/2000/svg">
<rect width="80" height="80" rx="40" fill="white"/>
<path d="M64.4688 40.5625C64.4688 38.9166 64.3229 37.3541 64.0729 35.8333H40.5312V45.2292H54.0104C53.4062 48.3125 51.6354 50.9166 49.0104 52.6875V58.9375H57.0521C61.7604 54.5833 64.4688 48.1666 64.4688 40.5625Z" fill="#4285F4"/>
<path d="M40.5313 65C47.2813 65 52.9271 62.75 57.0521 58.9375L49.0104 52.6875C46.7604 54.1875 43.9063 55.1041 40.5313 55.1041C34.0104 55.1041 28.4896 50.7083 26.5104 44.7708H18.2188V51.2083C22.3229 59.375 30.7604 65 40.5313 65Z" fill="#34A853"/>
<path d="M26.5104 44.7709C25.9896 43.2709 25.7187 41.6667 25.7187 40C25.7187 38.3333 26.0104 36.7292 26.5104 35.2292V28.7917H18.2187C16.5104 32.1667 15.5312 35.9583 15.5312 40C15.5312 44.0417 16.5104 47.8334 18.2187 51.2084L26.5104 44.7709Z" fill="#FBBC05"/>
<path d="M40.5312 24.8958C44.2187 24.8958 47.5104 26.1667 50.1146 28.6458L57.2396 21.5208C52.9271 17.4792 47.2812 15 40.5312 15C30.7604 15 22.3229 20.625 18.2188 28.7917L26.5104 35.2292C28.4896 29.2917 34.0104 24.8958 40.5312 24.8958Z" fill="#EA4335"/>
<rect x="144" width="80" height="80" rx="40" fill="white"/>
<g clip-path="url(#clip0_13_1435)">
<path d="M202.044 55.3675C181.804 65 169.243 56.9408 161.202 52.0458C160.704 51.7373 159.859 52.1179 160.592 52.9607C163.271 56.2088 172.05 64.0376 183.509 64.0376C194.976 64.0376 201.798 57.7807 202.651 56.6892C203.499 55.607 202.9 55.01 202.043 55.3675H202.044ZM207.728 52.2283C207.184 51.5205 204.423 51.3886 202.685 51.6021C200.944 51.8094 198.332 52.8732 198.559 53.5119C198.676 53.7512 198.913 53.6438 200.109 53.5363C201.308 53.4167 204.667 52.9928 205.367 53.9077C206.07 54.829 204.296 59.2176 203.972 59.9254C203.658 60.6331 204.091 60.8157 204.679 60.3443C205.259 59.873 206.31 58.6527 207.014 56.9258C207.714 55.1894 208.141 52.7672 207.728 52.2283H207.728Z" fill="#FF9900"/>
<path fill-rule="evenodd" clip-rule="evenodd" d="M188.435 35.7125C188.435 38.2399 188.498 40.3476 187.221 42.5921C186.19 44.4172 184.557 45.5394 182.732 45.5394C180.241 45.5394 178.79 43.6415 178.79 40.8404C178.79 35.3109 183.744 34.3073 188.435 34.3073V35.7125ZM194.977 51.5251C194.548 51.9082 193.927 51.9357 193.444 51.6801C191.291 49.8918 190.907 49.0616 189.721 47.3552C186.163 50.9868 183.644 52.0725 179.027 52.0725C173.571 52.0725 169.319 48.7056 169.319 41.9626C169.319 36.698 172.175 33.112 176.235 31.3602C179.757 29.8089 184.675 29.5352 188.435 29.1065V28.267C188.435 26.7249 188.553 24.9 187.65 23.5679C186.856 22.3726 185.341 21.8799 184.009 21.8799C181.536 21.8799 179.328 23.1481 178.79 25.7759C178.68 26.36 178.252 26.9349 177.668 26.9622L171.372 26.2871C170.843 26.1683 170.259 25.7395 170.405 24.9273C171.855 17.2995 178.744 15 184.912 15C188.069 15 192.193 15.8395 194.685 18.2302C197.842 21.1773 197.54 25.1099 197.54 29.3892V39.4991C197.54 42.5375 198.8 43.8696 199.986 45.5121C200.405 46.096 200.497 46.7988 199.968 47.2365C198.644 48.3405 196.29 50.3936 194.995 51.5434L194.977 51.5251" fill="black"/>
<path d="M202.044 55.3675C181.804 65 169.243 56.9408 161.202 52.0458C160.704 51.7373 159.859 52.1179 160.592 52.9607C163.271 56.2088 172.05 64.0376 183.509 64.0376C194.976 64.0376 201.798 57.7807 202.651 56.6892C203.499 55.607 202.9 55.01 202.043 55.3675H202.044ZM207.728 52.2283C207.184 51.5205 204.423 51.3886 202.685 51.6021C200.944 51.8094 198.332 52.8732 198.559 53.5119C198.676 53.7512 198.913 53.6438 200.109 53.5363C201.308 53.4167 204.667 52.9928 205.367 53.9077C206.07 54.829 204.296 59.2176 203.972 59.9254C203.658 60.6331 204.091 60.8157 204.679 60.3443C205.259 59.873 206.31 58.6527 207.014 56.9258C207.714 55.1894 208.141 52.7672 207.728 52.2283H207.728Z" fill="#FF9900"/>
<path fill-rule="evenodd" clip-rule="evenodd" d="M188.435 35.7125C188.435 38.2399 188.498 40.3476 187.221 42.5921C186.19 44.4172 184.557 45.5394 182.732 45.5394C180.241 45.5394 178.79 43.6415 178.79 40.8404C178.79 35.3109 183.744 34.3073 188.435 34.3073V35.7125ZM194.977 51.5251C194.548 51.9082 193.927 51.9357 193.444 51.6801C191.291 49.8918 190.907 49.0616 189.721 47.3552C186.163 50.9868 183.644 52.0725 179.027 52.0725C173.571 52.0725 169.319 48.7056 169.319 41.9626C169.319 36.698 172.175 33.112 176.235 31.3602C179.757 29.8089 184.675 29.5352 188.435 29.1065V28.267C188.435 26.7249 188.553 24.9 187.65 23.5679C186.856 22.3726 185.341 21.8799 184.009 21.8799C181.536 21.8799 179.328 23.1481 178.79 25.7759C178.68 26.36 178.252 26.9349 177.668 26.9622L171.372 26.2871C170.843 26.1683 170.259 25.7395 170.405 24.9273C171.855 17.2995 178.744 15 184.912 15C188.069 15 192.193 15.8395 194.685 18.2302C197.842 21.1773 197.54 25.1099 197.54 29.3892V39.4991C197.54 42.5375 198.8 43.8696 199.986 45.5121C200.405 46.096 200.497 46.7988 199.968 47.2365C198.644 48.3405 196.29 50.3936 194.995 51.5434L194.977 51.5251" fill="black"/>
</g>
<rect x="288" width="80" height="80" rx="40" fill="#FF5A5F"/>
<path d="M348.406 49.482C348.18 48.9414 347.954 48.3559 347.728 47.8604C347.366 47.0495 347.004 46.2838 346.687 45.5631L346.642 45.518C343.52 38.7613 340.171 31.9144 336.642 25.1577L336.506 24.8874C336.144 24.2117 335.782 23.491 335.42 22.7703C334.968 21.9595 334.515 21.1036 333.791 20.2928C332.343 18.491 330.262 17.5 328.044 17.5C325.782 17.5 323.746 18.491 322.253 20.2027C321.574 21.0135 321.076 21.8694 320.624 22.6802C320.262 23.4009 319.9 24.1216 319.538 24.7973L319.402 25.0676C315.918 31.8243 312.524 38.6712 309.402 45.4279L309.357 45.518C309.04 46.2387 308.678 47.0045 308.316 47.8153C308.09 48.3108 307.863 48.8514 307.637 49.4369C307.049 51.1036 306.868 52.6802 307.094 54.3018C307.592 57.6802 309.854 60.518 312.977 61.7793C314.153 62.2748 315.375 62.5 316.642 62.5C317.004 62.5 317.456 62.455 317.818 62.4099C319.311 62.2297 320.85 61.7342 322.343 60.8784C324.198 59.8423 325.963 58.3559 327.954 56.1937C329.945 58.3559 331.755 59.8423 333.565 60.8784C335.058 61.7342 336.596 62.2297 338.09 62.4099C338.452 62.455 338.904 62.5 339.266 62.5C340.533 62.5 341.8 62.2748 342.931 61.7793C346.099 60.518 348.316 57.6351 348.814 54.3018C349.176 52.7252 348.995 51.1486 348.406 49.482ZM327.999 51.8243C325.556 48.7613 323.972 45.8784 323.429 43.4459C323.203 42.4099 323.158 41.509 323.293 40.6982C323.384 39.9775 323.655 39.3468 324.017 38.8063C324.877 37.5901 326.325 36.8243 327.999 36.8243C329.673 36.8243 331.167 37.545 331.981 38.8063C332.343 39.3468 332.615 39.9775 332.705 40.6982C332.841 41.509 332.796 42.455 332.569 43.4459C332.026 45.8333 330.443 48.7162 327.999 51.8243ZM346.053 53.9414C345.737 56.2838 344.153 58.3108 341.936 59.2117C340.85 59.6622 339.673 59.7973 338.497 59.6622C337.366 59.527 336.234 59.1667 335.058 58.491C333.429 57.5901 331.8 56.1937 329.9 54.1216C332.886 50.473 334.696 47.1396 335.375 44.1667C335.691 42.7703 335.737 41.509 335.601 40.3378C335.42 39.2117 335.013 38.1757 334.379 37.2748C332.977 35.2477 330.624 34.0766 327.999 34.0766C325.375 34.0766 323.022 35.2928 321.619 37.2748C320.986 38.1757 320.578 39.2117 320.397 40.3378C320.216 41.509 320.262 42.8153 320.624 44.1667C321.302 47.1396 323.158 50.518 326.099 54.1667C324.244 56.2387 322.569 57.6351 320.94 58.536C319.764 59.2117 318.633 59.5721 317.501 59.7072C316.28 59.8423 315.103 59.6622 314.063 59.2568C311.845 58.3559 310.262 56.3288 309.945 53.9865C309.809 52.8604 309.9 51.7342 310.352 50.473C310.488 50.0225 310.714 49.5721 310.94 49.0315C311.257 48.3108 311.619 47.545 311.981 46.7793L312.026 46.6892C315.149 39.9775 318.497 33.1306 321.981 26.464L322.117 26.1937C322.479 25.518 322.841 24.7973 323.203 24.1216C323.565 23.4009 323.972 22.7252 324.47 22.1396C325.42 21.0586 326.687 20.473 328.09 20.473C329.492 20.473 330.759 21.0586 331.71 22.1396C332.207 22.7252 332.615 23.4009 332.977 24.1216C333.339 24.7973 333.701 25.518 334.063 26.1937L334.198 26.464C337.637 33.1757 340.986 40.0225 344.108 46.7342V46.7793C344.47 47.5 344.786 48.3108 345.148 49.0315C345.375 49.5721 345.601 50.0225 345.737 50.473C346.099 51.6441 346.234 52.7703 346.053 53.9414Z" fill="white"/>
<rect x="432" width="80" height="80" rx="40" fill="#1ED760"/>
<path d="M471.999 15.0825C458.234 15.0825 447.075 26.2411 447.075 40.0057C447.075 53.7708 458.234 64.9286 471.999 64.9286C485.765 64.9286 496.923 53.7708 496.923 40.0057C496.923 26.242 485.765 15.0836 471.998 15.0836L471.999 15.0825ZM483.428 51.0289C482.982 51.761 482.024 51.9932 481.292 51.5438C475.44 47.9694 468.073 47.1598 459.398 49.142C458.562 49.3325 457.728 48.8086 457.538 47.9723C457.346 47.136 457.868 46.3027 458.706 46.1122C468.2 43.9423 476.344 44.8771 482.914 48.892C483.646 49.3414 483.878 50.2967 483.428 51.0289ZM486.479 44.2417C485.917 45.1569 484.72 45.4455 483.806 44.883C477.107 40.7643 466.895 39.5717 458.971 41.9771C457.943 42.2875 456.858 41.7083 456.546 40.6825C456.236 39.6548 456.816 38.5714 457.842 38.2589C466.893 35.5125 478.146 36.8429 485.839 41.5705C486.753 42.133 487.042 43.3295 486.479 44.242V44.2417ZM486.741 37.175C478.708 32.4039 465.455 31.9652 457.786 34.2929C456.554 34.6664 455.252 33.9711 454.879 32.7396C454.506 31.5075 455.2 30.206 456.433 29.8316C465.237 27.1589 479.872 27.6753 489.12 33.1655C490.23 33.8229 490.593 35.2536 489.936 36.3598C489.281 37.4676 487.846 37.8328 486.742 37.175H486.741Z" fill="white"/>
<rect x="576" width="80" height="80" rx="40" fill="white"/>
<path d="M642.25 45.625C642.25 32.5 635.688 23.125 627.25 23.125C620.688 23.125 616 30.625 616 30.625C612.25 36.25 612.25 46.5625 617.875 35.3125C617.875 35.3125 622.562 27.8125 627.25 27.8125C633.812 27.8125 637.271 39.0625 637.271 45.625C637.271 47.5 636.625 51.25 632.875 51.25V56.875C636.625 56.875 642.25 54.0625 642.25 45.625Z" fill="url(#paint0_radial_13_1435)"/>
<path d="M604.75 23.125V28.75C598.75 29.5 595.375 39.0625 595.375 45.625C595.375 47.5 596.313 51.25 599.125 51.25C603.813 51.25 609.203 40.8999 614.125 33.3299C616.738 29.3112 619.339 32.7617 617.356 36.25C612.656 44.5152 607.951 56.875 599.125 56.875C595.375 56.875 589.75 54.0625 589.75 45.625C589.75 28.75 600.063 23.125 604.75 23.125Z" fill="url(#paint1_radial_13_1435)"/>
<path d="M632.875 51.25C626.313 51.25 618.813 23.125 604.75 23.125V28.75C616 28.75 620.687 56.875 632.875 56.875V51.25Z" fill="#0768E1"/>
<rect x="720" width="80" height="80" rx="40" fill="#0F287F"/>
<path fill-rule="evenodd" clip-rule="evenodd" d="M747.5 18.75L735 26.25L747.5 33.75L735 41.25L747.5 48.75L760 41.25L772.5 48.75L785 41.25L772.5 33.75L785 26.25L772.5 18.75L760 26.25L747.5 18.75ZM760 26.25L772.5 33.75L760 41.25L747.5 33.75L760 26.25Z" fill="#DAF8FE"/>
<path d="M747.5 53.75L760 46.25L772.5 53.75L760 61.25L747.5 53.75Z" fill="#DAF8FE"/>
<g clip-path="url(#clip1_13_1435)">
<rect x="864" width="80" height="80" rx="40" fill="#F76754"/>
<path d="M886.188 63.75H895.094V22.1875H886.188V63.75Z" fill="#002C49"/>
<path d="M912.929 22.1875C921.101 22.1875 927.75 28.8562 927.75 37.0535C927.75 45.2262 921.101 51.875 912.929 51.875C904.732 51.875 898.062 45.2262 898.062 37.0535C898.062 28.8562 904.732 22.1875 912.929 22.1875Z" fill="white"/>
</g>
<g clip-path="url(#clip2_13_1435)">
<rect x="1008" width="80" height="80" rx="40" fill="#00A82D"/>
<path d="M1038.92 26.3721C1038.92 26.8646 1038.89 27.6852 1038.4 28.219C1037.88 28.7112 1037.08 28.7525 1036.6 28.7525C1033.9 28.7525 1030.16 28.0735 1027.6 29.1218C1031.5 22.125 1039.05 17.4757 1039.01 17.8766C1038.65 20.6453 1038.92 23.5872 1038.92 26.3721ZM1047.01 58.1376C1047.01 54.7312 1049.73 51.9405 1053.09 51.9405C1054.09 51.9405 1054.89 52.7614 1054.89 53.7874C1054.89 54.4851 1054.53 55.0596 1053.97 55.3879C1053.36 55.7633 1052.52 55.5881 1051.97 56.0856C1051.57 56.4139 1051.25 56.9474 1051.25 57.5219C1051.25 58.1376 1051.49 58.7121 1051.89 59.1227C1052.61 59.8613 1053.57 60.2716 1054.61 60.2716C1057.33 60.2716 1059.53 58.0144 1059.53 55.2237C1059.53 52.7201 1057.89 50.5039 1055.73 49.5191C1052.45 47.8372 1047.43 48.7942 1047.05 43.5272C1046.45 46.3129 1045.12 51.2838 1041.53 51.2838C1030.67 51.9452 1026.76 43.1512 1026 33.8414C1026 31.8306 1027.2 30.4762 1028.72 30.2711C1031.44 30.2711 1034.16 30.2711 1036.88 30.2711C1038.28 30.2711 1039.09 29.9014 1039.61 29.4089C1040.29 28.7525 1040.45 27.8084 1040.45 26.7005C1040.45 23.8138 1040.45 19.375 1040.45 18.0408C1040.45 16.2983 1041.97 15.25 1043.93 15.25C1045.08 15.25 1046.17 15.2906 1047.29 15.5783C1049.73 16.1939 1050.25 18.7385 1050.25 18.7385C1050.25 18.7385 1054.85 19.5593 1057.17 19.9697C1059.37 20.3801 1064.82 20.7495 1065.86 26.3721C1068.3 39.7514 1066.82 52.7201 1066.7 52.7201C1064.98 65.3608 1054.73 64.745 1054.73 64.745C1051.01 64.745 1047.01 62.2038 1047.01 58.1376ZM1059.01 36.345C1057.69 36.2218 1056.57 36.7553 1056.17 37.7813C1055.6 39.2352 1061.45 40.4444 1061.45 38.438C1061.29 37.2888 1060.33 36.5092 1059.01 36.345Z" fill="white"/>
</g>
<defs>
<radialGradient id="paint0_radial_13_1435" cx="0" cy="0" r="1" gradientUnits="userSpaceOnUse" gradientTransform="translate(632.875 55) rotate(-101.31) scale(33.4623 26.0262)">
<stop stop-color="#0768E1"/>
<stop offset="1" stop-color="#0082FB"/>
</radialGradient>
<radialGradient id="paint1_radial_13_1435" cx="0" cy="0" r="1" gradientUnits="userSpaceOnUse" gradientTransform="translate(604.75 26.875) rotate(154.537) scale(21.8057 11.4369)">
<stop stop-color="#0768E1"/>
<stop offset="1" stop-color="#0082FB"/>
</radialGradient>
<clipPath id="clip0_13_1435">
<rect width="50" height="50" fill="white" transform="translate(159 15)"/>
</clipPath>
<clipPath id="clip1_13_1435">
<rect x="864" width="80" height="80" rx="40" fill="white"/>
</clipPath>
<clipPath id="clip2_13_1435">
<rect x="1008" width="80" height="80" rx="40" fill="white"/>
</clipPath>
</defs>
</svg>
