<svg width="80" height="80" viewBox="0 0 80 80" fill="none" xmlns="http://www.w3.org/2000/svg">
<rect width="80" height="80" rx="40" fill="white"/>
<path d="M64.4688 40.5625C64.4688 38.9167 64.3229 37.3542 64.0729 35.8334H40.5312V45.2292H54.0104C53.4062 48.3125 51.6354 50.9167 49.0104 52.6875V58.9375H57.0521C61.7604 54.5834 64.4688 48.1667 64.4688 40.5625Z" fill="#4285F4"/>
<path d="M40.5313 65C47.2813 65 52.9271 62.75 57.0521 58.9375L49.0104 52.6875C46.7604 54.1875 43.9063 55.1042 40.5313 55.1042C34.0104 55.1042 28.4896 50.7084 26.5104 44.7709H18.2188V51.2084C22.3229 59.375 30.7604 65 40.5313 65Z" fill="#34A853"/>
<path d="M26.5104 44.7708C25.9896 43.2708 25.7187 41.6666 25.7187 40C25.7187 38.3333 26.0104 36.7291 26.5104 35.2291V28.7916H18.2187C16.5104 32.1666 15.5312 35.9583 15.5312 40C15.5312 44.0416 16.5104 47.8333 18.2187 51.2083L26.5104 44.7708Z" fill="#FBBC05"/>
<path d="M40.5312 24.8958C44.2187 24.8958 47.5104 26.1667 50.1146 28.6458L57.2396 21.5208C52.9271 17.4792 47.2812 15 40.5312 15C30.7604 15 22.3229 20.625 18.2188 28.7917L26.5104 35.2292C28.4896 29.2917 34.0104 24.8958 40.5312 24.8958Z" fill="#EA4335"/>
</svg>
