<svg width="132" height="28" viewBox="0 0 132 28" fill="none" xmlns="http://www.w3.org/2000/svg">
<g clip-path="url(#clip0_4_4823)">
<path d="M54.5836 5.6V22.4H51.6733V9.21667H51.6345L46.4349 22.4H44.4947L39.1786 9.21667H39.1398V22.4H36.4624V5.6H40.6532L45.4648 18.0444H45.5424L50.6256 5.6H54.5836ZM56.9894 6.88334C56.9894 6.41667 57.1446 6.02778 57.4938 5.71667C57.843 5.40556 58.2311 5.25 58.6967 5.25C59.2011 5.25 59.628 5.40556 59.9384 5.71667C60.2488 6.02778 60.4429 6.41667 60.4429 6.88334C60.4429 7.35001 60.2876 7.73889 59.9384 8.05001C59.5892 8.36112 59.2011 8.51667 58.6967 8.51667C58.1923 8.51667 57.8042 8.36112 57.4938 8.05001C57.1834 7.70001 56.9894 7.31112 56.9894 6.88334ZM60.1324 10.3444V22.4H57.2998V10.3444H60.1324ZM68.708 20.3389C69.1348 20.3389 69.6004 20.2611 70.1049 20.0278C70.6093 19.8333 71.075 19.5611 71.5018 19.25V21.8944C71.0362 22.1667 70.5317 22.3611 69.9497 22.4778C69.3676 22.5944 68.7468 22.6722 68.0483 22.6722C66.2634 22.6722 64.8276 22.1278 63.7411 21C62.6158 19.8722 62.0726 18.4333 62.0726 16.7222C62.0726 14.7778 62.6546 13.1833 63.7799 11.9389C64.9052 10.6944 66.4962 10.0722 68.5916 10.0722C69.1348 10.0722 69.678 10.15 70.1825 10.2667C70.7257 10.3833 71.1526 10.5778 71.463 10.7333V13.4556C71.0362 13.1444 70.5705 12.8722 70.1437 12.7167C69.678 12.5611 69.2124 12.4444 68.7468 12.4444C67.6215 12.4444 66.729 12.7944 66.0305 13.5333C65.3321 14.2722 65.0216 15.2444 65.0216 16.4889C65.0216 17.6944 65.3709 18.6667 66.0305 19.3278C66.6902 19.9889 67.5827 20.3389 68.708 20.3389ZM79.5341 10.15C79.7669 10.15 79.9609 10.15 80.1549 10.1889C80.349 10.2278 80.5042 10.2667 80.6206 10.3056V13.1833C80.4654 13.0667 80.2714 12.95 79.9609 12.8722C79.6505 12.7944 79.3401 12.7167 78.9132 12.7167C78.2148 12.7167 77.6327 13.0278 77.1671 13.6111C76.7014 14.1944 76.4298 15.0889 76.4298 16.3333V22.4H73.5972V10.3444H76.4298V12.25H76.4686C76.7402 11.5889 77.1283 11.0833 77.6327 10.6944C78.176 10.3444 78.7968 10.15 79.5341 10.15ZM80.7758 16.5667C80.7758 14.5833 81.3578 12.9889 82.4443 11.8222C83.5696 10.6556 85.1218 10.0722 87.1007 10.0722C88.9633 10.0722 90.4378 10.6167 91.4855 11.7444C92.5332 12.8722 93.0764 14.3889 93.0764 16.2944C93.0764 18.2389 92.4944 19.7944 91.4079 20.9611C90.2826 22.1278 88.7693 22.7111 86.8291 22.7111C84.9666 22.7111 83.492 22.1667 82.4055 21.0778C81.319 19.95 80.7758 18.4333 80.7758 16.5667ZM83.7248 16.45C83.7248 17.6944 83.9965 18.6667 84.5785 19.3278C85.1606 19.9889 85.9754 20.3389 87.0231 20.3389C88.032 20.3389 88.8469 20.0278 89.3901 19.3278C89.9334 18.6667 90.205 17.6944 90.205 16.3722C90.205 15.0889 89.9334 14.1167 89.3901 13.4167C88.8469 12.7556 88.032 12.4056 87.0619 12.4056C86.0142 12.4056 85.2382 12.7556 84.6561 13.4556C83.9965 14.1944 83.7248 15.1667 83.7248 16.45ZM97.306 13.5333C97.306 13.9222 97.4224 14.2722 97.694 14.5056C97.9657 14.7389 98.5089 15.0111 99.4014 15.3611C100.527 15.8278 101.342 16.3333 101.768 16.8778C102.234 17.4611 102.467 18.1222 102.467 18.9389C102.467 20.0667 102.04 20.9611 101.148 21.6611C100.294 22.3611 99.091 22.6722 97.6164 22.6722C97.112 22.6722 96.5687 22.5944 95.9479 22.4778C95.327 22.3611 94.8226 22.2056 94.3958 22.0111V19.2111C94.9002 19.5611 95.4823 19.8722 96.0643 20.0667C96.6464 20.2611 97.1896 20.3778 97.694 20.3778C98.3149 20.3778 98.8193 20.3 99.091 20.1056C99.4014 19.9111 99.5566 19.6389 99.5566 19.2111C99.5566 18.8222 99.4014 18.5111 99.091 18.2C98.7805 17.9278 98.1597 17.6167 97.306 17.2667C96.2583 16.8389 95.5211 16.3333 95.0942 15.7889C94.6674 15.2444 94.4346 14.5444 94.4346 13.6889C94.4346 12.6 94.8614 11.7056 95.7151 11.0056C96.5687 10.3056 97.694 9.95556 99.0522 9.95556C99.479 9.95556 99.9446 9.99445 100.449 10.1111C100.954 10.2278 101.419 10.3444 101.768 10.4611V13.2222C101.38 12.9889 100.954 12.7556 100.449 12.5611C99.9446 12.3667 99.4402 12.2889 98.9745 12.2889C98.4313 12.2889 98.0045 12.4056 97.7328 12.6C97.4612 12.8722 97.306 13.1444 97.306 13.5333ZM103.67 16.5667C103.67 14.5833 104.252 12.9889 105.338 11.8222C106.464 10.6556 108.016 10.0722 109.995 10.0722C111.857 10.0722 113.332 10.6167 114.379 11.7444C115.427 12.8722 115.97 14.3889 115.97 16.2944C115.97 18.2389 115.388 19.7944 114.302 20.9611C113.177 22.1278 111.663 22.7111 109.723 22.7111C107.861 22.7111 106.386 22.1667 105.299 21.0778C104.252 19.95 103.67 18.4333 103.67 16.5667ZM106.619 16.45C106.619 17.6944 106.89 18.6667 107.472 19.3278C108.055 19.9889 108.869 20.3389 109.917 20.3389C110.926 20.3389 111.741 20.0278 112.284 19.3278C112.827 18.6667 113.099 17.6944 113.099 16.3722C113.099 15.0889 112.827 14.1167 112.284 13.4167C111.741 12.7556 110.926 12.4056 109.956 12.4056C108.908 12.4056 108.132 12.7556 107.55 13.4556C106.929 14.1944 106.619 15.1667 106.619 16.45ZM125.4 12.6778H121.17V22.4H118.299V12.6778H116.281V10.3444H118.299V8.67223C118.299 7.42778 118.725 6.37778 119.54 5.56112C120.355 4.74445 121.403 4.35556 122.683 4.35556C123.033 4.35556 123.343 4.39445 123.615 4.39445C123.886 4.39445 124.119 4.47223 124.313 4.55V7C124.236 6.96112 124.041 6.88334 123.809 6.80556C123.576 6.72778 123.304 6.68889 122.994 6.68889C122.412 6.68889 121.946 6.88334 121.636 7.23334C121.325 7.58334 121.17 8.16667 121.17 8.86667V10.3056H125.4V7.58334L128.232 6.72778V10.3056H131.104V12.6389H128.232V18.2778C128.232 19.0167 128.387 19.5222 128.62 19.8333C128.892 20.1444 129.319 20.3 129.901 20.3C130.056 20.3 130.25 20.2611 130.483 20.1833C130.716 20.1056 130.91 20.0278 131.065 19.9111V22.2444C130.871 22.3611 130.599 22.4389 130.172 22.5167C129.746 22.5944 129.358 22.6333 128.931 22.6333C127.728 22.6333 126.835 22.3222 126.253 21.7C125.671 21.0778 125.361 20.1056 125.361 18.8222L125.4 12.6778Z" fill="white"/>
<path d="M13.3743 0H0.103516V13.3H13.3743V0Z" fill="white"/>
<path d="M28.0417 0H14.771V13.3H28.0417V0Z" fill="white"/>
<path d="M13.3743 14.7H0.103516V28H13.3743V14.7Z" fill="white"/>
<path d="M28.0417 14.7H14.771V28H28.0417V14.7Z" fill="white"/>
</g>
<defs>
<clipPath id="clip0_4_4823">
<rect width="131" height="28" fill="white" transform="translate(0.103516)"/>
</clipPath>
</defs>
</svg>
