<svg width="160" height="90" viewBox="0 0 160 90" fill="none" xmlns="http://www.w3.org/2000/svg">
<rect width="160" height="90" rx="16" fill="white"/>
<g clip-path="url(#clip0_198_25)">
<path d="M73.8141 45.3848C73.8141 49.549 70.5302 52.6174 66.5 52.6174C62.4699 52.6174 59.186 49.549 59.186 45.3848C59.186 41.1914 62.4699 38.1522 66.5 38.1522C70.5302 38.1522 73.8141 41.1914 73.8141 45.3848ZM70.6123 45.3848C70.6123 42.7827 68.709 41.0022 66.5 41.0022C64.2911 41.0022 62.3878 42.7827 62.3878 45.3848C62.3878 47.9609 64.2911 49.7674 66.5 49.7674C68.709 49.7674 70.6123 47.9577 70.6123 45.3848Z" fill="#EA4335"/>
<path d="M89.5924 45.3848C89.5924 49.549 86.3085 52.6174 82.2784 52.6174C78.2483 52.6174 74.9644 49.549 74.9644 45.3848C74.9644 41.1946 78.2483 38.1522 82.2784 38.1522C86.3085 38.1522 89.5924 41.1914 89.5924 45.3848ZM86.3906 45.3848C86.3906 42.7827 84.4874 41.0022 82.2784 41.0022C80.0694 41.0022 78.1661 42.7827 78.1661 45.3848C78.1661 47.9609 80.0694 49.7674 82.2784 49.7674C84.4874 49.7674 86.3906 47.9577 86.3906 45.3848Z" fill="#FBBC05"/>
<path d="M104.714 38.5892V51.574C104.714 56.9153 101.538 59.0968 97.7841 59.0968C94.2503 59.0968 92.1235 56.7522 91.3214 54.8348L94.109 53.6837C94.6054 54.8609 95.8216 56.25 97.7808 56.25C100.184 56.25 101.673 54.7794 101.673 52.0109V50.9707H101.561C100.844 51.8479 99.4638 52.6142 97.7216 52.6142C94.0761 52.6142 90.7363 49.4642 90.7363 45.4109C90.7363 41.3283 94.0761 38.1522 97.7216 38.1522C99.4606 38.1522 100.841 38.9185 101.561 39.7696H101.673V38.5924H104.714V38.5892ZM101.9 45.4109C101.9 42.8642 100.187 41.0022 98.0076 41.0022C95.7986 41.0022 93.9479 42.8642 93.9479 45.4109C93.9479 47.9316 95.7986 49.7674 98.0076 49.7674C100.187 49.7674 101.9 47.9316 101.9 45.4109Z" fill="#4285F4"/>
<path d="M109.726 30.9783V52.1739H106.604V30.9783H109.726Z" fill="#34A853"/>
<path d="M121.896 47.7652L124.381 49.4087C123.579 50.5859 121.646 52.6141 118.306 52.6141C114.165 52.6141 111.071 49.4381 111.071 45.3815C111.071 41.0804 114.191 38.1489 117.948 38.1489C121.732 38.1489 123.582 41.1359 124.187 42.75L124.519 43.5718L114.773 47.5761C115.519 49.0272 116.679 49.7674 118.306 49.7674C119.937 49.7674 121.068 48.9718 121.896 47.7652ZM114.247 45.1631L120.762 42.4794C120.404 41.5761 119.325 40.9468 118.057 40.9468C116.429 40.9468 114.165 42.3718 114.247 45.1631Z" fill="#EA4335"/>
<path d="M47.3655 43.5033V40.4348H57.7892C57.8911 40.9696 57.9437 41.6022 57.9437 42.287C57.9437 44.5892 57.3093 47.4359 55.2646 49.4642C53.2759 51.5185 50.7349 52.6142 47.3688 52.6142C41.1297 52.6142 35.8833 47.5729 35.8833 41.3838C35.8833 35.1946 41.1297 30.1533 47.3688 30.1533C50.8203 30.1533 53.2792 31.4968 55.1266 33.2479L52.9439 35.4131C51.6191 34.1805 49.8243 33.2218 47.3655 33.2218C42.8094 33.2218 39.2461 36.8642 39.2461 41.3838C39.2461 45.9033 42.8094 49.5457 47.3655 49.5457C50.3207 49.5457 52.0037 48.3685 53.0819 47.299C53.9563 46.4316 54.5316 45.1925 54.7584 43.5001L47.3655 43.5033Z" fill="#4285F4"/>
</g>
<defs>
<clipPath id="clip0_198_25">
<rect width="89.4118" height="30" fill="white" transform="translate(35.7646 30)"/>
</clipPath>
</defs>
</svg>
