<svg width="160" height="90" viewBox="0 0 160 90" fill="none" xmlns="http://www.w3.org/2000/svg">
<rect width="160" height="90" rx="16" fill="white"/>
<g clip-path="url(#clip0_198_177)">
<path d="M102.931 58.2208L110.78 49.5615L102.931 40.901H111.212L115.1 45.1077L118.843 40.901H126.836L119.024 49.5257L126.943 58.2208H118.627L114.775 53.9795L110.959 58.2208H102.931Z" fill="#FF6600"/>
<path d="M102.931 37.0185H94.0411V40.901H102.931V46.7522H94.0411V52.1229H102.931V58.2208H87.5073V30.9375H102.931V37.0185Z" fill="#FF6600"/>
<path d="M81.0012 30.9375V42.1031H80.9295C79.4891 40.4775 77.6894 39.9126 75.6013 39.9126C71.3238 39.9126 68.1017 42.7677 66.9707 46.5425C65.6808 42.3832 62.3544 39.8346 57.4218 39.8346C53.4161 39.8346 50.2529 41.6001 48.6022 44.4769V40.9014H40.3223V37.0193H49.358V30.9375H32.9414V58.2212H40.3223V46.7522H47.679C47.4597 47.5947 47.3426 48.4967 47.3426 49.4486C47.3426 55.1399 51.7707 59.1332 57.4218 59.1332C62.1739 59.1332 65.3056 56.9427 66.9621 52.9489H60.637C59.7813 54.1487 59.1323 54.505 57.4218 54.505C55.4384 54.505 53.7283 52.8059 53.7283 50.7917H66.6077C67.1663 55.3122 70.7526 59.2108 75.6741 59.2108C77.7971 59.2108 79.7408 58.1854 80.9295 56.4541H81.0012V58.2204H87.5075V30.9375H81.0012ZM53.9337 46.8337C54.3442 45.1008 55.713 43.9682 57.4218 43.9682C59.3029 43.9682 60.6022 45.0659 60.9439 46.8337C61.0879 46.8337 53.9337 46.8337 53.9337 46.8337ZM77.0527 54.0667C74.6543 54.0667 73.164 51.8725 73.164 49.5816C73.164 47.1327 74.4604 44.7778 77.0527 44.7778C79.7408 44.7778 80.8117 47.1327 80.8117 49.5816C80.8113 51.9039 79.6765 54.0667 77.0527 54.0667Z" fill="#652C8F"/>
</g>
<defs>
<clipPath id="clip0_198_177">
<rect width="94.1176" height="28.125" fill="white" transform="translate(32.9414 30.9375)"/>
</clipPath>
</defs>
</svg>
