<svg width="151" height="80" viewBox="0 0 151 80" fill="none" xmlns="http://www.w3.org/2000/svg">
<rect x="0.5" width="150" height="80" rx="10" fill="white"/>
<g clip-path="url(#clip0_13_1307)">
<path d="M39.127 24.0527C30.5225 24.0527 23.5469 31.1943 23.5469 40.0036C23.5469 48.8133 30.5225 55.9543 39.127 55.9543C47.7324 55.9543 54.7073 48.8133 54.7073 40.0036C54.7073 31.1948 47.7324 24.0535 39.1268 24.0535L39.127 24.0527ZM46.2719 47.0584C45.9928 47.527 45.3938 47.6756 44.9361 47.388C41.278 45.1004 36.673 44.5823 31.2498 45.8508C30.7272 45.9727 30.2062 45.6375 30.0872 45.1023C29.9675 44.567 30.2937 44.0337 30.8176 43.9118C36.7525 42.5236 41.8433 43.1213 45.95 45.6908C46.4077 45.9784 46.5528 46.5899 46.2719 47.0584ZM48.1789 42.7152C47.8272 43.3004 47.0793 43.4851 46.5082 43.1251C42.3203 40.4897 35.9365 39.7264 30.983 41.2659C30.3406 41.4645 29.662 41.0939 29.4671 40.4373C29.2736 39.7796 29.6358 39.0863 30.2771 38.8863C35.9353 37.1285 42.9696 37.98 47.7789 41.0057C48.35 41.3657 48.5305 42.1314 48.1789 42.7154V42.7152ZM48.3426 38.1925C43.3212 35.139 35.0366 34.8583 30.2423 36.348C29.4725 36.587 28.6583 36.1421 28.425 35.3539C28.1917 34.5653 28.6259 33.7324 29.3964 33.4927C34.8998 31.7823 44.0486 32.1127 49.8299 35.6264C50.5238 36.0472 50.7508 36.9628 50.3396 37.6708C49.9303 38.3798 49.0336 38.6135 48.3433 38.1925H48.3426ZM65.9352 38.7777C63.2449 38.1209 62.7668 37.66 62.7668 36.6914C62.7668 35.7764 63.6077 35.1605 64.8598 35.1605C66.0728 35.1605 67.2747 35.6282 68.5361 36.5908C68.5733 36.62 68.6217 36.6316 68.6682 36.624C68.7166 36.6167 68.7575 36.5903 68.7854 36.5504L70.0989 34.6548C70.1528 34.5767 70.138 34.4691 70.0654 34.4095C68.564 33.1765 66.8747 32.5771 64.8989 32.5771C61.9947 32.5771 59.9649 34.3617 59.9649 36.915C59.9649 39.6531 61.7156 40.6226 64.7407 41.371C67.3138 41.9781 67.7491 42.4866 67.7491 43.3956C67.7491 44.4032 66.871 45.0299 65.457 45.0299C63.8868 45.0299 62.6049 44.487 61.1724 43.2184C61.137 43.1861 61.0886 43.1727 61.044 43.1746C60.9956 43.1784 60.9528 43.2013 60.9231 43.2375L59.4496 45.0318C59.3882 45.108 59.3956 45.2184 59.4663 45.2832C61.1333 46.807 63.1835 47.6108 65.3975 47.6108C68.5268 47.6108 70.5491 45.8604 70.5491 43.1499C70.5547 40.8628 69.217 39.5962 65.9407 38.7802L65.9352 38.7777ZM77.6301 36.0615C76.2738 36.0615 75.1612 36.6085 74.2421 37.7295V36.4678C74.2421 36.3682 74.164 36.287 74.0673 36.287H71.658C71.5612 36.287 71.4831 36.3682 71.4831 36.4678V50.487C71.4831 50.5861 71.5612 50.668 71.658 50.668H74.0673C74.164 50.668 74.2421 50.5861 74.2421 50.487V46.0623C75.1612 47.1156 76.2738 47.6318 77.6301 47.6318C80.151 47.6318 82.7035 45.6451 82.7035 41.8472C82.7073 38.0485 80.1547 36.0613 77.6319 36.0613L77.6301 36.0615ZM79.9017 41.8472C79.9017 43.7803 78.7389 45.1308 77.0719 45.1308C75.4254 45.1308 74.1826 43.7194 74.1826 41.8472C74.1826 39.9748 75.4254 38.5638 77.0719 38.5638C78.711 38.5636 79.9017 39.9442 79.9017 41.847V41.8472ZM89.2431 36.0615C85.9966 36.0615 83.4533 38.6207 83.4533 41.8885C83.4533 45.1213 85.9798 47.6527 89.204 47.6527C92.4617 47.6527 95.0124 45.1023 95.0124 41.8472C95.0124 38.6032 92.4784 36.0619 89.2431 36.0619V36.0615ZM89.2431 45.1499C87.5166 45.1499 86.2142 43.7289 86.2142 41.8463C86.2142 39.955 87.4719 38.5826 89.204 38.5826C90.9417 38.5826 92.2514 40.003 92.2514 41.8876C92.2514 43.7784 90.9863 45.1499 89.2431 45.1499ZM101.944 36.287H99.2933V33.5125C99.2933 33.4131 99.2152 33.332 99.1184 33.332H96.7091C96.6124 33.332 96.5324 33.4131 96.5324 33.5125V36.287H95.3752C95.2784 36.287 95.2003 36.3682 95.2003 36.4678V38.5872C95.2003 38.6866 95.2784 38.768 95.3752 38.768H96.5324V44.2527C96.5324 46.468 97.6096 47.5918 99.7361 47.5918C100.599 47.5918 101.316 47.4089 101.991 47.0165C102.047 46.9861 102.08 46.9251 102.08 46.8603V44.8413C102.08 44.7803 102.049 44.7213 101.997 44.6889C101.944 44.6546 101.879 44.6527 101.825 44.6813C101.362 44.9194 100.914 45.0299 100.411 45.0299C99.6394 45.0299 99.2933 44.6699 99.2933 43.8661V38.7689H101.944C102.041 38.7689 102.119 38.6878 102.119 38.5882V36.4689C102.123 36.3693 102.045 36.2882 101.946 36.2882L101.944 36.287ZM111.18 36.2979V35.9571C111.18 34.9546 111.556 34.5076 112.397 34.5076C112.899 34.5076 113.303 34.6097 113.755 34.764C113.811 34.7819 113.868 34.7729 113.913 34.7388C113.959 34.7047 113.985 34.6501 113.985 34.5922V32.5141C113.985 32.4346 113.937 32.3644 113.861 32.3409C113.384 32.1956 112.774 32.0464 111.859 32.0464C109.636 32.0464 108.458 33.3291 108.458 35.7544V36.2764H107.301C107.204 36.2764 107.124 36.3575 107.124 36.4569V38.5872C107.124 38.6866 107.204 38.768 107.301 38.768H108.458V47.2261C108.458 47.327 108.538 47.407 108.635 47.407H111.042C111.141 47.407 111.219 47.327 111.219 47.2261V38.7685H113.468L116.914 47.2261C116.523 48.1137 116.138 48.2908 115.613 48.2908C115.189 48.2908 114.741 48.1613 114.285 47.9042C114.242 47.8813 114.19 47.8775 114.145 47.8908C114.099 47.908 114.06 47.9423 114.041 47.988L113.224 49.8223C113.185 49.9099 113.219 50.0108 113.301 50.0565C114.153 50.5289 114.921 50.7308 115.872 50.7308C117.651 50.7308 118.635 49.8813 119.5 47.5994L123.678 36.5447C123.701 36.4891 123.693 36.4263 123.66 36.3769C123.628 36.328 123.574 36.2984 123.517 36.2984H121.009C120.932 36.2984 120.865 36.3474 120.841 36.4196L118.272 43.9308L115.459 36.4146C115.433 36.3447 115.368 36.2984 115.295 36.2984H111.18V36.2979ZM105.825 36.287H103.416C103.319 36.287 103.239 36.3682 103.239 36.4678V47.2261C103.239 47.327 103.319 47.407 103.416 47.407H105.825C105.922 47.407 106.002 47.327 106.002 47.2261V36.4685C106.002 36.3689 105.924 36.2878 105.825 36.2878V36.287ZM104.635 31.3882C103.68 31.3882 102.906 32.179 102.906 33.156C102.906 34.1335 103.68 34.9253 104.635 34.9253C105.589 34.9253 106.361 34.1335 106.361 33.156C106.361 32.1792 105.587 31.3882 104.635 31.3882ZM125.736 39.7463C124.784 39.7463 124.041 38.9624 124.041 38.0106C124.041 37.0588 124.793 36.2661 125.745 36.2661C126.698 36.2661 127.44 37.0497 127.44 38.0007C127.44 38.9525 126.689 39.7463 125.736 39.7463ZM125.745 36.4386C124.877 36.4386 124.22 37.1453 124.22 38.0106C124.22 38.8756 124.873 39.5727 125.736 39.5727C126.605 39.5727 127.262 38.8666 127.262 38.0007C127.262 37.1358 126.609 36.4386 125.745 36.4386ZM126.121 38.1792L126.601 38.8664H126.196L125.764 38.236H125.394V38.8664H125.055V37.0447H125.848C126.263 37.0447 126.534 37.2613 126.534 37.6259C126.536 37.9245 126.367 38.107 126.123 38.1792H126.121ZM125.835 37.3573H125.394V37.9335H125.835C126.054 37.9335 126.186 37.8232 126.186 37.6451C126.186 37.4577 126.054 37.3573 125.835 37.3573Z" fill="#1ED760"/>
</g>
<defs>
<clipPath id="clip0_13_1307">
<rect width="104" height="32" fill="white" transform="translate(23.5 24)"/>
</clipPath>
</defs>
</svg>
