<svg width="80" height="22" viewBox="0 0 80 22" fill="none" xmlns="http://www.w3.org/2000/svg">
<g clip-path="url(#clip0_4_4814)">
<path d="M10.9662 20.1464C9.77785 20.3517 8.56855 20.4132 7.31759 20.5771L3.50198 9.58501V21.0489C2.31359 21.1719 1.22942 21.3359 0.103516 21.5V0.5H3.27277L7.60944 12.4152V0.5H10.9662V20.1464ZM17.534 8.19043C18.8267 8.19043 20.8075 8.12889 21.9959 8.12889V11.4101C20.5154 11.4101 18.785 11.4101 17.534 11.4716V16.3526C19.4939 16.2295 21.4538 16.0653 23.4344 16.0038V19.1618L14.1979 19.8797V0.5H23.4344V3.78125H17.534V8.19043ZM35.8401 3.78133H32.379V18.8751C31.2531 18.8751 30.1272 18.8751 29.0432 18.916V3.78133H25.5822V0.5H35.8402L35.8401 3.78133ZM41.261 7.96491H45.8272V11.2461H41.261V18.6905H37.9873V0.5H47.3075V3.78125H41.261V7.96491ZM52.7284 15.8193C54.6258 15.8602 56.5438 16.004 58.3996 16.1064V19.3467C55.4181 19.162 52.4365 18.9776 49.3925 18.916V0.5H52.7284V15.8193ZM61.2143 19.5723C62.2776 19.6339 63.4035 19.6954 64.4877 19.8183V0.5H61.2143V19.5723ZM79.1035 0.5L74.8709 10.4873L79.1035 21.5C77.8524 21.3359 76.6014 21.1103 75.3504 20.9052L72.9528 14.835L70.5136 20.4132C69.304 20.2079 68.1365 20.1464 66.9274 19.9823L71.2224 10.3642L67.3442 0.5H70.9303L73.1195 6.01661L75.4548 0.5H79.1035V0.5Z" fill="white"/>
</g>
<defs>
<clipPath id="clip0_4_4814">
<rect width="79" height="21" fill="white" transform="translate(0.103516 0.5)"/>
</clipPath>
</defs>
</svg>
