<svg width="151" height="80" viewBox="0 0 151 80" fill="none" xmlns="http://www.w3.org/2000/svg">
<rect x="0.5" width="150" height="80" rx="10" fill="white"/>
<g clip-path="url(#clip0_13_1315)">
<path d="M69.3348 40.3591C69.3348 44.2457 66.2934 47.1096 62.561 47.1096C58.8285 47.1096 55.7871 44.2457 55.7871 40.3591C55.7871 36.4452 58.8285 33.6087 62.561 33.6087C66.2934 33.6087 69.3348 36.4452 69.3348 40.3591ZM66.3696 40.3591C66.3696 37.9304 64.6068 36.2687 62.561 36.2687C60.5151 36.2687 58.7524 37.9304 58.7524 40.3591C58.7524 42.7635 60.5151 44.4496 62.561 44.4496C64.6068 44.4496 66.3696 42.7604 66.3696 40.3591Z" fill="#EA4335"/>
<path d="M83.9481 40.3591C83.9481 44.2457 80.9067 47.1096 77.1742 47.1096C73.4418 47.1096 70.4004 44.2457 70.4004 40.3591C70.4004 36.4483 73.4418 33.6087 77.1742 33.6087C80.9067 33.6087 83.9481 36.4452 83.9481 40.3591ZM80.9828 40.3591C80.9828 37.9304 79.2201 36.2687 77.1742 36.2687C75.1284 36.2687 73.3657 37.9304 73.3657 40.3591C73.3657 42.7635 75.1284 44.4496 77.1742 44.4496C79.2201 44.4496 80.9828 42.7604 80.9828 40.3591Z" fill="#FBBC05"/>
<path d="M97.9527 34.0165V46.1357C97.9527 51.1209 95.0118 53.157 91.5351 53.157C88.2623 53.157 86.2926 50.9687 85.5497 49.1791L88.1314 48.1048C88.5911 49.2035 89.7176 50.5 91.532 50.5C93.7575 50.5 95.1366 49.1274 95.1366 46.5435V45.5726H95.0331C94.3694 46.3913 93.0908 47.1065 91.4772 47.1065C88.101 47.1065 85.0078 44.1665 85.0078 40.3835C85.0078 36.5731 88.101 33.6087 91.4772 33.6087C93.0877 33.6087 94.3664 34.3239 95.0331 35.1183H95.1366V34.0196H97.9527V34.0165ZM95.3467 40.3835C95.3467 38.0065 93.7606 36.2687 91.7421 36.2687C89.6962 36.2687 87.9822 38.0065 87.9822 40.3835C87.9822 42.7361 89.6962 44.4496 91.7421 44.4496C93.7606 44.4496 95.3467 42.7361 95.3467 40.3835Z" fill="#4285F4"/>
<path d="M102.595 26.913V46.6956H99.7031V26.913H102.595Z" fill="#34A853"/>
<path d="M113.866 42.5809L116.167 44.1148C115.424 45.2135 113.634 47.1065 110.541 47.1065C106.705 47.1065 103.84 44.1422 103.84 40.3561C103.84 36.3417 106.729 33.6057 110.209 33.6057C113.713 33.6057 115.427 36.3935 115.988 37.9L116.295 38.667L107.268 42.4043C107.959 43.7587 109.034 44.4496 110.541 44.4496C112.051 44.4496 113.098 43.707 113.866 42.5809ZM106.781 40.1522L112.815 37.6474C112.483 36.8043 111.485 36.217 110.31 36.217C108.803 36.217 106.705 37.547 106.781 40.1522Z" fill="#EA4335"/>
<path d="M44.8393 38.6031V35.7392H54.4932C54.5875 36.2383 54.6363 36.8287 54.6363 37.4678C54.6363 39.6165 54.0487 42.2735 52.155 44.1665C50.3132 46.0839 47.9598 47.1065 44.8423 47.1065C39.064 47.1065 34.2051 42.4013 34.2051 36.6248C34.2051 30.8483 39.064 26.1431 44.8423 26.1431C48.039 26.1431 50.3162 27.397 52.0272 29.0313L50.0057 31.0522C48.7788 29.9018 47.1165 29.007 44.8393 29.007C40.6197 29.007 37.3195 32.4065 37.3195 36.6248C37.3195 40.8431 40.6197 44.2426 44.8393 44.2426C47.5762 44.2426 49.135 43.1439 50.1335 42.1457C50.9434 41.3361 51.4761 40.1796 51.6862 38.6L44.8393 38.6031Z" fill="#4285F4"/>
</g>
<defs>
<clipPath id="clip0_13_1315">
<rect width="82.8085" height="28" fill="white" transform="translate(34.0957 26)"/>
</clipPath>
</defs>
</svg>
