<svg width="80" height="80" viewBox="0 0 80 80" fill="none" xmlns="http://www.w3.org/2000/svg">
<rect width="80" height="80" rx="40" fill="#FF5A5F"/>
<path d="M60.4064 49.482C60.1802 48.9414 59.9539 48.3559 59.7277 47.8604C59.3657 47.0495 59.0037 46.2838 58.6869 45.5631L58.6417 45.518C55.5195 38.7613 52.1711 31.9144 48.6417 25.1577L48.506 24.8874C48.144 24.2117 47.782 23.491 47.42 22.7703C46.9675 21.9595 46.515 21.1036 45.791 20.2928C44.3431 18.491 42.2616 17.5 40.0445 17.5C37.782 17.5 35.7458 18.491 34.2526 20.2027C33.5739 21.0135 33.0761 21.8694 32.6237 22.6802C32.2617 23.4009 31.8997 24.1216 31.5377 24.7973L31.4019 25.0676C27.9178 31.8243 24.5241 38.6712 21.402 45.4279L21.3567 45.518C21.04 46.2387 20.678 47.0045 20.316 47.8153C20.0897 48.3108 19.8635 48.8514 19.6373 49.4369C19.049 51.1036 18.868 52.6802 19.0943 54.3018C19.592 57.6802 21.8544 60.518 24.9766 61.7793C26.1531 62.2748 27.3748 62.5 28.6418 62.5C29.0037 62.5 29.4562 62.455 29.8182 62.4099C31.3114 62.2297 32.8499 61.7342 34.3431 60.8784C36.1983 59.8423 37.963 58.3559 39.954 56.1937C41.9449 58.3559 43.7549 59.8423 45.5648 60.8784C47.058 61.7342 48.5965 62.2297 50.0897 62.4099C50.4517 62.455 50.9042 62.5 51.2661 62.5C52.5331 62.5 53.8001 62.2748 54.9313 61.7793C58.0987 60.518 60.3159 57.6351 60.8136 54.3018C61.1756 52.7252 60.9946 51.1486 60.4064 49.482ZM39.9992 51.8243C37.5558 48.7613 35.9721 45.8784 35.4291 43.4459C35.2028 42.4099 35.1576 41.509 35.2933 40.6982C35.3838 39.9775 35.6553 39.3468 36.0173 38.8063C36.877 37.5901 38.325 36.8243 39.9992 36.8243C41.6734 36.8243 43.1666 37.545 43.9811 38.8063C44.3431 39.3468 44.6146 39.9775 44.7051 40.6982C44.8408 41.509 44.7956 42.455 44.5693 43.4459C44.0263 45.8333 42.4426 48.7162 39.9992 51.8243ZM58.0535 53.9414C57.7367 56.2838 56.153 58.3108 53.9358 59.2117C52.8498 59.6622 51.6734 59.7973 50.4969 59.6622C49.3657 59.527 48.2345 59.1667 47.058 58.491C45.4291 57.5901 43.8001 56.1937 41.8997 54.1216C44.8861 50.473 46.696 47.1396 47.3748 44.1667C47.6915 42.7703 47.7367 41.509 47.601 40.3378C47.42 39.2117 47.0128 38.1757 46.3793 37.2748C44.9766 35.2477 42.6236 34.0766 39.9992 34.0766C37.3748 34.0766 35.0218 35.2928 33.6191 37.2748C32.9856 38.1757 32.5784 39.2117 32.3974 40.3378C32.2164 41.509 32.2617 42.8153 32.6237 44.1667C33.3024 47.1396 35.1576 50.518 38.0988 54.1667C36.2436 56.2387 34.5693 57.6351 32.9404 58.536C31.7639 59.2117 30.6327 59.5721 29.5015 59.7072C28.2798 59.8423 27.1033 59.6622 26.0626 59.2568C23.8454 58.3559 22.2617 56.3288 21.9449 53.9865C21.8092 52.8604 21.8997 51.7342 22.3522 50.473C22.4879 50.0225 22.7142 49.5721 22.9404 49.0315C23.2572 48.3108 23.6191 47.545 23.9811 46.7793L24.0264 46.6892C27.1486 39.9775 30.497 33.1306 33.9811 26.464L34.1169 26.1937C34.4789 25.518 34.8408 24.7973 35.2028 24.1216C35.5648 23.4009 35.9721 22.7252 36.4698 22.1396C37.42 21.0586 38.687 20.473 40.0897 20.473C41.4924 20.473 42.7594 21.0586 43.7096 22.1396C44.2073 22.7252 44.6146 23.4009 44.9766 24.1216C45.3386 24.7973 45.7006 25.518 46.0625 26.1937L46.1983 26.464C49.6372 33.1757 52.9856 40.0225 56.1078 46.7342V46.7793C56.4698 47.5 56.7865 48.3108 57.1485 49.0315C57.3747 49.5721 57.601 50.0225 57.7367 50.473C58.0987 51.6441 58.2345 52.7703 58.0535 53.9414Z" fill="white"/>
</svg>
