<svg width="80" height="80" viewBox="0 0 80 80" fill="none" xmlns="http://www.w3.org/2000/svg">
<rect width="80" height="80" rx="40" fill="#1ED760"/>
<path d="M39.9987 15.0825C26.2341 15.0825 15.0752 26.2411 15.0752 40.0057C15.0752 53.7708 26.2341 64.9286 39.9987 64.9286C53.7648 64.9286 64.9225 53.7708 64.9225 40.0057C64.9225 26.242 53.7648 15.0836 39.9984 15.0836L39.9987 15.0825ZM51.4285 51.0289C50.982 51.761 50.0237 51.9932 49.2916 51.5438C43.4398 47.9694 36.0731 47.1598 27.3975 49.142C26.5615 49.3325 25.7282 48.8086 25.5377 47.9723C25.3463 47.136 25.8681 46.3027 26.7061 46.1122C36.2002 43.9423 44.3439 44.8771 50.9136 48.892C51.6457 49.3414 51.8779 50.2967 51.4285 51.0289ZM54.4791 44.2417C53.9166 45.1569 52.7201 45.4455 51.8064 44.883C45.107 40.7643 34.8948 39.5717 26.9707 41.9771C25.9431 42.2875 24.8576 41.7083 24.5457 40.6825C24.2362 39.6548 24.8157 38.5714 25.8416 38.2589C34.8931 35.5125 46.1457 36.8429 53.8392 41.5705C54.7529 42.133 55.0416 43.3295 54.4791 44.242V44.2417ZM54.741 37.175C46.7082 32.4039 33.4553 31.9652 25.7859 34.2929C24.5544 34.6664 23.252 33.9711 22.8788 32.7396C22.5056 31.5075 23.2002 30.206 24.4326 29.8316C33.2365 27.1589 47.8719 27.6753 57.1201 33.1655C58.2303 33.8229 58.5934 35.2536 57.9356 36.3598C57.2809 37.4676 55.8463 37.8328 54.7422 37.175H54.741Z" fill="white"/>
</svg>
