<svg width="151" height="80" viewBox="0 0 151 80" fill="none" xmlns="http://www.w3.org/2000/svg">
<rect x="0.5" width="150" height="80" rx="10" fill="white"/>
<g clip-path="url(#clip0_13_1336)">
<path d="M31.724 33.1341L25.112 37.2682L31.724 41.4022L25.112 45.5363L18.5 41.3799L25.112 37.2458L18.5 33.1341L25.112 29L31.724 33.1341ZM25.0778 46.8659L31.6898 42.7318L38.3018 46.8659L31.6898 51L25.0778 46.8659ZM31.724 41.3799L38.336 37.2458L31.724 33.1341L38.3018 29L44.9138 33.1341L38.3018 37.2682L44.9138 41.4022L38.3018 45.5363L31.724 41.3799Z" fill="#0061FF"/>
<path d="M50.1006 33.1341H55.4472C58.8558 33.1341 61.6716 35.0671 61.6716 39.4805V40.4078C61.6716 44.8548 59.0382 46.8548 55.5498 46.8548H50.1006V33.1341ZM53.0874 35.6257V44.352H55.3788C57.3168 44.352 58.6164 43.1117 58.6164 40.352V39.6257C58.6164 36.8659 57.2484 35.6257 55.2762 35.6257H53.0874ZM63.2562 35.7598H65.6502L66.0378 38.3408C66.4938 36.5866 67.6566 35.6481 69.7656 35.6481H70.5066V38.609H69.2754C66.8472 38.609 66.2544 39.4358 66.2544 41.7821V46.8883H63.3018V35.7598H63.2562ZM71.0994 41.5475V41.2347C71.0994 37.514 73.5276 35.4805 76.8336 35.4805C80.208 35.4805 82.5678 37.514 82.5678 41.2347V41.5475C82.5678 45.2011 80.2764 47.1676 76.8336 47.1676C73.1742 47.1341 71.0994 45.2123 71.0994 41.5475ZM79.5468 41.514V41.2347C79.5468 39.1676 78.4866 37.9274 76.7994 37.9274C75.1464 37.9274 74.052 39.0671 74.052 41.2347V41.514C74.052 43.514 75.1122 44.6536 76.7994 44.6536C78.4866 44.6201 79.5468 43.514 79.5468 41.514ZM84.1182 35.7598H86.5806L86.8656 37.8604C87.4584 36.4525 88.7238 35.4805 90.5934 35.4805C93.4776 35.4805 95.3814 37.514 95.3814 41.2793V41.5922C95.3814 45.2458 93.2724 47.1788 90.5934 47.1788C88.8036 47.1788 87.5724 46.3855 86.9682 45.1117V50.7319H84.084L84.1182 35.7598ZM92.3832 41.514V41.2682C92.3832 39.0559 91.2204 37.9609 89.67 37.9609C88.017 37.9609 86.9226 39.2011 86.9226 41.2682V41.4805C86.9226 43.4469 87.9828 44.6872 89.6358 44.6872C91.3344 44.6536 92.3832 43.5922 92.3832 41.514ZM99.7476 44.8324L99.4968 46.8659H96.966V32.0391H99.8502V37.7263C100.489 36.2738 101.754 35.4805 103.544 35.4805C106.257 35.514 108.263 37.3464 108.263 41.0335V41.3799C108.263 45.0671 106.36 47.1788 103.475 47.1788C101.572 47.1341 100.34 46.2738 99.7476 44.8324ZM105.231 41.3799V41.1006C105.231 39.0671 104.102 37.9274 102.518 37.9274C100.899 37.9274 99.7704 39.2011 99.7704 41.1341V41.3799C99.7704 43.4469 100.865 44.6536 102.484 44.6536C104.216 44.6536 105.231 43.5922 105.231 41.3799ZM109.529 41.5475V41.2347C109.529 37.514 111.957 35.4805 115.263 35.4805C118.637 35.4805 120.997 37.514 120.997 41.2347V41.5475C120.997 45.2011 118.672 47.1676 115.263 47.1676C111.604 47.1341 109.529 45.2123 109.529 41.5475ZM117.999 41.514V41.2347C117.999 39.1676 116.939 37.9274 115.252 37.9274C113.599 37.9274 112.504 39.0671 112.504 41.2347V41.514C112.504 43.514 113.564 44.6536 115.252 44.6536C116.95 44.6201 117.999 43.514 117.999 41.514ZM124.862 41.1006L120.883 35.7598H124.292L126.583 39.1006L128.909 35.7598H132.283L128.248 41.0671L132.5 46.8659H129.16L126.56 43.1788L124.03 46.8659H120.541L124.862 41.1006Z" fill="black"/>
</g>
<defs>
<clipPath id="clip0_13_1336">
<rect width="114" height="22" fill="white" transform="translate(18.5 29)"/>
</clipPath>
</defs>
</svg>
