<svg width="160" height="90" viewBox="0 0 160 90" fill="none" xmlns="http://www.w3.org/2000/svg">
<rect width="160" height="90" rx="16" fill="white"/>
<g clip-path="url(#clip0_198_429)">
<path d="M105.472 58.725C112.981 58.725 119.091 52.5405 119.091 44.94C119.091 37.335 112.981 31.155 105.472 31.155C97.9614 31.155 91.853 37.335 91.853 44.94C91.853 52.5405 97.9614 58.725 105.472 58.725ZM105.472 40.0245C108.148 40.0245 110.327 42.2295 110.327 44.9385C110.327 47.6475 108.147 49.8495 105.47 49.8495C102.793 49.8495 100.617 47.6475 100.617 44.937C100.617 42.225 102.794 40.0215 105.47 40.0215L105.472 40.0245ZM54.0897 58.725C61.5988 58.725 67.7087 52.5405 67.7087 44.94C67.7087 37.335 61.5988 31.155 54.0897 31.155C46.5821 31.155 40.4707 37.335 40.4707 44.94C40.4707 52.5405 46.5821 58.725 54.0897 58.725ZM54.0897 40.0245C56.7673 40.0245 58.9451 42.2295 58.9451 44.9385C58.9451 47.6475 56.7673 49.8495 54.0897 49.8495C51.4136 49.8495 49.2373 47.6475 49.2373 44.937C49.2373 42.225 51.4151 40.0215 54.0897 40.0215V40.0245ZM79.7734 39.714L75.5922 31.335H65.8023L74.9463 49.665V58.2945H84.6019V49.665L93.7459 31.335H83.9516L79.7749 39.714H79.7734Z" fill="#EE2E24"/>
</g>
<defs>
<clipPath id="clip0_198_429">
<rect width="79.0588" height="30" fill="white" transform="translate(40.4707 30)"/>
</clipPath>
</defs>
</svg>
