<svg width="160" height="90" viewBox="0 0 160 90" fill="none" xmlns="http://www.w3.org/2000/svg">
<rect width="160" height="90" rx="16" fill="white"/>
<g clip-path="url(#clip0_198_6)">
<path d="M59.7895 51.2616C59.6374 50.896 59.4948 50.5116 59.3428 50.1835L58.6395 48.6178L58.611 48.5897C56.5201 44.0897 54.2866 39.5147 51.9201 35.0147L51.8251 34.8272C51.5875 34.3866 51.3499 33.8991 51.1028 33.4491C50.7987 32.9147 50.504 32.3428 50.0193 31.7991C49.5469 31.2302 48.9522 30.7718 48.2784 30.457C47.6045 30.1423 46.8682 29.979 46.1227 29.979C45.3771 29.979 44.6408 30.1423 43.9669 30.457C43.2931 30.7718 42.6985 31.2302 42.226 31.7991C41.7793 32.3428 41.4467 32.9147 41.1425 33.4491C40.9049 33.9366 40.6673 34.4147 40.4202 34.8553L40.3252 35.0428C37.9967 39.5428 35.7252 44.1178 33.6344 48.6178L33.5773 48.6741C33.3682 49.1616 33.1211 49.6678 32.8835 50.2116C32.7315 50.5397 32.5794 50.896 32.4273 51.2897C32.0168 52.3208 31.8857 53.4396 32.047 54.5358C32.2082 55.632 32.6563 56.6679 33.347 57.5414C34.0377 58.4148 34.9472 59.0956 35.9859 59.5167C37.0245 59.9378 38.1565 60.0847 39.2703 59.9428C40.338 59.8042 41.3662 59.4534 42.2925 58.9116C43.5281 58.2272 44.7161 57.2335 46.0466 55.7991C47.3772 57.2335 48.5937 58.2272 49.8007 58.921C50.9615 59.593 52.2759 59.9639 53.6214 59.9991C55.1794 60.0055 56.6872 59.4556 57.8663 58.451C59.0454 57.4464 59.8163 56.0549 60.0366 54.5335C60.2911 53.4401 60.205 52.2965 59.7895 51.2522V51.2616ZM46.1417 52.8178C44.507 50.7553 43.4425 48.8616 43.0814 47.2397C42.9317 46.6387 42.8995 46.0151 42.9863 45.4022C43.0529 44.9241 43.2334 44.5022 43.4805 44.146C44.0508 43.3303 45.0487 42.8241 46.1417 42.8241C46.6607 42.8085 47.1756 42.9202 47.6401 43.1493C48.1045 43.3783 48.5041 43.7176 48.8028 44.1366C49.0499 44.5116 49.2305 44.9241 49.2875 45.4022C49.3825 45.946 49.3445 46.5741 49.1925 47.2397C48.8313 48.8335 47.7669 50.746 46.1417 52.8178ZM58.2498 54.2053C58.1418 54.9778 57.8305 55.7088 57.347 56.3257C56.8634 56.9425 56.2244 57.4236 55.4936 57.721C54.7713 58.021 53.973 58.1053 53.1937 58.021C52.4333 57.9272 51.673 57.6835 50.8937 57.2335C49.5997 56.4446 48.4362 55.4644 47.4437 54.3272C49.4396 51.8897 50.6466 49.6678 51.1028 47.6897C51.3214 46.7522 51.3499 45.9085 51.2548 45.1303C51.1362 44.3928 50.8574 43.6893 50.4375 43.0678C49.9581 42.394 49.3182 41.8467 48.5742 41.474C47.8301 41.1013 47.0046 40.9146 46.1702 40.9303C44.4119 40.9303 42.8438 41.7366 41.8934 43.0585C41.4655 43.6783 41.189 44.3875 41.0855 45.1303C40.962 45.9178 40.9905 46.7897 41.2376 47.6897C41.6938 49.6678 42.9293 51.9178 44.8966 54.346C43.921 55.5049 42.7548 56.4937 41.4467 57.271C40.6578 57.721 39.907 57.9553 39.1467 58.0491C37.9643 58.1985 36.7699 57.8815 35.8231 57.167C34.8763 56.4525 34.2537 55.3983 34.0906 54.2335C33.9955 53.4835 34.062 52.7335 34.3662 51.8897C34.4612 51.5897 34.6038 51.2897 34.7558 50.9335C34.9649 50.446 35.212 49.9397 35.4496 49.4335L35.4876 49.3678C37.5405 44.896 39.7835 40.3303 42.112 35.8585L42.207 35.671C42.4446 35.221 42.6822 34.7428 42.9293 34.2928C43.1764 33.8147 43.4425 33.3553 43.7847 32.9803C44.0808 32.6316 44.4509 32.3512 44.8688 32.1587C45.2867 31.9663 45.7423 31.8666 46.2034 31.8666C46.6646 31.8666 47.1202 31.9663 47.5381 32.1587C47.956 32.3512 48.3261 32.6316 48.6222 32.9803C48.9549 33.3553 49.2305 33.8147 49.4776 34.2928C49.7152 34.7428 49.9528 35.2303 50.1999 35.671L50.2949 35.8585C52.6139 40.3303 54.8569 44.896 56.9478 49.3678L56.9763 49.396C57.2234 49.8835 57.4325 50.4272 57.6701 50.896C57.8221 51.2616 57.9742 51.5522 58.0692 51.8616C58.2498 52.7053 58.3449 53.4553 58.2498 54.2053ZM71.4794 52.6116C70.7633 52.6219 70.0539 52.4731 69.404 52.1761C68.7542 51.8791 68.1804 51.4416 67.7253 50.896C66.7028 49.7334 66.1601 48.2345 66.2047 46.696C66.189 45.124 66.7493 43.5993 67.7824 42.4022C68.2602 41.8497 68.8551 41.4072 69.525 41.1059C70.195 40.8046 70.9238 40.6519 71.66 40.6585C72.3528 40.6398 73.039 40.7952 73.6542 41.11C74.2693 41.4249 74.7932 41.8889 75.1765 42.4585L75.2715 40.9866H78.0467V52.3116H75.262L75.167 50.6616C74.7718 51.2697 74.2256 51.7681 73.5802 52.1094C72.9348 52.4507 72.2116 52.6235 71.4794 52.6116ZM72.2017 49.9116C72.753 49.9116 73.2377 49.7616 73.6939 49.4897C74.1121 49.1897 74.4542 48.796 74.7203 48.3178C74.9579 47.8397 75.0815 47.2678 75.0815 46.6303C75.1185 46.0767 75.0093 45.523 74.7644 45.0234C74.5195 44.5238 74.1474 44.0955 73.6844 43.7803C73.2395 43.5069 72.7259 43.362 72.2017 43.362C71.6776 43.362 71.164 43.5069 70.7191 43.7803C70.3009 44.0803 69.9588 44.4741 69.6927 44.9522C69.4413 45.4795 69.3177 46.0572 69.3315 46.6397C69.2945 47.1934 69.4037 47.7471 69.6486 48.2467C69.8935 48.7462 70.2656 49.1745 70.7286 49.4897C71.1753 49.7616 71.66 49.9116 72.2017 49.9116ZM82.7987 37.9303C82.7987 38.2585 82.7417 38.5585 82.5897 38.8022C82.4376 39.0366 82.2285 39.2522 81.9529 39.4022C81.6773 39.5522 81.3826 39.6085 81.0785 39.6085C80.7744 39.6085 80.4703 39.5522 80.1946 39.4022C79.934 39.2591 79.7148 39.0525 79.5579 38.8022C79.4107 38.5352 79.3385 38.2342 79.3488 37.9303C79.3488 37.5928 79.4153 37.2928 79.5579 37.0585C79.7099 36.7772 79.9285 36.6085 80.1946 36.4585C80.4703 36.3085 80.7649 36.2428 81.0785 36.2428C81.381 36.236 81.6802 36.3066 81.9467 36.448C82.2133 36.5893 82.4381 36.7964 82.5992 37.0491C82.7375 37.3224 82.806 37.6249 82.7987 37.9303ZM79.5674 52.2741V40.9678H82.5897V52.2928H79.5579L79.5674 52.2741ZM90.6681 43.9303V43.9678C90.5255 43.9022 90.3354 43.8741 90.1929 43.846C90.0028 43.8085 89.8507 43.8085 89.6702 43.8085C88.8243 43.8085 88.1875 44.0522 87.7694 44.5585C87.3132 45.0741 87.1041 45.796 87.1041 46.7241V52.2835H84.0723V40.9585H86.857L86.952 42.6741C87.2561 42.0741 87.6173 41.6241 88.1305 41.2866C88.641 40.9587 89.242 40.7949 89.8507 40.8178C90.0693 40.8178 90.2784 40.8366 90.459 40.8741C90.554 40.9022 90.6111 40.9022 90.6681 40.9303V43.9303ZM91.8846 52.2741V36.3178H94.9069V42.4116C95.3346 41.8678 95.8193 41.446 96.4275 41.1178C97.3905 40.6521 98.4844 40.52 99.5328 40.7428C100.581 40.9657 101.523 41.5304 102.206 42.346C103.231 43.5109 103.774 45.0136 103.727 46.5553C103.742 48.1273 103.182 49.6521 102.149 50.8491C101.671 51.4016 101.076 51.8441 100.406 52.1454C99.7363 52.4467 99.0076 52.5994 98.2713 52.5928C97.5785 52.6115 96.8923 52.4562 96.2772 52.1413C95.662 51.8264 95.1382 51.3624 94.7548 50.7928L94.6598 52.2647L91.8846 52.2928V52.2741ZM97.7296 49.9116C98.2713 49.9116 98.756 49.7616 99.2122 49.4897C99.6304 49.1897 99.9725 48.796 100.239 48.3178C100.486 47.8397 100.6 47.2678 100.6 46.6303C100.6 46.0022 100.486 45.4303 100.239 44.9522C99.9891 44.4912 99.6384 44.0909 99.2122 43.7803C98.7674 43.5069 98.2537 43.362 97.7296 43.362C97.2055 43.362 96.6918 43.5069 96.247 43.7803C95.8193 44.0803 95.4866 44.4741 95.211 44.9522C94.9597 45.4795 94.836 46.0572 94.8499 46.6397C94.8128 47.1934 94.9221 47.7471 95.167 48.2467C95.4119 48.7462 95.784 49.1745 96.247 49.4897C96.6936 49.7616 97.1784 49.9116 97.7296 49.9116ZM104.867 52.2835V40.9585H107.652L107.747 42.4303C108.097 41.8661 108.593 41.4044 109.185 41.0929C109.776 40.7814 110.441 40.6314 111.111 40.6585C111.877 40.6454 112.63 40.8555 113.276 41.2623C113.922 41.6692 114.432 42.2548 114.742 42.946C115.074 43.6585 115.255 44.5397 115.255 45.5241V52.3116H112.223V45.9178C112.223 45.1303 112.043 44.5116 111.682 44.0522C111.32 43.6022 110.826 43.3585 110.199 43.3585C109.743 43.3585 109.344 43.4522 108.992 43.6585C108.659 43.8741 108.384 44.146 108.175 44.5303C107.963 44.9189 107.858 45.3552 107.87 45.796V52.2835H104.867ZM116.766 52.2835V36.3085H119.798V42.4022C120.209 41.8554 120.743 41.4106 121.358 41.103C121.974 40.7955 122.653 40.6336 123.343 40.6303C124.059 40.62 124.768 40.7689 125.418 41.0659C126.068 41.3629 126.642 41.8004 127.097 42.346C128.115 43.5108 128.654 45.009 128.608 46.546C128.625 48.1181 128.064 49.6431 127.031 50.8397C126.553 51.3923 125.958 51.8348 125.288 52.136C124.618 52.4373 123.889 52.59 123.153 52.5835C122.46 52.6022 121.774 52.4468 121.159 52.1319C120.544 51.817 120.02 51.353 119.636 50.7835L119.551 52.2553L116.766 52.2835ZM122.64 49.9116C123.191 49.9116 123.676 49.7616 124.122 49.4897C124.55 49.1897 124.883 48.796 125.158 48.3178C125.396 47.8397 125.519 47.2678 125.519 46.6303C125.556 46.0767 125.447 45.523 125.202 45.0234C124.957 44.5238 124.585 44.0955 124.122 43.7803C123.677 43.5069 123.164 43.362 122.64 43.362C122.116 43.362 121.602 43.5069 121.157 43.7803C120.739 44.0803 120.397 44.4741 120.131 44.9522C119.865 45.4748 119.741 46.056 119.769 46.6397C119.732 47.1934 119.842 47.7471 120.087 48.2467C120.331 48.7462 120.704 49.1745 121.167 49.4897C121.613 49.7616 122.069 49.9116 122.64 49.9116Z" fill="#FF385C"/>
</g>
<defs>
<clipPath id="clip0_198_6">
<rect width="96.9412" height="30" fill="white" transform="translate(32 30)"/>
</clipPath>
</defs>
</svg>
