<svg width="160" height="90" viewBox="0 0 160 90" fill="none" xmlns="http://www.w3.org/2000/svg">
<rect width="160" height="90" rx="16" fill="white"/>
<g clip-path="url(#clip0_198_140)">
<path d="M63.722 41.2118V42.6994H63.7679C64.3073 41.903 65.2029 40.9649 67.1881 40.9649C68.7324 40.9649 69.9172 41.745 70.4249 42.9232H70.4708C70.9045 42.3275 71.4016 41.8766 71.9587 41.5574C72.6181 41.1789 73.3515 40.9617 74.2753 40.9617C76.3662 40.9617 78.2174 42.3111 78.2174 45.7142V52.1684H75.0299V46.1651C75.0299 44.4405 74.4022 43.4433 73.0976 43.4433C72.1421 43.4433 71.4475 44.0423 71.183 44.7795C71.0913 45.0329 71.049 45.3785 71.049 45.6681V52.1717H67.8615V45.9216C67.8615 44.457 67.2586 43.44 65.9716 43.44C64.942 43.44 64.2968 44.197 64.0323 44.8453C63.9195 45.1218 63.8842 45.441 63.8842 45.7406V52.1684H60.6932V41.2118H63.722ZM94.6696 41.2118V43.2787H94.7578C95.3431 41.6989 96.7323 40.9649 97.9523 40.9649C98.2591 40.9649 98.4283 40.988 98.6751 41.0341V43.904C98.3825 43.8645 98.111 43.825 97.7302 43.825C96.348 43.825 95.3854 44.5754 95.1421 45.7504C95.0892 45.994 95.0716 46.2573 95.0716 46.5601V52.1717H91.7995V41.2118H94.6696ZM103.118 37.5815V41.0308H105.882V43.8218H103.118V47.9391C103.118 49.2721 103.481 49.9171 104.56 49.9171C105.068 49.9171 105.441 49.8579 105.766 49.7822L105.808 52.096C105.374 52.2474 104.451 52.4119 103.513 52.4119C102.409 52.4119 101.489 52.0532 100.928 51.497C100.287 50.8617 99.9903 49.8217 99.9903 48.3406V37.5815H103.118ZM58.4718 52.1684H55.2984V37.5815H58.4718V52.1684ZM50.0095 48.2551C50.0095 48.4558 49.9918 48.6665 49.9319 48.8475C49.6851 49.6078 48.8424 50.2496 47.7916 50.2496C46.9136 50.2496 46.2155 49.7855 46.2155 48.8014C46.2155 47.2973 47.9926 46.8793 50.013 46.8892V48.2551H50.0095ZM53.1793 45.6319C53.1793 43.147 52.044 40.9649 48.2042 40.9649C46.2331 40.9649 44.6676 41.4817 43.8143 41.9424L44.4384 43.9369C45.2176 43.4762 46.4623 43.0977 47.64 43.0977C49.5899 43.0944 49.9072 44.1278 49.9072 44.7894V44.9474C45.6584 44.9408 42.9751 46.3132 42.9751 49.1108C42.9751 50.819 44.3397 52.4185 46.7162 52.4185C48.1795 52.4185 49.3995 51.8754 50.1329 51.0033H50.2034C50.2034 51.0033 50.69 52.8957 53.3627 52.1717C53.2216 51.3818 53.1758 50.5425 53.1758 49.5321V45.6319H53.1793ZM27.0341 37.5815C27.362 39.1251 28.2929 43.6078 28.2929 43.6078C28.6843 45.4509 29.0439 47.3829 29.3154 48.91H29.3648C29.6293 47.2874 30.0453 45.7504 30.4896 43.8481L32.0587 37.5815H35.5318L36.9986 44.0094C37.3829 45.7965 37.6897 47.1755 37.933 48.8376H37.9788C38.2432 47.1591 38.5888 45.7241 38.9661 43.8876L40.3765 37.5815H43.7085L39.5796 52.1684C36.9492 52.7048 35.9408 51.7175 35.5811 50.1508C35.2215 48.5809 34.5163 45.5957 34.5163 45.5957C34.1531 43.96 33.871 42.808 33.6736 41.1295H33.6242C33.3421 42.7916 33.0459 43.9567 32.6087 45.5924L30.8775 52.1717C28.1907 52.6719 27.2598 51.9314 26.745 49.9204C26.3007 48.1991 23.5293 37.5848 23.5293 37.5848H27.0341V37.5815ZM86.5105 48.2551C86.5105 48.4558 86.4928 48.6665 86.4329 48.8475C86.1861 49.6078 85.3434 50.2496 84.2926 50.2496C83.4147 50.2496 82.7165 49.7855 82.7165 48.8014C82.7165 47.2973 84.4936 46.8793 86.514 46.8892V48.2551H86.5105ZM89.6803 45.6319C89.6803 43.147 88.545 40.9649 84.7052 40.9649C82.7341 40.9649 81.1686 41.4817 80.3153 41.9424L80.9394 43.9369C81.7187 43.4762 82.9633 43.0977 84.141 43.0977C86.0874 43.0944 86.4082 44.1278 86.4082 44.7894V44.9474C82.1629 44.9408 79.4797 46.3132 79.4797 49.1108C79.4797 50.819 80.8477 52.4185 83.2207 52.4185C84.6805 52.4185 85.904 51.8754 86.6339 51.0033H86.7079C86.7079 51.0033 87.1945 52.8957 89.8672 52.1717C89.7262 51.3818 89.6803 50.5425 89.6803 49.5321V45.6319Z" fill="#041E42"/>
<path d="M118.746 47.1445C119.059 47.6772 119.038 48.2718 118.704 48.5433L112.933 52.499C112.332 52.8393 111.432 52.4268 110.922 51.5642C110.409 50.6982 110.5 49.7324 111.101 49.3922L117.491 46.4847C117.892 46.3335 118.433 46.6118 118.746 47.1445ZM126.341 47.1445C126.657 46.6118 127.195 46.3369 127.596 46.4812L133.989 49.3887C134.59 49.729 134.678 50.6947 134.168 51.5608C133.655 52.4234 132.752 52.8324 132.154 52.4956L126.383 48.5399C126.053 48.2718 126.028 47.6738 126.341 47.1445ZM122.542 49.2891C123.171 49.2891 123.687 49.6053 123.758 50.0211L124.38 56.8878C124.38 57.5682 123.568 58.125 122.545 58.125C121.526 58.125 120.711 57.5682 120.711 56.8878L121.329 50.0211C121.399 49.6053 121.916 49.2891 122.542 49.2891ZM126.383 41.4601L132.154 37.501C132.752 37.1607 133.655 37.5697 134.168 38.4358C134.678 39.3018 134.59 40.2676 133.989 40.6078L127.596 43.5188C127.195 43.6631 126.654 43.3882 126.341 42.8555C126.028 42.3228 126.053 41.7282 126.383 41.4601ZM117.491 43.5188L111.101 40.6078C110.504 40.2676 110.413 39.3018 110.922 38.4358C111.432 37.5697 112.335 37.1607 112.933 37.501L118.704 41.4601C119.038 41.7248 119.059 42.3228 118.746 42.8555C118.433 43.3882 117.892 43.6631 117.491 43.5188ZM121.329 39.9789L120.711 33.1122C120.711 32.4318 121.522 31.875 122.545 31.875C123.568 31.875 124.38 32.4318 124.38 33.1122L123.758 39.9789C123.687 40.3913 123.171 40.7109 122.542 40.7109C121.916 40.7109 121.399 40.3913 121.329 39.9789ZM135.729 52.4715V52.2997H135.887C135.94 52.2997 135.975 52.3341 135.975 52.3856C135.975 52.4337 135.94 52.4715 135.887 52.4715H135.729ZM135.599 52.7843C135.599 52.8015 135.613 52.8186 135.634 52.8186H135.701C135.718 52.8186 135.736 52.8015 135.736 52.7843V52.5884H135.845L135.933 52.7946C135.94 52.8083 135.95 52.8186 135.964 52.8186H136.045C136.07 52.8186 136.087 52.7946 136.077 52.7705C136.045 52.7087 136.013 52.6434 135.982 52.5781C136.034 52.5609 136.115 52.5093 136.115 52.3856C136.115 52.255 136.006 52.1794 135.897 52.1794H135.634C135.616 52.1794 135.599 52.1966 135.599 52.2138V52.7843ZM135.314 52.499C135.314 52.2206 135.546 51.9938 135.831 51.9938C136.115 51.9938 136.347 52.2172 136.347 52.499C136.347 52.7774 136.119 53.0042 135.831 53.0042C135.542 53.0042 135.314 52.7774 135.314 52.499ZM135.191 52.499C135.191 52.8427 135.476 53.1245 135.831 53.1245C136.182 53.1245 136.47 52.8427 136.47 52.499C136.47 52.1553 136.182 51.8735 135.831 51.8735C135.476 51.8735 135.191 52.1553 135.191 52.499Z" fill="#FFC124"/>
</g>
<defs>
<clipPath id="clip0_198_140">
<rect width="112.941" height="26.25" fill="white" transform="translate(23.5293 31.875)"/>
</clipPath>
</defs>
</svg>
