<svg width="160" height="90" viewBox="0 0 160 90" fill="none" xmlns="http://www.w3.org/2000/svg">
<rect width="160" height="90" rx="16" fill="white"/>
<g clip-path="url(#clip0_198_225)">
<path fill-rule="evenodd" clip-rule="evenodd" d="M115.178 43.9133L109.307 54.0705L104.299 54.0904L115.178 34.9724L126.016 54.0904H120.928L115.178 43.9123V43.9133ZM99.3707 49.6687H104.98L102.376 54.0904H95.0644L95.0842 48.7065V35.0899H99.3915L99.3716 49.6687H99.3707ZM83.9862 35.0909C89.3349 35.1108 93.662 39.3542 93.6421 44.5996C93.6223 49.8261 89.2952 54.0705 83.9455 54.0705C78.6167 54.0505 74.2896 49.8072 74.2896 44.5608C74.3094 39.3343 78.6366 35.0909 83.9862 35.0909ZM83.9664 49.6498C86.8306 49.6498 89.1335 47.3897 89.1335 44.5996C89.1544 41.8105 86.8306 39.5305 83.9862 39.5305C81.1408 39.5106 78.8171 41.7906 78.8171 44.5807C78.7972 47.3697 81.121 49.6498 83.9654 49.6498H83.9664ZM66.3167 43.0905C66.2572 42.3036 66.0559 41.2627 65.7554 40.2616C65.137 38.1938 64.062 36.2929 62.6104 34.7004C61.8487 33.8757 60.9879 33.1087 59.7045 32.2052C58.7262 31.7203 57.7643 31.2027 56.8204 30.6533C56.1996 30.2997 55.4577 29.8664 54.4769 29.5526C53.3138 29.2769 52.125 29.1256 50.9303 29.1014C49.7699 29.0615 48.6065 29.1611 47.4848 29.3763C46.3026 29.5725 45.3208 29.8863 44.0186 30.2011C41.073 31.4781 38.7899 33.4035 36.8262 35.9585C29.975 45.5658 36.1657 59.025 47.6048 60.6158C49.4882 60.8718 51.3716 60.7732 53.1538 60.3608L54.4164 60.0271C54.456 60.0072 54.5165 59.9873 54.5562 59.9873L55.9992 59.4374C56.0786 59.3976 56.1391 59.3777 56.2194 59.3388L56.8204 59.0639C57.9736 58.4923 59.0561 57.7869 60.0457 56.9621C59.1449 57.7842 58.1652 58.5146 57.1209 59.1426L57.1804 59.1824C57.3818 59.1227 57.5613 59.0639 57.7616 59.025C57.7616 59.025 57.7616 59.3388 57.722 59.28C57.4016 59.5161 57.9025 59.3 58.5431 58.9653C59.1848 58.6316 59.8057 58.2182 60.366 57.747C61.1882 57.0597 61.9092 56.3127 62.9308 55.0954C63.9721 53.2676 65.2753 51.6759 65.8763 49.5343C66.0767 48.9645 66.2562 48.2971 66.3772 47.6088C66.4962 46.9215 66.5775 46.2143 66.5775 45.4871C66.5577 44.76 66.4774 44.0129 66.3167 43.0905ZM51.4916 59.2412C54.9975 58.6903 57.9421 56.746 60.3462 54.0934C61.0077 53.1302 61.5284 52.2456 62.1691 51.2834C62.9704 49.3181 62.9109 47.57 63.1708 46.3328C63.4921 44.0916 62.7304 42.2847 62.0897 40.3592C61.1079 38.119 59.8057 36.4496 57.5216 35.1527C51.7515 31.5767 43.8986 32.5777 40.1526 37.9228C40.1328 37.9228 40.0316 38.0603 39.8313 38.3352C40.0921 37.2355 40.7536 36.587 41.4142 35.9575C43.3779 34.3468 45.6619 33.0688 48.2664 32.4413C51.2119 32.1265 54.1357 32.4413 56.7599 33.7183C60.6874 35.9575 63.2918 39.4757 63.9523 43.6394V47.4913C63.1311 53.7985 57.722 58.5927 51.4916 59.2412ZM65.8962 44.8974C65.7554 35.6636 56.6003 29.4351 47.6852 30.6931C45.0808 31.3406 42.2354 32.6375 40.2121 34.4454C39.2303 35.0929 38.7701 36.2922 37.7882 37.2544C33.8608 43.0118 34.5431 50.3799 39.4306 54.8604C40.0575 55.4829 40.727 56.0607 41.434 56.5896C37.3479 54.1322 35.5042 50.4178 34.8635 45.9005C34.8635 44.2888 35.1838 42.6971 35.524 41.0864C37.8091 34.032 45.0004 28.9042 52.8345 30.2011C54.1367 30.5158 55.4389 30.8495 56.7619 31.1643C58.4043 31.8118 60.0268 32.775 61.3291 34.053C62.6313 35.329 63.6131 36.9406 64.595 38.5314C65.2555 39.8094 65.5768 41.4201 65.8972 42.6971C65.9567 43.4242 65.9567 44.1713 65.8972 44.8984L65.8962 44.8974Z" fill="black"/>
<path fill-rule="evenodd" clip-rule="evenodd" d="M57.7627 45.0358C57.7627 49.0052 54.4373 52.2276 50.3303 52.2276C46.2244 52.2276 42.8979 49.0052 42.8979 45.0358C42.8979 41.0673 46.2234 37.845 50.3303 37.845C54.4373 37.845 57.7627 41.0673 57.7627 45.0368V45.0358Z" fill="white"/>
<path fill-rule="evenodd" clip-rule="evenodd" d="M57.8031 43.8176C57.7029 43.2678 57.5423 42.8355 57.3826 42.2268C56.7409 40.8901 55.7997 39.8492 54.557 38.9646C49.9096 35.8807 43.5185 38.8471 42.8382 44.1135C42.5783 46.1963 43.3192 48.2004 44.6412 49.7334C44.2406 49.32 43.8002 48.8887 43.4997 48.3967L43.46 48.4365C43.4997 48.554 43.6604 48.6327 43.7 48.7503C43.7 48.7503 43.5394 48.7503 43.58 48.7303C43.46 48.5939 43.5602 48.81 43.7397 49.1039C43.9004 49.3987 44.1007 49.6746 44.3407 49.9296C44.6819 50.3032 45.0419 50.6369 45.6429 51.0891C46.5256 51.5403 47.3061 52.13 48.3277 52.4049C48.6083 52.4846 48.9287 52.5623 49.25 52.6211C49.5902 52.6809 49.9105 52.7008 50.2716 52.7008C50.6117 52.7008 50.9727 52.6609 51.4131 52.5812C51.8672 52.5275 52.316 52.4359 52.755 52.3073C53.7354 52.0109 54.6386 51.5007 55.4 50.8132C55.7809 50.4606 56.3224 50.0083 56.7419 49.4186C57.0831 48.7513 57.1228 48.4166 57.2834 48.1217C57.4431 47.8269 57.6434 47.4932 57.7843 47.041C57.8991 46.5045 57.9661 45.9588 57.9846 45.4104C57.9648 44.8605 57.9251 44.3296 57.8041 43.8186L57.8031 43.8176ZM53.0346 40.1639C53.716 40.5564 53.8162 40.6152 53.4552 40.3602C53.9768 40.4777 54.2972 40.7726 54.6175 41.0674C55.399 41.9519 56.0397 42.9928 56.3601 44.1911C56.5406 45.5468 56.3997 46.9025 55.8196 48.1018C54.7782 49.9286 53.115 51.1469 51.1314 51.4806C50.9113 51.4806 50.6712 51.4806 50.4501 51.5005C51.0114 51.4019 51.3724 51.0483 52.394 50.6747C53.4948 50.2823 54.7375 48.4554 55.3395 47.3936C57.1019 44.5049 55.0182 41.8334 53.0346 40.1639ZM49.2689 51.5194C46.2241 51.2056 43.8795 48.7104 43.5592 45.8218C43.8389 47.4334 44.8009 48.6706 46.1031 49.7713C46.5643 50.0661 47.2446 50.4785 47.7058 50.7733C48.4873 51.0682 48.9475 51.3829 49.7092 51.5204H49.2689V51.5194ZM57.4619 46.274C57.3231 46.8836 57.1823 47.4723 57.0414 48.0819C56.7409 48.829 56.3006 49.595 55.6996 50.2036C55.0985 50.8132 54.3369 51.2843 53.5762 51.7366C52.9751 52.0503 52.2135 52.2077 51.5926 52.3641C51.2316 52.4039 50.8111 52.2466 50.4501 52.2276C54.8982 52.1091 57.943 47.9644 57.2824 43.8575C56.9611 42.6592 56.3204 41.6172 55.5389 40.5763C55.2185 40.1241 54.5967 39.8492 54.1365 39.3969C51.3516 37.6488 47.6662 38.0024 45.5626 40.3014C45.2676 40.6035 44.993 40.925 44.7404 41.2636C45.8631 39.6131 47.6662 38.4546 49.8292 38.12C50.5909 38.1 51.3724 38.2385 52.1331 38.376C55.4992 39.3969 58.0035 42.6592 57.4619 46.275V46.274Z" fill="#D7DF23"/>
</g>
<defs>
<clipPath id="clip0_198_225">
<rect width="92.2353" height="31.875" fill="white" transform="translate(33.8823 29.0625)"/>
</clipPath>
</defs>
</svg>
