<svg width="97" height="31" viewBox="0 0 97 31" fill="none" xmlns="http://www.w3.org/2000/svg">
<path fill-rule="evenodd" clip-rule="evenodd" d="M15.5 8C11.3579 8 8 11.3579 8 15.5C8 19.6421 11.3579 23 15.5 23C19.6421 23 23 19.6421 23 15.5C23 11.3579 19.6421 8 15.5 8ZM0 15.5C0 6.93959 6.93959 0 15.5 0C24.0604 0 31 6.93959 31 15.5C31 24.0604 24.0604 31 15.5 31C6.93959 31 0 24.0604 0 15.5Z" fill="#FFD400"/>
<path d="M39.4 19.42H44.4V22.5H36.2V8.5H39.4V19.42ZM52.8717 12.5H55.8717V22.5H52.8717V21.56C52.1651 22.3733 51.1717 22.78 49.8917 22.78C48.5717 22.78 47.4451 22.2733 46.5117 21.26C45.5784 20.2333 45.1117 18.98 45.1117 17.5C45.1117 16.02 45.5784 14.7733 46.5117 13.76C47.4451 12.7333 48.5717 12.22 49.8917 12.22C51.1717 12.22 52.1651 12.6267 52.8717 13.44V12.5ZM48.7717 19.28C49.2117 19.72 49.7851 19.94 50.4917 19.94C51.1984 19.94 51.7717 19.72 52.2117 19.28C52.6517 18.84 52.8717 18.2467 52.8717 17.5C52.8717 16.7533 52.6517 16.16 52.2117 15.72C51.7717 15.28 51.1984 15.06 50.4917 15.06C49.7851 15.06 49.2117 15.28 48.7717 15.72C48.3317 16.16 48.1117 16.7533 48.1117 17.5C48.1117 18.2467 48.3317 18.84 48.7717 19.28ZM63.9327 12.22C64.9993 12.22 65.886 12.5867 66.5927 13.32C67.3127 14.0533 67.6727 15.0667 67.6727 16.36V22.5H64.6727V16.8C64.6727 16.2133 64.506 15.7667 64.1727 15.46C63.8527 15.14 63.4393 14.98 62.9327 14.98C62.3593 14.98 61.906 15.1533 61.5727 15.5C61.2393 15.8467 61.0727 16.36 61.0727 17.04V22.5H58.0727V12.5H61.0727V13.44C61.6727 12.6267 62.626 12.22 63.9327 12.22ZM76.9928 8.5H79.9928V22.5H76.9928V21.56C76.2861 22.3733 75.2928 22.78 74.0128 22.78C72.6928 22.78 71.5661 22.2733 70.6328 21.26C69.6995 20.2333 69.2328 18.98 69.2328 17.5C69.2328 16.02 69.6995 14.7733 70.6328 13.76C71.5661 12.7333 72.6928 12.22 74.0128 12.22C75.2928 12.22 76.2861 12.6267 76.9928 13.44V8.5ZM72.8928 19.28C73.3328 19.72 73.9061 19.94 74.6128 19.94C75.3195 19.94 75.8928 19.72 76.3328 19.28C76.7728 18.84 76.9928 18.2467 76.9928 17.5C76.9928 16.7533 76.7728 16.16 76.3328 15.72C75.8928 15.28 75.3195 15.06 74.6128 15.06C73.9061 15.06 73.3328 15.28 72.8928 15.72C72.4528 16.16 72.2328 16.7533 72.2328 17.5C72.2328 18.2467 72.4528 18.84 72.8928 19.28ZM84.9538 11.1C84.6071 11.4467 84.1871 11.62 83.6938 11.62C83.2004 11.62 82.7738 11.4467 82.4137 11.1C82.0671 10.74 81.8938 10.3133 81.8938 9.82C81.8938 9.32667 82.0671 8.90667 82.4137 8.56C82.7738 8.2 83.2004 8.02 83.6938 8.02C84.1871 8.02 84.6071 8.2 84.9538 8.56C85.3138 8.90667 85.4938 9.32667 85.4938 9.82C85.4938 10.3133 85.3138 10.74 84.9538 11.1ZM82.1938 22.5V12.5H85.1938V22.5H82.1938ZM92.1891 22.78C90.6691 22.78 89.4024 22.2733 88.3891 21.26C87.3891 20.2467 86.8891 18.9933 86.8891 17.5C86.8891 16.0067 87.3891 14.7533 88.3891 13.74C89.4024 12.7267 90.6691 12.22 92.1891 12.22C93.1491 12.22 94.0291 12.4533 94.8291 12.92C95.6424 13.3867 96.2691 14.0067 96.7091 14.78L94.0891 16.3C93.7291 15.5533 93.0824 15.18 92.1491 15.18C91.4957 15.18 90.9557 15.4 90.5291 15.84C90.1024 16.2667 89.8891 16.82 89.8891 17.5C89.8891 18.18 90.1024 18.74 90.5291 19.18C90.9557 19.6067 91.4957 19.82 92.1491 19.82C93.0957 19.82 93.7424 19.4467 94.0891 18.7L96.7091 20.2C96.2691 20.9867 95.6491 21.6133 94.8491 22.08C94.0491 22.5467 93.1624 22.78 92.1891 22.78Z" fill="white"/>
</svg>
