<svg width="356" height="724" viewBox="0 0 356 724" fill="none" xmlns="http://www.w3.org/2000/svg">
<path d="M296.75 0.375C327.54 0.375 352.5 25.3351 352.5 56.125V667.625C352.5 698.415 327.54 723.375 296.75 723.375H58.75C27.9601 723.375 3 698.415 3 667.625V56.125C3 25.3351 27.9601 0.375 58.75 0.375H296.75Z" fill="black"/>
<path d="M296.75 0.397705C327.54 0.397705 352.5 25.3578 352.5 56.1477V667.648C352.5 698.438 327.54 723.398 296.75 723.398H58.75C27.9601 723.398 3 698.438 3 667.648V56.1477C3 25.3578 27.9601 0.397705 58.75 0.397705H296.75ZM296.75 4.89771H58.75C30.7285 4.89771 7.95944 27.3865 7.50687 55.3002L7.5 56.1477V667.648C7.5 695.669 29.9888 718.438 57.9025 718.898H58.75H296.75C324.772 718.898 347.541 696.409 347.993 668.495L348 667.648V56.1477C348 28.1262 325.511 5.35715 297.598 4.89771H296.75Z" fill="#E4E5DE"/>
<g opacity="0.231492">
<path opacity="0.231492" d="M7.75 72.625H3.25V76.875H7.75V72.625Z" fill="#4B4B4B"/>
<path opacity="0.231492" d="M352.75 72.625H348.25V76.875H352.75V72.625Z" fill="#4B4B4B"/>
<path opacity="0.231492" d="M283.25 0.625H279V5.125H283.25V0.625Z" fill="#4B4B4B"/>
<path opacity="0.231492" d="M7.75 641.875H3.25V646.125H7.75V641.875Z" fill="#4B4B4B"/>
<path opacity="0.231492" d="M352.75 641.875H348.25V646.125H352.75V641.875Z" fill="#4B4B4B"/>
<path opacity="0.231492" d="M283.25 719.125H279V723.625H283.25V719.125Z" fill="#4B4B4B"/>
</g>
<path opacity="0.293759" d="M296.75 1.39771L297.655 1.40504C327.177 1.88369 351.019 25.7284 351.493 55.2514L351.5 56.1477V667.648L351.493 668.553C351.014 698.075 327.169 721.917 297.646 722.398H296.75H58.75L57.8446 722.39C28.3228 721.912 4.48107 698.067 4.00719 668.544L4 667.648V56.1477L4.00733 55.2423C4.48599 25.7205 28.3307 1.87878 57.8536 1.39771H58.75H296.75ZM296.744 2.14768H58.75C29.5544 2.14768 5.7157 25.3378 4.77868 54.3669L4.75731 55.2484L4.75 56.1477V667.648C4.75 696.843 27.9401 720.682 56.9692 721.619L57.8507 721.64L58.75 721.648H296.75C325.946 721.648 349.784 698.458 350.721 669.428L350.743 668.547L350.75 667.648V56.1477C350.75 26.9521 327.56 3.1134 298.531 2.17638L297.649 2.15502L296.744 2.14768Z" fill="url(#paint0_linear_13_1158)"/>
<path d="M192.875 20.8977C194.463 20.8977 195.75 22.1849 195.75 23.7727C195.75 25.3605 194.463 26.6477 192.875 26.6477H163.375C161.787 26.6477 160.5 25.3605 160.5 23.7727C160.5 22.1849 161.787 20.8977 163.375 20.8977H192.875ZM192.875 21.3977H163.375C162.063 21.3977 161 22.461 161 23.7727C161 25.0618 162.027 26.111 163.307 26.1468L163.375 26.1477H192.875C194.187 26.1477 195.25 25.0844 195.25 23.7727C195.25 22.4836 194.223 21.4344 192.943 21.3986L192.875 21.3977Z" fill="white" fill-opacity="0.08"/>
<path d="M192.875 21.3977H163.375C162.063 21.3977 161 22.461 161 23.7727C161 25.0618 162.027 26.111 163.307 26.1468L163.375 26.1477H192.875C194.187 26.1477 195.25 25.0844 195.25 23.7727C195.25 22.4836 194.223 21.4344 192.943 21.3986L192.875 21.3977Z" fill="white" fill-opacity="0.04"/>
<path d="M210.625 29.5227C213.87 29.5227 216.5 26.9483 216.5 23.7727C216.5 20.5971 213.87 18.0227 210.625 18.0227C207.38 18.0227 204.75 20.5971 204.75 23.7727C204.75 26.9483 207.38 29.5227 210.625 29.5227Z" fill="white" fill-opacity="0.05"/>
<path d="M210.625 26.6477C212.213 26.6477 213.5 25.3605 213.5 23.7727C213.5 22.1849 212.213 20.8977 210.625 20.8977C209.037 20.8977 207.75 22.1849 207.75 23.7727C207.75 25.3605 209.037 26.6477 210.625 26.6477Z" fill="url(#paint1_radial_13_1158)"/>
<path fill-rule="evenodd" clip-rule="evenodd" d="M3 137.398V161.148H0.75C0.335786 161.148 0 160.812 0 160.398V138.148C0 137.733 0.335786 137.398 0.75 137.398H3Z" fill="url(#paint2_linear_13_1158)"/>
<path d="M3 137.398V137.898H0.8125C0.652239 137.898 0.520154 137.994 0.502102 138.119L0.5 138.148V160.398C0.5 160.526 0.620638 160.632 0.776056 160.646L0.8125 160.648H3V161.148H0.75C0.335786 161.148 0 160.812 0 160.398V138.148C0 137.733 0.335786 137.398 0.75 137.398H3Z" fill="#979797" fill-opacity="0.2"/>
<path fill-rule="evenodd" clip-rule="evenodd" d="M3 185.148V233.148H1.5C1.22386 233.148 1 232.924 1 232.648V185.648C1 185.372 1.22386 185.148 1.5 185.148H3Z" fill="url(#paint3_linear_13_1158)"/>
<path d="M3 185.148V185.648H1.5V232.648H3V233.148H1.5C1.22386 233.148 1 232.924 1 232.648V185.648C1 185.372 1.22386 185.148 1.5 185.148H3Z" fill="#979797" fill-opacity="0.2"/>
<path fill-rule="evenodd" clip-rule="evenodd" d="M3 248.398V296.398H1.5C1.22386 296.398 1 296.174 1 295.898V248.898C1 248.622 1.22386 248.398 1.5 248.398H3Z" fill="url(#paint4_linear_13_1158)"/>
<path d="M3 248.398V248.898H1.5V295.898H3V296.398H1.5C1.22386 296.398 1 296.174 1 295.898V248.898C1 248.622 1.22386 248.398 1.5 248.398H3Z" fill="#979797" fill-opacity="0.2"/>
<path fill-rule="evenodd" clip-rule="evenodd" d="M355.5 201.148C355.776 201.148 356 201.372 356 201.648V285.648C356 285.924 355.776 286.148 355.5 286.148H352.5V201.148H355.5Z" fill="url(#paint5_linear_13_1158)"/>
<path d="M352.5 201.148H355.5C355.776 201.148 356 201.372 356 201.648V285.648C356 285.924 355.776 286.148 355.5 286.148H352.5V285.648H355.5V201.648H352.5V201.148Z" fill="#979797" fill-opacity="0.2"/>
<mask id="mask0_13_1158" style="mask-type:alpha" maskUnits="userSpaceOnUse" x="18" y="14" width="321" height="696">
<path d="M96 14.6477H96.0787C98.225 14.6899 99.9573 16.4218 99.9992 18.568L100 18.6477V21.3977C100 30.966 107.679 38.7408 117.211 38.8954L117.5 38.8977H239.5C249.068 38.8977 256.843 31.2186 256.998 21.6871L257 21.3977V18.6477L257.001 18.569C257.042 16.4227 258.774 14.6904 260.92 14.6477H261H298.186C320.564 15.016 338.635 33.0901 338.995 55.4683L339 56.1477V667.648L338.994 668.334C338.632 690.711 320.558 708.783 298.179 709.148H297.5H58.8137C36.4365 708.779 18.3646 690.705 18.0054 668.327L18 667.648V56.1477L18.0056 55.4614C18.3684 33.0842 36.4424 15.0124 58.8206 14.6477H59.5H96Z" fill="white"/>
</mask>
<g mask="url(#mask0_13_1158)">
<path d="M96 14.6477H96.0787C98.225 14.6899 99.9573 16.4218 99.9992 18.568L100 18.6477V21.3977C100 30.966 107.679 38.7408 117.211 38.8954L117.5 38.8977H239.5C249.068 38.8977 256.843 31.2186 256.998 21.6871L257 21.3977V18.6477L257.001 18.569C257.042 16.4227 258.774 14.6904 260.92 14.6477H261H298.186C320.564 15.016 338.635 33.0901 338.995 55.4683L339 56.1477V667.648L338.994 668.334C338.632 690.711 320.558 708.783 298.179 709.148H297.5H58.8137C36.4365 708.779 18.3646 690.705 18.0054 668.327L18 667.648V56.1477L18.0056 55.4614C18.3684 33.0842 36.4424 15.0124 58.8206 14.6477H59.5H96Z" fill="#2F2F2F"/>
<path d="M366 26.3977H45V720.898H366V26.3977Z" fill="#DCDDD7"/>
<g clip-path="url(#clip0_13_1158)">
<rect x="17.75" y="2.375" width="322" height="707" rx="23.8366" fill="#312E38"/>
<path d="M43.1698 170.625H55.4769V167.34H47.1535V151.591H43.1698V170.625ZM62.0133 170.849C63.8732 170.849 65.377 169.965 66.1816 168.514H66.2608V170.625H70.1125V160.93C70.1125 158.081 67.7513 156.194 64.0975 156.194C60.3645 156.194 58.122 158.067 57.911 160.679L57.8978 160.837H61.4197L61.4461 160.719C61.6308 159.809 62.5014 159.136 63.9392 159.136C65.4429 159.136 66.2608 159.914 66.2608 161.167V162.038L62.7652 162.249C59.2564 162.473 57.2646 163.977 57.2646 166.549V166.575C57.2646 169.068 59.1773 170.849 62.0133 170.849ZM61.0768 166.378V166.351C61.0768 165.349 61.855 164.716 63.3456 164.623L66.2608 164.438V165.454C66.2608 166.932 64.9944 168.04 63.2664 168.04C61.9342 168.04 61.0768 167.42 61.0768 166.378ZM72.9027 170.625H76.7544V162.71C76.7544 160.653 77.8625 159.518 79.762 159.518C80.316 159.518 80.8436 159.597 81.1602 159.729V156.339C80.87 156.26 80.4743 156.194 80.0522 156.194C78.4033 156.194 77.2557 157.21 76.8336 158.951H76.7544V156.484H72.9027V170.625ZM89.174 175.532C93.4215 175.532 96.0728 173.382 96.0728 170.229V156.484H92.2211V158.898H92.1419C91.3769 157.249 89.8335 156.194 87.8417 156.194C84.267 156.194 82.0509 158.872 82.0509 163.383V163.396C82.0509 167.789 84.2406 170.427 87.7758 170.427C89.8204 170.427 91.4033 169.491 92.1419 168.013H92.2211V170.177C92.2211 171.759 91.1658 172.788 89.174 172.788C87.5647 172.788 86.5358 172.182 86.2324 171.482L86.1929 171.39H82.4467L82.4599 171.509C82.8292 173.778 85.2827 175.532 89.174 175.532ZM89.108 167.604C87.1822 167.604 85.9686 166.035 85.9686 163.489V163.476C85.9686 160.943 87.1954 159.386 89.108 159.386C90.9811 159.386 92.2343 160.956 92.2343 163.476V163.489C92.2343 166.021 90.9943 167.604 89.108 167.604ZM105.34 170.915C109.376 170.915 111.328 168.528 111.764 166.444L111.803 166.298H108.268L108.242 166.378C107.965 167.169 107.002 168.04 105.419 168.04C103.453 168.04 102.227 166.721 102.187 164.465H111.922V163.278C111.922 159.004 109.323 156.194 105.181 156.194C101.04 156.194 98.3882 159.07 98.3882 163.568V163.581C98.3882 168.106 101.013 170.915 105.34 170.915ZM105.247 159.07C106.844 159.07 107.991 160.086 108.229 162.038H102.227C102.477 160.125 103.665 159.07 105.247 159.07ZM125.483 170.915C126.288 170.915 126.908 170.836 127.343 170.77V167.947C127.105 167.974 126.855 168.013 126.512 168.013C125.351 168.013 124.757 167.565 124.757 166.246V159.386H127.343V156.484H124.757V153.028H120.866V156.484H118.901V159.386H120.866V166.668C120.866 169.702 122.343 170.915 125.483 170.915ZM131.769 154.664C132.93 154.664 133.826 153.754 133.826 152.659C133.826 151.564 132.93 150.654 131.769 150.654C130.608 150.654 129.711 151.564 129.711 152.659C129.711 153.754 130.608 154.664 131.769 154.664ZM129.843 170.625H133.695V156.484H129.843V170.625ZM142.196 170.915C143.001 170.915 143.621 170.836 144.056 170.77V167.947C143.819 167.974 143.568 168.013 143.225 168.013C142.065 168.013 141.471 167.565 141.471 166.246V159.386H144.056V156.484H141.471V153.028H137.58V156.484H135.614V159.386H137.58V166.668C137.58 169.702 139.057 170.915 142.196 170.915ZM146.57 170.625H150.421V151.591H146.57V170.625ZM159.754 170.915C163.791 170.915 165.743 168.528 166.178 166.444L166.218 166.298H162.683L162.656 166.378C162.379 167.169 161.416 168.04 159.833 168.04C157.868 168.04 156.641 166.721 156.602 164.465H166.336V163.278C166.336 159.004 163.738 156.194 159.596 156.194C155.454 156.194 152.803 159.07 152.803 163.568V163.581C152.803 168.106 155.428 170.915 159.754 170.915ZM159.662 159.07C161.258 159.07 162.406 160.086 162.643 162.038H156.641C156.892 160.125 158.079 159.07 159.662 159.07Z" fill="white"/>
<g clip-path="url(#clip1_13_1158)">
<g clip-path="url(#clip2_13_1158)">
<rect x="41.9842" y="139.436" width="131.896" height="199.433" rx="11.521" fill="#312E38" stroke="#25222A" stroke-width="0.794554"/>
<path d="M50.7065 161.778H52.4081V157.65H57.0381V161.778H58.7331V152.261H57.0381V156.218H52.4081V152.261H50.7065V161.778ZM63.6787 161.923C65.6375 161.923 66.6004 160.796 66.8313 159.866L66.851 159.806H65.2879L65.2681 159.852C65.1099 160.182 64.602 160.631 63.7116 160.631C62.597 160.631 61.8979 159.879 61.8781 158.586H66.917V158.045C66.917 155.869 65.6507 154.431 63.5995 154.431C61.5483 154.431 60.2358 155.915 60.2358 158.184V158.19C60.2358 160.486 61.5351 161.923 63.6787 161.923ZM63.6193 155.717C64.5361 155.717 65.2022 156.304 65.3143 157.485H61.8913C62.0166 156.337 62.7025 155.717 63.6193 155.717ZM70.2005 161.897C71.1503 161.897 71.9153 161.488 72.3111 160.789H72.4232V161.778H74.0457V156.852C74.0457 155.328 73.0036 154.431 71.1503 154.431C69.4355 154.431 68.2747 155.236 68.1164 156.449L68.1098 156.509H69.6597L69.6663 156.482C69.8312 156.007 70.3192 155.737 71.0711 155.737C71.9549 155.737 72.4232 156.133 72.4232 156.852V157.472L70.5699 157.584C68.8155 157.689 67.8328 158.441 67.8328 159.727V159.74C67.8328 161.053 68.8287 161.897 70.2005 161.897ZM69.4552 159.661V159.648C69.4552 159.054 69.8839 158.718 70.8007 158.659L72.4232 158.553V159.134C72.4232 159.991 71.6911 160.637 70.7018 160.637C69.9763 160.637 69.4552 160.275 69.4552 159.661ZM78.2921 161.897C79.3078 161.897 80.0861 161.435 80.4818 160.651H80.5939V161.778H82.2428V151.78H80.5939V155.717H80.4818C80.1058 154.939 79.2814 154.451 78.2921 154.451C76.4652 154.451 75.3374 155.875 75.3374 158.171V158.184C75.3374 160.466 76.485 161.897 78.2921 161.897ZM78.8065 160.512C77.6853 160.512 77.006 159.635 77.006 158.184V158.171C77.006 156.72 77.6919 155.836 78.8065 155.836C79.9212 155.836 80.6203 156.726 80.6203 158.171V158.184C80.6203 159.628 79.9278 160.512 78.8065 160.512ZM84.0489 161.778H85.6912V151.78H84.0489V161.778ZM88.2888 153.363C88.823 153.363 89.2649 152.934 89.2649 152.393C89.2649 151.859 88.823 151.424 88.2888 151.424C87.7479 151.424 87.306 151.859 87.306 152.393C87.306 152.934 87.7479 153.363 88.2888 153.363ZM87.4643 161.778H89.1066V154.57H87.4643V161.778ZM90.8006 161.778H92.4429V157.577C92.4429 156.495 93.0497 155.809 94.0258 155.809C95.0217 155.809 95.4768 156.377 95.4768 157.498V161.778H97.119V157.115C97.119 155.401 96.2418 154.431 94.6326 154.431C93.5905 154.431 92.898 154.899 92.555 155.671H92.4429V154.57H90.8006V161.778ZM101.821 161.923C103.779 161.923 104.742 160.796 104.973 159.866L104.993 159.806H103.43L103.41 159.852C103.252 160.182 102.744 160.631 101.854 160.631C100.739 160.631 100.04 159.879 100.02 158.586H105.059V158.045C105.059 155.869 103.793 154.431 101.741 154.431C99.6902 154.431 98.3778 155.915 98.3778 158.184V158.19C98.3778 160.486 99.677 161.923 101.821 161.923ZM101.761 155.717C102.678 155.717 103.344 156.304 103.456 157.485H100.033C100.159 156.337 100.844 155.717 101.761 155.717Z" fill="white"/>
<path d="M53.094 308.108C54.5233 308.108 55.5847 307.311 55.8082 306.082V306.073H54.9609L54.9516 306.082C54.7421 306.855 54.0298 307.335 53.094 307.335C51.7997 307.335 50.9897 306.278 50.9897 304.597V304.588C50.9897 302.907 51.7997 301.846 53.0893 301.846C54.0158 301.846 54.7328 302.39 54.9562 303.252L54.9609 303.261H55.8036L55.8082 303.252C55.608 301.962 54.5046 301.073 53.0893 301.073C51.2644 301.073 50.1284 302.423 50.1284 304.588V304.597C50.1284 306.757 51.269 308.108 53.094 308.108ZM58.4898 308.038C59.1649 308.038 59.691 307.744 60.0076 307.209H60.082V307.949H60.8921V304.513C60.8921 303.471 60.2077 302.842 58.9833 302.842C57.9125 302.842 57.149 303.373 57.0187 304.16L57.014 304.187H57.8241L57.8287 304.174C57.9591 303.782 58.3548 303.559 58.9554 303.559C59.7049 303.559 60.082 303.894 60.082 304.513V304.97L58.6435 305.058C57.4749 305.128 56.8138 305.645 56.8138 306.539V306.548C56.8138 307.46 57.5354 308.038 58.4898 308.038ZM57.6425 306.529V306.52C57.6425 306.022 57.9777 305.752 58.7412 305.705L60.082 305.621V306.078C60.082 306.795 59.4815 307.335 58.6574 307.335C58.0755 307.335 57.6425 307.037 57.6425 306.529ZM62.3726 309.625H63.1827V307.158H63.2572C63.5318 307.693 64.1324 308.038 64.8214 308.038C66.0971 308.038 66.9258 307.018 66.9258 305.445V305.435C66.9258 303.871 66.0924 302.842 64.8214 302.842C64.1231 302.842 63.5644 303.173 63.2572 303.731H63.1827V302.93H62.3726V309.625ZM64.6352 307.321C63.7227 307.321 63.164 306.604 63.164 305.445V305.435C63.164 304.276 63.7227 303.559 64.6352 303.559C65.5524 303.559 66.0971 304.267 66.0971 305.435V305.445C66.0971 306.613 65.5524 307.321 64.6352 307.321ZM69.9752 307.986C70.1335 307.986 70.2871 307.968 70.4454 307.94V307.251C70.2964 307.265 70.2173 307.27 70.0729 307.27C69.5515 307.27 69.3467 307.032 69.3467 306.441V303.601H70.4454V302.93H69.3467V301.632H68.5087V302.93H67.7172V303.601H68.5087V306.646C68.5087 307.605 68.9416 307.986 69.9752 307.986ZM72.0842 301.962C72.3914 301.962 72.6428 301.711 72.6428 301.403C72.6428 301.096 72.3914 300.845 72.0842 300.845C71.7769 300.845 71.5255 301.096 71.5255 301.403C71.5255 301.711 71.7769 301.962 72.0842 301.962ZM71.6745 307.949H72.4845V302.93H71.6745V307.949ZM76.074 308.038C77.5033 308.038 78.3878 307.051 78.3878 305.445V305.435C78.3878 303.824 77.5033 302.842 76.074 302.842C74.6447 302.842 73.7602 303.824 73.7602 305.435V305.445C73.7602 307.051 74.6447 308.038 76.074 308.038ZM76.074 307.321C75.1243 307.321 74.5889 306.627 74.5889 305.445V305.435C74.5889 304.248 75.1243 303.559 76.074 303.559C77.0237 303.559 77.5591 304.248 77.5591 305.435V305.445C77.5591 306.627 77.0237 307.321 76.074 307.321ZM79.6448 307.949H80.4549V304.979C80.4549 304.099 80.9624 303.559 81.7631 303.559C82.5639 303.559 82.9363 303.992 82.9363 304.895V307.949H83.7464V304.7C83.7464 303.508 83.1179 302.842 81.9913 302.842C81.251 302.842 80.7808 303.154 80.5294 303.685H80.4549V302.93H79.6448V307.949ZM88.3229 301.962C88.6301 301.962 88.8815 301.711 88.8815 301.403C88.8815 301.096 88.6301 300.845 88.3229 300.845C88.0156 300.845 87.7642 301.096 87.7642 301.403C87.7642 301.711 88.0156 301.962 88.3229 301.962ZM87.9132 307.949H88.7232V302.93H87.9132V307.949ZM90.2503 307.949H91.0604V304.979C91.0604 304.099 91.5678 303.559 92.3686 303.559C93.1693 303.559 93.5418 303.992 93.5418 304.895V307.949H94.3519V304.7C94.3519 303.508 93.7234 302.842 92.5967 302.842C91.8565 302.842 91.3862 303.154 91.1348 303.685H91.0604V302.93H90.2503V307.949ZM98.5466 307.949H99.3566V304.979C99.3566 304.099 99.8641 303.559 100.665 303.559C101.466 303.559 101.838 303.992 101.838 304.895V307.949H102.648V304.7C102.648 303.508 102.02 302.842 100.893 302.842C100.153 302.842 99.6825 303.154 99.4311 303.685H99.3566V300.938H98.5466V307.949ZM106.163 308.038C107.346 308.038 108.063 307.367 108.235 306.688L108.244 306.65H107.434L107.415 306.692C107.28 306.995 106.861 307.316 106.182 307.316C105.288 307.316 104.715 306.711 104.692 305.673H108.305V305.356C108.305 303.857 107.476 302.842 106.112 302.842C104.748 302.842 103.863 303.904 103.863 305.454V305.458C103.863 307.032 104.729 308.038 106.163 308.038ZM106.107 303.564C106.847 303.564 107.397 304.034 107.481 305.026H104.706C104.794 304.071 105.362 303.564 106.107 303.564ZM109.562 307.949H110.372V304.839C110.372 304.104 110.921 303.615 111.694 303.615C111.871 303.615 112.024 303.633 112.192 303.661V302.875C112.113 302.861 111.941 302.842 111.787 302.842C111.107 302.842 110.637 303.149 110.446 303.675H110.372V302.93H109.562V307.949ZM115.102 308.038C116.284 308.038 117.001 307.367 117.174 306.688L117.183 306.65H116.373L116.354 306.692C116.219 306.995 115.8 307.316 115.12 307.316C114.227 307.316 113.654 306.711 113.631 305.673H117.243V305.356C117.243 303.857 116.415 302.842 115.051 302.842C113.687 302.842 112.802 303.904 112.802 305.454V305.458C112.802 307.032 113.668 308.038 115.102 308.038ZM115.046 303.564C115.786 303.564 116.336 304.034 116.419 305.026H113.645C113.733 304.071 114.301 303.564 115.046 303.564ZM121.517 307.949H122.327V303.601H123.468V302.93H122.327V302.395C122.327 301.846 122.56 301.562 123.137 301.562C123.282 301.562 123.417 301.566 123.514 301.585V300.938C123.347 300.905 123.17 300.891 122.974 300.891C122.02 300.891 121.517 301.371 121.517 302.372V302.93H120.684V303.601H121.517V307.949ZM126.485 308.038C127.914 308.038 128.799 307.051 128.799 305.445V305.435C128.799 303.824 127.914 302.842 126.485 302.842C125.055 302.842 124.171 303.824 124.171 305.435V305.445C124.171 307.051 125.055 308.038 126.485 308.038ZM126.485 307.321C125.535 307.321 125 306.627 125 305.445V305.435C125 304.248 125.535 303.559 126.485 303.559C127.435 303.559 127.97 304.248 127.97 305.435V305.445C127.97 306.627 127.435 307.321 126.485 307.321ZM130.056 307.949H130.866V304.839C130.866 304.104 131.415 303.615 132.188 303.615C132.365 303.615 132.518 303.633 132.686 303.661V302.875C132.607 302.861 132.435 302.842 132.281 302.842C131.601 302.842 131.131 303.149 130.94 303.675H130.866V302.93H130.056V307.949ZM138.152 307.986C138.31 307.986 138.464 307.968 138.622 307.94V307.251C138.473 307.265 138.394 307.27 138.249 307.27C137.728 307.27 137.523 307.032 137.523 306.441V303.601H138.622V302.93H137.523V301.632H136.685V302.93H135.894V303.601H136.685V306.646C136.685 307.605 137.118 307.986 138.152 307.986ZM139.879 307.949H140.689V304.979C140.689 304.099 141.196 303.559 141.997 303.559C142.798 303.559 143.17 303.992 143.17 304.895V307.949H143.98V304.7C143.98 303.508 143.352 302.842 142.225 302.842C141.485 302.842 141.015 303.154 140.763 303.685H140.689V300.938H139.879V307.949ZM145.875 301.962C146.183 301.962 146.434 301.711 146.434 301.403C146.434 301.096 146.183 300.845 145.875 300.845C145.568 300.845 145.317 301.096 145.317 301.403C145.317 301.711 145.568 301.962 145.875 301.962ZM145.466 307.949H146.276V302.93H145.466V307.949ZM149.525 308.038C150.666 308.038 151.537 307.418 151.537 306.525V306.515C151.537 305.798 151.08 305.389 150.135 305.161L149.362 304.974C148.771 304.83 148.52 304.616 148.52 304.276V304.267C148.52 303.824 148.957 303.517 149.553 303.517C150.158 303.517 150.55 303.792 150.657 304.187H151.453C151.341 303.368 150.61 302.842 149.558 302.842C148.492 302.842 147.691 303.471 147.691 304.304V304.309C147.691 305.03 148.115 305.44 149.055 305.663L149.833 305.85C150.452 305.999 150.708 306.236 150.708 306.576V306.585C150.708 307.041 150.228 307.363 149.553 307.363C148.911 307.363 148.51 307.088 148.375 306.669H147.547C147.64 307.498 148.408 308.038 149.525 308.038ZM50.2867 319.949H51.0967V316.839C51.0967 316.132 51.5949 315.559 52.2513 315.559C52.8845 315.559 53.2942 315.945 53.2942 316.541V319.949H54.1043V316.723C54.1043 316.085 54.5652 315.559 55.2635 315.559C55.9712 315.559 56.311 315.927 56.311 316.667V319.949H57.1211V316.481C57.1211 315.429 56.5484 314.842 55.5242 314.842C54.8305 314.842 54.2579 315.191 53.9879 315.722H53.9134C53.6806 315.201 53.2057 314.842 52.526 314.842C51.8696 314.842 51.3947 315.154 51.1712 315.694H51.0967V314.93H50.2867V319.949ZM59.0113 313.962C59.3185 313.962 59.5699 313.711 59.5699 313.403C59.5699 313.096 59.3185 312.845 59.0113 312.845C58.704 312.845 58.4526 313.096 58.4526 313.403C58.4526 313.711 58.704 313.962 59.0113 313.962ZM58.6016 319.949H59.4116V314.93H58.6016V319.949ZM60.9387 319.949H61.7487V316.979C61.7487 316.099 62.2562 315.559 63.057 315.559C63.8577 315.559 64.2302 315.992 64.2302 316.895V319.949H65.0402V316.7C65.0402 315.508 64.4117 314.842 63.2851 314.842C62.5449 314.842 62.0746 315.154 61.8232 315.685H61.7487V314.93H60.9387V319.949ZM66.9351 313.962C67.2423 313.962 67.4937 313.711 67.4937 313.403C67.4937 313.096 67.2423 312.845 66.9351 312.845C66.6278 312.845 66.3764 313.096 66.3764 313.403C66.3764 313.711 66.6278 313.962 66.9351 313.962ZM66.5254 319.949H67.3355V314.93H66.5254V319.949ZM68.7927 317.621H71.9212V316.867H68.7927V317.621ZM75.4129 320.038C76.6187 320.038 77.2938 319.391 77.4986 318.483L77.5079 318.431L76.7072 318.436L76.6979 318.464C76.5116 319.023 76.0833 319.321 75.4083 319.321C74.5144 319.321 73.9371 318.58 73.9371 317.426V317.417C73.9371 316.285 74.5051 315.559 75.4083 315.559C76.1299 315.559 76.5768 315.959 76.7025 316.453L76.7072 316.467H77.5126L77.5079 316.439C77.3589 315.545 76.628 314.842 75.4083 314.842C74.0023 314.842 73.1084 315.857 73.1084 317.417V317.426C73.1084 319.018 74.0069 320.038 75.4129 320.038ZM80.0732 320.038C80.7482 320.038 81.2743 319.744 81.5909 319.209H81.6654V319.949H82.4754V316.513C82.4754 315.471 81.7911 314.842 80.5666 314.842C79.4959 314.842 78.7323 315.373 78.602 316.16L78.5973 316.187H79.4074L79.4121 316.174C79.5424 315.782 79.9381 315.559 80.5387 315.559C81.2883 315.559 81.6654 315.894 81.6654 316.513V316.97L80.2268 317.058C79.0582 317.128 78.3971 317.645 78.3971 318.539V318.548C78.3971 319.46 79.1188 320.038 80.0732 320.038ZM79.2258 318.529V318.52C79.2258 318.022 79.561 317.752 80.3246 317.705L81.6654 317.621V318.078C81.6654 318.795 81.0648 319.335 80.2408 319.335C79.6588 319.335 79.2258 319.037 79.2258 318.529ZM83.9559 319.949H84.766V316.839C84.766 316.104 85.3154 315.615 86.0882 315.615C86.2651 315.615 86.4187 315.633 86.5863 315.661V314.875C86.5072 314.861 86.3349 314.842 86.1813 314.842C85.5016 314.842 85.0314 315.149 84.8405 315.675H84.766V314.93H83.9559V319.949ZM89.3005 320.038C89.9989 320.038 90.5576 319.707 90.8648 319.148H90.9393V319.949H91.7494V312.938H90.9393V315.722H90.8648C90.5901 315.187 89.9896 314.842 89.3005 314.842C88.0249 314.842 87.1962 315.862 87.1962 317.435V317.445C87.1962 319.009 88.0296 320.038 89.3005 320.038ZM89.4868 319.321C88.5696 319.321 88.0249 318.613 88.0249 317.445V317.435C88.0249 316.267 88.5696 315.559 89.4868 315.559C90.3993 315.559 90.9579 316.276 90.9579 317.435V317.445C90.9579 318.604 90.3993 319.321 89.4868 319.321Z" fill="white"/>
<rect x="49.93" y="173.601" width="116.005" height="116.005" rx="7.54827" fill="#25222A" stroke="#25222A" stroke-width="0.794554"/>
<rect x="182.62" y="139.436" width="131.896" height="199.433" rx="11.521" fill="#312E38" stroke="#25222A" stroke-width="0.794554"/>
<path d="M191.343 161.778H193.044V157.65H197.674V161.778H199.369V152.261H197.674V156.218H193.044V152.261H191.343V161.778ZM204.315 161.923C206.274 161.923 207.237 160.796 207.467 159.866L207.487 159.806H205.924L205.904 159.852C205.746 160.182 205.238 160.631 204.348 160.631C203.233 160.631 202.534 159.879 202.514 158.586H207.553V158.045C207.553 155.869 206.287 154.431 204.236 154.431C202.185 154.431 200.872 155.915 200.872 158.184V158.19C200.872 160.486 202.171 161.923 204.315 161.923ZM204.256 155.717C205.172 155.717 205.838 156.304 205.951 157.485H202.528C202.653 156.337 203.339 155.717 204.256 155.717ZM210.837 161.897C211.786 161.897 212.552 161.488 212.947 160.789H213.059V161.778H214.682V156.852C214.682 155.328 213.64 154.431 211.786 154.431C210.072 154.431 208.911 155.236 208.753 156.449L208.746 156.509H210.296L210.303 156.482C210.467 156.007 210.955 155.737 211.707 155.737C212.591 155.737 213.059 156.133 213.059 156.852V157.472L211.206 157.584C209.452 157.689 208.469 158.441 208.469 159.727V159.74C208.469 161.053 209.465 161.897 210.837 161.897ZM210.091 159.661V159.648C210.091 159.054 210.52 158.718 211.437 158.659L213.059 158.553V159.134C213.059 159.991 212.327 160.637 211.338 160.637C210.613 160.637 210.091 160.275 210.091 159.661ZM218.928 161.897C219.944 161.897 220.722 161.435 221.118 160.651H221.23V161.778H222.879V151.78H221.23V155.717H221.118C220.742 154.939 219.918 154.451 218.928 154.451C217.101 154.451 215.974 155.875 215.974 158.171V158.184C215.974 160.466 217.121 161.897 218.928 161.897ZM219.443 160.512C218.322 160.512 217.642 159.635 217.642 158.184V158.171C217.642 156.72 218.328 155.836 219.443 155.836C220.557 155.836 221.257 156.726 221.257 158.171V158.184C221.257 159.628 220.564 160.512 219.443 160.512ZM224.685 161.778H226.327V151.78H224.685V161.778ZM228.925 153.363C229.459 153.363 229.901 152.934 229.901 152.393C229.901 151.859 229.459 151.424 228.925 151.424C228.384 151.424 227.942 151.859 227.942 152.393C227.942 152.934 228.384 153.363 228.925 153.363ZM228.101 161.778H229.743V154.57H228.101V161.778ZM231.437 161.778H233.079V157.577C233.079 156.495 233.686 155.809 234.662 155.809C235.658 155.809 236.113 156.377 236.113 157.498V161.778H237.755V157.115C237.755 155.401 236.878 154.431 235.269 154.431C234.227 154.431 233.534 154.899 233.191 155.671H233.079V154.57H231.437V161.778ZM242.457 161.923C244.416 161.923 245.379 160.796 245.609 159.866L245.629 159.806H244.066L244.046 159.852C243.888 160.182 243.38 160.631 242.49 160.631C241.375 160.631 240.676 159.879 240.656 158.586H245.695V158.045C245.695 155.869 244.429 154.431 242.378 154.431C240.326 154.431 239.014 155.915 239.014 158.184V158.19C239.014 160.486 240.313 161.923 242.457 161.923ZM242.397 155.717C243.314 155.717 243.98 156.304 244.092 157.485H240.669C240.795 156.337 241.481 155.717 242.397 155.717Z" fill="white"/>
<path d="M193.73 308.108C195.159 308.108 196.221 307.311 196.444 306.082V306.073H195.597L195.588 306.082C195.378 306.855 194.666 307.335 193.73 307.335C192.436 307.335 191.626 306.278 191.626 304.597V304.588C191.626 302.907 192.436 301.846 193.726 301.846C194.652 301.846 195.369 302.39 195.592 303.252L195.597 303.261H196.44L196.444 303.252C196.244 301.962 195.141 301.073 193.726 301.073C191.901 301.073 190.765 302.423 190.765 304.588V304.597C190.765 306.757 191.905 308.108 193.73 308.108ZM199.126 308.038C199.801 308.038 200.327 307.744 200.644 307.209H200.718V307.949H201.528V304.513C201.528 303.471 200.844 302.842 199.62 302.842C198.549 302.842 197.785 303.373 197.655 304.16L197.65 304.187H198.46L198.465 304.174C198.595 303.782 198.991 303.559 199.592 303.559C200.341 303.559 200.718 303.894 200.718 304.513V304.97L199.28 305.058C198.111 305.128 197.45 305.645 197.45 306.539V306.548C197.45 307.46 198.172 308.038 199.126 308.038ZM198.279 306.529V306.52C198.279 306.022 198.614 305.752 199.377 305.705L200.718 305.621V306.078C200.718 306.795 200.118 307.335 199.294 307.335C198.712 307.335 198.279 307.037 198.279 306.529ZM203.009 309.625H203.819V307.158H203.893C204.168 307.693 204.769 308.038 205.458 308.038C206.733 308.038 207.562 307.018 207.562 305.445V305.435C207.562 303.871 206.729 302.842 205.458 302.842C204.759 302.842 204.201 303.173 203.893 303.731H203.819V302.93H203.009V309.625ZM205.271 307.321C204.359 307.321 203.8 306.604 203.8 305.445V305.435C203.8 304.276 204.359 303.559 205.271 303.559C206.189 303.559 206.733 304.267 206.733 305.435V305.445C206.733 306.613 206.189 307.321 205.271 307.321ZM210.611 307.986C210.77 307.986 210.923 307.968 211.082 307.94V307.251C210.933 307.265 210.853 307.27 210.709 307.27C210.188 307.27 209.983 307.032 209.983 306.441V303.601H211.082V302.93H209.983V301.632H209.145V302.93H208.353V303.601H209.145V306.646C209.145 307.605 209.578 307.986 210.611 307.986ZM212.72 301.962C213.028 301.962 213.279 301.711 213.279 301.403C213.279 301.096 213.028 300.845 212.72 300.845C212.413 300.845 212.162 301.096 212.162 301.403C212.162 301.711 212.413 301.962 212.72 301.962ZM212.311 307.949H213.121V302.93H212.311V307.949ZM216.71 308.038C218.14 308.038 219.024 307.051 219.024 305.445V305.435C219.024 303.824 218.14 302.842 216.71 302.842C215.281 302.842 214.396 303.824 214.396 305.435V305.445C214.396 307.051 215.281 308.038 216.71 308.038ZM216.71 307.321C215.76 307.321 215.225 306.627 215.225 305.445V305.435C215.225 304.248 215.76 303.559 216.71 303.559C217.66 303.559 218.195 304.248 218.195 305.435V305.445C218.195 306.627 217.66 307.321 216.71 307.321ZM220.281 307.949H221.091V304.979C221.091 304.099 221.599 303.559 222.399 303.559C223.2 303.559 223.573 303.992 223.573 304.895V307.949H224.383V304.7C224.383 303.508 223.754 302.842 222.627 302.842C221.887 302.842 221.417 303.154 221.166 303.685H221.091V302.93H220.281V307.949ZM228.959 301.962C229.266 301.962 229.518 301.711 229.518 301.403C229.518 301.096 229.266 300.845 228.959 300.845C228.652 300.845 228.4 301.096 228.4 301.403C228.4 301.711 228.652 301.962 228.959 301.962ZM228.549 307.949H229.359V302.93H228.549V307.949ZM230.887 307.949H231.697V304.979C231.697 304.099 232.204 303.559 233.005 303.559C233.806 303.559 234.178 303.992 234.178 304.895V307.949H234.988V304.7C234.988 303.508 234.36 302.842 233.233 302.842C232.493 302.842 232.022 303.154 231.771 303.685H231.697V302.93H230.887V307.949ZM239.183 307.949H239.993V304.979C239.993 304.099 240.5 303.559 241.301 303.559C242.102 303.559 242.474 303.992 242.474 304.895V307.949H243.284V304.7C243.284 303.508 242.656 302.842 241.529 302.842C240.789 302.842 240.319 303.154 240.067 303.685H239.993V300.938H239.183V307.949ZM246.799 308.038C247.982 308.038 248.699 307.367 248.871 306.688L248.88 306.65H248.07L248.052 306.692C247.917 306.995 247.498 307.316 246.818 307.316C245.924 307.316 245.351 306.711 245.328 305.673H248.941V305.356C248.941 303.857 248.112 302.842 246.748 302.842C245.384 302.842 244.499 303.904 244.499 305.454V305.458C244.499 307.032 245.365 308.038 246.799 308.038ZM246.743 303.564C247.484 303.564 248.033 304.034 248.117 305.026H245.342C245.431 304.071 245.999 303.564 246.743 303.564ZM250.198 307.949H251.008V304.839C251.008 304.104 251.557 303.615 252.33 303.615C252.507 303.615 252.661 303.633 252.828 303.661V302.875C252.749 302.861 252.577 302.842 252.423 302.842C251.744 302.842 251.273 303.149 251.082 303.675H251.008V302.93H250.198V307.949ZM255.738 308.038C256.921 308.038 257.638 307.367 257.81 306.688L257.819 306.65H257.009L256.99 306.692C256.855 306.995 256.436 307.316 255.757 307.316C254.863 307.316 254.29 306.711 254.267 305.673H257.88V305.356C257.88 303.857 257.051 302.842 255.687 302.842C254.323 302.842 253.438 303.904 253.438 305.454V305.458C253.438 307.032 254.304 308.038 255.738 308.038ZM255.682 303.564C256.422 303.564 256.972 304.034 257.056 305.026H254.281C254.369 304.071 254.937 303.564 255.682 303.564ZM262.153 307.949H262.964V303.601H264.104V302.93H262.964V302.395C262.964 301.846 263.196 301.562 263.774 301.562C263.918 301.562 264.053 301.566 264.151 301.585V300.938C263.983 300.905 263.806 300.891 263.611 300.891C262.656 300.891 262.153 301.371 262.153 302.372V302.93H261.32V303.601H262.153V307.949ZM267.121 308.038C268.55 308.038 269.435 307.051 269.435 305.445V305.435C269.435 303.824 268.55 302.842 267.121 302.842C265.692 302.842 264.807 303.824 264.807 305.435V305.445C264.807 307.051 265.692 308.038 267.121 308.038ZM267.121 307.321C266.171 307.321 265.636 306.627 265.636 305.445V305.435C265.636 304.248 266.171 303.559 267.121 303.559C268.071 303.559 268.606 304.248 268.606 305.435V305.445C268.606 306.627 268.071 307.321 267.121 307.321ZM270.692 307.949H271.502V304.839C271.502 304.104 272.051 303.615 272.824 303.615C273.001 303.615 273.155 303.633 273.322 303.661V302.875C273.243 302.861 273.071 302.842 272.917 302.842C272.237 302.842 271.767 303.149 271.576 303.675H271.502V302.93H270.692V307.949ZM278.788 307.986C278.946 307.986 279.1 307.968 279.258 307.94V307.251C279.109 307.265 279.03 307.27 278.886 307.27C278.364 307.27 278.159 307.032 278.159 306.441V303.601H279.258V302.93H278.159V301.632H277.321V302.93H276.53V303.601H277.321V306.646C277.321 307.605 277.754 307.986 278.788 307.986ZM280.515 307.949H281.325V304.979C281.325 304.099 281.833 303.559 282.633 303.559C283.434 303.559 283.807 303.992 283.807 304.895V307.949H284.617V304.7C284.617 303.508 283.988 302.842 282.862 302.842C282.121 302.842 281.651 303.154 281.4 303.685H281.325V300.938H280.515V307.949ZM286.512 301.962C286.819 301.962 287.07 301.711 287.07 301.403C287.07 301.096 286.819 300.845 286.512 300.845C286.204 300.845 285.953 301.096 285.953 301.403C285.953 301.711 286.204 301.962 286.512 301.962ZM286.102 307.949H286.912V302.93H286.102V307.949ZM290.162 308.038C291.302 308.038 292.173 307.418 292.173 306.525V306.515C292.173 305.798 291.716 305.389 290.771 305.161L289.999 304.974C289.407 304.83 289.156 304.616 289.156 304.276V304.267C289.156 303.824 289.594 303.517 290.189 303.517C290.795 303.517 291.186 303.792 291.293 304.187H292.089C291.977 303.368 291.246 302.842 290.194 302.842C289.128 302.842 288.327 303.471 288.327 304.304V304.309C288.327 305.03 288.751 305.44 289.691 305.663L290.469 305.85C291.088 305.999 291.344 306.236 291.344 306.576V306.585C291.344 307.041 290.865 307.363 290.189 307.363C289.547 307.363 289.147 307.088 289.012 306.669H288.183C288.276 307.498 289.044 308.038 290.162 308.038ZM190.923 319.949H191.733V316.839C191.733 316.132 192.231 315.559 192.888 315.559C193.521 315.559 193.93 315.945 193.93 316.541V319.949H194.74V316.723C194.74 316.085 195.201 315.559 195.9 315.559C196.607 315.559 196.947 315.927 196.947 316.667V319.949H197.757V316.481C197.757 315.429 197.185 314.842 196.16 314.842C195.467 314.842 194.894 315.191 194.624 315.722H194.55C194.317 315.201 193.842 314.842 193.162 314.842C192.506 314.842 192.031 315.154 191.807 315.694H191.733V314.93H190.923V319.949ZM199.647 313.962C199.955 313.962 200.206 313.711 200.206 313.403C200.206 313.096 199.955 312.845 199.647 312.845C199.34 312.845 199.089 313.096 199.089 313.403C199.089 313.711 199.34 313.962 199.647 313.962ZM199.238 319.949H200.048V314.93H199.238V319.949ZM201.575 319.949H202.385V316.979C202.385 316.099 202.892 315.559 203.693 315.559C204.494 315.559 204.866 315.992 204.866 316.895V319.949H205.676V316.7C205.676 315.508 205.048 314.842 203.921 314.842C203.181 314.842 202.711 315.154 202.459 315.685H202.385V314.93H201.575V319.949ZM207.571 313.962C207.879 313.962 208.13 313.711 208.13 313.403C208.13 313.096 207.879 312.845 207.571 312.845C207.264 312.845 207.013 313.096 207.013 313.403C207.013 313.711 207.264 313.962 207.571 313.962ZM207.162 319.949H207.972V314.93H207.162V319.949ZM209.429 317.621H212.557V316.867H209.429V317.621ZM216.049 320.038C217.255 320.038 217.93 319.391 218.135 318.483L218.144 318.431L217.343 318.436L217.334 318.464C217.148 319.023 216.72 319.321 216.044 319.321C215.151 319.321 214.573 318.58 214.573 317.426V317.417C214.573 316.285 215.141 315.559 216.044 315.559C216.766 315.559 217.213 315.959 217.339 316.453L217.343 316.467H218.149L218.144 316.439C217.995 315.545 217.264 314.842 216.044 314.842C214.638 314.842 213.745 315.857 213.745 317.417V317.426C213.745 319.018 214.643 320.038 216.049 320.038ZM220.709 320.038C221.384 320.038 221.911 319.744 222.227 319.209H222.302V319.949H223.112V316.513C223.112 315.471 222.427 314.842 221.203 314.842C220.132 314.842 219.369 315.373 219.238 316.16L219.234 316.187H220.044L220.048 316.174C220.179 315.782 220.574 315.559 221.175 315.559C221.924 315.559 222.302 315.894 222.302 316.513V316.97L220.863 317.058C219.694 317.128 219.033 317.645 219.033 318.539V318.548C219.033 319.46 219.755 320.038 220.709 320.038ZM219.862 318.529V318.52C219.862 318.022 220.197 317.752 220.961 317.705L222.302 317.621V318.078C222.302 318.795 221.701 319.335 220.877 319.335C220.295 319.335 219.862 319.037 219.862 318.529ZM224.592 319.949H225.402V316.839C225.402 316.104 225.952 315.615 226.724 315.615C226.901 315.615 227.055 315.633 227.223 315.661V314.875C227.143 314.861 226.971 314.842 226.818 314.842C226.138 314.842 225.668 315.149 225.477 315.675H225.402V314.93H224.592V319.949ZM229.937 320.038C230.635 320.038 231.194 319.707 231.501 319.148H231.576V319.949H232.386V312.938H231.576V315.722H231.501C231.226 315.187 230.626 314.842 229.937 314.842C228.661 314.842 227.832 315.862 227.832 317.435V317.445C227.832 319.009 228.666 320.038 229.937 320.038ZM230.123 319.321C229.206 319.321 228.661 318.613 228.661 317.445V317.435C228.661 316.267 229.206 315.559 230.123 315.559C231.035 315.559 231.594 316.276 231.594 317.435V317.445C231.594 318.604 231.035 319.321 230.123 319.321Z" fill="white"/>
<rect x="190.566" y="173.601" width="116.005" height="116.005" rx="7.54827" fill="#25222A" stroke="#25222A" stroke-width="0.794554"/>
</g>
</g>
<g clip-path="url(#clip3_13_1158)">
<g clip-path="url(#clip4_13_1158)">
<rect x="41.9842" y="489.834" width="131.896" height="199.433" rx="11.521" fill="#312E38" stroke="#25222A" stroke-width="0.794554"/>
<path d="M50.7065 512.177H52.4081V508.048H57.0381V512.177H58.7331V502.66H57.0381V506.617H52.4081V502.66H50.7065V512.177ZM63.6787 512.322C65.6375 512.322 66.6004 511.194 66.8313 510.264L66.851 510.205H65.2879L65.2681 510.251C65.1099 510.581 64.602 511.029 63.7116 511.029C62.597 511.029 61.8979 510.278 61.8781 508.985H66.917V508.444C66.917 506.268 65.6507 504.83 63.5995 504.83C61.5483 504.83 60.2358 506.314 60.2358 508.582V508.589C60.2358 510.884 61.5351 512.322 63.6787 512.322ZM63.6193 506.116C64.5361 506.116 65.2022 506.703 65.3143 507.883H61.8913C62.0166 506.736 62.7025 506.116 63.6193 506.116ZM70.2005 512.296C71.1503 512.296 71.9153 511.887 72.3111 511.188H72.4232V512.177H74.0457V507.25C74.0457 505.727 73.0036 504.83 71.1503 504.83C69.4355 504.83 68.2747 505.634 68.1164 506.848L68.1098 506.907H69.6597L69.6663 506.881C69.8312 506.406 70.3192 506.136 71.0711 506.136C71.9549 506.136 72.4232 506.531 72.4232 507.25V507.87L70.5699 507.982C68.8155 508.088 67.8328 508.84 67.8328 510.126V510.139C67.8328 511.452 68.8287 512.296 70.2005 512.296ZM69.4552 510.06V510.047C69.4552 509.453 69.8839 509.117 70.8007 509.057L72.4232 508.952V509.532C72.4232 510.39 71.6911 511.036 70.7018 511.036C69.9763 511.036 69.4552 510.673 69.4552 510.06ZM78.2921 512.296C79.3078 512.296 80.0861 511.834 80.4818 511.049H80.5939V512.177H82.2428V502.178H80.5939V506.116H80.4818C80.1058 505.338 79.2814 504.849 78.2921 504.849C76.4652 504.849 75.3374 506.274 75.3374 508.569V508.582C75.3374 510.865 76.485 512.296 78.2921 512.296ZM78.8065 510.911C77.6853 510.911 77.006 510.033 77.006 508.582V508.569C77.006 507.118 77.6919 506.235 78.8065 506.235C79.9212 506.235 80.6203 507.125 80.6203 508.569V508.582C80.6203 510.027 79.9278 510.911 78.8065 510.911ZM84.0489 512.177H85.6912V502.178H84.0489V512.177ZM88.2888 503.761C88.823 503.761 89.2649 503.333 89.2649 502.792C89.2649 502.257 88.823 501.822 88.2888 501.822C87.7479 501.822 87.306 502.257 87.306 502.792C87.306 503.333 87.7479 503.761 88.2888 503.761ZM87.4643 512.177H89.1066V504.968H87.4643V512.177ZM90.8006 512.177H92.4429V507.976C92.4429 506.894 93.0497 506.208 94.0258 506.208C95.0217 506.208 95.4768 506.775 95.4768 507.897V512.177H97.119V507.514C97.119 505.799 96.2418 504.83 94.6326 504.83C93.5905 504.83 92.898 505.298 92.555 506.07H92.4429V504.968H90.8006V512.177ZM101.821 512.322C103.779 512.322 104.742 511.194 104.973 510.264L104.993 510.205H103.43L103.41 510.251C103.252 510.581 102.744 511.029 101.854 511.029C100.739 511.029 100.04 510.278 100.02 508.985H105.059V508.444C105.059 506.268 103.793 504.83 101.741 504.83C99.6902 504.83 98.3778 506.314 98.3778 508.582V508.589C98.3778 510.884 99.677 512.322 101.821 512.322ZM101.761 506.116C102.678 506.116 103.344 506.703 103.456 507.883H100.033C100.159 506.736 100.844 506.116 101.761 506.116Z" fill="white"/>
<path d="M53.094 658.506C54.5233 658.506 55.5847 657.71 55.8082 656.481V656.472H54.9609L54.9516 656.481C54.7421 657.254 54.0298 657.733 53.094 657.733C51.7997 657.733 50.9897 656.677 50.9897 654.996V654.987C50.9897 653.306 51.7997 652.244 53.0893 652.244C54.0158 652.244 54.7328 652.789 54.9562 653.65L54.9609 653.66H55.8036L55.8082 653.65C55.608 652.361 54.5046 651.472 53.0893 651.472C51.2644 651.472 50.1284 652.822 50.1284 654.987V654.996C50.1284 657.156 51.269 658.506 53.094 658.506ZM58.4898 658.436C59.1649 658.436 59.691 658.143 60.0076 657.608H60.082V658.348H60.8921V654.912C60.8921 653.869 60.2077 653.241 58.9833 653.241C57.9125 653.241 57.149 653.771 57.0187 654.558L57.014 654.586H57.8241L57.8287 654.572C57.9591 654.181 58.3548 653.958 58.9554 653.958C59.7049 653.958 60.082 654.293 60.082 654.912V655.368L58.6435 655.457C57.4749 655.527 56.8138 656.043 56.8138 656.937V656.947C56.8138 657.859 57.5354 658.436 58.4898 658.436ZM57.6425 656.928V656.919C57.6425 656.42 57.9777 656.15 58.7412 656.104L60.082 656.02V656.476C60.082 657.193 59.4815 657.733 58.6574 657.733C58.0755 657.733 57.6425 657.435 57.6425 656.928ZM62.3726 660.024H63.1827V657.556H63.2572C63.5318 658.092 64.1324 658.436 64.8214 658.436C66.0971 658.436 66.9258 657.417 66.9258 655.843V655.834C66.9258 654.27 66.0924 653.241 64.8214 653.241C64.1231 653.241 63.5644 653.571 63.2572 654.13H63.1827V653.329H62.3726V660.024ZM64.6352 657.719C63.7227 657.719 63.164 657.002 63.164 655.843V655.834C63.164 654.675 63.7227 653.958 64.6352 653.958C65.5524 653.958 66.0971 654.665 66.0971 655.834V655.843C66.0971 657.012 65.5524 657.719 64.6352 657.719ZM69.9752 658.385C70.1335 658.385 70.2871 658.367 70.4454 658.339V657.65C70.2964 657.664 70.2173 657.668 70.0729 657.668C69.5515 657.668 69.3467 657.431 69.3467 656.839V654H70.4454V653.329H69.3467V652.03H68.5087V653.329H67.7172V654H68.5087V657.044C68.5087 658.003 68.9416 658.385 69.9752 658.385ZM72.0842 652.361C72.3914 652.361 72.6428 652.109 72.6428 651.802C72.6428 651.495 72.3914 651.243 72.0842 651.243C71.7769 651.243 71.5255 651.495 71.5255 651.802C71.5255 652.109 71.7769 652.361 72.0842 652.361ZM71.6745 658.348H72.4845V653.329H71.6745V658.348ZM76.074 658.436C77.5033 658.436 78.3878 657.449 78.3878 655.843V655.834C78.3878 654.223 77.5033 653.241 76.074 653.241C74.6447 653.241 73.7602 654.223 73.7602 655.834V655.843C73.7602 657.449 74.6447 658.436 76.074 658.436ZM76.074 657.719C75.1243 657.719 74.5889 657.026 74.5889 655.843V655.834C74.5889 654.647 75.1243 653.958 76.074 653.958C77.0237 653.958 77.5591 654.647 77.5591 655.834V655.843C77.5591 657.026 77.0237 657.719 76.074 657.719ZM79.6448 658.348H80.4549V655.378C80.4549 654.498 80.9624 653.958 81.7631 653.958C82.5639 653.958 82.9363 654.391 82.9363 655.294V658.348H83.7464V655.098C83.7464 653.906 83.1179 653.241 81.9913 653.241C81.251 653.241 80.7808 653.553 80.5294 654.083H80.4549V653.329H79.6448V658.348ZM88.3229 652.361C88.6301 652.361 88.8815 652.109 88.8815 651.802C88.8815 651.495 88.6301 651.243 88.3229 651.243C88.0156 651.243 87.7642 651.495 87.7642 651.802C87.7642 652.109 88.0156 652.361 88.3229 652.361ZM87.9132 658.348H88.7232V653.329H87.9132V658.348ZM90.2503 658.348H91.0604V655.378C91.0604 654.498 91.5678 653.958 92.3686 653.958C93.1693 653.958 93.5418 654.391 93.5418 655.294V658.348H94.3519V655.098C94.3519 653.906 93.7234 653.241 92.5967 653.241C91.8565 653.241 91.3862 653.553 91.1348 654.083H91.0604V653.329H90.2503V658.348ZM98.5466 658.348H99.3566V655.378C99.3566 654.498 99.8641 653.958 100.665 653.958C101.466 653.958 101.838 654.391 101.838 655.294V658.348H102.648V655.098C102.648 653.906 102.02 653.241 100.893 653.241C100.153 653.241 99.6825 653.553 99.4311 654.083H99.3566V651.337H98.5466V658.348ZM106.163 658.436C107.346 658.436 108.063 657.766 108.235 657.086L108.244 657.049H107.434L107.415 657.091C107.28 657.394 106.861 657.715 106.182 657.715C105.288 657.715 104.715 657.11 104.692 656.071H108.305V655.755C108.305 654.256 107.476 653.241 106.112 653.241C104.748 653.241 103.863 654.302 103.863 655.853V655.857C103.863 657.431 104.729 658.436 106.163 658.436ZM106.107 653.962C106.847 653.962 107.397 654.433 107.481 655.424H104.706C104.794 654.47 105.362 653.962 106.107 653.962ZM109.562 658.348H110.372V655.238C110.372 654.502 110.921 654.014 111.694 654.014C111.871 654.014 112.024 654.032 112.192 654.06V653.273C112.113 653.259 111.941 653.241 111.787 653.241C111.107 653.241 110.637 653.548 110.446 654.074H110.372V653.329H109.562V658.348ZM115.102 658.436C116.284 658.436 117.001 657.766 117.174 657.086L117.183 657.049H116.373L116.354 657.091C116.219 657.394 115.8 657.715 115.12 657.715C114.227 657.715 113.654 657.11 113.631 656.071H117.243V655.755C117.243 654.256 116.415 653.241 115.051 653.241C113.687 653.241 112.802 654.302 112.802 655.853V655.857C112.802 657.431 113.668 658.436 115.102 658.436ZM115.046 653.962C115.786 653.962 116.336 654.433 116.419 655.424H113.645C113.733 654.47 114.301 653.962 115.046 653.962ZM121.517 658.348H122.327V654H123.468V653.329H122.327V652.794C122.327 652.244 122.56 651.96 123.137 651.96C123.282 651.96 123.417 651.965 123.514 651.984V651.337C123.347 651.304 123.17 651.29 122.974 651.29C122.02 651.29 121.517 651.77 121.517 652.771V653.329H120.684V654H121.517V658.348ZM126.485 658.436C127.914 658.436 128.799 657.449 128.799 655.843V655.834C128.799 654.223 127.914 653.241 126.485 653.241C125.055 653.241 124.171 654.223 124.171 655.834V655.843C124.171 657.449 125.055 658.436 126.485 658.436ZM126.485 657.719C125.535 657.719 125 657.026 125 655.843V655.834C125 654.647 125.535 653.958 126.485 653.958C127.435 653.958 127.97 654.647 127.97 655.834V655.843C127.97 657.026 127.435 657.719 126.485 657.719ZM130.056 658.348H130.866V655.238C130.866 654.502 131.415 654.014 132.188 654.014C132.365 654.014 132.518 654.032 132.686 654.06V653.273C132.607 653.259 132.435 653.241 132.281 653.241C131.601 653.241 131.131 653.548 130.94 654.074H130.866V653.329H130.056V658.348ZM138.152 658.385C138.31 658.385 138.464 658.367 138.622 658.339V657.65C138.473 657.664 138.394 657.668 138.249 657.668C137.728 657.668 137.523 657.431 137.523 656.839V654H138.622V653.329H137.523V652.03H136.685V653.329H135.894V654H136.685V657.044C136.685 658.003 137.118 658.385 138.152 658.385ZM139.879 658.348H140.689V655.378C140.689 654.498 141.196 653.958 141.997 653.958C142.798 653.958 143.17 654.391 143.17 655.294V658.348H143.98V655.098C143.98 653.906 143.352 653.241 142.225 653.241C141.485 653.241 141.015 653.553 140.763 654.083H140.689V651.337H139.879V658.348ZM145.875 652.361C146.183 652.361 146.434 652.109 146.434 651.802C146.434 651.495 146.183 651.243 145.875 651.243C145.568 651.243 145.317 651.495 145.317 651.802C145.317 652.109 145.568 652.361 145.875 652.361ZM145.466 658.348H146.276V653.329H145.466V658.348ZM149.525 658.436C150.666 658.436 151.537 657.817 151.537 656.923V656.914C151.537 656.197 151.08 655.787 150.135 655.559L149.362 655.373C148.771 655.229 148.52 655.014 148.52 654.675V654.665C148.52 654.223 148.957 653.916 149.553 653.916C150.158 653.916 150.55 654.19 150.657 654.586H151.453C151.341 653.767 150.61 653.241 149.558 653.241C148.492 653.241 147.691 653.869 147.691 654.703V654.707C147.691 655.429 148.115 655.839 149.055 656.062L149.833 656.248C150.452 656.397 150.708 656.635 150.708 656.975V656.984C150.708 657.44 150.228 657.761 149.553 657.761C148.911 657.761 148.51 657.487 148.375 657.068H147.547C147.64 657.896 148.408 658.436 149.525 658.436ZM50.2867 670.348H51.0967V667.238C51.0967 666.53 51.5949 665.958 52.2513 665.958C52.8845 665.958 53.2942 666.344 53.2942 666.94V670.348H54.1043V667.122C54.1043 666.484 54.5652 665.958 55.2635 665.958C55.9712 665.958 56.311 666.325 56.311 667.066V670.348H57.1211V666.879C57.1211 665.827 56.5484 665.241 55.5242 665.241C54.8305 665.241 54.2579 665.59 53.9879 666.121H53.9134C53.6806 665.599 53.2057 665.241 52.526 665.241C51.8696 665.241 51.3947 665.553 51.1712 666.093H51.0967V665.329H50.2867V670.348ZM59.0113 664.361C59.3185 664.361 59.5699 664.109 59.5699 663.802C59.5699 663.495 59.3185 663.243 59.0113 663.243C58.704 663.243 58.4526 663.495 58.4526 663.802C58.4526 664.109 58.704 664.361 59.0113 664.361ZM58.6016 670.348H59.4116V665.329H58.6016V670.348ZM60.9387 670.348H61.7487V667.378C61.7487 666.498 62.2562 665.958 63.057 665.958C63.8577 665.958 64.2302 666.391 64.2302 667.294V670.348H65.0402V667.098C65.0402 665.906 64.4117 665.241 63.2851 665.241C62.5449 665.241 62.0746 665.553 61.8232 666.083H61.7487V665.329H60.9387V670.348ZM66.9351 664.361C67.2423 664.361 67.4937 664.109 67.4937 663.802C67.4937 663.495 67.2423 663.243 66.9351 663.243C66.6278 663.243 66.3764 663.495 66.3764 663.802C66.3764 664.109 66.6278 664.361 66.9351 664.361ZM66.5254 670.348H67.3355V665.329H66.5254V670.348ZM68.7927 668.02H71.9212V667.266H68.7927V668.02ZM75.4129 670.436C76.6187 670.436 77.2938 669.789 77.4986 668.881L77.5079 668.83L76.7072 668.835L76.6979 668.863C76.5116 669.421 76.0833 669.719 75.4083 669.719C74.5144 669.719 73.9371 668.979 73.9371 667.825V667.815C73.9371 666.684 74.5051 665.958 75.4083 665.958C76.1299 665.958 76.5768 666.358 76.7025 666.852L76.7072 666.866H77.5126L77.5079 666.838C77.3589 665.944 76.628 665.241 75.4083 665.241C74.0023 665.241 73.1084 666.256 73.1084 667.815V667.825C73.1084 669.417 74.0069 670.436 75.4129 670.436ZM80.0732 670.436C80.7482 670.436 81.2743 670.143 81.5909 669.608H81.6654V670.348H82.4754V666.912C82.4754 665.869 81.7911 665.241 80.5666 665.241C79.4959 665.241 78.7323 665.771 78.602 666.558L78.5973 666.586H79.4074L79.4121 666.572C79.5424 666.181 79.9381 665.958 80.5387 665.958C81.2883 665.958 81.6654 666.293 81.6654 666.912V667.368L80.2268 667.457C79.0582 667.527 78.3971 668.043 78.3971 668.937V668.947C78.3971 669.859 79.1188 670.436 80.0732 670.436ZM79.2258 668.928V668.919C79.2258 668.42 79.561 668.15 80.3246 668.104L81.6654 668.02V668.476C81.6654 669.193 81.0648 669.733 80.2408 669.733C79.6588 669.733 79.2258 669.435 79.2258 668.928ZM83.9559 670.348H84.766V667.238C84.766 666.502 85.3154 666.014 86.0882 666.014C86.2651 666.014 86.4187 666.032 86.5863 666.06V665.273C86.5072 665.259 86.3349 665.241 86.1813 665.241C85.5016 665.241 85.0314 665.548 84.8405 666.074H84.766V665.329H83.9559V670.348ZM89.3005 670.436C89.9989 670.436 90.5576 670.106 90.8648 669.547H90.9393V670.348H91.7494V663.337H90.9393V666.121H90.8648C90.5901 665.585 89.9896 665.241 89.3005 665.241C88.0249 665.241 87.1962 666.26 87.1962 667.834V667.843C87.1962 669.407 88.0296 670.436 89.3005 670.436ZM89.4868 669.719C88.5696 669.719 88.0249 669.012 88.0249 667.843V667.834C88.0249 666.665 88.5696 665.958 89.4868 665.958C90.3993 665.958 90.9579 666.675 90.9579 667.834V667.843C90.9579 669.002 90.3993 669.719 89.4868 669.719Z" fill="white"/>
<rect x="49.93" y="524" width="116.005" height="116.005" rx="7.54827" fill="#25222A" stroke="#25222A" stroke-width="0.794554"/>
<rect x="182.62" y="489.834" width="131.896" height="199.433" rx="11.521" fill="#312E38" stroke="#25222A" stroke-width="0.794554"/>
<path d="M191.343 512.177H193.044V508.048H197.674V512.177H199.369V502.66H197.674V506.617H193.044V502.66H191.343V512.177ZM204.315 512.322C206.274 512.322 207.237 511.194 207.467 510.264L207.487 510.205H205.924L205.904 510.251C205.746 510.581 205.238 511.029 204.348 511.029C203.233 511.029 202.534 510.278 202.514 508.985H207.553V508.444C207.553 506.268 206.287 504.83 204.236 504.83C202.185 504.83 200.872 506.314 200.872 508.582V508.589C200.872 510.884 202.171 512.322 204.315 512.322ZM204.256 506.116C205.172 506.116 205.838 506.703 205.951 507.883H202.528C202.653 506.736 203.339 506.116 204.256 506.116ZM210.837 512.296C211.786 512.296 212.552 511.887 212.947 511.188H213.059V512.177H214.682V507.25C214.682 505.727 213.64 504.83 211.786 504.83C210.072 504.83 208.911 505.634 208.753 506.848L208.746 506.907H210.296L210.303 506.881C210.467 506.406 210.955 506.136 211.707 506.136C212.591 506.136 213.059 506.531 213.059 507.25V507.87L211.206 507.982C209.452 508.088 208.469 508.84 208.469 510.126V510.139C208.469 511.452 209.465 512.296 210.837 512.296ZM210.091 510.06V510.047C210.091 509.453 210.52 509.117 211.437 509.057L213.059 508.952V509.532C213.059 510.39 212.327 511.036 211.338 511.036C210.613 511.036 210.091 510.673 210.091 510.06ZM218.928 512.296C219.944 512.296 220.722 511.834 221.118 511.049H221.23V512.177H222.879V502.178H221.23V506.116H221.118C220.742 505.338 219.918 504.849 218.928 504.849C217.101 504.849 215.974 506.274 215.974 508.569V508.582C215.974 510.865 217.121 512.296 218.928 512.296ZM219.443 510.911C218.322 510.911 217.642 510.033 217.642 508.582V508.569C217.642 507.118 218.328 506.235 219.443 506.235C220.557 506.235 221.257 507.125 221.257 508.569V508.582C221.257 510.027 220.564 510.911 219.443 510.911ZM224.685 512.177H226.327V502.178H224.685V512.177ZM228.925 503.761C229.459 503.761 229.901 503.333 229.901 502.792C229.901 502.257 229.459 501.822 228.925 501.822C228.384 501.822 227.942 502.257 227.942 502.792C227.942 503.333 228.384 503.761 228.925 503.761ZM228.101 512.177H229.743V504.968H228.101V512.177ZM231.437 512.177H233.079V507.976C233.079 506.894 233.686 506.208 234.662 506.208C235.658 506.208 236.113 506.775 236.113 507.897V512.177H237.755V507.514C237.755 505.799 236.878 504.83 235.269 504.83C234.227 504.83 233.534 505.298 233.191 506.07H233.079V504.968H231.437V512.177ZM242.457 512.322C244.416 512.322 245.379 511.194 245.609 510.264L245.629 510.205H244.066L244.046 510.251C243.888 510.581 243.38 511.029 242.49 511.029C241.375 511.029 240.676 510.278 240.656 508.985H245.695V508.444C245.695 506.268 244.429 504.83 242.378 504.83C240.326 504.83 239.014 506.314 239.014 508.582V508.589C239.014 510.884 240.313 512.322 242.457 512.322ZM242.397 506.116C243.314 506.116 243.98 506.703 244.092 507.883H240.669C240.795 506.736 241.481 506.116 242.397 506.116Z" fill="white"/>
<path d="M193.73 658.506C195.159 658.506 196.221 657.71 196.444 656.481V656.472H195.597L195.588 656.481C195.378 657.254 194.666 657.733 193.73 657.733C192.436 657.733 191.626 656.677 191.626 654.996V654.987C191.626 653.306 192.436 652.244 193.726 652.244C194.652 652.244 195.369 652.789 195.592 653.65L195.597 653.66H196.44L196.444 653.65C196.244 652.361 195.141 651.472 193.726 651.472C191.901 651.472 190.765 652.822 190.765 654.987V654.996C190.765 657.156 191.905 658.506 193.73 658.506ZM199.126 658.436C199.801 658.436 200.327 658.143 200.644 657.608H200.718V658.348H201.528V654.912C201.528 653.869 200.844 653.241 199.62 653.241C198.549 653.241 197.785 653.771 197.655 654.558L197.65 654.586H198.46L198.465 654.572C198.595 654.181 198.991 653.958 199.592 653.958C200.341 653.958 200.718 654.293 200.718 654.912V655.368L199.28 655.457C198.111 655.527 197.45 656.043 197.45 656.937V656.947C197.45 657.859 198.172 658.436 199.126 658.436ZM198.279 656.928V656.919C198.279 656.42 198.614 656.15 199.377 656.104L200.718 656.02V656.476C200.718 657.193 200.118 657.733 199.294 657.733C198.712 657.733 198.279 657.435 198.279 656.928ZM203.009 660.024H203.819V657.556H203.893C204.168 658.092 204.769 658.436 205.458 658.436C206.733 658.436 207.562 657.417 207.562 655.843V655.834C207.562 654.27 206.729 653.241 205.458 653.241C204.759 653.241 204.201 653.571 203.893 654.13H203.819V653.329H203.009V660.024ZM205.271 657.719C204.359 657.719 203.8 657.002 203.8 655.843V655.834C203.8 654.675 204.359 653.958 205.271 653.958C206.189 653.958 206.733 654.665 206.733 655.834V655.843C206.733 657.012 206.189 657.719 205.271 657.719ZM210.611 658.385C210.77 658.385 210.923 658.367 211.082 658.339V657.65C210.933 657.664 210.853 657.668 210.709 657.668C210.188 657.668 209.983 657.431 209.983 656.839V654H211.082V653.329H209.983V652.03H209.145V653.329H208.353V654H209.145V657.044C209.145 658.003 209.578 658.385 210.611 658.385ZM212.72 652.361C213.028 652.361 213.279 652.109 213.279 651.802C213.279 651.495 213.028 651.243 212.72 651.243C212.413 651.243 212.162 651.495 212.162 651.802C212.162 652.109 212.413 652.361 212.72 652.361ZM212.311 658.348H213.121V653.329H212.311V658.348ZM216.71 658.436C218.14 658.436 219.024 657.449 219.024 655.843V655.834C219.024 654.223 218.14 653.241 216.71 653.241C215.281 653.241 214.396 654.223 214.396 655.834V655.843C214.396 657.449 215.281 658.436 216.71 658.436ZM216.71 657.719C215.76 657.719 215.225 657.026 215.225 655.843V655.834C215.225 654.647 215.76 653.958 216.71 653.958C217.66 653.958 218.195 654.647 218.195 655.834V655.843C218.195 657.026 217.66 657.719 216.71 657.719ZM220.281 658.348H221.091V655.378C221.091 654.498 221.599 653.958 222.399 653.958C223.2 653.958 223.573 654.391 223.573 655.294V658.348H224.383V655.098C224.383 653.906 223.754 653.241 222.627 653.241C221.887 653.241 221.417 653.553 221.166 654.083H221.091V653.329H220.281V658.348ZM228.959 652.361C229.266 652.361 229.518 652.109 229.518 651.802C229.518 651.495 229.266 651.243 228.959 651.243C228.652 651.243 228.4 651.495 228.4 651.802C228.4 652.109 228.652 652.361 228.959 652.361ZM228.549 658.348H229.359V653.329H228.549V658.348ZM230.887 658.348H231.697V655.378C231.697 654.498 232.204 653.958 233.005 653.958C233.806 653.958 234.178 654.391 234.178 655.294V658.348H234.988V655.098C234.988 653.906 234.36 653.241 233.233 653.241C232.493 653.241 232.022 653.553 231.771 654.083H231.697V653.329H230.887V658.348ZM239.183 658.348H239.993V655.378C239.993 654.498 240.5 653.958 241.301 653.958C242.102 653.958 242.474 654.391 242.474 655.294V658.348H243.284V655.098C243.284 653.906 242.656 653.241 241.529 653.241C240.789 653.241 240.319 653.553 240.067 654.083H239.993V651.337H239.183V658.348ZM246.799 658.436C247.982 658.436 248.699 657.766 248.871 657.086L248.88 657.049H248.07L248.052 657.091C247.917 657.394 247.498 657.715 246.818 657.715C245.924 657.715 245.351 657.11 245.328 656.071H248.941V655.755C248.941 654.256 248.112 653.241 246.748 653.241C245.384 653.241 244.499 654.302 244.499 655.853V655.857C244.499 657.431 245.365 658.436 246.799 658.436ZM246.743 653.962C247.484 653.962 248.033 654.433 248.117 655.424H245.342C245.431 654.47 245.999 653.962 246.743 653.962ZM250.198 658.348H251.008V655.238C251.008 654.502 251.557 654.014 252.33 654.014C252.507 654.014 252.661 654.032 252.828 654.06V653.273C252.749 653.259 252.577 653.241 252.423 653.241C251.744 653.241 251.273 653.548 251.082 654.074H251.008V653.329H250.198V658.348ZM255.738 658.436C256.921 658.436 257.638 657.766 257.81 657.086L257.819 657.049H257.009L256.99 657.091C256.855 657.394 256.436 657.715 255.757 657.715C254.863 657.715 254.29 657.11 254.267 656.071H257.88V655.755C257.88 654.256 257.051 653.241 255.687 653.241C254.323 653.241 253.438 654.302 253.438 655.853V655.857C253.438 657.431 254.304 658.436 255.738 658.436ZM255.682 653.962C256.422 653.962 256.972 654.433 257.056 655.424H254.281C254.369 654.47 254.937 653.962 255.682 653.962ZM262.153 658.348H262.964V654H264.104V653.329H262.964V652.794C262.964 652.244 263.196 651.96 263.774 651.96C263.918 651.96 264.053 651.965 264.151 651.984V651.337C263.983 651.304 263.806 651.29 263.611 651.29C262.656 651.29 262.153 651.77 262.153 652.771V653.329H261.32V654H262.153V658.348ZM267.121 658.436C268.55 658.436 269.435 657.449 269.435 655.843V655.834C269.435 654.223 268.55 653.241 267.121 653.241C265.692 653.241 264.807 654.223 264.807 655.834V655.843C264.807 657.449 265.692 658.436 267.121 658.436ZM267.121 657.719C266.171 657.719 265.636 657.026 265.636 655.843V655.834C265.636 654.647 266.171 653.958 267.121 653.958C268.071 653.958 268.606 654.647 268.606 655.834V655.843C268.606 657.026 268.071 657.719 267.121 657.719ZM270.692 658.348H271.502V655.238C271.502 654.502 272.051 654.014 272.824 654.014C273.001 654.014 273.155 654.032 273.322 654.06V653.273C273.243 653.259 273.071 653.241 272.917 653.241C272.237 653.241 271.767 653.548 271.576 654.074H271.502V653.329H270.692V658.348ZM278.788 658.385C278.946 658.385 279.1 658.367 279.258 658.339V657.65C279.109 657.664 279.03 657.668 278.886 657.668C278.364 657.668 278.159 657.431 278.159 656.839V654H279.258V653.329H278.159V652.03H277.321V653.329H276.53V654H277.321V657.044C277.321 658.003 277.754 658.385 278.788 658.385ZM280.515 658.348H281.325V655.378C281.325 654.498 281.833 653.958 282.633 653.958C283.434 653.958 283.807 654.391 283.807 655.294V658.348H284.617V655.098C284.617 653.906 283.988 653.241 282.862 653.241C282.121 653.241 281.651 653.553 281.4 654.083H281.325V651.337H280.515V658.348ZM286.512 652.361C286.819 652.361 287.07 652.109 287.07 651.802C287.07 651.495 286.819 651.243 286.512 651.243C286.204 651.243 285.953 651.495 285.953 651.802C285.953 652.109 286.204 652.361 286.512 652.361ZM286.102 658.348H286.912V653.329H286.102V658.348ZM290.162 658.436C291.302 658.436 292.173 657.817 292.173 656.923V656.914C292.173 656.197 291.716 655.787 290.771 655.559L289.999 655.373C289.407 655.229 289.156 655.014 289.156 654.675V654.665C289.156 654.223 289.594 653.916 290.189 653.916C290.795 653.916 291.186 654.19 291.293 654.586H292.089C291.977 653.767 291.246 653.241 290.194 653.241C289.128 653.241 288.327 653.869 288.327 654.703V654.707C288.327 655.429 288.751 655.839 289.691 656.062L290.469 656.248C291.088 656.397 291.344 656.635 291.344 656.975V656.984C291.344 657.44 290.865 657.761 290.189 657.761C289.547 657.761 289.147 657.487 289.012 657.068H288.183C288.276 657.896 289.044 658.436 290.162 658.436ZM190.923 670.348H191.733V667.238C191.733 666.53 192.231 665.958 192.888 665.958C193.521 665.958 193.93 666.344 193.93 666.94V670.348H194.74V667.122C194.74 666.484 195.201 665.958 195.9 665.958C196.607 665.958 196.947 666.325 196.947 667.066V670.348H197.757V666.879C197.757 665.827 197.185 665.241 196.16 665.241C195.467 665.241 194.894 665.59 194.624 666.121H194.55C194.317 665.599 193.842 665.241 193.162 665.241C192.506 665.241 192.031 665.553 191.807 666.093H191.733V665.329H190.923V670.348ZM199.647 664.361C199.955 664.361 200.206 664.109 200.206 663.802C200.206 663.495 199.955 663.243 199.647 663.243C199.34 663.243 199.089 663.495 199.089 663.802C199.089 664.109 199.34 664.361 199.647 664.361ZM199.238 670.348H200.048V665.329H199.238V670.348ZM201.575 670.348H202.385V667.378C202.385 666.498 202.892 665.958 203.693 665.958C204.494 665.958 204.866 666.391 204.866 667.294V670.348H205.676V667.098C205.676 665.906 205.048 665.241 203.921 665.241C203.181 665.241 202.711 665.553 202.459 666.083H202.385V665.329H201.575V670.348ZM207.571 664.361C207.879 664.361 208.13 664.109 208.13 663.802C208.13 663.495 207.879 663.243 207.571 663.243C207.264 663.243 207.013 663.495 207.013 663.802C207.013 664.109 207.264 664.361 207.571 664.361ZM207.162 670.348H207.972V665.329H207.162V670.348ZM209.429 668.02H212.557V667.266H209.429V668.02ZM216.049 670.436C217.255 670.436 217.93 669.789 218.135 668.881L218.144 668.83L217.343 668.835L217.334 668.863C217.148 669.421 216.72 669.719 216.044 669.719C215.151 669.719 214.573 668.979 214.573 667.825V667.815C214.573 666.684 215.141 665.958 216.044 665.958C216.766 665.958 217.213 666.358 217.339 666.852L217.343 666.866H218.149L218.144 666.838C217.995 665.944 217.264 665.241 216.044 665.241C214.638 665.241 213.745 666.256 213.745 667.815V667.825C213.745 669.417 214.643 670.436 216.049 670.436ZM220.709 670.436C221.384 670.436 221.911 670.143 222.227 669.608H222.302V670.348H223.112V666.912C223.112 665.869 222.427 665.241 221.203 665.241C220.132 665.241 219.369 665.771 219.238 666.558L219.234 666.586H220.044L220.048 666.572C220.179 666.181 220.574 665.958 221.175 665.958C221.924 665.958 222.302 666.293 222.302 666.912V667.368L220.863 667.457C219.694 667.527 219.033 668.043 219.033 668.937V668.947C219.033 669.859 219.755 670.436 220.709 670.436ZM219.862 668.928V668.919C219.862 668.42 220.197 668.15 220.961 668.104L222.302 668.02V668.476C222.302 669.193 221.701 669.733 220.877 669.733C220.295 669.733 219.862 669.435 219.862 668.928ZM224.592 670.348H225.402V667.238C225.402 666.502 225.952 666.014 226.724 666.014C226.901 666.014 227.055 666.032 227.223 666.06V665.273C227.143 665.259 226.971 665.241 226.818 665.241C226.138 665.241 225.668 665.548 225.477 666.074H225.402V665.329H224.592V670.348ZM229.937 670.436C230.635 670.436 231.194 670.106 231.501 669.547H231.576V670.348H232.386V663.337H231.576V666.121H231.501C231.226 665.585 230.626 665.241 229.937 665.241C228.661 665.241 227.832 666.26 227.832 667.834V667.843C227.832 669.407 228.666 670.436 229.937 670.436ZM230.123 669.719C229.206 669.719 228.661 669.012 228.661 667.843V667.834C228.661 666.665 229.206 665.958 230.123 665.958C231.035 665.958 231.594 666.675 231.594 667.834V667.843C231.594 669.002 231.035 669.719 230.123 669.719Z" fill="white"/>
<rect x="190.566" y="524" width="116.005" height="116.005" rx="7.54827" fill="#25222A" stroke="#25222A" stroke-width="0.794554"/>
</g>
</g>
<path d="M42.7609 369.157H44.4625V365.028H49.0925V369.157H50.7875V359.64H49.0925V363.597H44.4625V359.64H42.7609V369.157ZM55.7331 369.302C57.6919 369.302 58.6549 368.175 58.8857 367.245L58.9055 367.185H57.3424L57.3226 367.231C57.1643 367.561 56.6565 368.01 55.7661 368.01C54.6514 368.01 53.9523 367.258 53.9325 365.965H58.9714V365.424C58.9714 363.248 57.7051 361.81 55.6539 361.81C53.6028 361.81 52.2903 363.294 52.2903 365.563V365.569C52.2903 367.865 53.5896 369.302 55.7331 369.302ZM55.6737 363.096C56.5905 363.096 57.2566 363.683 57.3688 364.864H53.9457C54.071 363.716 54.757 363.096 55.6737 363.096ZM62.255 369.276C63.2047 369.276 63.9698 368.867 64.3655 368.168H64.4776V369.157H66.1001V364.23C66.1001 362.707 65.058 361.81 63.2047 361.81C61.4899 361.81 60.3291 362.615 60.1708 363.828L60.1642 363.887H61.7141L61.7207 363.861C61.8856 363.386 62.3737 363.116 63.1256 363.116C64.0093 363.116 64.4776 363.512 64.4776 364.23V364.85L62.6243 364.963C60.8699 365.068 59.8872 365.82 59.8872 367.106V367.119C59.8872 368.432 60.8831 369.276 62.255 369.276ZM61.5097 367.04V367.027C61.5097 366.433 61.9384 366.097 62.8551 366.038L64.4776 365.932V366.512C64.4776 367.37 63.7455 368.016 62.7562 368.016C62.0307 368.016 61.5097 367.653 61.5097 367.04ZM70.3465 369.276C71.3622 369.276 72.1405 368.814 72.5362 368.029H72.6483V369.157H74.2972V359.159H72.6483V363.096H72.5362C72.1603 362.318 71.3359 361.83 70.3465 361.83C68.5196 361.83 67.3918 363.254 67.3918 365.55V365.563C67.3918 367.845 68.5394 369.276 70.3465 369.276ZM70.861 367.891C69.7398 367.891 69.0604 367.014 69.0604 365.563V365.55C69.0604 364.099 69.7464 363.215 70.861 363.215C71.9756 363.215 72.6747 364.105 72.6747 365.55V365.563C72.6747 367.007 71.9822 367.891 70.861 367.891ZM76.1033 369.157H77.7456V359.159H76.1033V369.157ZM80.3432 360.741C80.8774 360.741 81.3193 360.313 81.3193 359.772C81.3193 359.238 80.8774 358.802 80.3432 358.802C79.8024 358.802 79.3605 359.238 79.3605 359.772C79.3605 360.313 79.8024 360.741 80.3432 360.741ZM79.5188 369.157H81.161V361.948H79.5188V369.157ZM82.8551 369.157H84.4973V364.956C84.4973 363.874 85.1041 363.188 86.0802 363.188C87.0761 363.188 87.5312 363.756 87.5312 364.877V369.157H89.1735V364.494C89.1735 362.779 88.2963 361.81 86.687 361.81C85.6449 361.81 84.9524 362.278 84.6094 363.05H84.4973V361.948H82.8551V369.157ZM93.875 369.302C95.8338 369.302 96.7968 368.175 97.0276 367.245L97.0474 367.185H95.4843L95.4645 367.231C95.3062 367.561 94.7984 368.01 93.908 368.01C92.7934 368.01 92.0942 367.258 92.0745 365.965H97.1134V365.424C97.1134 363.248 95.847 361.81 93.7959 361.81C91.7447 361.81 90.4322 363.294 90.4322 365.563V365.569C90.4322 367.865 91.7315 369.302 93.875 369.302ZM93.8156 363.096C94.7324 363.096 95.3985 363.683 95.5107 364.864H92.0876C92.213 363.716 92.8989 363.096 93.8156 363.096Z" fill="white"/>
<g clip-path="url(#clip5_13_1158)">
<rect x="41.9842" y="385.747" width="82.6337" height="82.6337" rx="15.4938" fill="#25222A" stroke="#25222A" stroke-width="0.794554"/>
<rect x="134.947" y="385.747" width="82.6337" height="82.6337" rx="15.4938" fill="#25222A" stroke="#25222A" stroke-width="0.794554"/>
<rect x="227.91" y="385.747" width="82.6337" height="82.6337" rx="15.4938" fill="#25222A" stroke="#25222A" stroke-width="0.794554"/>
<rect x="320.873" y="385.747" width="82.6337" height="82.6337" rx="15.4938" fill="#25222A" stroke="#25222A" stroke-width="0.794554"/>
</g>
<path d="M307.883 54.5733C307.883 54.8965 308.153 55.1603 308.47 55.1603H312.737V59.4275C312.737 59.7441 313.001 60.0145 313.324 60.0145C313.647 60.0145 313.918 59.7441 313.918 59.4275V55.1603H318.178C318.495 55.1603 318.765 54.8965 318.765 54.5733C318.765 54.2501 318.495 53.9797 318.178 53.9797H313.918V49.7191C313.918 49.4025 313.647 49.1321 313.324 49.1321C313.001 49.1321 312.737 49.4025 312.737 49.7191V53.9797H308.47C308.153 53.9797 307.883 54.2501 307.883 54.5733Z" fill="#FFD400"/>
<path d="M40.3482 54.5581C40.3482 54.8747 40.4692 55.1447 40.7206 55.3868L47.9833 62.4912C48.1789 62.6961 48.4396 62.7985 48.7375 62.7985C49.3428 62.7985 49.8176 62.3329 49.8176 61.7184C49.8176 61.4204 49.6966 61.1504 49.4917 60.9456L42.946 54.5581L49.4917 48.1706C49.6966 47.9565 49.8176 47.6864 49.8176 47.3885C49.8176 46.7832 49.3428 46.3177 48.7375 46.3177C48.4396 46.3177 48.1789 46.4201 47.9833 46.625L40.7206 53.7294C40.4692 53.9715 40.3575 54.2415 40.3482 54.5581Z" fill="#FFD400"/>
<path d="M55.5491 58.2808H56.7956L57.7519 55.5569H61.5377L62.4941 58.2808H63.7406L60.2318 48.7636H59.0578L55.5491 58.2808ZM59.5921 50.3003H59.6976L61.1882 54.5478H58.1015L59.5921 50.3003ZM67.4528 58.4061C69.161 58.4061 70.1174 57.4893 70.4076 56.2032L70.4208 56.1307L69.2863 56.1372L69.2732 56.1768C69.0093 56.9683 68.4026 57.3904 67.4462 57.3904C66.1799 57.3904 65.3621 56.3417 65.3621 54.706V54.6929C65.3621 53.0902 66.1667 52.0613 67.4462 52.0613C68.4685 52.0613 69.1017 52.6285 69.2797 53.3276L69.2863 53.3474H70.4274L70.4208 53.3078C70.2097 52.0415 69.1742 51.0456 67.4462 51.0456C65.4544 51.0456 64.1881 52.4834 64.1881 54.6929V54.706C64.1881 56.9617 65.461 58.4061 67.4528 58.4061ZM74.4364 58.3335C74.6606 58.3335 74.8783 58.3071 75.1025 58.2676V57.2914C74.8914 57.3112 74.7793 57.3178 74.5749 57.3178C73.8362 57.3178 73.546 56.9815 73.546 56.1438V52.1206H75.1025V51.1709H73.546V49.3308H72.3588V51.1709H71.2376V52.1206H72.3588V56.434C72.3588 57.7927 72.9722 58.3335 74.4364 58.3335ZM77.0999 49.799C77.5352 49.799 77.8914 49.4429 77.8914 49.0076C77.8914 48.5723 77.5352 48.2161 77.0999 48.2161C76.6646 48.2161 76.3085 48.5723 76.3085 49.0076C76.3085 49.4429 76.6646 49.799 77.0999 49.799ZM76.5195 58.2808H77.6671V51.1709H76.5195V58.2808ZM82.428 58.4061C84.4528 58.4061 85.7059 57.0078 85.7059 54.7324V54.7192C85.7059 52.4372 84.4528 51.0456 82.428 51.0456C80.4032 51.0456 79.1501 52.4372 79.1501 54.7192V54.7324C79.1501 57.0078 80.4032 58.4061 82.428 58.4061ZM82.428 57.3904C81.0825 57.3904 80.3241 56.4077 80.3241 54.7324V54.7192C80.3241 53.0374 81.0825 52.0613 82.428 52.0613C83.7735 52.0613 84.532 53.0374 84.532 54.7192V54.7324C84.532 56.4077 83.7735 57.3904 82.428 57.3904ZM87.1625 58.2808H88.3101V54.0729C88.3101 52.8263 89.029 52.0613 90.1634 52.0613C91.2979 52.0613 91.8255 52.6747 91.8255 53.9542V58.2808H92.9731V53.6772C92.9731 51.9887 92.0827 51.0456 90.4866 51.0456C89.4379 51.0456 88.7718 51.4875 88.4157 52.2394H88.3101V51.1709H87.1625V58.2808Z" fill="#FFD400"/>
</g>
</g>
<defs>
<linearGradient id="paint0_linear_13_1158" x1="137.389" y1="1.39769" x2="344.13" y2="223.129" gradientUnits="userSpaceOnUse">
<stop/>
<stop offset="1" stop-opacity="0"/>
</linearGradient>
<radialGradient id="paint1_radial_13_1158" cx="0" cy="0" r="1" gradientUnits="userSpaceOnUse" gradientTransform="translate(210.625 23.7727) scale(2.875)">
<stop offset="0.000580659"/>
<stop offset="1" stop-color="#090B20"/>
</radialGradient>
<linearGradient id="paint2_linear_13_1158" x1="1.5" y1="137.398" x2="1.5" y2="161.148" gradientUnits="userSpaceOnUse">
<stop stop-color="#888883"/>
<stop offset="0.0959143" stop-color="#E4E5DE"/>
<stop offset="0.507812" stop-color="#888883"/>
<stop offset="0.938054" stop-color="#E4E5DE"/>
<stop offset="1" stop-color="#888883"/>
</linearGradient>
<linearGradient id="paint3_linear_13_1158" x1="2" y1="185.148" x2="2" y2="233.148" gradientUnits="userSpaceOnUse">
<stop stop-color="#888883"/>
<stop offset="0.0959143" stop-color="#E4E5DE"/>
<stop offset="0.507812" stop-color="#888883"/>
<stop offset="0.938054" stop-color="#E4E5DE"/>
<stop offset="1" stop-color="#888883"/>
</linearGradient>
<linearGradient id="paint4_linear_13_1158" x1="2" y1="248.398" x2="2" y2="296.398" gradientUnits="userSpaceOnUse">
<stop stop-color="#888883"/>
<stop offset="0.0959143" stop-color="#E4E5DE"/>
<stop offset="0.507812" stop-color="#888883"/>
<stop offset="0.938054" stop-color="#E4E5DE"/>
<stop offset="1" stop-color="#888883"/>
</linearGradient>
<linearGradient id="paint5_linear_13_1158" x1="354.25" y1="201.148" x2="354.25" y2="286.148" gradientUnits="userSpaceOnUse">
<stop stop-color="#888883"/>
<stop offset="0.0959143" stop-color="#E4E5DE"/>
<stop offset="0.507812" stop-color="#888883"/>
<stop offset="0.938054" stop-color="#E4E5DE"/>
<stop offset="1" stop-color="#888883"/>
</linearGradient>
<clipPath id="clip0_13_1158">
<rect x="17.75" y="2.375" width="322" height="707" rx="23.8366" fill="white"/>
</clipPath>
<clipPath id="clip1_13_1158">
<rect width="273.327" height="200.228" fill="white" transform="translate(41.5869 139.038)"/>
</clipPath>
<clipPath id="clip2_13_1158">
<rect width="273.327" height="200.228" fill="white" transform="translate(41.5869 139.038)"/>
</clipPath>
<clipPath id="clip3_13_1158">
<rect width="273.327" height="200.228" fill="white" transform="translate(41.5869 489.437)"/>
</clipPath>
<clipPath id="clip4_13_1158">
<rect width="273.327" height="200.228" fill="white" transform="translate(41.5869 489.437)"/>
</clipPath>
<clipPath id="clip5_13_1158">
<rect width="362.317" height="92.9629" fill="white" transform="translate(41.5869 380.583)"/>
</clipPath>
</defs>
</svg>
