<svg width="508" height="384" viewBox="0 0 508 384" fill="none" xmlns="http://www.w3.org/2000/svg">
<g clip-path="url(#clip0_13_1001)">
<path d="M461.447 282.17C424.226 346.085 373.537 379.751 309.38 383.166C245.223 386.581 188.167 379.507 138.213 361.942C88.2589 344.378 48.3444 310.712 18.4698 260.946C-11.4048 211.18 -5.03812 167.756 37.57 130.675C80.178 93.5945 120.093 63.3444 157.313 39.925C194.534 16.5055 244.733 3.57606 307.911 1.13654C371.088 -1.30298 421.777 28.9471 459.978 91.8868C498.178 154.827 498.668 218.254 461.447 282.17Z" fill="#FFD400" fill-opacity="0.25"/>
<path d="M387.185 81.5254H120.828C115.918 81.5254 111.938 85.5069 111.938 90.4183V254.631C111.938 259.543 115.918 263.524 120.828 263.524H387.185C392.095 263.524 396.075 259.543 396.075 254.631V90.4183C396.075 85.5069 392.095 81.5254 387.185 81.5254Z" fill="white"/>
<path d="M387.172 264.159H120.828C118.302 264.159 115.879 263.155 114.093 261.369C112.306 259.582 111.303 257.158 111.303 254.631V90.3674C111.306 87.8415 112.311 85.4199 114.096 83.6338C115.882 81.8476 118.303 80.8427 120.828 80.8394H387.172C389.697 80.8427 392.118 81.8476 393.904 83.6338C395.689 85.4199 396.694 87.8415 396.697 90.3674V254.631C396.697 257.158 395.694 259.582 393.907 261.369C392.121 263.155 389.698 264.159 387.172 264.159ZM120.828 82.1606C118.639 82.1639 116.542 83.035 114.994 84.5829C113.447 86.1308 112.576 88.2292 112.573 90.4182V254.631C112.576 256.82 113.447 258.919 114.994 260.467C116.542 262.014 118.639 262.886 120.828 262.889H387.172C389.36 262.886 391.458 262.014 393.006 260.467C394.553 258.919 395.424 256.82 395.427 254.631V90.3674C395.424 88.1784 394.553 86.08 393.006 84.5321C391.458 82.9842 389.36 82.1131 387.172 82.1098L120.828 82.1606Z" fill="#231F20"/>
<path d="M396.062 235.372H111.938C111.769 235.372 111.608 235.305 111.489 235.186C111.37 235.067 111.303 234.905 111.303 234.737C111.303 234.568 111.37 234.407 111.489 234.288C111.608 234.168 111.769 234.102 111.938 234.102H396.062C396.231 234.102 396.392 234.168 396.511 234.288C396.63 234.407 396.697 234.568 396.697 234.737C396.697 234.905 396.63 235.067 396.511 235.186C396.392 235.305 396.231 235.372 396.062 235.372Z" fill="#231F20"/>
<path d="M290.309 298.702H217.691L231.076 263.524H276.923L290.309 298.702Z" fill="white"/>
<path d="M290.322 299.337H217.678C217.576 299.335 217.477 299.311 217.386 299.264C217.296 299.218 217.218 299.152 217.157 299.07C217.1 298.985 217.065 298.887 217.054 298.786C217.043 298.684 217.056 298.581 217.094 298.486L230.479 263.295C230.527 263.176 230.61 263.074 230.716 263.001C230.822 262.929 230.948 262.89 231.076 262.889H276.923C277.052 262.89 277.177 262.929 277.284 263.001C277.39 263.074 277.472 263.176 277.52 263.295L290.906 298.486C290.943 298.581 290.957 298.684 290.946 298.786C290.935 298.887 290.899 298.985 290.843 299.07C290.782 299.152 290.704 299.218 290.613 299.264C290.523 299.311 290.423 299.335 290.322 299.337ZM218.605 298.067H289.395L276.492 264.159H231.508L218.605 298.067Z" fill="#231F20"/>
<path d="M298.831 296.644H209.156C206.806 296.644 204.902 298.549 204.902 300.899V301.878C204.902 304.228 206.806 306.134 209.156 306.134H298.831C301.181 306.134 303.085 304.228 303.085 301.878V300.899C303.085 298.549 301.181 296.644 298.831 296.644Z" fill="white"/>
<path d="M298.831 306.769H209.169C207.871 306.769 206.626 306.254 205.707 305.337C204.788 304.42 204.27 303.176 204.267 301.878V300.899C204.27 299.601 204.788 298.357 205.707 297.44C206.626 296.523 207.871 296.008 209.169 296.008H298.831C300.129 296.008 301.374 296.523 302.293 297.44C303.212 298.357 303.73 299.601 303.733 300.899V301.878C303.73 303.176 303.212 304.42 302.293 305.337C301.374 306.254 300.129 306.769 298.831 306.769ZM209.169 297.279C208.208 297.279 207.286 297.66 206.605 298.338C205.924 299.017 205.54 299.938 205.537 300.899V301.878C205.54 302.839 205.924 303.76 206.605 304.439C207.286 305.117 208.208 305.498 209.169 305.498H298.831C299.792 305.498 300.714 305.117 301.395 304.439C302.075 303.76 302.46 302.839 302.463 301.878V300.899C302.46 299.938 302.075 299.017 301.395 298.338C300.714 297.66 299.792 297.279 298.831 297.279H209.169Z" fill="#231F20"/>
<path d="M385.915 90.1006H122.072V223.595H385.915V90.1006Z" fill="#FFD400"/>
<path d="M385.915 90.1006H122.072V223.595H385.915V90.1006Z" fill="#231F20"/>
<path d="M255.524 90.1006H122.072V223.595H255.524V90.1006Z" fill="#FFD400"/>
<path d="M224.447 279.595L278.524 269.089L276.415 263.524H230.568L224.447 279.595Z" fill="#231F20"/>
<path d="M224.447 280.23C224.355 280.23 224.263 280.21 224.18 280.17C224.096 280.131 224.023 280.073 223.964 280.001C223.891 279.915 223.843 279.81 223.823 279.699C223.802 279.588 223.812 279.473 223.85 279.366L229.971 263.295C230.018 263.175 230.1 263.072 230.207 262.999C230.313 262.926 230.439 262.888 230.568 262.889H276.415C276.542 262.891 276.666 262.93 276.77 263.003C276.874 263.075 276.954 263.177 277 263.295L279.12 268.86C279.154 268.946 279.168 269.039 279.161 269.131C279.155 269.224 279.128 269.314 279.084 269.395C279.039 269.476 278.977 269.546 278.902 269.601C278.827 269.656 278.741 269.693 278.651 269.711L224.574 280.217L224.447 280.23ZM231 264.159L225.45 278.756L277.66 268.593L275.971 264.147L231 264.159Z" fill="#231F20"/>
<path d="M281.94 109.576H265.862C265.693 109.576 265.532 109.509 265.413 109.39C265.294 109.271 265.227 109.109 265.227 108.941C265.227 108.772 265.294 108.611 265.413 108.492C265.532 108.373 265.693 108.306 265.862 108.306H281.94C282.108 108.306 282.27 108.373 282.389 108.492C282.508 108.611 282.575 108.772 282.575 108.941C282.575 109.109 282.508 109.271 282.389 109.39C282.27 109.509 282.108 109.576 281.94 109.576Z" fill="#FFD400"/>
<path d="M322.262 109.576H290.309C290.141 109.576 289.979 109.509 289.86 109.39C289.741 109.271 289.674 109.109 289.674 108.941C289.674 108.772 289.741 108.611 289.86 108.492C289.979 108.373 290.141 108.306 290.309 108.306H322.262C322.431 108.306 322.592 108.373 322.711 108.492C322.83 108.611 322.897 108.772 322.897 108.941C322.897 109.109 322.83 109.271 322.711 109.39C322.592 109.509 322.431 109.576 322.262 109.576Z" fill="white"/>
<path d="M331.876 121.95H299.923C299.755 121.95 299.593 121.883 299.474 121.764C299.355 121.645 299.288 121.483 299.288 121.315C299.288 121.146 299.355 120.985 299.474 120.865C299.593 120.746 299.755 120.679 299.923 120.679H331.876C332.045 120.679 332.206 120.746 332.325 120.865C332.444 120.985 332.511 121.146 332.511 121.315C332.511 121.483 332.444 121.645 332.325 121.764C332.206 121.883 332.045 121.95 331.876 121.95Z" fill="white"/>
<path d="M285.636 121.95H269.621C269.452 121.95 269.291 121.883 269.172 121.764C269.053 121.645 268.986 121.483 268.986 121.315C268.986 121.146 269.053 120.985 269.172 120.865C269.291 120.746 269.452 120.679 269.621 120.679H285.636C285.804 120.679 285.965 120.746 286.085 120.865C286.204 120.985 286.271 121.146 286.271 121.315C286.271 121.483 286.204 121.645 286.085 121.764C285.965 121.883 285.804 121.95 285.636 121.95Z" fill="#FFD400"/>
<path d="M286.245 134.324H273.38C273.212 134.324 273.05 134.257 272.931 134.138C272.812 134.018 272.745 133.857 272.745 133.688C272.745 133.52 272.812 133.358 272.931 133.239C273.05 133.12 273.212 133.053 273.38 133.053H286.245C286.413 133.056 286.572 133.124 286.691 133.243C286.809 133.361 286.877 133.521 286.88 133.688C286.88 133.857 286.813 134.018 286.694 134.138C286.575 134.257 286.414 134.324 286.245 134.324Z" fill="#FFD400"/>
<path d="M337.591 134.324H297.599C297.431 134.324 297.269 134.257 297.15 134.138C297.031 134.018 296.964 133.857 296.964 133.688C296.964 133.52 297.031 133.358 297.15 133.239C297.269 133.12 297.431 133.053 297.599 133.053H337.591C337.76 133.053 337.921 133.12 338.04 133.239C338.16 133.358 338.226 133.52 338.226 133.688C338.226 133.857 338.16 134.018 338.04 134.138C337.921 134.257 337.76 134.324 337.591 134.324Z" fill="white"/>
<path d="M293.154 146.71H277.139C276.971 146.71 276.809 146.643 276.69 146.524C276.571 146.405 276.504 146.243 276.504 146.075C276.504 145.906 276.571 145.745 276.69 145.626C276.809 145.507 276.971 145.44 277.139 145.44H293.154C293.323 145.44 293.484 145.507 293.603 145.626C293.722 145.745 293.789 145.906 293.789 146.075C293.786 146.242 293.718 146.402 293.6 146.52C293.481 146.639 293.321 146.707 293.154 146.71Z" fill="#FFD400"/>
<path d="M345.859 146.71H298.31C298.142 146.71 297.98 146.643 297.861 146.524C297.742 146.405 297.675 146.243 297.675 146.075C297.675 145.906 297.742 145.745 297.861 145.626C297.98 145.507 298.142 145.44 298.31 145.44H345.859C346.027 145.44 346.189 145.507 346.308 145.626C346.427 145.745 346.494 145.906 346.494 146.075C346.494 146.243 346.427 146.405 346.308 146.524C346.189 146.643 346.027 146.71 345.859 146.71Z" fill="white"/>
<path d="M288.899 159.084H272.885C272.716 159.084 272.555 159.017 272.436 158.898C272.317 158.779 272.25 158.617 272.25 158.449C272.25 158.28 272.317 158.119 272.436 158C272.555 157.88 272.716 157.813 272.885 157.813H288.899C289.068 157.813 289.229 157.88 289.349 158C289.468 158.119 289.534 158.28 289.534 158.449C289.534 158.617 289.468 158.779 289.349 158.898C289.229 159.017 289.068 159.084 288.899 159.084Z" fill="#FFD400"/>
<path d="M320.827 159.084H295.034C294.865 159.084 294.704 159.017 294.585 158.898C294.466 158.779 294.399 158.617 294.399 158.449C294.399 158.28 294.466 158.119 294.585 158C294.704 157.88 294.865 157.813 295.034 157.813H320.827C320.996 157.813 321.157 157.88 321.276 158C321.395 158.119 321.462 158.28 321.462 158.449C321.462 158.617 321.395 158.779 321.276 158.898C321.157 159.017 320.996 159.084 320.827 159.084Z" fill="white"/>
<path d="M356.464 159.084H330.67C330.501 159.084 330.34 159.017 330.221 158.898C330.102 158.779 330.035 158.617 330.035 158.449C330.035 158.28 330.102 158.119 330.221 158C330.34 157.88 330.501 157.813 330.67 157.813H356.464C356.632 157.813 356.794 157.88 356.913 158C357.032 158.119 357.099 158.28 357.099 158.449C357.099 158.617 357.032 158.779 356.913 158.898C356.794 159.017 356.632 159.084 356.464 159.084Z" fill="#FFD400"/>
<path d="M278.409 171.458H272.885C272.716 171.458 272.555 171.391 272.436 171.272C272.317 171.152 272.25 170.991 272.25 170.822C272.253 170.655 272.321 170.495 272.439 170.377C272.558 170.258 272.717 170.191 272.885 170.187H278.409C278.577 170.191 278.736 170.258 278.855 170.377C278.973 170.495 279.041 170.655 279.044 170.822C279.044 170.991 278.977 171.152 278.858 171.272C278.739 171.391 278.578 171.458 278.409 171.458Z" fill="#FFD400"/>
<path d="M320.827 171.458H287.807C287.639 171.458 287.477 171.391 287.358 171.272C287.239 171.152 287.172 170.991 287.172 170.822C287.176 170.655 287.244 170.495 287.362 170.377C287.48 170.258 287.64 170.191 287.807 170.187H320.827C320.995 170.191 321.154 170.258 321.273 170.377C321.391 170.495 321.459 170.655 321.462 170.822C321.462 170.991 321.395 171.152 321.276 171.272C321.157 171.391 320.996 171.458 320.827 171.458Z" fill="white"/>
<path d="M333.832 171.458H324.625C324.456 171.458 324.295 171.391 324.175 171.272C324.056 171.152 323.99 170.991 323.99 170.822C323.99 170.654 324.056 170.492 324.175 170.373C324.295 170.254 324.456 170.187 324.625 170.187H333.832C334 170.187 334.162 170.254 334.281 170.373C334.4 170.492 334.467 170.654 334.467 170.822C334.467 170.991 334.4 171.152 334.281 171.272C334.162 171.391 334 171.458 333.832 171.458Z" fill="#FFD400"/>
<path d="M281.559 183.844H272.885C272.717 183.841 272.558 183.773 272.439 183.655C272.321 183.536 272.253 183.376 272.25 183.209C272.25 183.04 272.317 182.879 272.436 182.76C272.555 182.641 272.716 182.574 272.885 182.574H281.559C281.727 182.574 281.889 182.641 282.008 182.76C282.127 182.879 282.194 183.04 282.194 183.209C282.191 183.376 282.123 183.536 282.004 183.655C281.886 183.773 281.726 183.841 281.559 183.844Z" fill="#FFD400"/>
<path d="M328.93 183.844H289.712C289.545 183.841 289.385 183.773 289.267 183.655C289.149 183.536 289.081 183.376 289.077 183.209C289.077 183.04 289.144 182.879 289.263 182.76C289.382 182.641 289.544 182.574 289.712 182.574H328.93C329.098 182.574 329.26 182.641 329.379 182.76C329.498 182.879 329.565 183.04 329.565 183.209C329.565 183.377 329.498 183.539 329.379 183.658C329.26 183.777 329.098 183.844 328.93 183.844Z" fill="white"/>
<path d="M348.793 183.844H332.74C332.572 183.844 332.41 183.777 332.291 183.658C332.172 183.539 332.105 183.377 332.105 183.209C332.105 183.04 332.172 182.879 332.291 182.76C332.41 182.641 332.572 182.574 332.74 182.574H348.755C348.923 182.574 349.085 182.641 349.204 182.76C349.323 182.879 349.39 183.04 349.39 183.209C349.39 183.371 349.328 183.527 349.217 183.645C349.106 183.763 348.955 183.834 348.793 183.844Z" fill="#FFD400"/>
<path d="M277.622 196.218H269.126C268.957 196.218 268.796 196.151 268.677 196.032C268.558 195.913 268.491 195.751 268.491 195.583C268.491 195.414 268.558 195.253 268.677 195.134C268.796 195.014 268.957 194.948 269.126 194.948H277.622C277.79 194.948 277.952 195.014 278.071 195.134C278.19 195.253 278.257 195.414 278.257 195.583C278.257 195.751 278.19 195.913 278.071 196.032C277.952 196.151 277.79 196.218 277.622 196.218Z" fill="#FFD400"/>
<path d="M324.625 196.218H287.515C287.347 196.218 287.185 196.151 287.066 196.032C286.947 195.913 286.88 195.751 286.88 195.583C286.88 195.414 286.947 195.253 287.066 195.134C287.185 195.014 287.347 194.948 287.515 194.948H324.625C324.793 194.948 324.954 195.014 325.074 195.134C325.193 195.253 325.26 195.414 325.26 195.583C325.26 195.751 325.193 195.913 325.074 196.032C324.954 196.151 324.793 196.218 324.625 196.218Z" fill="white"/>
<path d="M285.14 208.592H269.126C268.957 208.592 268.796 208.525 268.677 208.406C268.558 208.287 268.491 208.125 268.491 207.956C268.494 207.789 268.562 207.629 268.68 207.511C268.799 207.393 268.958 207.325 269.126 207.321H285.14C285.309 207.321 285.47 207.388 285.589 207.507C285.709 207.626 285.775 207.788 285.775 207.956C285.775 208.125 285.709 208.287 285.589 208.406C285.47 208.525 285.309 208.592 285.14 208.592Z" fill="#FFD400"/>
<path d="M373.977 146.71H352.323C352.156 146.707 351.996 146.639 351.878 146.52C351.759 146.402 351.691 146.242 351.688 146.075C351.688 145.906 351.755 145.745 351.874 145.626C351.993 145.507 352.155 145.44 352.323 145.44H373.977C374.145 145.44 374.307 145.507 374.426 145.626C374.545 145.745 374.612 145.906 374.612 146.075C374.612 146.243 374.545 146.405 374.426 146.524C374.307 146.643 374.145 146.71 373.977 146.71Z" fill="#FFD400"/>
<path d="M341.63 109.64C334.391 109.64 330.645 109.64 330.454 109.551C330.286 109.512 330.139 109.408 330.048 109.261C329.956 109.115 329.926 108.938 329.965 108.769C330.004 108.601 330.108 108.455 330.254 108.363C330.401 108.271 330.578 108.242 330.746 108.28C331.94 108.382 357.2 108.28 366.865 108.28C367.033 108.28 367.195 108.347 367.314 108.466C367.433 108.585 367.5 108.747 367.5 108.915C367.5 109.084 367.433 109.246 367.314 109.365C367.195 109.484 367.033 109.551 366.865 109.551C356.108 109.614 347.675 109.64 341.63 109.64Z" fill="#FFD400"/>
<path d="M345.11 196.218H328.93C328.762 196.218 328.6 196.151 328.481 196.032C328.362 195.913 328.295 195.751 328.295 195.583C328.295 195.414 328.362 195.253 328.481 195.134C328.6 195.014 328.762 194.948 328.93 194.948H345.135C345.304 194.948 345.465 195.014 345.584 195.134C345.703 195.253 345.77 195.414 345.77 195.583C345.77 195.751 345.703 195.913 345.584 196.032C345.465 196.151 345.304 196.218 345.135 196.218H345.11Z" fill="#FFD400"/>
<path d="M307.924 208.592H296.011C295.843 208.592 295.682 208.525 295.562 208.406C295.443 208.287 295.376 208.125 295.376 207.956C295.38 207.789 295.448 207.629 295.566 207.511C295.684 207.393 295.844 207.325 296.011 207.321H307.924C308.092 207.321 308.254 207.388 308.373 207.507C308.492 207.626 308.559 207.788 308.559 207.956C308.559 208.125 308.492 208.287 308.373 208.406C308.254 208.525 308.092 208.592 307.924 208.592Z" fill="white"/>
<path d="M340.779 208.592H312.42C312.251 208.592 312.09 208.525 311.971 208.406C311.852 208.287 311.785 208.125 311.785 207.956C311.788 207.789 311.856 207.629 311.974 207.511C312.093 207.393 312.253 207.325 312.42 207.321H340.741C340.909 207.321 341.071 207.388 341.19 207.507C341.309 207.626 341.376 207.788 341.376 207.956C341.376 208.119 341.315 208.275 341.204 208.393C341.093 208.511 340.941 208.582 340.779 208.592Z" fill="#FFD400"/>
<path d="M292.925 104.215H122.072C121.905 104.212 121.745 104.144 121.627 104.025C121.508 103.907 121.441 103.747 121.437 103.58C121.437 103.411 121.504 103.25 121.623 103.131C121.742 103.012 121.904 102.945 122.072 102.945H292.925C293.094 102.945 293.255 103.012 293.374 103.131C293.493 103.25 293.56 103.411 293.56 103.58C293.56 103.748 293.493 103.91 293.374 104.029C293.255 104.148 293.094 104.215 292.925 104.215Z" fill="#231F20"/>
<path d="M133.083 99.6414C134.661 99.6414 135.941 98.3616 135.941 96.783C135.941 95.2043 134.661 93.9246 133.083 93.9246C131.505 93.9246 130.226 95.2043 130.226 96.783C130.226 98.3616 131.505 99.6414 133.083 99.6414Z" fill="white"/>
<path d="M144.056 99.6414C145.634 99.6414 146.913 98.3616 146.913 96.783C146.913 95.2043 145.634 93.9246 144.056 93.9246C142.478 93.9246 141.198 95.2043 141.198 96.783C141.198 98.3616 142.478 99.6414 144.056 99.6414Z" fill="white"/>
<path d="M155.016 99.6414C156.594 99.6414 157.874 98.3616 157.874 96.783C157.874 95.2043 156.594 93.9246 155.016 93.9246C153.438 93.9246 152.159 95.2043 152.159 96.783C152.159 98.3616 153.438 99.6414 155.016 99.6414Z" fill="white"/>
<path d="M243.383 111.748H133.833V156.848H243.383V111.748Z" fill="white"/>
<path d="M133.832 157.483C133.71 157.484 133.59 157.45 133.486 157.384C133.383 157.318 133.301 157.224 133.25 157.112C133.199 157.001 133.181 156.877 133.199 156.756C133.216 156.634 133.269 156.521 133.35 156.429L173.38 120.489C173.496 120.381 173.648 120.321 173.806 120.321C173.964 120.321 174.116 120.381 174.231 120.489L207.886 151.512C208.003 151.633 208.069 151.795 208.069 151.963C208.069 152.131 208.003 152.293 207.886 152.414C207.827 152.474 207.757 152.521 207.68 152.553C207.602 152.585 207.519 152.602 207.435 152.602C207.351 152.602 207.268 152.585 207.191 152.553C207.114 152.521 207.043 152.474 206.984 152.414L173.85 121.772L134.252 157.343C134.136 157.443 133.985 157.493 133.832 157.483Z" fill="#FFD400"/>
<path d="M201.32 146.875C201.234 146.877 201.148 146.86 201.069 146.825C200.99 146.79 200.919 146.737 200.863 146.672C200.804 146.614 200.757 146.545 200.725 146.468C200.693 146.392 200.676 146.31 200.676 146.227C200.676 146.144 200.693 146.062 200.725 145.986C200.757 145.91 200.804 145.841 200.863 145.783L222.377 125.735C222.495 125.623 222.652 125.56 222.815 125.56C222.978 125.56 223.135 125.623 223.253 125.735L243.84 145.783C243.957 145.903 244.023 146.065 244.023 146.234C244.023 146.402 243.957 146.564 243.84 146.685C243.781 146.744 243.711 146.791 243.633 146.824C243.556 146.856 243.473 146.872 243.389 146.872C243.305 146.872 243.222 146.856 243.145 146.824C243.067 146.791 242.997 146.744 242.938 146.685L222.834 127.069L201.752 146.71C201.635 146.82 201.48 146.879 201.32 146.875Z" fill="#FFD400"/>
<path d="M203.378 131.109C202.277 131.251 201.159 131.054 200.172 130.545C199.186 130.035 198.378 129.236 197.857 128.256C197.336 127.275 197.126 126.159 197.255 125.056C197.384 123.953 197.847 122.916 198.58 122.082C199.314 121.248 200.284 120.658 201.361 120.39C202.439 120.122 203.572 120.189 204.61 120.582C205.649 120.974 206.543 121.674 207.174 122.588C207.804 123.502 208.141 124.587 208.14 125.697C208.185 126.366 208.097 127.037 207.882 127.672C207.666 128.306 207.327 128.892 206.885 129.395C206.442 129.898 205.904 130.308 205.302 130.602C204.701 130.897 204.046 131.069 203.378 131.109ZM203.378 121.543C202.529 121.397 201.655 121.516 200.876 121.883C200.097 122.25 199.449 122.848 199.02 123.595C198.592 124.343 198.403 125.204 198.48 126.062C198.556 126.921 198.895 127.735 199.449 128.394C200.004 129.054 200.747 129.527 201.58 129.75C202.412 129.973 203.292 129.934 204.102 129.64C204.912 129.346 205.611 128.81 206.106 128.105C206.602 127.399 206.868 126.559 206.87 125.697C206.948 124.685 206.626 123.683 205.973 122.906C205.32 122.13 204.388 121.64 203.378 121.543Z" fill="#FFD400"/>
<path d="M242.57 166.211H133.833C133.664 166.211 133.503 166.144 133.383 166.025C133.264 165.906 133.198 165.744 133.198 165.576C133.198 165.407 133.264 165.246 133.383 165.126C133.503 165.007 133.664 164.94 133.833 164.94H242.57C242.738 164.94 242.9 165.007 243.019 165.126C243.138 165.246 243.205 165.407 243.205 165.576C243.205 165.744 243.138 165.906 243.019 166.025C242.9 166.144 242.738 166.211 242.57 166.211Z" fill="white"/>
<path d="M242.57 175.104H133.833C133.664 175.104 133.503 175.037 133.383 174.918C133.264 174.798 133.198 174.637 133.198 174.468C133.198 174.3 133.264 174.138 133.383 174.019C133.503 173.9 133.664 173.833 133.833 173.833H242.57C242.738 173.833 242.9 173.9 243.019 174.019C243.138 174.138 243.205 174.3 243.205 174.468C243.202 174.636 243.134 174.796 243.015 174.914C242.897 175.032 242.737 175.1 242.57 175.104Z" fill="white"/>
<path d="M227.495 183.984H133.833C133.664 183.984 133.503 183.917 133.383 183.798C133.264 183.679 133.198 183.517 133.198 183.349C133.198 183.18 133.264 183.019 133.383 182.899C133.503 182.78 133.664 182.713 133.833 182.713H227.495C227.662 182.717 227.822 182.785 227.94 182.903C228.059 183.021 228.127 183.181 228.13 183.349C228.13 183.517 228.063 183.679 227.944 183.798C227.825 183.917 227.663 183.984 227.495 183.984Z" fill="white"/>
<path d="M164.846 212.771H133.833C133.664 212.771 133.503 212.704 133.383 212.585C133.264 212.466 133.198 212.305 133.198 212.136V190.539C133.198 190.371 133.264 190.209 133.383 190.09C133.503 189.971 133.664 189.904 133.833 189.904H164.846C165.013 189.907 165.173 189.975 165.291 190.094C165.41 190.212 165.478 190.372 165.481 190.539V212.136C165.478 212.304 165.41 212.463 165.291 212.582C165.173 212.7 165.013 212.768 164.846 212.771ZM134.468 211.501H164.211V191.174H134.468V211.501Z" fill="white"/>
<path d="M203.721 212.771H172.72C172.553 212.768 172.393 212.7 172.275 212.582C172.156 212.463 172.088 212.304 172.085 212.136V190.539C172.088 190.372 172.156 190.212 172.275 190.094C172.393 189.975 172.553 189.907 172.72 189.904H203.733C203.902 189.904 204.063 189.971 204.182 190.09C204.301 190.209 204.368 190.371 204.368 190.539V212.136C204.368 212.221 204.352 212.304 204.319 212.382C204.286 212.46 204.238 212.531 204.178 212.59C204.118 212.649 204.046 212.696 203.968 212.727C203.889 212.758 203.805 212.773 203.721 212.771ZM173.342 211.501H203.086V191.174H173.342V211.501Z" fill="white"/>
<path d="M242.57 212.771H211.595C211.426 212.771 211.265 212.704 211.146 212.585C211.027 212.466 210.96 212.305 210.96 212.136V190.539C210.96 190.371 211.027 190.209 211.146 190.09C211.265 189.971 211.426 189.904 211.595 189.904H242.57C242.737 189.907 242.897 189.975 243.015 190.094C243.134 190.212 243.202 190.372 243.205 190.539V212.136C243.202 212.304 243.134 212.463 243.015 212.582C242.897 212.7 242.737 212.768 242.57 212.771ZM212.192 211.501H241.935V191.174H212.23L212.192 211.501Z" fill="white"/>
<path d="M413.194 306.769H94.8054C94.637 306.769 94.4755 306.702 94.3564 306.583C94.2373 306.464 94.1704 306.302 94.1704 306.133C94.1704 305.965 94.2373 305.803 94.3564 305.684C94.4755 305.565 94.637 305.498 94.8054 305.498H413.194C413.363 305.498 413.524 305.565 413.643 305.684C413.763 305.803 413.829 305.965 413.829 306.133C413.829 306.302 413.763 306.464 413.643 306.583C413.524 306.702 413.363 306.769 413.194 306.769Z" fill="#D1D3D4"/>
<path d="M406.578 181.417H293.764V251.15H406.578V181.417Z" fill="white"/>
<path d="M406.578 251.798H293.764C293.596 251.795 293.437 251.727 293.318 251.609C293.2 251.49 293.132 251.331 293.129 251.163V181.418C293.132 181.25 293.2 181.091 293.318 180.972C293.437 180.854 293.596 180.786 293.764 180.782H406.578C406.745 180.786 406.905 180.854 407.023 180.972C407.142 181.091 407.21 181.25 407.213 181.418V251.163C407.21 251.331 407.142 251.49 407.023 251.609C406.905 251.727 406.745 251.795 406.578 251.798ZM294.399 250.528H405.943V182.053H294.399V250.528Z" fill="#D1D3D4"/>
<path d="M406.578 194.287H294.488C294.319 194.287 294.158 194.22 294.039 194.101C293.919 193.982 293.853 193.82 293.853 193.652C293.853 193.483 293.919 193.322 294.039 193.202C294.158 193.083 294.319 193.016 294.488 193.016H406.578C406.746 193.016 406.908 193.083 407.027 193.202C407.146 193.322 407.213 193.483 407.213 193.652C407.213 193.82 407.146 193.982 407.027 194.101C406.908 194.22 406.746 194.287 406.578 194.287Z" fill="#D1D3D4"/>
<path d="M310.464 217.751V214.868L320.256 207.995L322.173 211.641L315.176 216.354L322.173 221.067L320.256 224.726L310.464 217.751Z" fill="#FFD400"/>
<path d="M323.85 216.29C323.85 209.849 327.774 205.339 333.273 205.339C335.315 205.313 337.297 206.03 338.849 207.358C340.401 208.686 341.416 210.533 341.706 212.555L337.553 213.826C336.969 211.361 335.483 209.913 333.273 209.913C330.301 209.913 328.333 212.454 328.333 216.265C328.333 220.076 330.301 222.617 333.273 222.617C335.508 222.617 337.083 221.092 337.642 218.285L341.858 219.492C341.071 224.395 337.642 227.241 333.273 227.241C327.761 227.241 323.85 222.731 323.85 216.29Z" fill="#FFD400"/>
<path d="M342.506 219.708L346.761 218.818C347.319 221.715 348.754 222.934 351.498 222.934C353.58 222.934 354.812 222.198 354.812 220.915C354.812 219.631 353.936 219.047 349.631 217.929C345.325 216.811 343.116 214.893 343.116 211.666C343.116 207.982 346.024 205.377 350.482 205.377C352.388 205.274 354.268 205.858 355.781 207.024C357.293 208.189 358.338 209.859 358.724 211.729L354.482 212.835C354.306 211.916 353.804 211.092 353.07 210.513C352.335 209.934 351.416 209.64 350.482 209.684C348.729 209.684 347.586 210.459 347.586 211.615C347.586 212.568 348.424 213.038 352.501 214.156C356.984 215.426 359.296 217.307 359.296 220.864C359.296 224.777 356.222 227.305 351.472 227.305C346.405 227.241 343.154 224.51 342.506 219.708Z" fill="#FFD400"/>
<path d="M359.956 219.708L364.211 218.818C364.769 221.715 366.204 222.934 368.948 222.934C371.043 222.934 372.275 222.198 372.275 220.915C372.275 219.631 371.386 219.047 367.081 217.929C362.775 216.811 360.566 214.893 360.566 211.666C360.566 207.982 363.487 205.377 367.944 205.377C369.85 205.272 371.73 205.855 373.241 207.022C374.752 208.188 375.793 209.859 376.174 211.729L371.945 212.835C371.766 211.917 371.264 211.094 370.53 210.516C369.795 209.938 368.878 209.642 367.944 209.684C366.179 209.684 365.049 210.459 365.049 211.615C365.049 212.568 365.874 213.038 369.951 214.156C374.434 215.426 376.758 217.307 376.758 220.864C376.758 224.777 373.685 227.305 368.922 227.305C363.868 227.241 360.68 224.51 359.956 219.708Z" fill="#FFD400"/>
<path d="M378.168 221.003L385.165 216.29L378.168 211.577L380.085 207.931L389.89 214.867V217.815L380.098 224.726L378.168 221.003Z" fill="#FFD400"/>
<path d="M143.992 146.659H101.638V184.479H143.992V146.659Z" fill="white"/>
<path d="M143.992 185.127H101.6C101.431 185.127 101.27 185.06 101.151 184.941C101.032 184.822 100.965 184.66 100.965 184.492V146.659C100.965 146.491 101.032 146.329 101.151 146.21C101.27 146.091 101.431 146.024 101.6 146.024H143.954C144.122 146.027 144.281 146.095 144.4 146.214C144.518 146.332 144.586 146.492 144.589 146.659V184.492C144.587 184.653 144.524 184.807 144.414 184.925C144.303 185.042 144.153 185.114 143.992 185.127ZM102.273 183.857H143.357V147.294H102.273V183.857Z" fill="#D1D3D4"/>
<path d="M143.992 152.389H101.6C101.431 152.389 101.27 152.322 101.151 152.203C101.032 152.084 100.965 151.922 100.965 151.754C100.965 151.585 101.032 151.424 101.151 151.304C101.27 151.185 101.431 151.118 101.6 151.118H143.954C144.123 151.118 144.284 151.185 144.403 151.304C144.522 151.424 144.589 151.585 144.589 151.754C144.587 151.915 144.524 152.069 144.414 152.187C144.303 152.304 144.153 152.376 143.992 152.389Z" fill="#D1D3D4"/>
<path d="M107.632 168.142V166.516L115.176 161.98L116.446 164.038L110.782 167.329L116.446 170.644L115.176 172.69L107.632 168.142Z" fill="#FFD400"/>
<path d="M117.5 174.43L126.39 159.186L128.079 160.253L119.189 175.498L117.5 174.43Z" fill="#FFD400"/>
<path d="M129.159 170.645L134.823 167.329L129.159 164.051L130.429 161.993L137.973 166.529V168.155L130.429 172.703L129.159 170.645Z" fill="#FFD400"/>
</g>
<defs>
<clipPath id="clip0_13_1001">
<rect width="508" height="383" fill="white" transform="translate(0 0.5)"/>
</clipPath>
</defs>
</svg>
