<svg width="80" height="80" viewBox="0 0 80 80" fill="none" xmlns="http://www.w3.org/2000/svg">
<rect width="80" height="80" rx="40" fill="white"/>
<g clip-path="url(#clip0_13_1443)">
<path d="M58.0437 55.3675C37.8037 65 25.2426 56.9408 17.2018 52.0458C16.7043 51.7373 15.8586 52.1179 16.5924 52.9607C19.2711 56.2088 28.0501 64.0376 39.5091 64.0376C50.9761 64.0376 57.7979 57.7807 58.6512 56.6892C59.4988 55.607 58.9001 55.01 58.0435 55.3675H58.0437ZM63.728 52.2283C63.1845 51.5205 60.423 51.3886 58.6851 51.6021C56.9445 51.8094 54.3319 52.8732 54.559 53.5119C54.6756 53.7512 54.9135 53.6438 56.1092 53.5363C57.3082 53.4167 60.667 52.9928 61.3669 53.9077C62.0701 54.829 60.2957 59.2176 59.9716 59.9254C59.6585 60.6331 60.0912 60.8157 60.6794 60.3443C61.2594 59.873 62.3095 58.6527 63.0142 56.9258C63.7141 55.1894 64.1409 52.7672 63.7278 52.2283H63.728Z" fill="#FF9900"/>
<path fill-rule="evenodd" clip-rule="evenodd" d="M44.4346 35.7125C44.4346 38.2399 44.4984 40.3476 43.221 42.5921C42.1899 44.4172 40.5566 45.5394 38.7318 45.5394C36.2407 45.5394 34.79 43.6415 34.79 40.8404C34.79 35.3109 39.7444 34.3073 44.4346 34.3073V35.7125ZM50.9767 51.5251C50.5478 51.9082 49.9274 51.9357 49.4438 51.6801C47.2905 49.8918 46.9072 49.0616 45.7211 47.3552C42.1626 50.9868 39.6442 52.0725 35.0273 52.0725C29.5709 52.0725 25.3188 48.7056 25.3188 41.9626C25.3188 36.698 28.175 33.112 32.2351 31.3602C35.7572 29.8089 40.6753 29.5352 44.4346 29.1065V28.267C44.4346 26.7249 44.5531 24.9 43.6499 23.5679C42.8559 22.3726 41.3413 21.8799 40.0091 21.8799C37.5365 21.8799 35.3283 23.1481 34.79 25.7759C34.6803 26.36 34.2516 26.9349 33.6677 26.9622L27.3718 26.2871C26.8427 26.1683 26.2588 25.7395 26.4047 24.9273C27.8555 17.2995 34.7442 15 40.9122 15C44.0694 15 48.1935 15.8395 50.6846 18.2302C53.8417 21.1773 53.5405 25.1099 53.5405 29.3892V39.4991C53.5405 42.5375 54.7997 43.8696 55.9858 45.5121C56.4054 46.096 56.4968 46.7988 55.9675 47.2365C54.6445 48.3405 52.2903 50.3936 50.9948 51.5434L50.9765 51.5251" fill="black"/>
<path d="M58.0437 55.3675C37.8037 65 25.2426 56.9408 17.2018 52.0458C16.7043 51.7373 15.8586 52.1179 16.5924 52.9607C19.2711 56.2088 28.0501 64.0376 39.5091 64.0376C50.9761 64.0376 57.7979 57.7807 58.6512 56.6892C59.4988 55.607 58.9001 55.01 58.0435 55.3675H58.0437ZM63.728 52.2283C63.1845 51.5205 60.423 51.3886 58.6851 51.6021C56.9445 51.8094 54.3319 52.8732 54.559 53.5119C54.6756 53.7512 54.9135 53.6438 56.1092 53.5363C57.3082 53.4167 60.667 52.9928 61.3669 53.9077C62.0701 54.829 60.2957 59.2176 59.9716 59.9254C59.6585 60.6331 60.0912 60.8157 60.6794 60.3443C61.2594 59.873 62.3095 58.6527 63.0142 56.9258C63.7141 55.1894 64.1409 52.7672 63.7278 52.2283H63.728Z" fill="#FF9900"/>
<path fill-rule="evenodd" clip-rule="evenodd" d="M44.4346 35.7125C44.4346 38.2399 44.4984 40.3476 43.221 42.5921C42.1899 44.4172 40.5566 45.5394 38.7318 45.5394C36.2407 45.5394 34.79 43.6415 34.79 40.8404C34.79 35.3109 39.7444 34.3073 44.4346 34.3073V35.7125ZM50.9767 51.5251C50.5478 51.9082 49.9274 51.9357 49.4438 51.6801C47.2905 49.8918 46.9072 49.0616 45.7211 47.3552C42.1626 50.9868 39.6442 52.0725 35.0273 52.0725C29.5709 52.0725 25.3188 48.7056 25.3188 41.9626C25.3188 36.698 28.175 33.112 32.2351 31.3602C35.7572 29.8089 40.6753 29.5352 44.4346 29.1065V28.267C44.4346 26.7249 44.5531 24.9 43.6499 23.5679C42.8559 22.3726 41.3413 21.8799 40.0091 21.8799C37.5365 21.8799 35.3283 23.1481 34.79 25.7759C34.6803 26.36 34.2516 26.9349 33.6677 26.9622L27.3718 26.2871C26.8427 26.1683 26.2588 25.7395 26.4047 24.9273C27.8555 17.2995 34.7442 15 40.9122 15C44.0694 15 48.1935 15.8395 50.6846 18.2302C53.8417 21.1773 53.5405 25.1099 53.5405 29.3892V39.4991C53.5405 42.5375 54.7997 43.8696 55.9858 45.5121C56.4054 46.096 56.4968 46.7988 55.9675 47.2365C54.6445 48.3405 52.2903 50.3936 50.9948 51.5434L50.9765 51.5251" fill="black"/>
</g>
<defs>
<clipPath id="clip0_13_1443">
<rect width="50" height="50" fill="white" transform="translate(15 15)"/>
</clipPath>
</defs>
</svg>
