<svg width="151" height="80" viewBox="0 0 151 80" fill="none" xmlns="http://www.w3.org/2000/svg">
<rect x="0.5" width="150" height="80" rx="10" fill="white"/>
<g clip-path="url(#clip0_13_1289)">
<path fill-rule="evenodd" clip-rule="evenodd" d="M85.4448 47.0508C80.6443 50.6041 73.6862 52.5 67.6954 52.5C59.2954 52.5 51.7332 49.3799 46.0121 44.1907C45.5626 43.7827 45.9654 43.2265 46.5048 43.5443C52.6789 47.1519 60.313 49.3222 68.1989 49.3222C73.5172 49.3222 79.3677 48.2172 84.7472 45.9241C85.5599 45.5774 86.2395 46.4585 85.4448 47.0508Z" fill="#FF9900"/>
<path fill-rule="evenodd" clip-rule="evenodd" d="M87.4403 44.7577C86.829 43.9705 83.3841 44.3858 81.8379 44.5699C81.3668 44.6277 81.2949 44.216 81.7192 43.9199C84.4629 41.9807 88.9649 42.5405 89.4899 43.1905C90.0149 43.8441 89.3533 48.3761 86.775 50.5392C86.3795 50.8714 86.0019 50.6944 86.1781 50.2539C86.757 48.8022 88.0552 45.5485 87.4403 44.7577Z" fill="#FF9900"/>
<path fill-rule="evenodd" clip-rule="evenodd" d="M81.946 30.23V28.345C81.946 28.0597 82.1618 27.8683 82.4207 27.8683H90.8243C91.094 27.8683 91.3098 28.0633 91.3098 28.345V29.9592C91.3062 30.23 91.0796 30.5839 90.6769 31.1437L86.3222 37.3873C87.9404 37.3476 89.6485 37.5896 91.1156 38.4201C91.4464 38.6079 91.5363 38.8823 91.5615 39.1532V41.1646C91.5615 41.439 91.2594 41.7604 90.943 41.5943C88.3575 40.2329 84.9234 40.0849 82.0647 41.6088C81.7734 41.7677 81.4678 41.4499 81.4678 41.1754V39.2651C81.4678 38.9582 81.4714 38.4346 81.777 37.9687L86.8221 30.7031H82.4315C82.1618 30.7031 81.946 30.5117 81.946 30.23Z" fill="black"/>
<path fill-rule="evenodd" clip-rule="evenodd" d="M51.2907 41.9915H48.734C48.4895 41.9735 48.2953 41.7893 48.2773 41.5546V28.3775C48.2773 28.1139 48.4967 27.9045 48.77 27.9045H51.1541C51.4022 27.9153 51.6 28.1067 51.6179 28.345V30.0675H51.6647C52.2868 28.4028 53.4554 27.6264 55.0305 27.6264C56.6306 27.6264 57.6303 28.4028 58.3495 30.0675C58.968 28.4028 60.374 27.6264 61.8807 27.6264C62.9522 27.6264 64.1245 28.0706 64.8401 29.0673C65.6492 30.1759 65.4837 31.7864 65.4837 33.1984L65.4802 41.5149C65.4802 41.7785 65.2608 41.9915 64.9875 41.9915H62.4344C62.1791 41.9735 61.9741 41.7677 61.9741 41.5149V34.5309C61.9741 33.9748 62.0245 32.5881 61.9022 32.0609C61.7116 31.1762 61.1399 30.927 60.3991 30.927C59.7806 30.927 59.1334 31.3423 58.8709 32.0067C58.6084 32.6712 58.6336 33.7834 58.6336 34.5309V41.5149C58.6336 41.7785 58.4142 41.9915 58.1409 41.9915H55.5878C55.3289 41.9735 55.1275 41.7677 55.1275 41.5149L55.124 34.5309C55.124 33.0612 55.3649 30.8981 53.5489 30.8981C51.7114 30.8981 51.7834 33.007 51.7834 34.5309V41.5149C51.7834 41.7785 51.564 41.9915 51.2907 41.9915" fill="black"/>
<path fill-rule="evenodd" clip-rule="evenodd" d="M98.5445 27.6264C102.338 27.6264 104.391 30.8981 104.391 35.0581C104.391 39.0774 102.122 42.266 98.5445 42.266C94.8191 42.266 92.791 38.9943 92.791 34.9173C92.791 30.815 94.8443 27.6264 98.5445 27.6264ZM98.566 30.3167C96.6818 30.3167 96.5631 32.8951 96.5631 34.502C96.5631 36.1126 96.5379 39.5504 98.5445 39.5504C100.526 39.5504 100.619 36.7771 100.619 35.087C100.619 33.9748 100.573 32.6459 100.238 31.5914C99.9505 30.6742 99.3787 30.3167 98.566 30.3167Z" fill="black"/>
<path fill-rule="evenodd" clip-rule="evenodd" d="M109.311 41.9915H106.765C106.509 41.9735 106.304 41.7677 106.304 41.5149L106.301 28.3342C106.322 28.0922 106.535 27.9045 106.793 27.9045H109.163C109.386 27.9153 109.569 28.067 109.62 28.2728V30.2878H109.667C110.382 28.4859 111.385 27.6264 113.151 27.6264C114.298 27.6264 115.416 28.0417 116.136 29.1792C116.804 30.2337 116.804 32.0067 116.804 33.2815V41.5763C116.776 41.8074 116.563 41.9915 116.312 41.9915H113.748C113.514 41.9735 113.32 41.8002 113.295 41.5763V34.419C113.295 32.9781 113.46 30.8692 111.695 30.8692C111.073 30.8692 110.501 31.2881 110.217 31.9237C109.857 32.729 109.81 33.5306 109.81 34.419V41.5149C109.807 41.7785 109.584 41.9915 109.311 41.9915" fill="black"/>
<path fill-rule="evenodd" clip-rule="evenodd" d="M75.2468 35.6973C75.2468 36.6976 75.272 37.5318 74.7685 38.4201C74.3622 39.1423 73.7149 39.5865 72.9994 39.5865C72.0177 39.5865 71.4423 38.8354 71.4423 37.7268C71.4423 35.5384 73.3949 35.1412 75.2468 35.1412V35.6973ZM77.8251 41.9554C77.6561 42.1071 77.4115 42.1179 77.221 42.0168C76.3723 41.309 76.2177 40.9804 75.7538 40.3051C74.3514 41.7424 73.3553 42.1721 71.5394 42.1721C69.3855 42.1721 67.7134 40.8396 67.7134 38.1709C67.7134 36.0873 68.8353 34.6681 70.4391 33.9748C71.8271 33.3609 73.7653 33.2526 75.2468 33.0828V32.7506C75.2468 32.1403 75.2935 31.4181 74.934 30.8909C74.6247 30.4178 74.0278 30.2228 73.4992 30.2228C72.5247 30.2228 71.6581 30.7248 71.4459 31.7648C71.4028 31.9959 71.2338 32.2234 71 32.2342L68.5225 31.967C68.3139 31.92 68.0802 31.7503 68.1413 31.4289C68.7094 28.41 71.4279 27.5 73.8588 27.5C75.103 27.5 76.7283 27.8322 77.71 28.7783C78.9542 29.9447 78.8355 31.5012 78.8355 33.1948V37.1959C78.8355 38.3984 79.3317 38.9257 79.7992 39.5757C79.961 39.8068 79.997 40.0849 79.7884 40.2582C79.267 40.6951 78.3393 41.5076 77.8286 41.9627L77.8251 41.9554" fill="black"/>
<path fill-rule="evenodd" clip-rule="evenodd" d="M41.7292 35.6974C41.7292 36.6977 41.7544 37.5319 41.251 38.4202C40.8446 39.1425 40.201 39.5866 39.4818 39.5866C38.5001 39.5866 37.9283 38.8355 37.9283 37.7269C37.9283 35.5385 39.8809 35.1413 41.7292 35.1413V35.6974ZM44.3075 41.9555C44.1385 42.1072 43.8939 42.118 43.7034 42.0169C42.8547 41.3092 42.7037 40.9805 42.2362 40.3053C40.8338 41.7425 39.8414 42.1722 38.0218 42.1722C35.8715 42.1722 34.1958 40.8397 34.1958 38.1711C34.1958 36.0874 35.3213 34.6683 36.9215 33.9749C38.3095 33.361 40.2477 33.2527 41.7292 33.083V32.7507C41.7292 32.1404 41.776 31.4182 41.42 30.891C41.1071 30.4179 40.5102 30.2229 39.9852 30.2229C39.0107 30.2229 38.1405 30.7249 37.9283 31.7649C37.8852 31.996 37.7162 32.2235 37.4861 32.2343L35.0049 31.9671C34.7963 31.9202 34.5662 31.7504 34.6237 31.4291C35.1955 28.4101 37.9104 27.5001 40.3412 27.5001C41.5854 27.5001 43.2107 27.8323 44.1924 28.7785C45.4366 29.9449 45.3179 31.5013 45.3179 33.1949V37.1961C45.3179 38.3986 45.8142 38.9258 46.2816 39.5758C46.447 39.8069 46.483 40.085 46.2744 40.2583C45.753 40.6953 44.8253 41.5078 44.3147 41.9628L44.3075 41.9555" fill="black"/>
</g>
<defs>
<clipPath id="clip0_13_1289">
<rect width="82.6087" height="25" fill="white" transform="translate(34.1958 27.5)"/>
</clipPath>
</defs>
</svg>
