<svg width="80" height="80" viewBox="0 0 80 80" fill="none" xmlns="http://www.w3.org/2000/svg">
<g clip-path="url(#clip0_13_1463)">
<rect width="80" height="80" rx="40" fill="#00A82D"/>
<path d="M30.925 26.3721C30.925 26.8646 30.8851 27.6852 30.405 28.219C29.8847 28.7112 29.0844 28.7525 28.604 28.7525C25.9027 28.7525 22.1556 28.0735 19.6006 29.1218C23.5 22.125 31.054 17.4757 31.005 17.8766C30.645 20.6453 30.925 23.5872 30.925 26.3721ZM39.0081 58.1376C39.0081 54.7312 41.7292 51.9405 45.0905 51.9405C46.091 51.9405 46.8912 52.7614 46.8912 53.7874C46.8912 54.4851 46.5312 55.0596 45.9708 55.3879C45.3608 55.7633 44.5158 55.5881 43.9702 56.0856C43.57 56.4139 43.25 56.9474 43.25 57.5219C43.25 58.1376 43.49 58.7121 43.8901 59.1227C44.6104 59.8613 45.5707 60.2716 46.6113 60.2716C49.3321 60.2716 51.5329 58.0144 51.5329 55.2237C51.5329 52.7201 49.8923 50.5039 47.7316 49.5191C44.4522 47.8372 39.4349 48.7942 39.0482 43.5272C38.4468 46.3129 37.1199 51.2838 33.5259 51.2838C22.6695 51.9452 18.7564 43.1512 18 33.8414C18 31.8306 19.2005 30.4762 20.7211 30.2711C23.4421 30.2711 26.1631 30.2711 28.8842 30.2711C30.2848 30.2711 31.085 29.9014 31.6053 29.4089C32.2857 28.7525 32.4457 27.8084 32.4457 26.7005C32.4457 23.8138 32.4457 19.375 32.4457 18.0408C32.4457 16.2983 33.9662 15.25 35.927 15.25C37.082 15.25 38.166 15.2906 39.2883 15.5783C41.7292 16.1939 42.2495 18.7385 42.2495 18.7385C42.2495 18.7385 46.8513 19.5593 49.1721 19.9697C51.3729 20.3801 56.8151 20.7495 57.8555 26.3721C60.2964 39.7514 58.816 52.7201 58.6959 52.7201C56.9752 65.3608 46.7312 64.745 46.7312 64.745C43.0074 64.745 39.0081 62.2038 39.0081 58.1376ZM51.0129 36.345C49.6924 36.2218 48.572 36.7553 48.1719 37.7813C47.6046 39.2352 53.4538 40.4444 53.4538 38.438C53.2938 37.2888 52.3335 36.5092 51.0129 36.345Z" fill="white"/>
</g>
<defs>
<clipPath id="clip0_13_1463">
<rect width="80" height="80" rx="40" fill="white"/>
</clipPath>
</defs>
</svg>
